<?xml version="1.0" encoding="UTF-8"?> <svg xmlns="http://www.w3.org/2000/svg" id="Layer_1" data-name="Layer 1" viewBox="0 0 582.9 184.88"> <defs> <style>.cls-1{fill:#f9bb10;}.cls-2{fill:#e53c51;}.cls-3{fill:#43af71;}.cls-4{fill:#0f76bc;}.cls-5{fill:#192d5b;}.cls-6{fill:#999;}</style> </defs> <title>logo-fundraising-academy</title> <circle class="cls-1" cx="75.91" cy="23.84" r="11.49"></circle> <path class="cls-2" d="M120,24.59V40.4c-13.88,0-36.21,22.33-36.21,36.21H68C68,62.73,45.68,40.4,31.79,40.4V24.59c15.22,0,33.8,13.72,44.12,29.53C86.24,38.31,104.82,24.59,120,24.59Z"></path> <path class="cls-3" d="M0,79.63l13.69-7.9c6.93,12,37.45,20.19,49.46,13.25l7.9,13.69c-12,6.93-20.19,37.45-13.25,49.47L44.12,156c-7.61-13.17-5-36.12,3.51-53C28.77,102,7.6,92.8,0,79.63Z"></path> <circle class="cls-1" cx="21.4" cy="118.21" r="11.49"></circle> <path class="cls-4" d="M107.7,156,94,148.14c6.94-12-1.24-42.53-13.25-49.46L88.66,85c12,6.94,42.53-1.24,49.47-13.26l13.69,7.9C144.21,92.81,123,102,104.18,103.08,112.71,119.93,115.3,142.87,107.7,156Z"></path> <circle class="cls-1" cx="130.41" cy="118.21" r="11.49"></circle> <path class="cls-5" d="M221.42,35.79h-1l-.34-.34c-.42-.68-1.43-1.1-3.12-1.43a27.35,27.35,0,0,0-5.66-.51h-8.44V54.27a10.65,10.65,0,0,0,.59,4c.51,1,1.1,1.52,1.86,1.52h.42V61h-18.9V59.76h.33c.51,0,.85-.51,1.19-1.52a13.2,13.2,0,0,0,.5-4V12.07a12.9,12.9,0,0,0-.42-4c-.34-1-.76-1.52-1.27-1.52h-.33V5.32h43.89v7.09h-.93a10.61,10.61,0,0,0-4.73-2.62,24.09,24.09,0,0,0-7.43-1H202.85V30h8.44a27.91,27.91,0,0,0,5.66-.42c1.69-.34,2.7-.76,3.12-1.26l.34-.34c0,.08.34.08.84,0,.17.08.17.08.17,0v7.85Z"></path> <path class="cls-5" d="M268.82,57.14v.76L259,61h-1.94V53.94a14.09,14.09,0,0,1-5.15,5.48,14.69,14.69,0,0,1-8,2c-3.63,0-6.42-1.18-8.27-3.63A16,16,0,0,1,232.86,48V25.57a12.83,12.83,0,0,0-.42-4c-.34-1-.76-1.52-1.27-1.52h-.33V18.82h11.73V47a7.82,7.82,0,0,0,2.19,5.83c1.52,1.43,3.8,2.19,6.76,2.19a5.89,5.89,0,0,0,3.37-.93,7,7,0,0,0,2.2-2.53v-26a12.79,12.79,0,0,0-.43-4c-.33-1-.76-1.52-1.26-1.52h-.34V18.82h11.73v30.3c0,1.19.09,2.2.09,3a11.44,11.44,0,0,0,.25,2,11.85,11.85,0,0,0,.68,1.52C268.14,56.13,268.48,56.64,268.82,57.14Z"></path> <path class="cls-5" d="M312.84,59.76V61H299.08V59.76h.34c.5,0,.84-.51,1.18-1.52a12.85,12.85,0,0,0,.51-4V33.51c0-2.62-.43-4.73-1.61-6.25s-2.95-2.36-5.57-2.36c-3.63,0-6.08.84-7.34,2.7V54.27a13.17,13.17,0,0,0,.42,4c.34,1,.76,1.52,1.27,1.52h.33V61H274.86V59.76h.33c.51,0,.85-.51,1.19-1.52a13.2,13.2,0,0,0,.5-4V30.72c0-1.35,0-2.36-.08-3.12a6,6,0,0,0-.26-1.94,3.9,3.9,0,0,0-.59-1.52,5.47,5.47,0,0,0-1.09-1.44v-.76l9.79-3.12h1.94v5.66A11.16,11.16,0,0,1,292.16,20a24.18,24.18,0,0,1,9.28-1.6c3.38,0,5.74,1.27,7.18,3.88s2.19,6,2.19,10.22V54.27a13.5,13.5,0,0,0,.42,4c.34,1,.76,1.52,1.27,1.52Z"></path> <path class="cls-5" d="M356.86,57.14v.76L347.07,61h-1.95V54.53a15,15,0,0,1-5.23,5.06,13.86,13.86,0,0,1-6.83,1.86,16.6,16.6,0,0,1-6.5-1.35,14.81,14.81,0,0,1-5.07-3.8,20.44,20.44,0,0,1-3.21-6,25.41,25.41,0,0,1-1.18-7.77,32.52,32.52,0,0,1,1.35-9.88,24.44,24.44,0,0,1,4.05-7.59,18.19,18.19,0,0,1,14.27-6.67,11.33,11.33,0,0,1,8.35,3.29V12.15c0-1.35,0-2.36-.08-3.12a6,6,0,0,0-.25-1.94,4.24,4.24,0,0,0-.59-1.52,5.33,5.33,0,0,0-1.1-1.43V3.38L352.89.25h1.94V49.12c0,1.19.09,2.2.09,3a11.44,11.44,0,0,0,.25,2,13.31,13.31,0,0,0,.67,1.52C356.18,56.13,356.52,56.64,356.86,57.14Zm-11.74-5.4V26.33a8.59,8.59,0,0,0-3.46-3.88A9.32,9.32,0,0,0,336.35,21a6.23,6.23,0,0,0-3.72,1.26,11,11,0,0,0-2.87,3.63,21.51,21.51,0,0,0-1.85,5.57,38.3,38.3,0,0,0-.68,7.35,28.51,28.51,0,0,0,.76,6.83A19.11,19.11,0,0,0,330.27,51a12.1,12.1,0,0,0,3.55,3.38,9.69,9.69,0,0,0,4.64,1.18,8.57,8.57,0,0,0,4-.93,7,7,0,0,0,2.7-2.53Z"></path> <path class="cls-5" d="M362.43,22.7v-.76l8.44-3.12h1.94l1,6.75a10.59,10.59,0,0,1,3.88-5.23,11.2,11.2,0,0,1,6.75-1.94c2.2,0,3.63.51,4.56,1.69a6.44,6.44,0,0,1,1.43,4.56A4.64,4.64,0,0,1,389.19,28a4.51,4.51,0,0,1-3.38,1.27,5.67,5.67,0,0,1-2.28-.59,25,25,0,0,0-2.19-1.27,12.1,12.1,0,0,0-2.28-1.26,4.61,4.61,0,0,0-2.36-.6,3,3,0,0,0-2.7,1.69l.16.85V54.27a13.13,13.13,0,0,0,.43,4c.33,1,.76,1.52,1.26,1.52h.34V61H362.43V59.76h.34c.51,0,.84-.51,1.18-1.52a12.85,12.85,0,0,0,.51-4V30.72a29.77,29.77,0,0,0-.09-3.12,6,6,0,0,0-.25-1.94,4.06,4.06,0,0,0-.59-1.52A5.31,5.31,0,0,0,362.43,22.7Z"></path> <path class="cls-5" d="M430.38,55.62l1.1,1.35a9.93,9.93,0,0,1-4.05,3.55,17.91,17.91,0,0,1-7.51,1.35,7.29,7.29,0,0,1-4.06-1,7.06,7.06,0,0,1-2.19-3,19.56,19.56,0,0,1-5.32,2.62,22.48,22.48,0,0,1-6.33.93,10.28,10.28,0,0,1-7.26-2.54,8.94,8.94,0,0,1-2.7-6.75,9.83,9.83,0,0,1,4.14-7.93,23,23,0,0,1,11.14-4.48l5.57-.84V29.12a13.92,13.92,0,0,0-1-5.82c-.68-1.52-1.52-2.2-2.7-2.2-3,0-5.15,1-6.25,3.29s-.93,5.15.42,8.87h-9.7a10.36,10.36,0,0,1-.6-6.08,9.1,9.1,0,0,1,3-4.73,15.82,15.82,0,0,1,6.24-2.95,32.93,32.93,0,0,1,9.12-1.1,11,11,0,0,1,8.53,3.54,13.26,13.26,0,0,1,3.29,9.37V51.57a11,11,0,0,0,.67,4,2.72,2.72,0,0,0,2.62,1.61A5.8,5.8,0,0,0,429,56.8,3.62,3.62,0,0,0,430.38,55.62ZM412.91,41.44l-5.57,1.35a8.06,8.06,0,0,0-4,2.45,6.15,6.15,0,0,0-1.61,4.14,5.77,5.77,0,0,0,1.44,4,5.16,5.16,0,0,0,3.8,1.52,27.37,27.37,0,0,0,6.07-.68c0-.33-.08-.59-.08-.84v-12Z"></path> <path class="cls-5" d="M439.09,12.91a6.44,6.44,0,0,1-4.73-1.77,6.43,6.43,0,0,1-1.77-4.73,6.23,6.23,0,0,1,1.77-4.64A6.44,6.44,0,0,1,439.09,0a6.3,6.3,0,0,1,4.72,1.77,6.2,6.2,0,0,1,1.78,4.64,6.4,6.4,0,0,1-1.78,4.73A6.3,6.3,0,0,1,439.09,12.91Zm-6.33,9.79v-.76l9.79-3.12h1.94V54.27a13.17,13.17,0,0,0,.42,4c.34,1,.76,1.52,1.27,1.52h.34V61H432.76V59.76h.34c.5,0,.84-.51,1.18-1.52a13.2,13.2,0,0,0,.5-4V30.72c0-1.35,0-2.36-.08-3.12a6.3,6.3,0,0,0-.25-1.94,4.07,4.07,0,0,0-.6-1.52A5.47,5.47,0,0,0,432.76,22.7Z"></path> <path class="cls-5" d="M451.41,51.91h.93a1.36,1.36,0,0,1,.51.51,1.89,1.89,0,0,1,.42.5,23.64,23.64,0,0,0,4.9,4.39A12.86,12.86,0,0,0,463,59.17v.08h.93a6.43,6.43,0,0,0,5-2,7.75,7.75,0,0,0,1.94-5.57,6.55,6.55,0,0,0-2-4.39,16.13,16.13,0,0,0-5.32-3.89A27.18,27.18,0,0,1,455,37.31c-2.11-2.37-3.2-4.65-3.2-6.84a10.58,10.58,0,0,1,4.22-8.78q4.31-3.28,11.14-3.29a10.9,10.9,0,0,1,5.65,1.6,12.9,12.9,0,0,1,4.56,4.22v3.89h-1c-.09-.17-.09-.26-.26-.34a.64.64,0,0,0-.33-.34,1.57,1.57,0,0,0-.59-.67,4.6,4.6,0,0,0-.6-.68h-.08a1.25,1.25,0,0,0-.25-.34,31.09,31.09,0,0,0-2.79-2.87,8.34,8.34,0,0,0-1.94-1.6,4.58,4.58,0,0,0-2.36-.68,8.73,8.73,0,0,0-5.66,1.78,5.77,5.77,0,0,0-2.19,4.72c0,1.27.93,2.79,2.95,4.48a40,40,0,0,0,8,4.89,16.29,16.29,0,0,1,6.25,5.07,10.35,10.35,0,0,1,2.36,6.58,11.77,11.77,0,0,1-1.1,5.49,12.61,12.61,0,0,1-3.21,4.13,14.33,14.33,0,0,1-4.89,2.7,18.35,18.35,0,0,1-6.33,1,16.37,16.37,0,0,1-7-1.44,12.62,12.62,0,0,1-5-4Z"></path> <path class="cls-5" d="M490.08,12.91a6.42,6.42,0,0,1-4.72-1.77,6.43,6.43,0,0,1-1.77-4.73,6.23,6.23,0,0,1,1.77-4.64A6.42,6.42,0,0,1,490.08,0a6.3,6.3,0,0,1,4.73,1.77,6.23,6.23,0,0,1,1.77,4.64,6.43,6.43,0,0,1-1.77,4.73A6.3,6.3,0,0,1,490.08,12.91Zm-6.33,9.79v-.76l9.79-3.12h1.95V54.27a13.17,13.17,0,0,0,.42,4c.34,1,.76,1.52,1.26,1.52h.34V61H483.75V59.76h.34c.51,0,.85-.51,1.18-1.52a12.85,12.85,0,0,0,.51-4V30.72c0-1.35,0-2.36-.08-3.12a6,6,0,0,0-.26-1.94,4.06,4.06,0,0,0-.59-1.52A5.31,5.31,0,0,0,483.75,22.7Z"></path> <path class="cls-5" d="M541.57,59.76V61H527.81V59.76h.34c.5,0,.84-.51,1.18-1.52a13.2,13.2,0,0,0,.5-4V33.51c0-2.62-.42-4.73-1.6-6.25s-3-2.36-5.57-2.36c-3.63,0-6.08.84-7.34,2.7V54.27a13.17,13.17,0,0,0,.42,4c.33,1,.76,1.52,1.26,1.52h.34V61H503.58V59.76h.34c.51,0,.84-.51,1.18-1.52a12.85,12.85,0,0,0,.51-4V30.72a29.77,29.77,0,0,0-.09-3.12,6,6,0,0,0-.25-1.94,4.06,4.06,0,0,0-.59-1.52,5.31,5.31,0,0,0-1.1-1.44v-.76l9.79-3.12h2v5.66A11.12,11.12,0,0,1,520.89,20a24.14,24.14,0,0,1,9.28-1.6c3.38,0,5.74,1.27,7.17,3.88s2.2,6,2.2,10.22V54.27a13.17,13.17,0,0,0,.42,4c.34,1,.76,1.52,1.27,1.52Z"></path> <path class="cls-5" d="M582.9,18.82v5.4l-8.35.51a12.08,12.08,0,0,1,1.94,7.09,12.56,12.56,0,0,1-4,9.71c-2.7,2.44-6.25,3.71-10.72,3.71h-4.65a4.59,4.59,0,0,0-3.37,1.18,4.44,4.44,0,0,0-1.27,3.29A3.18,3.18,0,0,0,554,52.5a7.84,7.84,0,0,0,4.38.93l7.52-.34c4.64,0,8.27.85,11,2.79a8.5,8.5,0,0,1,4.22,7.51,15.78,15.78,0,0,1-1.68,7.43,16.79,16.79,0,0,1-4.9,5.74A25.94,25.94,0,0,1,567,80.18a35.58,35.58,0,0,1-9.88,1.36A16.63,16.63,0,0,1,547.45,79a8,8,0,0,1-3.63-6.66,12.44,12.44,0,0,1,1.77-6.59A13.8,13.8,0,0,1,550.66,61a10,10,0,0,1-3.46-3,8.11,8.11,0,0,1-1.27-4.48,9.18,9.18,0,0,1,2.28-6.41,10.52,10.52,0,0,1,6.42-3.29,13.08,13.08,0,0,1-5.57-4.65,13.31,13.31,0,0,1-2-7.34,14.29,14.29,0,0,1,1-5.49,13.15,13.15,0,0,1,3-4.22,15,15,0,0,1,4.64-2.7,17.33,17.33,0,0,1,6-1,15.73,15.73,0,0,1,9.53,2.79Zm-29.37,43.3a10,10,0,0,0-2.36,3.72,14.39,14.39,0,0,0-.93,5.31,7.34,7.34,0,0,0,2.11,5.57,8.49,8.49,0,0,0,5.82,2.11,26.05,26.05,0,0,0,6.59-.76A15.37,15.37,0,0,0,569.82,76,11.08,11.08,0,0,0,573,72.59a7.94,7.94,0,0,0,1.18-4.31c0-1.85-.93-3.2-3-4.3a15.58,15.58,0,0,0-7.93-1.69l-4.39.25A28.33,28.33,0,0,1,553.53,62.12Zm2.62-30.3A19,19,0,0,0,557.66,40c1.1,2,2.45,3.12,4.06,3.12s3-1.1,4-3.12a18.94,18.94,0,0,0,1.52-8.19,18.25,18.25,0,0,0-1.52-8.1c-1-2.11-2.37-3.13-4-3.13s-2.87.93-4,3A18.62,18.62,0,0,0,556.15,31.82Z"></path> <path class="cls-5" d="M237.28,131.73V133H218v-1.27h.25c.51,0,.68-.34.51-1.18a10.49,10.49,0,0,0-1.1-3.38l-7.34-15.78-16.63,5.91-.09-.17L190.77,125h.09a17.25,17.25,0,0,0-1.18,4.89c0,1.18.25,1.86.84,1.86h.34V133h-9v-1.27h.25c.51,0,1.1-.51,1.77-1.52a15.6,15.6,0,0,0,2-4H186L205.12,76h3.46l23.89,50.22a29.7,29.7,0,0,0,2.36,4c.85,1,1.52,1.52,2.11,1.52Zm-30.05-27.09-5.06-10.89-6,16.54Z"></path> <path class="cls-5" d="M272.91,119.58a31.73,31.73,0,0,1-3.46,5.65,26.27,26.27,0,0,1-4.39,4.31,20.81,20.81,0,0,1-4.89,2.87,13.68,13.68,0,0,1-5.07,1,18.5,18.5,0,0,1-7.25-1.44,17.74,17.74,0,0,1-5.58-4,20.92,20.92,0,0,1-3.63-6.25,25.57,25.57,0,0,1-1.35-8.1,28.33,28.33,0,0,1,1.52-9.54,22.76,22.76,0,0,1,4.39-7.34A20.23,20.23,0,0,1,250,92.06a21.84,21.84,0,0,1,8.86-1.69c4,0,7.18.76,9.71,2.45a8.31,8.31,0,0,1,4.3,6.5,4.11,4.11,0,0,1-1.18,3.12,4.19,4.19,0,0,1-3.12,1.18,4.82,4.82,0,0,1-3.38-1.26,6.23,6.23,0,0,1-1.52-3.46,6.18,6.18,0,0,0-1.85-4.22,5.23,5.23,0,0,0-4.05-1.61,7.39,7.39,0,0,0-4.14,1.18,11,11,0,0,0-3.29,3.46,19.44,19.44,0,0,0-2,5.32,29.32,29.32,0,0,0-.76,6.92,21.72,21.72,0,0,0,1.1,7.18,17.86,17.86,0,0,0,3.21,5.57,14.45,14.45,0,0,0,4.89,3.54,15.72,15.72,0,0,0,6.42,1.27c1.35,0,2.7-.84,4.22-2.36a22.07,22.07,0,0,0,4.22-6.25Z"></path> <path class="cls-5" d="M315.12,127.59l1.1,1.36a10,10,0,0,1-4.05,3.54,18,18,0,0,1-7.52,1.35,7.27,7.27,0,0,1-4-1,7,7,0,0,1-2.19-3,19.56,19.56,0,0,1-5.32,2.62,22.48,22.48,0,0,1-6.33.93,10.32,10.32,0,0,1-7.26-2.53,9,9,0,0,1-2.7-6.76,9.84,9.84,0,0,1,4.14-7.93,22.93,22.93,0,0,1,11.14-4.47l5.57-.85v-9.79a13.92,13.92,0,0,0-1-5.82c-.68-1.52-1.52-2.2-2.71-2.2-3,0-5.14,1-6.24,3.29s-.93,5.15.42,8.87H278.4a10.43,10.43,0,0,1-.59-6.08,9.1,9.1,0,0,1,3-4.73,15.82,15.82,0,0,1,6.24-3,32.93,32.93,0,0,1,9.12-1.1,11,11,0,0,1,8.52,3.55,13.18,13.18,0,0,1,3.3,9.37v20.25a11,11,0,0,0,.67,4,2.72,2.72,0,0,0,2.62,1.61,6,6,0,0,0,2.53-.42A3.74,3.74,0,0,0,315.12,127.59Zm-17.47-14.18-5.57,1.36a7.93,7.93,0,0,0-4.05,2.44,6.15,6.15,0,0,0-1.61,4.14,5.77,5.77,0,0,0,1.44,4.05,5.16,5.16,0,0,0,3.8,1.52,26.79,26.79,0,0,0,6.07-.68c0-.33-.08-.59-.08-.84v-12Z"></path> <path class="cls-5" d="M356.81,129.11v.76L347,133h-1.94v-6.5a15,15,0,0,1-5.23,5.06,13.87,13.87,0,0,1-6.84,1.86,16.68,16.68,0,0,1-6.5-1.35,14.78,14.78,0,0,1-5.06-3.8,20.21,20.21,0,0,1-3.21-6,25.41,25.41,0,0,1-1.18-7.77,32.41,32.41,0,0,1,1.35-9.87,24,24,0,0,1,4-7.6,18.15,18.15,0,0,1,14.26-6.67,11.33,11.33,0,0,1,8.36,3.29V84.13c0-1.35,0-2.37-.08-3.13a6,6,0,0,0-.26-1.94,4.06,4.06,0,0,0-.59-1.52,5.28,5.28,0,0,0-1.1-1.43v-.76l9.8-3.13h1.94V121.1c0,1.18.08,2.19.08,3a13.68,13.68,0,0,0,.25,2,12.67,12.67,0,0,0,.68,1.52C356.14,128.1,356.47,128.61,356.81,129.11Zm-11.73-5.4V98.31a8.62,8.62,0,0,0-3.46-3.89A9.33,9.33,0,0,0,336.3,93a6.18,6.18,0,0,0-3.71,1.26,10.74,10.74,0,0,0-2.87,3.63,21.5,21.5,0,0,0-1.86,5.57,39.16,39.16,0,0,0-.67,7.35,28.51,28.51,0,0,0,.76,6.83,19.1,19.1,0,0,0,2.27,5.32,12.35,12.35,0,0,0,3.55,3.38,9.69,9.69,0,0,0,4.64,1.18,8.61,8.61,0,0,0,4-.93,7.12,7.12,0,0,0,2.7-2.53Z"></path> <path class="cls-5" d="M397,119.58a32.06,32.06,0,0,1-3.54,5.65,26.65,26.65,0,0,1-4.39,4.31,19.2,19.2,0,0,1-4.9,2.87,14.18,14.18,0,0,1-5.23,1,19,19,0,0,1-7.34-1.44,18.33,18.33,0,0,1-5.74-4,20.71,20.71,0,0,1-3.63-6.25,25.29,25.29,0,0,1-1.35-8.1,30.53,30.53,0,0,1,1.43-9.54,23.51,23.51,0,0,1,4-7.34,18,18,0,0,1,6.24-4.73,19,19,0,0,1,8.19-1.69,16.88,16.88,0,0,1,6.67,1.18,14.08,14.08,0,0,1,5.15,3.55,15,15,0,0,1,3.29,5.48,18.85,18.85,0,0,1,1.18,7.09H371.25c0,.34-.08.68-.08,1.1V110a21.72,21.72,0,0,0,1.09,7.18,18.21,18.21,0,0,0,3.29,5.57,14.9,14.9,0,0,0,5,3.54,16.86,16.86,0,0,0,6.59,1.27c1.35,0,2.87-.84,4.39-2.36a24.25,24.25,0,0,0,4.3-6.25ZM371.42,105.9l12.15-1.35a5.07,5.07,0,0,0,3-1.6,4.72,4.72,0,0,0,1.27-3.29v-.09a5.71,5.71,0,0,0-2.11-4.72,8.14,8.14,0,0,0-5.57-1.78,6.67,6.67,0,0,0-5.83,3.46C372.85,98.81,371.92,101.94,371.42,105.9Z"></path> <path class="cls-5" d="M465.46,131.73V133H451.78v-1.27H452c.5,0,.93-.34,1.18-1.18a11.43,11.43,0,0,0,.59-3.38l-.08-21.69a8.44,8.44,0,0,0-2.2-6.25A7.36,7.36,0,0,0,446,96.87a15.14,15.14,0,0,0-5.23.76,5,5,0,0,0-2.79,2.11,19.64,19.64,0,0,1,.51,4.73v21.77a13.17,13.17,0,0,0,.42,4c.34,1,.76,1.52,1.27,1.52h.33V133H426.72v-1.27h.33c.51,0,.85-.51,1.18-1.52a12.85,12.85,0,0,0,.51-4V105.48a9.5,9.5,0,0,0-2.19-6.67,6.76,6.76,0,0,0-5.41-2.53c-3.88,0-6.49,1-7.76,3v26.92a13.17,13.17,0,0,0,.42,4c.34,1,.76,1.52,1.27,1.52h.34V133H401.65v-1.27H402c.51,0,.85-.51,1.19-1.52a13.2,13.2,0,0,0,.5-4V102.69c0-1.35,0-2.36-.08-3.12a6.3,6.3,0,0,0-.25-1.94,4.07,4.07,0,0,0-.6-1.52,5.28,5.28,0,0,0-1.09-1.43v-.76l9.79-3.13h1.94v5.49a11,11,0,0,1,5.49-4.3,25.07,25.07,0,0,1,9.87-1.61,7.61,7.61,0,0,1,4.9,1.77,11.36,11.36,0,0,1,3.54,4.9,10.26,10.26,0,0,1,5.49-4.9,27.49,27.49,0,0,1,10.8-1.77,7.76,7.76,0,0,1,4,1,8.81,8.81,0,0,1,3.21,2.87,12.82,12.82,0,0,1,2.11,4.39,20.55,20.55,0,0,1,.76,5.83v22.87a14.24,14.24,0,0,0,.5,3.21c.34.76.68,1.18,1.18,1.18Z"></path> <path class="cls-5" d="M508.85,90.79v1.27h-.26c-.5,0-1,.34-1.68,1.18a15.25,15.25,0,0,0-2,3.21l-16.2,37.39-2.28,5.23c-2,4.81-4.22,8.28-6.75,10.3a13.88,13.88,0,0,1-9.2,3,7.67,7.67,0,0,1-4.56-1.18A3.85,3.85,0,0,1,464.2,148a3.7,3.7,0,0,1,1.35-3,5.39,5.39,0,0,1,3.54-1.1,4.17,4.17,0,0,1,1.77.34,8,8,0,0,1,1.86.68c.68.25,1.35.5,1.94.76a7.9,7.9,0,0,0,1.86.34,5.09,5.09,0,0,0,3.88-1.78,19.41,19.41,0,0,0,3.55-6l2.61-5.74L470.78,97.55a20.5,20.5,0,0,0-2.28-4c-.67-1-1.35-1.52-1.94-1.52h-.25V90.79h14.51v1.27h-.16c-.34,0-.51.51-.34,1.52a35.37,35.37,0,0,0,1.43,4l10.3,23.88,9.45-23.88a19.17,19.17,0,0,0,1.19-4c.25-1,.16-1.52-.26-1.52h-.25V90.79h6.67Z"></path> <path class="cls-6" d="M204.77,177c0,4.46-3.05,7.51-8.83,7.51h-9.12V159h9.33c4.31,0,7,2.69,7,6.14a5.54,5.54,0,0,1-3.34,5.14A6.53,6.53,0,0,1,204.77,177Zm-13-13.68v5.6h3.44c2.16,0,3.24-1.18,3.24-2.83s-1.12-2.77-3.31-2.77Zm8.15,13.18c0-2.23-1.37-3.77-4.31-3.77h-3.84v7.47h3.91C198.52,180.21,199.89,178.77,199.89,176.51Z"></path> <path class="cls-6" d="M232.92,176.08h-3.8v8.44H224.2V159h8.94c5.42,0,9,3.45,9,8.66a7.71,7.71,0,0,1-4.71,7.57l6,9.27h-5.24Zm-3.8-4.27h3.52c2.69,0,4.52-1.15,4.52-4.13s-1.83-4.13-4.52-4.13h-3.52Z"></path> <path class="cls-6" d="M278.89,179.92H268l-1.69,4.6H261l9.8-25.5h5.21l9.84,25.5h-5.31Zm-1.65-4.52-3.77-10.27L269.7,175.4Z"></path> <path class="cls-6" d="M303,178.52l4-1.83a5.21,5.21,0,0,0,4.92,3.74c2,0,3.74-1.05,3.74-3.27,0-1.87-1.12-2.7-3.7-3.74l-1.62-.61c-3.48-1.4-6.35-3.34-6.35-7.22,0-4.27,3.55-6.93,7.86-6.93a8.65,8.65,0,0,1,8.19,5.39l-3.66,2c-1.08-2-2.48-3.06-4.35-3.06s-3.2.9-3.2,2.59c0,1.33.76,2.37,3.56,3.45l1.72.68c4.46,1.79,6.68,3.81,6.68,7.43,0,5.18-4.52,7.69-8.8,7.69C307.47,184.88,303.84,182.26,303,178.52Z"></path> <path class="cls-6" d="M340,159h4.92v25.5H340Z"></path> <path class="cls-6" d="M379.9,180v4.52H365V159H370v21Z"></path> </svg> 