<svg id="Layer_1" data-name="Layer 1" xmlns="http://www.w3.org/2000/svg" xmlns:xlink="http://www.w3.org/1999/xlink" viewBox="0 0 829.93 231.26"><defs><style>.cls-1{fill:url(#linear-gradient);}.cls-2{fill:url(#linear-gradient-2);}.cls-3{fill:url(#linear-gradient-3);}.cls-4{fill:url(#linear-gradient-4);}.cls-5{fill:url(#linear-gradient-5);}.cls-6{fill:url(#linear-gradient-6);}.cls-7{fill:url(#linear-gradient-7);}</style><linearGradient id="linear-gradient" y1="115.63" x2="829.93" y2="115.63" gradientUnits="userSpaceOnUse"><stop offset="0" stop-color="#ff00c5"/><stop offset="1" stop-color="#ff434d"/></linearGradient><linearGradient id="linear-gradient-2" x1="1427.07" y1="69.17" x2="1427.07" y2="150.78" gradientTransform="translate(-380.74 1666.25) rotate(-58.88)" xlink:href="#linear-gradient"/><linearGradient id="linear-gradient-3" x1="733.15" y1="622.82" x2="733.15" y2="653.4" xlink:href="#linear-gradient"/><linearGradient id="linear-gradient-4" x1="830.81" y1="410.98" x2="830.81" y2="464.48" gradientTransform="matrix(0.99, -0.13, 0.13, 0.99, -63, 206.21)" xlink:href="#linear-gradient"/><linearGradient id="linear-gradient-5" x1="890.29" y1="432.05" x2="890.29" y2="468.64" xlink:href="#linear-gradient"/><linearGradient id="linear-gradient-6" x1="-558.78" y1="-8.57" x2="-558.78" y2="22.48" gradientTransform="matrix(0.21, -0.98, 0.98, 0.21, 331.31, -87.29)" xlink:href="#linear-gradient"/><linearGradient id="linear-gradient-7" x1="94.97" y1="532.41" x2="94.97" y2="589.42" xlink:href="#linear-gradient"/></defs><title>Background - Página de Obrigado</title><rect class="cls-1" width="829.93" height="231.26"/><path class="cls-2" d="M469,466l-.48,1.15q-.09.15-.21.12a.29.29,0,0,1-.17-.21,7.15,7.15,0,0,0-3.54-5.14q-6-3.65-10.11,3.12a20.86,20.86,0,0,0-1.23,2.4L448.57,478c-1.48,3.34-2,6.19-1.46,8.56l-27-12.14c.34.26.15.25,0,.3a.69.69,0,0,0-.45.33l-4.34,7.18a.73.73,0,0,0-.08.56.54.54,0,0,0,.36.4l1.15.47a.11.11,0,0,1,0,.17c-.06.11-.32.22-.77.33a7.27,7.27,0,0,0-4.5,3.43q-3.63,6,3.12,10.1a20.76,20.76,0,0,0,2.4,1.24l10.53,4.71c3.34,1.48,6.19,2,8.56,1.46L424,532.06c.26-.33.25-.14.3.06a.7.7,0,0,0,.34.45l7.17,4.33a.7.7,0,0,0,.56.09.54.54,0,0,0,.4-.37l.48-1.14a.1.1,0,0,1,.16,0c.11.06.22.32.33.77a7.27,7.27,0,0,0,3.43,4.5q6,3.63,10.1-3.12a20.76,20.76,0,0,0,1.24-2.4l4.71-10.53c1.51-3.42,2-6.31,1.43-8.7l26.45,11.94a1.08,1.08,0,0,0,.59,0,.68.68,0,0,0,.45-.34l4.37-7.23a.63.63,0,0,0,.07-.53.58.58,0,0,0-.39-.37L485,519q-.15-.09-.12-.21a.27.27,0,0,1,.21-.17,7.15,7.15,0,0,0,5.14-3.54q3.63-6-3.12-10.11a20.86,20.86,0,0,0-2.4-1.23L474.21,499c-3.41-1.51-6.31-2-8.7-1.43l11.94-26.45a1,1,0,0,0,0-.59.68.68,0,0,0-.34-.45l-7.23-4.37a.63.63,0,0,0-.53-.07A.58.58,0,0,0,469,466Zm-47.67,23.49a1.39,1.39,0,0,1,0-1.48,2.12,2.12,0,0,1,1.48-1,3.32,3.32,0,0,1,2.09.33l9,4.1a1.73,1.73,0,0,1,.56.26,2.26,2.26,0,0,1,1,1.19,1.59,1.59,0,0,1-.17,1.4,1.92,1.92,0,0,1-1.4.91,3.44,3.44,0,0,1-2.07-.36l-9.07-4A3.2,3.2,0,0,1,421.35,489.53Zm23.41,28.68a3.44,3.44,0,0,1-.36,2.07l-4,9.07a3.2,3.2,0,0,1-1.28,1.52,1.39,1.39,0,0,1-1.48,0,2.17,2.17,0,0,1-1-1.48,3.32,3.32,0,0,1,.33-2.09l4.1-9a2.08,2.08,0,0,1,.26-.55,2.21,2.21,0,0,1,1.19-1,1.61,1.61,0,0,1,1.41.16A2,2,0,0,1,444.76,518.21Zm35.66-5.08a1.39,1.39,0,0,1,0,1.48,2.16,2.16,0,0,1-1.48,1,3.32,3.32,0,0,1-2.09-.33l-9-4.1a2.48,2.48,0,0,1-.55-.26,2.23,2.23,0,0,1-1-1.2,1.62,1.62,0,0,1,.16-1.4,2,2,0,0,1,1.41-.9,3.3,3.3,0,0,1,2.07.36l9.07,4A3.24,3.24,0,0,1,480.42,513.13ZM465.2,473.32a3.33,3.33,0,0,1-.33,2.09l-4.1,9a2.11,2.11,0,0,1-.26.56,2.27,2.27,0,0,1-1.2,1,1.59,1.59,0,0,1-1.4-.17,1.91,1.91,0,0,1-.9-1.4,3.3,3.3,0,0,1,.36-2.07l4-9.07a3.24,3.24,0,0,1,1.27-1.52,1.39,1.39,0,0,1,1.48,0A2.14,2.14,0,0,1,465.2,473.32Z" transform="translate(-72.42 -422.14)"/><path class="cls-3" d="M752.12,644.34a10.44,10.44,0,0,0-1.31-.51L745.1,642a7.35,7.35,0,0,0-4.51-.3l4.83-14.61c-.11.19-.12.09-.16,0a.35.35,0,0,0-.19-.22l-4-1.86a.39.39,0,0,0-.3,0,.25.25,0,0,0-.18.21l-.19.62s0,.05-.08,0-.13-.16-.21-.38a3.8,3.8,0,0,0-2-2.15q-3.32-1.56-5.07,2.16a11.16,11.16,0,0,0-.51,1.31l-1.87,5.71a7.42,7.42,0,0,0-.29,4.51l-14.61-4.83c.18.11.08.12,0,.15a.35.35,0,0,0-.21.2l-1.86,4a.33.33,0,0,0,0,.29.26.26,0,0,0,.21.19l.61.19s0,0,0,.08-.15.13-.38.21a3.82,3.82,0,0,0-2.14,2q-1.56,3.32,2.16,5.06a10.52,10.52,0,0,0,1.31.51l5.7,1.88a7.43,7.43,0,0,0,4.59.27l-2.08,6.26H729a1.2,1.2,0,0,1,.57-.6.82.82,0,0,1,.73,0,1,1,0,0,1,.51.6h5.26a5.24,5.24,0,0,0-.24-1.62l4.88,1.62h11.36l.5-1a.34.34,0,0,0,0-.28.3.3,0,0,0-.22-.17l-.62-.19c-.06,0-.08-.06-.07-.1a.15.15,0,0,1,.09-.1,3.71,3.71,0,0,0,2.48-2.11Q755.84,646.09,752.12,644.34Zm-27.36-2.74a1,1,0,0,1-.68.55,1.8,1.8,0,0,1-1.09-.07l-4.92-1.61a1.69,1.69,0,0,1-.85-.58.72.72,0,0,1-.06-.77,1.11,1.11,0,0,1,.71-.61,1.62,1.62,0,0,1,1.1.06l4.9,1.63a.93.93,0,0,1,.3.11,1.14,1.14,0,0,1,.6.56A.82.82,0,0,1,724.76,641.6ZM739,630.23l-1.63,4.9a1.26,1.26,0,0,1-.11.3,1.14,1.14,0,0,1-.56.6.84.84,0,0,1-.74,0,1,1,0,0,1-.54-.68,1.81,1.81,0,0,1,.07-1.09l1.61-4.91a1.62,1.62,0,0,1,.58-.86.7.7,0,0,1,.76-.06,1.1,1.1,0,0,1,.62.71A1.75,1.75,0,0,1,739,630.23Zm10.15,19.47a1.14,1.14,0,0,1-.71.61,1.62,1.62,0,0,1-1.1-.06l-4.9-1.63a1.05,1.05,0,0,1-.31-.11,1.16,1.16,0,0,1-.59-.56.82.82,0,0,1,0-.73,1,1,0,0,1,.68-.55,1.74,1.74,0,0,1,1.09.08l4.91,1.6a1.68,1.68,0,0,1,.86.58A.76.76,0,0,1,749.14,649.7Z" transform="translate(-72.42 -422.14)"/><path class="cls-4" d="M844.64,522.88l-.78.23q-.12,0-.15-.06a.16.16,0,0,1,0-.17,4.72,4.72,0,0,0,1.17-3.93c-.42-3-2.33-4.34-5.75-3.87a13.45,13.45,0,0,0-1.74.36l-7.31,1.92a9.39,9.39,0,0,0-5,2.77l-4.89-18.75c0,.28-.07.18-.17.1a.47.47,0,0,0-.36-.1l-5.45.74a.45.45,0,0,0-.31.19.36.36,0,0,0-.06.35l.23.78c0,.05,0,.08-.07.09s-.24-.08-.48-.26a4.8,4.8,0,0,0-3.6-.89c-3,.42-4.34,2.33-3.88,5.75a15,15,0,0,0,.36,1.74l1.92,7.31a9.33,9.33,0,0,0,2.78,5L792.42,527c.27,0,.17.07.09.17a.47.47,0,0,0-.09.36l.74,5.45a.44.44,0,0,0,.18.31.37.37,0,0,0,.35.06l.78-.23c.06,0,.09,0,.09.07s-.07.24-.26.48a4.75,4.75,0,0,0-.88,3.6q.62,4.58,5.75,3.88a15.28,15.28,0,0,0,1.73-.36l7.31-1.92a9.28,9.28,0,0,0,5-2.85L818,554.48a.63.63,0,0,0,.22.31.47.47,0,0,0,.36.09l5.49-.74a.43.43,0,0,0,.3-.18.39.39,0,0,0,0-.35l-.23-.78q0-.12.06-.15a.16.16,0,0,1,.17,0,4.7,4.7,0,0,0,3.93,1.16c3-.41,4.34-2.33,3.87-5.75a13,13,0,0,0-.36-1.73l-1.92-7.31a9.16,9.16,0,0,0-2.85-5l18.42-4.78a.63.63,0,0,0,.31-.22.48.48,0,0,0,.1-.36l-.75-5.49a.43.43,0,0,0-.18-.3A.39.39,0,0,0,844.64,522.88ZM813.05,508.2a.92.92,0,0,1,.77-.59,1.41,1.41,0,0,1,1.13.33,2.11,2.11,0,0,1,.69,1.21l1.63,6.29a1.25,1.25,0,0,1,.09.4,1.42,1.42,0,0,1-.18,1,1,1,0,0,1-.79.49,1.25,1.25,0,0,1-1-.34,2.27,2.27,0,0,1-.67-1.2L813,509.5A2.09,2.09,0,0,1,813.05,508.2ZM808,532a2.27,2.27,0,0,1-1.2.67l-6.29,1.66a2,2,0,0,1-1.3,0,.89.89,0,0,1-.59-.77,1.38,1.38,0,0,1,.33-1.13,2.11,2.11,0,0,1,1.2-.69l6.3-1.63a1.17,1.17,0,0,1,.39-.09,1.49,1.49,0,0,1,1,.18,1.06,1.06,0,0,1,.49.79A1.29,1.29,0,0,1,808,532Zm17.26,16.11a.9.9,0,0,1-.77.59,1.39,1.39,0,0,1-1.14-.33,2.17,2.17,0,0,1-.69-1.2l-1.62-6.3a1.31,1.31,0,0,1-.1-.39,1.49,1.49,0,0,1,.19-1,1.06,1.06,0,0,1,.78-.49,1.28,1.28,0,0,1,1,.35,2.27,2.27,0,0,1,.67,1.2l1.66,6.29A2.09,2.09,0,0,1,825.29,548.06Zm14.07-24.14a2.11,2.11,0,0,1-1.21.69l-6.29,1.63a2.24,2.24,0,0,1-.4.09,1.47,1.47,0,0,1-1-.19,1,1,0,0,1-.49-.78,1.24,1.24,0,0,1,.34-1,2.26,2.26,0,0,1,1.21-.67L837.8,522a2.1,2.1,0,0,1,1.3,0,.92.92,0,0,1,.59.77A1.39,1.39,0,0,1,839.36,523.92Z" transform="translate(-72.42 -422.14)"/><path class="cls-5" d="M902.36,442.31l-.41.7a.88.88,0,0,1-.15.24,1.06,1.06,0,0,1-.61.42.78.78,0,0,1-.64-.14.93.93,0,0,1-.34-.7,1.52,1.52,0,0,1,.26-.94l1.89-3.24v-6.6a4,4,0,0,0-2.35,1.7,10.55,10.55,0,0,0-.69,1.05l-2.7,4.63a6.65,6.65,0,0,0-1.09,3.89l-11.86-6.94c.14.13.05.12,0,.13a.36.36,0,0,0-.23.13l-2.35,3.11a.32.32,0,0,0-.07.25.24.24,0,0,0,.15.2l.5.28a0,0,0,0,1,0,.08s-.15.08-.37.11A3.4,3.4,0,0,0,879,442q-2,2.61,1,4.83a8.68,8.68,0,0,0,1,.69l4.63,2.69a6.55,6.55,0,0,0,3.88,1.1l-6.94,11.86c.14-.14.12-.05.13,0a.33.33,0,0,0,.14.22l3.1,2.36a.33.33,0,0,0,.25.07.25.25,0,0,0,.21-.15l.27-.51a.05.05,0,0,1,.08,0c.05,0,.08.16.11.37a3.37,3.37,0,0,0,1.37,2.25q2.6,2,4.82-.94a10.6,10.6,0,0,0,.69-1l2.7-4.63a6.62,6.62,0,0,0,1.09-4l4.81,2.82Zm-13.31,4.35a1.62,1.62,0,0,1-.94-.26l-4-2.32a1.47,1.47,0,0,1-.63-.67.63.63,0,0,1,.09-.68,1,1,0,0,1,.73-.4,1.5,1.5,0,0,1,1,.25l4,2.34a1.07,1.07,0,0,1,.25.15,1.13,1.13,0,0,1,.42.61.73.73,0,0,1-.15.63A.87.87,0,0,1,889.05,446.66Zm3.56,12.1-2.32,4a1.48,1.48,0,0,1-.66.64.65.65,0,0,1-.68-.09,1,1,0,0,1-.41-.73,1.51,1.51,0,0,1,.26-.95l2.34-4a1.34,1.34,0,0,1,.15-.24,1,1,0,0,1,.6-.42.75.75,0,0,1,.64.15.9.9,0,0,1,.35.69A1.58,1.58,0,0,1,892.61,458.76Z" transform="translate(-72.42 -422.14)"/><path class="cls-6" d="M223.91,445.76l0,.47a.07.07,0,0,1-.06.07.09.09,0,0,1-.08-.06,2.71,2.71,0,0,0-1.92-1.4c-1.74-.38-2.82.42-3.24,2.38a8.48,8.48,0,0,0-.15,1l-.38,4.37a5.47,5.47,0,0,0,.54,3.26l-11.2-1c.15.05.08.07,0,.11a.23.23,0,0,0-.12.18l-.67,3.12a.32.32,0,0,0,0,.21.24.24,0,0,0,.18.1l.47,0s.05,0,0,.06-.09.12-.24.21a2.77,2.77,0,0,0-1.19,1.8q-.55,2.61,2.38,3.24a6.43,6.43,0,0,0,1,.14l4.37.39a5.49,5.49,0,0,0,3.26-.54l-1,11.2c.05-.16.07-.08.12,0a.23.23,0,0,0,.17.12l3.12.67a.3.3,0,0,0,.21,0,.21.21,0,0,0,.1-.18l0-.47s0-.05.06,0,.11.09.21.24a2.81,2.81,0,0,0,1.79,1.19c1.75.37,2.83-.43,3.25-2.38a10,10,0,0,0,.14-1l.38-4.37a5.31,5.31,0,0,0-.57-3.31l11,1a.43.43,0,0,0,.22-.06.3.3,0,0,0,.12-.17l.67-3.15a.28.28,0,0,0,0-.2.26.26,0,0,0-.19-.08l-.47,0s-.07,0-.07-.06,0-.06.06-.09a2.71,2.71,0,0,0,1.4-1.91q.56-2.62-2.38-3.25a6.82,6.82,0,0,0-1-.14l-4.37-.38a5.38,5.38,0,0,0-3.31.56l1-11a.43.43,0,0,0-.06-.22.29.29,0,0,0-.18-.12l-3.14-.67a.27.27,0,0,0-.2,0A.23.23,0,0,0,223.91,445.76ZM209.7,460.14a.53.53,0,0,1-.17-.54.85.85,0,0,1,.4-.56,1.3,1.3,0,0,1,.8-.14l3.75.35a.59.59,0,0,1,.24,0,.78.78,0,0,1,.52.3.6.6,0,0,1,.11.52.72.72,0,0,1-.39.5,1.34,1.34,0,0,1-.79.13l-3.76-.32A1.32,1.32,0,0,1,209.7,460.14Zm12,7.39a1.34,1.34,0,0,1,.13.79l-.33,3.76a1.18,1.18,0,0,1-.27.71.53.53,0,0,1-.53.17.83.83,0,0,1-.56-.4,1.23,1.23,0,0,1-.14-.8l.35-3.76a.71.71,0,0,1,0-.23.87.87,0,0,1,.3-.52.62.62,0,0,1,.53-.11A.72.72,0,0,1,221.69,467.53Zm12.18-6.26a.53.53,0,0,1,.18.53.84.84,0,0,1-.41.56,1.27,1.27,0,0,1-.79.14l-3.76-.35a.68.68,0,0,1-.23,0,.87.87,0,0,1-.52-.3.63.63,0,0,1-.12-.53.76.76,0,0,1,.4-.5,1.33,1.33,0,0,1,.79-.13l3.76.33A1.15,1.15,0,0,1,233.87,461.27Zm-10.42-12.42a1.34,1.34,0,0,1,.14.79l-.35,3.76a1.07,1.07,0,0,1-.33.75.57.57,0,0,1-.52.11.72.72,0,0,1-.5-.39,1.25,1.25,0,0,1-.13-.79l.32-3.76a1.32,1.32,0,0,1,.27-.71.57.57,0,0,1,.54-.17A.86.86,0,0,1,223.45,448.85Z" transform="translate(-72.42 -422.14)"/><path class="cls-7" d="M114.53,545.7a.45.45,0,0,0-.3-.24.41.41,0,0,0-.38.1l-.74.54c-.08,0-.13,0-.18,0a.18.18,0,0,1,0-.19,5.27,5.27,0,0,0-.3-4.59q-2.43-4.56-7.55-1.84a14,14,0,0,0-1.69,1l-6.94,4.86a10.52,10.52,0,0,0-4.16,4.85L79.85,532.41c.11.29,0,.21-.15.17a.53.53,0,0,0-.41,0l-5.45,2.89a.55.55,0,0,0-.26.32.39.39,0,0,0,.08.39l.54.74s0,.09,0,.12a1.1,1.1,0,0,1-.6-.09,5.68,5.68,0,0,0-1.14-.2v15.32l1.07,1.53a10.44,10.44,0,0,0,4.85,4.15l-5.92,4.13v8.8l4-2.81a1.63,1.63,0,0,1,.38-.25,1.65,1.65,0,0,1,1.14-.2,1.19,1.19,0,0,1,.82.63,1.43,1.43,0,0,1,0,1.23,2.45,2.45,0,0,1-1,1.17l-5.43,3.81v8.53a7.33,7.33,0,0,0,.69-.34,16.57,16.57,0,0,0,1.69-1l6.94-4.86a10.44,10.44,0,0,0,4.19-5l12.18,17.52a.72.72,0,0,0,.36.24.53.53,0,0,0,.41,0l5.49-2.92a.45.45,0,0,0,.24-.3.41.41,0,0,0-.1-.38L104,585a.15.15,0,0,1,0-.18.18.18,0,0,1,.19,0,5.27,5.27,0,0,0,4.59-.3q4.56-2.43,1.84-7.55a14,14,0,0,0-1-1.69l-4.86-6.94a10.44,10.44,0,0,0-5-4.19L117.25,552a.72.72,0,0,0,.24-.36.53.53,0,0,0,0-.41Zm-31.92,4.19a1.19,1.19,0,0,1-.63.82,1.43,1.43,0,0,1-1.23,0,2.45,2.45,0,0,1-1.17-1l-4.2-6a2.37,2.37,0,0,1-.48-1.38,1,1,0,0,1,.58-.92,1.63,1.63,0,0,1,1.33-.09,2.35,2.35,0,0,1,1.19,1l4.16,6a1.63,1.63,0,0,1,.25.38A1.65,1.65,0,0,1,82.61,549.89Zm20.18,28.31a2.37,2.37,0,0,1,.48,1.38,1,1,0,0,1-.58.92,1.63,1.63,0,0,1-1.33.09,2.35,2.35,0,0,1-1.19-1l-4.16-6a2,2,0,0,1-.45-1.52,1.19,1.19,0,0,1,.63-.82,1.43,1.43,0,0,1,1.23,0,2.43,2.43,0,0,1,1.17,1Zm5.9-29.49a2.35,2.35,0,0,1-1,1.19l-6,4.16a1.63,1.63,0,0,1-.38.25,1.65,1.65,0,0,1-1.14.2,1.19,1.19,0,0,1-.82-.63,1.43,1.43,0,0,1,0-1.23,2.43,2.43,0,0,1,1-1.17l6-4.2a2.37,2.37,0,0,1,1.38-.48,1,1,0,0,1,.92.58A1.63,1.63,0,0,1,108.69,548.71Z" transform="translate(-72.42 -422.14)"/></svg>