<svg id="Camada_1" data-name="Camada 1" xmlns="http://www.w3.org/2000/svg" viewBox="0 0 1825 1300"><defs><style>.cls-1{fill:none;stroke:#fff;stroke-miterlimit:10;stroke-width:4px;opacity:0.21;isolation:isolate;}</style></defs><title>bkg1</title><rect class="cls-1" x="1657.88" y="207.91" width="128.04" height="128.04" transform="translate(312.05 1297.21) rotate(-45)"/><rect class="cls-1" x="84.96" y="939.5" width="118.73" height="118.73" transform="translate(-664.03 394.61) rotate(-45)"/><rect class="cls-1" x="1496.74" y="563.95" width="172.11" height="172.11" transform="translate(3.97 1309.59) rotate(-45)"/><rect class="cls-1" x="1665.06" y="756.74" width="29.92" height="29.92" transform="translate(-53.61 1413.98) rotate(-45)"/><rect class="cls-1" x="132.92" y="1147.88" width="85.21" height="85.21" transform="translate(-790.39 472.8) rotate(-45)"/><rect class="cls-1" x="105.71" y="1240.88" width="31.99" height="31.99" transform="translate(-853.1 454.19) rotate(-45)"/><rect class="cls-1" x="268.23" y="1197.11" width="31.99" height="31.99" transform="translate(-774.55 556.29) rotate(-45)"/><rect class="cls-1" x="73.49" y="71.34" width="88.97" height="88.97" transform="translate(-47.35 117.34) rotate(-45)"/><rect class="cls-1" x="99.84" y="134.25" width="88.97" height="88.97" transform="translate(-84.12 154.4) rotate(-45)"/><rect class="cls-1" x="1614.51" y="106.23" width="88.97" height="88.97" transform="translate(379.34 1217.23) rotate(-45)"/><rect class="cls-1" x="1580.08" y="220.25" width="31.99" height="31.99" transform="translate(300.43 1197.79) rotate(-45)"/><rect class="cls-1" x="1536.71" y="1107.42" width="118.73" height="118.73" transform="translate(-357.56 1470.34) rotate(-45)"/><rect class="cls-1" x="1665.07" y="1220.76" width="29.92" height="29.92" transform="translate(-381.71 1549.89) rotate(-45)"/><rect class="cls-1" x="1686.23" y="1115.27" width="29.92" height="29.92" transform="translate(-300.93 1533.96) rotate(-45)"/><rect class="cls-1" x="1722.14" y="1170.5" width="85.21" height="85.21" transform="translate(-340.91 1603.17) rotate(-45)"/></svg>