<svg id="Camada_1" data-name="Camada 1" xmlns="http://www.w3.org/2000/svg" viewBox="0 0 200 200"><defs><style>.cls-1{fill:#388b7b;}.cls-2{fill:#fefefe;}</style></defs><title>bing</title><g id="UWyNQx.tif"><path class="cls-1" d="M187.67,93.61v13.1c-.48.22-.31.67-.35,1a75.81,75.81,0,0,1-3.68,18.2q-17.61,49.85-69.7,59.14c-1.95.34-4,.23-5.86.89H95c-.17-.41-.54-.31-.86-.34a86,86,0,1,1,92.64-98A33.33,33.33,0,0,0,187.67,93.61ZM61.48,46.3c0,.61-.08,1-.08,1.47q0,43.91,0,87.81a2.05,2.05,0,0,0,1.07,2q12.41,7.68,24.75,15.46a1.69,1.69,0,0,0,2.09,0q29.17-17.88,58.38-35.68a1.9,1.9,0,0,0,1.06-1.86q-.06-12.17,0-24.34c0-1-.35-1.42-1.31-1.71Q122,81.61,96.59,73.64c-.41-.13-.81-.4-1.34,0,.2.5.41,1,.62,1.51,2.83,6.62,5.7,13.23,8.48,19.88a3.92,3.92,0,0,0,2.39,2.32c4.9,2,9.76,4,14.93,6.2l-33.4,16.6V118q0-30.05,0-60.11a1.89,1.89,0,0,0-1.45-2.18c-3.85-1.34-7.65-2.82-11.46-4.25Z"/><path class="cls-2" d="M61.48,46.3l13.9,5.22c3.82,1.43,7.62,2.91,11.46,4.25a1.89,1.89,0,0,1,1.45,2.18Q88.24,88,88.26,118v2.1l33.4-16.6c-5.17-2.16-10-4.23-14.93-6.2A3.92,3.92,0,0,1,104.35,95c-2.78-6.65-5.64-13.26-8.48-19.88-.22-.51-.42-1-.62-1.51.52-.39.93-.12,1.34,0Q122,81.59,147.43,89.51c1,.3,1.32.67,1.31,1.71q-.07,12.17,0,24.34a1.9,1.9,0,0,1-1.06,1.86q-29.21,17.81-58.38,35.68a1.69,1.69,0,0,1-2.09,0Q74.85,145.3,62.45,137.6a2.05,2.05,0,0,1-1.07-2q0-43.91,0-87.81C61.4,47.34,61.44,46.91,61.48,46.3Z"/></g></svg>