<svg id="Camada_1" data-name="Camada 1" xmlns="http://www.w3.org/2000/svg" viewBox="0 0 150 150"><defs><style>.cls-1{opacity:0.05;}.cls-2{fill:#fff;}</style></defs><title>bkg-youtube</title><g id="uwq8AS.tif" class="cls-1"><path class="cls-2" d="M16.75,38.55c-2.32-.21-4.07-1.08-5-3.07-1.4-3-2.8-5.95-4-9C6.4,23,8,20,11.52,18.55c3.15-1.26,6.22-2.73,9.35-4a69.68,69.68,0,0,1,6.87-2.68c2.32-.7,4.92,1,5.79,3,1.31,3,2.54,6,3.89,8.89,1.48,3.23-.24,6.51-3.44,7.84-2.46,1-4.9,2.09-7.34,3.16s-5.1,2.31-7.69,3.39A11.11,11.11,0,0,1,16.75,38.55ZM28.67,12.63a17.17,17.17,0,0,0-2.11.58c-1.91.78-3.79,1.62-5.67,2.45-3.37,1.48-6.75,2.93-10.08,4.48A4.45,4.45,0,0,0,8.63,26q1.81,4.25,3.7,8.47a5.12,5.12,0,0,0,2.58,2.71c2,.91,3.61,0,5.3-.71,4.39-1.93,8.72-4,13.16-5.79,3-1.19,4.48-4,2.78-7.35-1.27-2.46-2.27-5.06-3.34-7.62A5,5,0,0,0,28.67,12.63Z"/><path class="cls-2" d="M18.19,21.89c2.89.34,5.79.66,8.68,1,.68.08,1,.36.49,1.06-1.71,2.4-3.38,4.83-5.13,7.21-.4.54-.86.36-1.13-.26-.91-2.08-1.83-4.15-2.74-6.22-.29-.65-.6-1.29-.83-2S17.52,21.8,18.19,21.89Zm8,1.95L18.75,23l3.07,6.94Z"/></g><g id="uJ5B9P.tif" class="cls-1"><path class="cls-2" d="M75.55,110.49c.28.39.29.39,0,.8s-.24.53-.8.18l-6-3.77c-.29-.18-.29-.19-.11-.49s.25-.38.36-.58a.23.23,0,0,1,.37-.09l2,1.24s.09.1.14.07,0-.12,0-.17a1.2,1.2,0,0,1,.12-1,1,1,0,0,1,1.25-.47,3.08,3.08,0,0,1,.72.29,15.53,15.53,0,0,1,2.58,1.69,2.23,2.23,0,0,1,.29.32,1.18,1.18,0,0,1-.73,1.93Zm-2-1.3,1.25.78a.4.4,0,0,0,.56-.09.37.37,0,0,0,0-.53,1.77,1.77,0,0,0-.29-.29A14,14,0,0,0,73.41,108a3.61,3.61,0,0,0-.82-.4.36.36,0,0,0-.49.45.61.61,0,0,0,.3.44Z"/><path class="cls-2" d="M72.52,110.86l2.07,1.3c.31.2.31.2.12.5l-.12.18c-.24.38-.24.38-.65.24,0,0-.09,0-.11,0s0,.1,0,.15a1.33,1.33,0,0,1-.15,1.25,1,1,0,0,1-1.16.41,2.77,2.77,0,0,1-.66-.3l-3.36-2.1c-.27-.17-.27-.18-.1-.45l.35-.55c.18-.29.18-.29.49-.1l3.1,1.94a2.3,2.3,0,0,0,.41.21c.17.06.33.1.45-.09a.47.47,0,0,0-.07-.59l-.2-.13-3.22-2c-.32-.2-.32-.21-.13-.52s.26-.39.37-.6.22-.2.39-.09Z"/><path class="cls-2" d="M70.36,118.52l.1.32a1.32,1.32,0,0,1-.44,1.39.89.89,0,0,1-.75.18,2.45,2.45,0,0,1-.85-.34L65.07,118c-.26-.16-.26-.18-.1-.43s.29-.45.42-.68.16-.17.29-.08l.46.27L69,118.81l.29.17c.17.08.35.16.49-.05a.49.49,0,0,0-.06-.62,1.58,1.58,0,0,0-.2-.13l-3.26-2c-.27-.17-.28-.18-.11-.45s.27-.4.38-.62.22-.2.4-.08l2.36,1.48c.66.41,1.31.83,2,1.23.19.12.22.23.09.41s-.1.16-.16.25c-.26.41-.26.41-.69.21Z"/><path class="cls-2" d="M67.08,119.9a8.87,8.87,0,0,1,.94.65,1.62,1.62,0,0,1,.27,2.53,1.41,1.41,0,0,1-1.73.53,3.44,3.44,0,0,1-.67-.29,15.46,15.46,0,0,1-1.95-1.26,1.66,1.66,0,0,1-.19-2.73,1.41,1.41,0,0,1,1.66-.35A7.81,7.81,0,0,1,67.08,119.9ZM66.27,121l-.86-.54a2.59,2.59,0,0,0-.77-.34.32.32,0,0,0-.36.13.33.33,0,0,0,0,.41,1.29,1.29,0,0,0,.29.29,20.69,20.69,0,0,0,1.85,1.19,2.63,2.63,0,0,0,.85.4.34.34,0,0,0,.35-.11.33.33,0,0,0,0-.36.88.88,0,0,0-.28-.33A11.75,11.75,0,0,0,66.27,121Z"/><path class="cls-2" d="M63,123.52l-1.37-1.33c-.36-.35-.71-.71-1.07-1a.26.26,0,0,1,0-.38c.14-.2.26-.41.39-.61s.21-.28.42,0l2.08,2.29,1.23,1.34a1.41,1.41,0,0,0,.3.24L66.63,125c.18.11.21.22.09.39s-.3.46-.44.7-.17.16-.31.06c-.48-.31-1-.6-1.45-.92a3.72,3.72,0,0,0-1-.46l-4.36-1.29c-.3-.09-.3-.1-.13-.37s.27-.42.4-.64a.26.26,0,0,1,.38-.13l3,1.12.13,0Z"/><path class="cls-2" d="M75,106.79a6.58,6.58,0,0,1-1.44-1.06,1.42,1.42,0,0,1-.19-1.86,3.26,3.26,0,0,1,.36-.51,1.21,1.21,0,0,1,1.32-.37,2.39,2.39,0,0,1,.62.26c.43.26.85.53,1.28.79.2.12.2.23.09.41-.28.43-.54.86-.81,1.29-.09.14-.09.22.07.33a6.82,6.82,0,0,0,.71.41c.27.14.49.11.61-.07s.08-.42-.14-.62l0,0c-.36-.31-.36-.31-.06-.7l.11-.16c.25-.37.26-.37.63-.11a1.32,1.32,0,0,1,.52,1.61,2.68,2.68,0,0,1-.22.48,1.46,1.46,0,0,1-1.93.72A7.09,7.09,0,0,1,75,106.79Zm.36-2.3a2.92,2.92,0,0,0-.73-.36.34.34,0,0,0-.42.15.33.33,0,0,0,.06.44,1.49,1.49,0,0,0,.22.19c.23.15.47.28.69.45s.27.11.37-.08C75.89,104.71,75.92,104.84,75.38,104.49Z"/><path class="cls-2" d="M69.79,114.23l2.56,1.61c.26.16.26.18.11.43s-.26.41-.38.62-.22.19-.39.09l-1.87-1.17-3.28-2.06c-.2-.13-.32-.12-.44.1s-.24.38-.36.58-.18.17-.32.08l-.55-.35a.18.18,0,0,1-.07-.28l1.8-2.87a.18.18,0,0,1,.28-.06l.55.35c.15.09.15.19.06.32l-.37.59c-.17.27-.17.27.11.44Z"/></g><g id="uJ5B9P.tif-2" data-name="uJ5B9P.tif" class="cls-1"><path class="cls-2" d="M134.84,25c-.49.46-.49.46-1.1.17-.82-.39-.77-.25-.39-1.07l4.18-8.92c.2-.43.21-.44.65-.23.28.13.56.28.85.4a.31.31,0,0,1,.19.5c-.46,1-.92,1.94-1.38,2.91,0,.07-.12.14-.07.21s.17,0,.24,0a1.66,1.66,0,0,1,1.37,0,1.4,1.4,0,0,1,.86,1.64,4.26,4.26,0,0,1-.28,1,21.51,21.51,0,0,1-1.9,3.84,3.09,3.09,0,0,1-.39.46,1.63,1.63,0,0,1-2.78-.69Zm1.46-2.92c-.29.62-.58,1.23-.86,1.85a.56.56,0,0,0,.22.75.52.52,0,0,0,.72-.08,2.46,2.46,0,0,0,.35-.45A19.4,19.4,0,0,0,138,21.68a5,5,0,0,0,.41-1.2.5.5,0,0,0-.7-.6.85.85,0,0,0-.56.49C136.85,21,136.57,21.54,136.29,22.12Z"/><path class="cls-2" d="M133.82,20.95,132.38,24c-.22.46-.22.46-.67.25l-.27-.13c-.56-.26-.56-.26-.44-.85,0-.05,0-.13,0-.16s-.14,0-.21,0a1.84,1.84,0,0,1-1.74,0,1.37,1.37,0,0,1-.76-1.53,3.84,3.84,0,0,1,.31-1l2.33-5c.19-.4.21-.4.6-.22l.82.38c.43.2.43.21.22.65l-2.15,4.58a3.19,3.19,0,0,0-.23.59c-.06.24-.08.47.2.6a.65.65,0,0,0,.81-.2,2.88,2.88,0,0,0,.15-.3L133.58,17c.22-.47.23-.47.69-.26.29.14.58.29.88.41s.31.27.18.52C134.82,18.78,134.32,19.87,133.82,20.95Z"/><path class="cls-2" d="M122.93,19.25l-.42.19a1.83,1.83,0,0,1-2-.37,1.23,1.23,0,0,1-.37-1,3.4,3.4,0,0,1,.33-1.22l2.32-4.95c.18-.38.2-.39.58-.21l1,.47c.19.08.26.19.17.39s-.19.45-.29.68l-2,4.19a4.42,4.42,0,0,0-.19.43c-.09.25-.16.51.15.67a.69.69,0,0,0,.84-.18,2.18,2.18,0,0,0,.15-.3l2.26-4.83c.19-.4.21-.41.6-.23s.6.31.91.42.31.27.18.53c-.56,1.16-1.1,2.33-1.64,3.49-.46,1-.92,1.94-1.36,2.92-.13.28-.28.34-.54.19s-.24-.12-.36-.17c-.61-.28-.6-.28-.41-.92A1.63,1.63,0,0,0,122.93,19.25Z"/><path class="cls-2" d="M120.47,15a12.29,12.29,0,0,1-.74,1.4,2.24,2.24,0,0,1-3.44.79,2,2,0,0,1-1-2.3,4.77,4.77,0,0,1,.28-1A21.42,21.42,0,0,1,117,11c1-1.57,2.19-1.74,3.72-.72a2,2,0,0,1,.75,2.23A10.82,10.82,0,0,1,120.47,15ZM118.89,14c.23-.48.42-.87.59-1.27a3.58,3.58,0,0,0,.34-1.12.45.45,0,0,0-.24-.48.46.46,0,0,0-.55.09,1.79,1.79,0,0,0-.34.45,28.66,28.66,0,0,0-1.33,2.74,3.64,3.64,0,0,0-.41,1.24.48.48,0,0,0,.21.46.45.45,0,0,0,.51,0,1.21,1.21,0,0,0,.4-.44A16.28,16.28,0,0,0,118.89,14Z"/><path class="cls-2" d="M114.81,9.92l1.6-2.1c.42-.55.85-1.09,1.26-1.65a.35.35,0,0,1,.52-.11c.3.15.61.29.91.43s.42.24.13.57l-2.8,3.25-1.63,1.91a2,2,0,0,0-.28.46c-.4.85-.8,1.7-1.19,2.55-.12.26-.27.32-.52.19s-.68-.33-1-.49-.24-.21-.14-.42c.35-.71.66-1.44,1-2.15a5.15,5.15,0,0,0,.46-1.49c.34-2.07.7-4.14,1-6.21.07-.42.09-.43.49-.25s.62.3.94.44a.36.36,0,0,1,.24.5c-.35,1.45-.69,2.91-1,4.37l0,.19Z"/><path class="cls-2" d="M139.83,23.71A9.11,9.11,0,0,1,141,21.55a2,2,0,0,1,2.52-.57,4.51,4.51,0,0,1,.77.41,1.68,1.68,0,0,1,.73,1.75,3.31,3.31,0,0,1-.25.9c-.29.63-.59,1.25-.87,1.89-.13.29-.28.32-.54.19-.63-.31-1.28-.59-1.91-.9-.21-.11-.32-.09-.44.15a9.45,9.45,0,0,0-.45,1c-.15.4-.07.69.2.83s.59,0,.83-.3l0-.06c.36-.55.36-.55,1-.2l.24.13c.55.28.55.3.25.85a1.83,1.83,0,0,1-2.13,1,3.71,3.71,0,0,1-.7-.22A2,2,0,0,1,139,25.88,9.83,9.83,0,0,1,139.83,23.71Zm3.22.11a4,4,0,0,0,.38-1.07.47.47,0,0,0-.27-.56.45.45,0,0,0-.59.15,2.06,2.06,0,0,0-.22.33c-.17.34-.31.69-.5,1s-.11.38.17.5C142.83,24.55,142.67,24.62,143.06,23.81Z"/><path class="cls-2" d="M128.73,17.75,127,21.55c-.18.38-.2.39-.57.22s-.6-.3-.91-.42-.3-.27-.18-.53c.44-.92.87-1.84,1.3-2.76.76-1.62,1.51-3.24,2.28-4.85.14-.3.11-.46-.21-.58s-.57-.27-.85-.39-.27-.21-.16-.42.26-.54.39-.82a.24.24,0,0,1,.38-.14l4.25,2a.25.25,0,0,1,.13.38c-.13.27-.26.54-.38.82s-.24.23-.43.14l-.88-.41c-.4-.18-.4-.18-.59.23Z"/></g><g id="nXaqLm.tif" class="cls-1"><path class="cls-2" d="M36.62,76.73a4.53,4.53,0,0,0,2.57,3.16,9.24,9.24,0,0,1,1.1.72c.71.53.61,1.25-.21,1.59s-1.38.59-2.09.84a.66.66,0,0,0-.48.68,2.55,2.55,0,0,1-2.08,2.65,2.4,2.4,0,0,1-2.49-.72.68.68,0,0,0-.9-.18,17.8,17.8,0,0,1-2.09.84,1.17,1.17,0,0,1-1-.1,1.14,1.14,0,0,1-.26-.91c.14-.94.4-1.86.54-2.79a2.53,2.53,0,0,0-.15-1.16c-.3-.84-.67-1.66-1-2.5a4.21,4.21,0,0,1,.54-4.2,1.29,1.29,0,0,0,.26-1,1.73,1.73,0,0,1,1-1.75,1.77,1.77,0,0,1,2,.4,2,2,0,0,0,1.22.71,4.09,4.09,0,0,1,3.08,2.6Zm3.23,4.79c-.56-.38-1-.7-1.45-1a4.54,4.54,0,0,1-2.21-2.64c-.2-.67-.55-1.29-.78-2a3.49,3.49,0,0,0-4.82-2,3.42,3.42,0,0,0-1.82,4.2,23.39,23.39,0,0,0,.94,2.28A4.93,4.93,0,0,1,30,84c-.14.51-.22,1-.35,1.64Zm-6.62,3.32a2.07,2.07,0,0,0,2.35.54,1.82,1.82,0,0,0,1.07-1.93Zm-2.1-12c-.79-.32-1.16-.14-1.21.5Z"/><path class="cls-2" d="M25.83,82.46c.22.07.45.07.53.18a.87.87,0,0,1,.08.55,13.44,13.44,0,0,0-.23,2.2,3.91,3.91,0,0,0,2,3.13,2.15,2.15,0,0,1,.51.31,2.14,2.14,0,0,1,.26.56c-.21.08-.5.3-.61.23a9.39,9.39,0,0,1-2-1.51,5,5,0,0,1-.88-5A4.21,4.21,0,0,1,25.83,82.46Z"/><path class="cls-2" d="M43.58,79.49a5.44,5.44,0,0,1,0,3.81c-.1.28-.23.57-.63.44s-.35-.44-.24-.75a4.35,4.35,0,0,0-2.2-5.45c-.29-.15-.59-.28-.39-.69s.51-.27.8-.13A5.4,5.4,0,0,1,43.58,79.49Z"/><path class="cls-2" d="M27.27,86.16a3.45,3.45,0,0,1-.06-2.6c.1-.3.31-.57.64-.4a.73.73,0,0,1,.21.67,2.9,2.9,0,0,0,1.35,3.33c.28.13.53.34.36.68s-.51.27-.81.12A3.34,3.34,0,0,1,27.27,86.16Z"/><path class="cls-2" d="M41.85,80.19a3.15,3.15,0,0,1,.07,2.53c-.11.3-.32.57-.64.4a.77.77,0,0,1-.22-.67A2.79,2.79,0,0,0,39.62,79c-.16-.1-.19-.4-.28-.61.22-.06.49-.22.67-.15A3,3,0,0,1,41.85,80.19Z"/></g><g id="nXaqLm.tif-2" data-name="nXaqLm.tif" class="cls-1"><path class="cls-2" d="M93.54,32.53a3.39,3.39,0,0,0-.05,3,6.91,6.91,0,0,1,.28.94c.15.64-.25,1-.89.81s-1.08-.33-1.6-.52a.49.49,0,0,0-.61.16,1.91,1.91,0,0,1-2.47.52,1.79,1.79,0,0,1-1.08-1.61.51.51,0,0,0-.43-.54,13.32,13.32,0,0,1-1.6-.52.88.88,0,0,1-.5-.52.86.86,0,0,1,.29-.65c.53-.47,1.12-.87,1.66-1.34a1.89,1.89,0,0,0,.48-.74c.24-.63.42-1.28.63-1.91A3.15,3.15,0,0,1,90,27.51a1,1,0,0,0,.64-.46,1.29,1.29,0,0,1,1.4-.54A1.32,1.32,0,0,1,93,27.7a1.49,1.49,0,0,0,.36,1,3.06,3.06,0,0,1,.51,3Zm-.46,4.3c-.14-.49-.23-.88-.36-1.25a3.4,3.4,0,0,1,0-2.58c.21-.48.31-1,.49-1.49A2.61,2.61,0,0,0,91.45,28a2.56,2.56,0,0,0-3.06,1.53,17.5,17.5,0,0,0-.56,1.75,3.69,3.69,0,0,1-1.6,2.24c-.32.22-.62.48-1,.77ZM87.7,35.54A1.55,1.55,0,0,0,88.79,37a1.36,1.36,0,0,0,1.54-.59Zm4.56-7.86c-.3-.56-.6-.64-.93-.3Z"/><path class="cls-2" d="M84.6,30.62c.09.14.22.25.22.36a.65.65,0,0,1-.22.35,10.06,10.06,0,0,0-1.19,1.15,2.92,2.92,0,0,0-.35,2.77,1.61,1.61,0,0,1,.14.42,1.6,1.6,0,0,1-.12.45c-.16-.05-.43-.07-.46-.16a7,7,0,0,1-.44-1.85,3.71,3.71,0,0,1,1.9-3.28A3.15,3.15,0,0,1,84.6,30.62Z"/><path class="cls-2" d="M96.2,37.47a4.07,4.07,0,0,1-1.84,2.18c-.2.11-.4.21-.57,0s0-.42.23-.55a3.25,3.25,0,0,0,1.36-4.18c-.1-.22-.2-.45.11-.59s.42.09.52.31A4,4,0,0,1,96.2,37.47Z"/><path class="cls-2" d="M83.65,33.43a2.58,2.58,0,0,1,1.22-1.52c.21-.12.46-.18.55.08a.55.55,0,0,1-.21.48A2.17,2.17,0,0,0,84.38,35c.1.21.14.45-.12.56s-.42-.09-.52-.32A2.5,2.5,0,0,1,83.65,33.43Z"/><path class="cls-2" d="M94.87,37a2.36,2.36,0,0,1-1.18,1.48c-.21.12-.46.17-.56-.08a.57.57,0,0,1,.2-.49,2.09,2.09,0,0,0,.82-2.65c0-.14.09-.32.14-.48.16.08.39.11.45.23A2.27,2.27,0,0,1,94.87,37Z"/></g><g id="nXaqLm.tif-3" data-name="nXaqLm.tif" class="cls-1"><path class="cls-2" d="M120.55,134.63a5.28,5.28,0,0,0,1.38,4.54,10.77,10.77,0,0,1,.86,1.26c.53.88.11,1.61-.93,1.63-.87,0-1.75,0-2.62,0a.77.77,0,0,0-.82.53,3,3,0,0,1-3.41,1.94,2.8,2.8,0,0,1-2.38-1.87.79.79,0,0,0-.9-.59,20.74,20.74,0,0,1-2.62,0,1.37,1.37,0,0,1-1-.53,1.33,1.33,0,0,1,.12-1.1c.56-1,1.25-1.82,1.82-2.77a2.94,2.94,0,0,0,.36-1.32c.05-1,0-2.09,0-3.13a4.91,4.91,0,0,1,2.44-4.29,1.51,1.51,0,0,0,.73-1,2,2,0,0,1,1.82-1.46,2.06,2.06,0,0,1,1.95,1.3,2.32,2.32,0,0,0,1,1.31,4.77,4.77,0,0,1,2.18,4.17C120.55,133.69,120.55,134.16,120.55,134.63Zm1.37,6.59c-.44-.65-.76-1.19-1.13-1.69a5.3,5.3,0,0,1-1.22-3.82c.08-.81,0-1.63,0-2.45a4.07,4.07,0,0,0-4.3-4.34,4,4,0,0,0-3.81,3.72,27.26,27.26,0,0,0,0,2.87,5.75,5.75,0,0,1-1.3,4.09c-.37.49-.69,1-1.1,1.62Zm-8.6.66a2.41,2.41,0,0,0,2.3,1.62,2.12,2.12,0,0,0,2-1.62Zm3-13.83c-.71-.69-1.19-.66-1.53,0Z"/><path class="cls-2" d="M106.39,136.06c.2.17.45.27.49.42a1,1,0,0,1-.15.62,15.67,15.67,0,0,0-1.21,2.28,4.55,4.55,0,0,0,.81,4.27,1.23,1.23,0,0,1,.46,1.28c-.26,0-.68.1-.76,0a10.94,10.94,0,0,1-1.54-2.53,5.77,5.77,0,0,1,1.25-5.77A4.9,4.9,0,0,1,106.39,136.06Z"/><path class="cls-2" d="M126.84,140.68a6.34,6.34,0,0,1-1.68,4.11c-.24.26-.5.51-.87.2s-.18-.63.07-.92a5.07,5.07,0,0,0,0-6.85c-.25-.28-.52-.57-.12-.92s.66-.07.92.21A6.29,6.29,0,0,1,126.84,140.68Z"/><path class="cls-2" d="M106.31,140.69a4,4,0,0,1,1.08-2.83c.25-.28.59-.48.86-.15a.85.85,0,0,1-.07.82,3.38,3.38,0,0,0,0,4.18c.24.27.43.6.09.89s-.67.06-.92-.23A3.89,3.89,0,0,1,106.31,140.69Z"/><path class="cls-2" d="M124.67,140.68a3.67,3.67,0,0,1-1,2.76c-.25.28-.6.47-.87.15a.89.89,0,0,1,.06-.82,3.25,3.25,0,0,0,0-4.33c-.12-.18,0-.52,0-.78.27,0,.62,0,.79.13A3.54,3.54,0,0,1,124.67,140.68Z"/></g><g id="uwq8AS.tif-2" data-name="uwq8AS.tif" class="cls-1"><path class="cls-2" d="M112.5,67a4.63,4.63,0,0,1,.25-4.89c1.61-2.21,3.23-4.42,5-6.5,2-2.36,4.87-2.4,7.29-.4,2.18,1.8,4.47,3.46,6.68,5.22a58,58,0,0,1,4.69,4c1.44,1.42,1.21,4,.13,5.42-1.64,2.14-3.34,4.22-4.95,6.38-1.77,2.37-4.85,2.42-7.1.61-1.73-1.39-3.48-2.75-5.23-4.11s-3.72-2.81-5.54-4.27A9.25,9.25,0,0,1,112.5,67Zm23.7-1.62a14.29,14.29,0,0,0-1.26-1.32c-1.33-1.08-2.69-2.12-4-3.17-2.43-1.87-4.83-3.76-7.29-5.58a3.71,3.71,0,0,0-5.11.74q-2.39,3-4.72,6.08a4.27,4.27,0,0,0-1,3c.11,1.79,1.42,2.65,2.63,3.59,3.16,2.43,6.4,4.77,9.48,7.31a4.15,4.15,0,0,0,6.48-.9c1.29-1.91,2.79-3.68,4.24-5.48A4.19,4.19,0,0,0,136.2,65.41Z"/><path class="cls-2" d="M125.25,61.44c.91,2.25,1.82,4.49,2.72,6.74.21.53.13.87-.58.79-2.44-.3-4.88-.55-7.31-.87-.55-.07-.61-.48-.26-.93l3.45-4.48c.36-.47.71-1,1.1-1.39S125,60.92,125.25,61.44ZM127,68.07l-2.35-5.78-3.85,5Z"/></g><g id="uwq8AS.tif-3" data-name="uwq8AS.tif" class="cls-1"><path class="cls-2" d="M14.37,146.52a4.83,4.83,0,0,1-3.12-4c-.22-2.84-.44-5.68-.46-8.52,0-3.22,2.22-5.2,5.5-5.26,2.94-.05,5.88-.29,8.82-.4a60.41,60.41,0,0,1,6.39-.05c2.1.15,3.67,2.35,3.78,4.2.16,2.8.22,5.6.41,8.4.21,3.07-2.2,5.2-5.2,5.3-2.31.07-4.61.18-6.92.3s-4.85.3-7.27.38A9.63,9.63,0,0,1,14.37,146.52ZM32,129.18a14.89,14.89,0,0,0-1.89-.18c-1.78,0-3.57.15-5.35.24-3.19.17-6.37.3-9.55.53a3.86,3.86,0,0,0-3.55,4c.11,2.67.24,5.34.39,8a4.44,4.44,0,0,0,1.25,3c1.3,1.34,2.92,1.14,4.52,1.05,4.15-.22,8.3-.56,12.45-.64a4.33,4.33,0,0,0,4.51-5.1c-.27-2.39-.28-4.8-.36-7.21A4.37,4.37,0,0,0,32,129.18Z"/><path class="cls-2" d="M20.67,133.46c2.24,1.16,4.49,2.32,6.72,3.49.53.28.69.6.07,1-2.13,1.42-4.23,2.87-6.37,4.27-.49.32-.81,0-.84-.56-.1-2-.21-3.92-.31-5.89,0-.61-.09-1.23-.07-1.84S20.15,133.19,20.67,133.46Zm5.89,4-5.78-3,.35,6.57Z"/></g><g id="uwq8AS.tif-4" data-name="uwq8AS.tif" class="cls-1"><path class="cls-2" d="M92.94,101.28a2.87,2.87,0,0,1-2.49-1.74c-.63-1.57-1.26-3.15-1.77-4.76a3,3,0,0,1,2.19-4c1.66-.55,3.29-1.21,4.94-1.79a35.93,35.93,0,0,1,3.62-1.17,2.7,2.7,0,0,1,2.89,1.71c.59,1.56,1.12,3.14,1.73,4.7a3,3,0,0,1-2,3.93c-1.3.45-2.59.92-3.88,1.4s-2.7,1-4.06,1.51A5.73,5.73,0,0,1,92.94,101.28Zm6.94-13a8.86,8.86,0,0,0-1.11.23c-1,.34-2,.72-3,1.09-1.78.66-3.56,1.3-5.33,2a2.3,2.3,0,0,0-1.29,2.93Q90,96.79,90.79,99A2.64,2.64,0,0,0,92,100.5a3.1,3.1,0,0,0,2.75-.2c2.32-.86,4.61-1.79,7-2.57a2.57,2.57,0,0,0,1.66-3.7c-.58-1.31-1-2.68-1.48-4A2.6,2.6,0,0,0,99.87,88.31Z"/><path class="cls-2" d="M94.19,92.75l4.43.79c.35.06.5.22.22.56-1,1.18-1.89,2.38-2.86,3.55-.22.27-.45.16-.58-.17L94.19,94.2c-.13-.34-.27-.68-.37-1S93.85,92.69,94.19,92.75ZM98.25,94l-3.81-.66L95.81,97Z"/></g><g id="uJ5B9P.tif-3" data-name="uJ5B9P.tif" class="cls-1"><path class="cls-2" d="M62.86,60.81c.06.44.06.44-.32.66s-.42.33-.73-.19l-3.28-5.62c-.16-.27-.16-.28.12-.44l.53-.31a.21.21,0,0,1,.34.08l1.07,1.84s0,.12.09.12.07-.09.08-.14a1.09,1.09,0,0,1,.52-.74.92.92,0,0,1,1.21.15,2.81,2.81,0,0,1,.46.54,14.21,14.21,0,0,1,1.37,2.47,2,2,0,0,1,.1.38A1.08,1.08,0,0,1,63,60.86Zm-1-1.89.68,1.16a.37.37,0,0,0,.49.16.34.34,0,0,0,.23-.42,1.62,1.62,0,0,0-.11-.36,12.81,12.81,0,0,0-.9-1.62,3.3,3.3,0,0,0-.5-.67.33.33,0,0,0-.59.15.56.56,0,0,0,.05.49Z"/><path class="cls-2" d="M60.25,59.83l1.13,1.93c.17.29.17.29-.11.46l-.17.1c-.35.2-.35.2-.63-.08,0,0-.06-.06-.08-.06s-.05.08-.06.13a1.21,1.21,0,0,1-.65.94.91.91,0,0,1-1.12-.16,2.54,2.54,0,0,1-.4-.52l-1.83-3.13c-.15-.25-.14-.26.11-.41l.52-.3c.27-.16.27-.16.44.12l1.69,2.89a2.11,2.11,0,0,0,.24.35c.11.12.22.22.4.12a.43.43,0,0,0,.19-.51,1.9,1.9,0,0,0-.11-.19l-1.75-3c-.17-.3-.17-.3.12-.48s.37-.21.55-.33.26-.07.35.1C59.45,58.47,59.85,59.15,60.25,59.83Z"/><path class="cls-2" d="M55.25,65.11l-.06.3a1.21,1.21,0,0,1-.95.94.82.82,0,0,1-.68-.18,2.24,2.24,0,0,1-.54-.64l-1.82-3.12c-.14-.24-.13-.26.1-.39l.63-.37c.12-.07.2-.07.27.06l.26.41L54,64.76a2.92,2.92,0,0,0,.16.26c.1.14.22.28.42.17a.45.45,0,0,0,.22-.53,1.44,1.44,0,0,0-.11-.19l-1.78-3c-.15-.26-.15-.27.1-.41s.39-.21.57-.34.26-.07.36.1c.42.74.85,1.47,1.28,2.2s.71,1.23,1.08,1.83c.11.18.08.28-.1.37l-.23.13c-.38.22-.38.22-.65-.12Z"/><path class="cls-2" d="M52,64.85a8.12,8.12,0,0,1,.49.93,1.48,1.48,0,0,1-.86,2.17A1.29,1.29,0,0,1,50,67.63a3.15,3.15,0,0,1-.42-.51,14.15,14.15,0,0,1-1-1.85,1.52,1.52,0,0,1,1-2.29A1.29,1.29,0,0,1,51,63.4,7.15,7.15,0,0,1,52,64.85Zm-1.11.51c-.18-.3-.32-.55-.47-.8a2.37,2.37,0,0,0-.48-.6.29.29,0,0,0-.35,0,.3.3,0,0,0-.16.33,1.18,1.18,0,0,0,.12.36,18.93,18.93,0,0,0,1,1.75,2.4,2.4,0,0,0,.52.68.32.32,0,0,0,.33.06.3.3,0,0,0,.18-.29.8.8,0,0,0-.09-.38A10.75,10.75,0,0,0,50.89,65.35Z"/><path class="cls-2" d="M47.13,66l-.54-1.66c-.14-.43-.27-.87-.42-1.31a.23.23,0,0,1,.13-.32l.57-.33c.26-.15.29-.14.36.14l.71,2.74.43,1.6a1.29,1.29,0,0,0,.14.32c.31.54.62,1.07.94,1.6.1.16.07.27-.09.36s-.44.25-.65.38-.2.05-.28-.08c-.26-.46-.53-.9-.79-1.36A3.4,3.4,0,0,0,47,67.3l-3-2.9c-.2-.2-.2-.21,0-.36l.59-.35a.24.24,0,0,1,.36.06L47,66l.09.09Z"/><path class="cls-2" d="M64,57.59a6,6,0,0,1-.71-1.47,1.3,1.3,0,0,1,.63-1.59,3,3,0,0,1,.51-.26,1.11,1.11,0,0,1,1.23.26,2.19,2.19,0,0,1,.39.48c.23.39.46.79.7,1.18.11.18.07.27-.1.37l-1.21.7c-.14.08-.17.14-.08.29a6.24,6.24,0,0,0,.4.64c.16.23.35.3.52.2s.24-.31.15-.56l0,0c-.16-.4-.16-.4.25-.59l.16-.08c.36-.19.37-.19.56.18a1.21,1.21,0,0,1-.26,1.53,2.45,2.45,0,0,1-.38.3,1.34,1.34,0,0,1-1.87-.24A6.49,6.49,0,0,1,64,57.59Zm1.27-1.71a2.67,2.67,0,0,0-.44-.6.31.31,0,0,0-.4-.06.3.3,0,0,0-.14.38,1.36,1.36,0,0,0,.1.24c.12.22.26.43.37.65s.17.2.34.1C65.59,56.28,65.57,56.39,65.28,55.88Z"/><path class="cls-2" d="M56.61,61.4,58,63.79c.14.24.14.26-.1.4s-.39.22-.57.34-.26.06-.36-.1l-1-1.74c-.6-1-1.2-2-1.78-3.06-.11-.19-.21-.24-.4-.11s-.36.21-.53.32-.22.07-.29-.07-.2-.35-.3-.52a.16.16,0,0,1,.07-.26l2.68-1.56a.16.16,0,0,1,.26.07L56,58c.08.13,0,.22-.09.29l-.55.32c-.25.15-.25.15-.1.41Z"/></g></svg>