<svg id="Camada_1" data-name="Camada 1" xmlns="http://www.w3.org/2000/svg" xmlns:xlink="http://www.w3.org/1999/xlink" viewBox="0 0 1080 720"><defs><style>.cls-1{opacity:0.5;}.cls-2{fill:url(#Gradiente_sem_nome_6);}.cls-3{fill:url(#Gradiente_sem_nome_6-2);}.cls-4{fill:url(#Gradiente_sem_nome_6-3);}.cls-5{fill:url(#Gradiente_sem_nome_6-4);}.cls-6{fill:url(#Gradiente_sem_nome_6-5);}.cls-7{fill:url(#Gradiente_sem_nome_6-6);}.cls-8{fill:url(#Gradiente_sem_nome_6-7);}</style><linearGradient id="Gradiente_sem_nome_6" x1="721.45" y1="129.42" x2="1177" y2="129.42" gradientUnits="userSpaceOnUse"><stop offset="0" stop-color="#4caaff"/><stop offset="1" stop-color="#2955e2"/></linearGradient><linearGradient id="Gradiente_sem_nome_6-2" x1="304.35" y1="613.54" x2="1184.96" y2="613.54" xlink:href="#Gradiente_sem_nome_6"/><linearGradient id="Gradiente_sem_nome_6-3" x1="-102.3" y1="678.19" x2="252.04" y2="678.19" gradientTransform="translate(703.65 507.33) rotate(90)" xlink:href="#Gradiente_sem_nome_6"/><linearGradient id="Gradiente_sem_nome_6-4" x1="-127.32" y1="496.77" x2="-64.24" y2="496.77" gradientTransform="translate(634.75 455.78) rotate(90)" xlink:href="#Gradiente_sem_nome_6"/><linearGradient id="Gradiente_sem_nome_6-5" x1="-266.06" y1="529.32" x2="-221.45" y2="529.32" gradientTransform="translate(586.34 475.69) rotate(90)" xlink:href="#Gradiente_sem_nome_6"/><linearGradient id="Gradiente_sem_nome_6-6" x1="326.87" y1="-79.77" x2="371.48" y2="-79.77" gradientTransform="translate(751.76 233.03) rotate(90)" xlink:href="#Gradiente_sem_nome_6"/><linearGradient id="Gradiente_sem_nome_6-7" x1="-70.79" y1="-415.42" x2="-26.19" y2="-415.42" gradientTransform="translate(963.33 -321.37) rotate(180)" xlink:href="#Gradiente_sem_nome_6"/></defs><title>bkg-modalLeave</title><g class="cls-1"><path class="cls-2" d="M722-4.71c-8.32,32.22,20.47,58.8,43.7,76,29.25,21.63,62.11,37.54,96.89,48,36.86,11.13,75,17.26,111.76,28.84,35.24,11.11,68.51,27.59,100.12,46.59,35.18,21.16,68.39,45.37,101.5,69.58,1.56,1.14,3.06-1.46,1.51-2.59C1121,220.49,1063.65,178.65,998,153.28,963.47,139.94,927.2,132.93,891.42,124s-70-20.87-101.47-40.06c-16.42-10-32.86-21.32-46.08-35.39s-24.11-32.65-19-52.5c.48-1.87-2.41-2.67-2.89-.8Z"/></g><g class="cls-1"><path class="cls-3" d="M1185.29,491.61q-50.85-7.1-102.16-9.95c-31.1-1.69-63.45-4.6-91.85,10.66-13.48,7.24-25.44,16.89-37.82,25.79A447.86,447.86,0,0,1,915,543c-26.47,15.18-54.89,27.34-84.85,33.59-64.49,13.46-126.9-9.16-190.73-15.14-30.57-2.86-60.88-.53-90.39,8.1C520.43,578,493.45,591.22,468.32,607c-53.94,34-98.84,79.76-146.48,121.62q-9,7.93-18.22,15.66c-1.48,1.24.65,3.36,2.12,2.12,49.08-41.21,93.58-88.08,146.24-124.93,49.53-34.67,106.84-60,168.31-58.21,63.24,1.82,124.55,26.44,188.26,19.74,59.6-6.27,111.6-36.8,159-71.53,12.35-9,25.17-18,39.79-23,15.6-5.29,32.26-5.48,48.56-5,34,1,67.94,3.6,101.71,7.55q13.47,1.58,26.91,3.46c1.89.26,2.7-2.63.8-2.89Z"/></g><circle class="cls-4" cx="25.46" cy="582.21" r="177.17" transform="translate(-196.61 43.41) rotate(-19.9)"/><circle class="cls-5" cx="137.98" cy="360" r="31.54" transform="translate(-114.27 68.44) rotate(-19.9)"/><circle class="cls-6" cx="57.01" cy="231.94" r="22.3" transform="translate(-75.53 33.24) rotate(-19.9)"/><circle class="cls-7" cx="831.53" cy="582.21" r="22.3" transform="translate(-148.5 317.72) rotate(-19.9)"/><circle class="cls-8" cx="1011.82" cy="94.05" r="22.3" transform="translate(424.46 923.29) rotate(-60)"/></svg>