<svg id="Camada_1" data-name="Camada 1" xmlns="http://www.w3.org/2000/svg" xmlns:xlink="http://www.w3.org/1999/xlink" viewBox="0 0 768 1024"><defs><style>.cls-1{fill:url(#Gradiente_sem_nome_29);}.cls-2{fill:url(#Gradiente_sem_nome_21);}.cls-3{fill:url(#Gradiente_sem_nome_28);}.cls-4{fill:url(#Gradiente_sem_nome_30);}.cls-5{fill:#bc1a1e;}.cls-5,.cls-6{opacity:0.4;}.cls-6{fill:#292929;}</style><linearGradient id="Gradiente_sem_nome_29" x1="-58.27" y1="321.07" x2="869.22" y2="321.07" gradientUnits="userSpaceOnUse"><stop offset="0"/><stop offset="1" stop-color="#191919"/></linearGradient><linearGradient id="Gradiente_sem_nome_21" x1="388.99" y1="388.58" x2="-82.3" y2="116.48" gradientUnits="userSpaceOnUse"><stop offset="0"/><stop offset="1" stop-color="#292929"/></linearGradient><linearGradient id="Gradiente_sem_nome_28" x1="15.91" y1="486.8" x2="372.42" y2="-130.69" gradientUnits="userSpaceOnUse"><stop offset="0"/><stop offset="0.42" stop-color="#030303"/><stop offset="0.77" stop-color="#0e0e0e"/><stop offset="1" stop-color="#191919"/></linearGradient><linearGradient id="Gradiente_sem_nome_30" x1="749.19" y1="1048.27" x2="493.58" y2="792.66" xlink:href="#Gradiente_sem_nome_29"/></defs><title>bkg1</title><path class="cls-1" d="M837.33-42.93c-15.2-16.77-31.86-32.31-50.46-45.27-39.62-27.59-86.42-37.44-134.11-37.28-50.66.17-101.66,8.39-151.42,17.23C397.06-89.71,295-60.87,193.51-30.81,148.66-17.51,102.26-6,60,14.49,21.71,33-10.58,60.84-30.1,99c-18.61,36.41-25.42,77.57-27.45,118-2.25,44.69,1.36,89.38,3.8,134Q-44.83,514.31-43,677.85q.44,39.74.46,79.48l-2.54.54c-6.3,1.29-3.63,10.93,2.66,9.64,86.35-17.68,167.82-56.66,236.32-112.07,35-28.32,65.63-61,93.17-96.56,29-37.4,55.54-76.87,88.4-111.07,65-67.67,156.44-98.47,226.68-159.39,36.12-31.32,65.59-69.32,100.57-101.82,30.71-28.53,67.05-49.23,100.09-74.73C818.14,100,832.67,87,844.55,71.61,857,55.5,868.41,35.2,869.19,14.43,870.05-8.78,851.82-27,837.33-42.93Z"/><path class="cls-2" d="M565.83-19.28,314.7-16.11,63.56-12.94l-31.89.4c-10,.13-20.21-.43-30.13.52-7.31.7-13.65,4.08-15.73,11.56-2.29,8.22-.7,18.08-.74,26.52-.19,40.27-3.17,80.47-7.16,120.52C-30.1,227-42.26,307.1-44.27,388c-1,39.79.63,79.65,6.26,119.08,5.74,40.28,15.77,80.2,15.87,121.09A221.62,221.62,0,0,1-24,657.78c-.71,5.34,6.24,6.15,9,2.54a5.6,5.6,0,0,0,.56-.55,425.7,425.7,0,0,1,70.78-64.82c25.25-18.27,51.91-34.45,72.19-58.58,18.67-22.21,32.46-47.82,47.21-72.66,14.59-24.57,30.75-47.49,51.59-67.2,40.28-38.1,90.22-63.64,136.89-92.76,23.48-14.65,46.45-30.32,67.24-48.67,24.92-22,46.51-47.39,67.84-72.79,20-23.79,40.59-47.94,50.73-77.81,10.29-30.31,9.85-62.76,15.25-94a198.31,198.31,0,0,1,5.45-23.4A5,5,0,0,0,565.83-19.28Z"/><path class="cls-3" d="M511.27,109.7C486.57,123.42,459,131,433.88,143.83A303.48,303.48,0,0,0,366.36,191c-19.89,18.3-37.67,38.72-57.05,57.54-18.08,17.56-37.67,32.66-59.85,44.69-40.52,22-85,35.1-126.65,54.66-22.67,10.65-44.5,23.41-63.22,40.18-19,17-32.69,38.12-44.84,60.25a7.16,7.16,0,0,0-2.26,2l-18.3,23.94c-17.13-64.69-13.81-133.41-14-199.75C-20.08,200-20,125.58-18,51.14c.25-9.3.5-18.61.84-27.91.11-3.13-.27-7.08,2.17-9.37,2.67-2.51,8-2.79,11.46-3.61L50.14-2.51c35.39-8.41,70.28-20,106.36-24.74,84.12-11,144-11.79,215.63-8.27C449-31.73,525.88-21.91,599.7.53,578.07,42.49,553.77,86.07,511.27,109.7Z"/><path class="cls-4" d="M778.92,670.33l-.62,39.79L775.82,870.3l-1.24,79.59-.63,40.79c-.18,11.52,1.46,25.44-4.43,35.86-8.73,15.45-29.85,17.61-45.75,18-25,.54-50.11-1-75.06-1.62L489.23,1039l-79.74-1.94c-25.86-.63-51.8-.85-77.58-3.26a328,328,0,0,1-33-4.72c-1.36-23.21,13.43-42.87,26.62-60.56,13.51-18.13,27.3-36.29,44-51.61C387.29,900.71,407.81,891,430,882.4c21.4-8.29,42.26-17.61,62.18-29,39.44-22.64,74.18-51.89,104.39-85.79,16.16-18.13,31.89-36.61,50.64-52.18s39.52-28.85,60-42.1c19-12.25,40.1-26,63-29.11,5.76-.79,8.91.54,9,6.75C779.35,657.38,779,663.88,778.92,670.33Z"/><path class="cls-5" d="M209.26-31.44C185.47-2,160.74,28.39,128.32,48.82,111.2,59.61,92.78,66,73,69.95c-19.41,3.87-40,6.61-57,17.5C.79,97.21-11.7,113.08-10.58,132c.11,1.92,3.12,1.93,3,0C-8.71,113.06,4.58,97.56,20.11,88.47,38,78,59.3,76,79.16,71.74c36.21-7.78,65.77-27.94,91.46-54,14.57-14.8,27.73-30.88,40.76-47C212.59-30.81,210.48-32.95,209.26-31.44Z"/><path class="cls-6" d="M364-6.09A371.29,371.29,0,0,1,225,120c-31.17,16.21-65.26,26-96,43-26.72,14.72-50.44,34.46-71,56.88-23.55,25.63-43.14,54.67-60,85.06-.94,1.69,1.65,3.2,2.59,1.51,30.31-54.61,70.34-106.28,125.09-138.1,30.41-17.68,64.52-27.45,95.89-43.15A372.19,372.19,0,0,0,298.08,73.9,373.54,373.54,0,0,0,366.59-4.58C367.65-6.2,365-7.71,364-6.09Z"/><path class="cls-6" d="M815.61,823.42a338.11,338.11,0,0,1-164,94.88c-34.6,8.47-70.36,12.61-104,24.86a225.16,225.16,0,0,0-77.52,48c-23.91,22.67-48.07,53.71-44.77,88.62.18,1.91,3.18,1.92,3,0-3.1-32.81,18.8-61.87,40.95-83.66a221.66,221.66,0,0,1,80-50.41c32.77-11.8,67.55-16,101.29-24.11a338.68,338.68,0,0,0,167.17-96.09C819.07,824.14,816.95,822,815.61,823.42Z"/><path class="cls-6" d="M796.39,467.36c-65.77,6.48-126,35.94-181.5,70.35-57,35.36-110.15,76.77-169.21,108.79C417.15,662,387.29,675.21,356,683.9c-32.81,9.1-66.67,11.71-100.41,15-32.11,3.16-64.73,7.21-94.82,19.51-29.47,12-54.17,32.41-76.05,55.18A380,380,0,0,0-5,926.5q-3.11,10.33-5.61,20.83c-.45,1.88,2.51,2.35,3,.48A376,376,0,0,1,73.83,789.94c20.9-24.12,44.9-47.09,73.4-62,29.41-15.35,62.47-21.05,95.11-24.66s65.78-5.28,98-12.44c30.69-6.82,60.17-18.19,88.3-32.15,58.12-28.84,110.1-68,164.2-103.38,55.1-36.08,114.28-69.7,179.84-81.65,8-1.45,16-2.55,24-3.34A1.5,1.5,0,0,0,796.39,467.36Z"/><path class="cls-5" d="M776.82,680.72c-22.42,7-39.44,23.39-56.91,38.26a272.47,272.47,0,0,1-63.08,40.41c-48.18,22.07-100.81,26-152.84,30.9-47.92,4.53-96.95,10.91-139.52,35-35.74,20.19-65.38,50.62-85.92,86.06-23.24,40.09-34.87,86.87-30.81,133.18.17,1.91,3.17,1.93,3,0C243.46,961.43,287.06,877.22,357.36,833,443,779.07,550.3,803.88,642.08,768.8a270.38,270.38,0,0,0,69.55-39.2c21.09-16.43,39.71-37.84,66-46C779.45,683,778.67,680.14,776.82,680.72Z"/></svg>