<svg id="Camada_1" data-name="Camada 1" xmlns="http://www.w3.org/2000/svg" xmlns:xlink="http://www.w3.org/1999/xlink" viewBox="0 0 1080 720"><defs><style>.cls-1{fill:url(#Gradiente_sem_nome_25);}.cls-2{fill:url(#Gradiente_sem_nome_31);}.cls-3{fill:url(#Gradiente_sem_nome_33);}.cls-4{fill:url(#Gradiente_sem_nome_34);}.cls-5,.cls-6,.cls-7{opacity:0.2;}.cls-5{fill:url(#Gradiente_sem_nome_27);}.cls-6{fill:url(#Gradiente_sem_nome_27-2);}.cls-7{fill:url(#Gradiente_sem_nome_27-3);}.cls-8{opacity:0.4;fill:url(#Gradiente_sem_nome_30);}</style><linearGradient id="Gradiente_sem_nome_25" x1="982.12" y1="937.6" x2="664.01" y2="386.62" gradientUnits="userSpaceOnUse"><stop offset="0" stop-color="#292929"/><stop offset="0.39" stop-color="#171717"/><stop offset="1"/></linearGradient><linearGradient id="Gradiente_sem_nome_31" x1="389.8" y1="620.96" x2="389.8" y2="-49.01" gradientUnits="userSpaceOnUse"><stop offset="0" stop-color="#292929"/><stop offset="0.14" stop-color="#1b1b1b"/><stop offset="0.36" stop-color="#0c0c0c"/><stop offset="0.63" stop-color="#030303"/><stop offset="1"/></linearGradient><linearGradient id="Gradiente_sem_nome_33" x1="276.5" y1="372.07" x2="276.5" y2="-70.94" gradientUnits="userSpaceOnUse"><stop offset="0" stop-color="#191919"/><stop offset="0.21" stop-color="#101010"/><stop offset="0.6" stop-color="#040404"/><stop offset="1"/></linearGradient><linearGradient id="Gradiente_sem_nome_34" x1="684.3" y1="569.17" x2="1195.59" y2="569.17" gradientUnits="userSpaceOnUse"><stop offset="0" stop-color="#191919"/><stop offset="1"/></linearGradient><linearGradient id="Gradiente_sem_nome_27" x1="254.32" y1="147.15" x2="222.44" y2="91.94" gradientUnits="userSpaceOnUse"><stop offset="0" stop-color="#ef2b51"/><stop offset="0.5" stop-color="#d32235"/><stop offset="1" stop-color="#bc1a1e"/></linearGradient><linearGradient id="Gradiente_sem_nome_27-2" x1="1044.98" y1="687.3" x2="1025.47" y2="653.51" xlink:href="#Gradiente_sem_nome_27"/><linearGradient id="Gradiente_sem_nome_27-3" x1="734.08" y1="580.98" x2="656.02" y2="445.77" gradientTransform="translate(82.54 -93.48) rotate(7.99)" xlink:href="#Gradiente_sem_nome_27"/><linearGradient id="Gradiente_sem_nome_30" x1="538.83" y1="222.21" x2="59.42" y2="-608.16" xlink:href="#Gradiente_sem_nome_25"/></defs><title>bkg1-1</title><path class="cls-1" d="M1214.35,417.87c-8.2-34.45-23.38-68.2-48.32-93.82-12.22-12.55-26.91-22.76-43.63-28.27-18.91-6.23-39.15-6.29-58.81-5-20.69,1.38-41.34,4.33-62.13,3.81-22.31-.56-44.27-4.91-66.39-7.43a249.41,249.41,0,0,0-197.71,63.94c-27.23,25.12-45.81,57.19-69.37,85.43-12.14,14.56-25.79,27.73-42,37.65-17.85,10.89-37.56,18.16-57,25.67-37.1,14.32-74.17,29.53-108.18,50.34-63.73,39-117.29,102.56-118.84,180.47a156.61,156.61,0,0,0,8.7,55.09c.58,1.64,3,1.15,3-.31C395.88,795.72,438.17,806,480.91,814A1003.16,1003.16,0,0,0,612.14,830c44.8,2.46,89.68,2.76,134.49,5S836,842.25,880.47,848s88.67,12,133.26,15.74c21.58,1.8,43.43,3.53,65.1,3.14,18.43-.33,36.15-4.08,51.18-15.22,13.54-10,23.8-23.87,32.3-38.26a354.56,354.56,0,0,0,24.87-52.18c14.5-37.36,23.44-76.68,28.91-116.33,5.36-38.86,7.59-78.17,8.05-117.38C1224.56,490.85,1222.88,453.7,1214.35,417.87Z"/><path class="cls-2" d="M801.46-12.82c-12.89-10.76-29.08-17-45.13-21.33C713.67-45.61,668.47-48.94,624.45-49c-46.19-.07-92.27,4-138.17,8.87C440-35.27,393.83-29.61,347.41-26.44,299.6-23.19,251.87-23.83,204-26,156-28.21,107.91-31.33,59.77-30.76c-12.18.14-24.37.49-36.53,1.22C14.68-29,6-28-.45-21.82c-6.92,6.6-11,16.49-15,25a242.46,242.46,0,0,0-10.9,28.26c-12.61,39.82-15.56,82-15.9,123.55-.38,46.23,1.38,92.52,2.32,138.73l6,292.68c.17,8.36-1,17.77,2.95,25.5,2,4,5.26,7,9.36,6.41l0,0c-1.33,1.4.79,3.53,2.12,2.12a481.82,481.82,0,0,1,202.3-127.14c40.73-13,82.64-18.64,124.83-24.56,41.57-5.84,83.08-13.53,120.81-32.74,65-33.07,112.93-90,167.93-136.31a433.3,433.3,0,0,1,45-33.61c16.24-10.41,33.41-18.53,50.93-26.53,19.11-8.73,36.88-18.79,51.26-34.37,13.46-14.58,23.73-31.77,33-49.19a567.55,567.55,0,0,0,27.75-60.2c7.94-20.25,17.16-42.18,17.52-64.23A55.7,55.7,0,0,0,801.46-12.82Z"/><path class="cls-3" d="M620.87-20.86C591.51-34.93,557.32-42.1,525.5-48c-33.69-6.24-67.81-9.92-101.94-12.73-72.42-6-145.26-9.81-217.93-10.19-63.45-.34-137.48,3.09-186.79,48.33-21.6,19.82-39.2,44.71-54,69.89a385.12,385.12,0,0,0-35.74,80.83c-17.12,55.1-21.63,114.49-10,171.18a301.07,301.07,0,0,0,8.41,31.88c-3.11-.24-6.25-.35-9.4-.28-2.95.06-3,4.65,0,4.58a88.91,88.91,0,0,1,11,.46q.9,2.65,1.84,5.28c1,2.76,5.42,1.57,4.42-1.22-.41-1.13-.79-2.27-1.19-3.4,24.53,3.82,47,16.49,70,25.55,27.59,10.84,55.48,13.43,84,4.51,62.71-19.57,101.8-75.17,153-112.49,54-39.39,120.45-46.84,184.07-60,59.82-12.38,121.7-32.1,165.84-76.46,19.35-19.45,34.93-43.09,43.12-69.4C641.46,25,647.44-8.12,620.87-20.86Z"/><path class="cls-4" d="M1183.11,432.41c-5.75-6.9-13.55-11.69-22.46-12.55a1.42,1.42,0,0,0-1-1.71l-84.34-24.41c-26.35-7.63-52.8-16.51-80.1-20.06-23.71-3.08-48.77-1.5-70.44,9.41C907.11,392,894.28,407,884.21,423.69c-20.09,33.24-32,76.31-69.53,94.58-21.94,10.68-47,12.46-69.07,22.86-19.23,9.05-34.82,24.65-45.31,43-23.88,41.79-19.15,94.78,1.77,136.79,9.54,19.15,24.21,36.7,45.51,42.69,24,6.74,49.41-1.75,71.49-11,22.37-9.37,44.66-19.69,65.15-32.74a203.26,203.26,0,0,0,28.15-21.35c9.27-8.49,17.11-18.15,24.85-28s15.48-19.53,25.19-27.38a111.67,111.67,0,0,1,30-17c21.17-8.2,43.9-11.35,66.27-14.3,41.59-5.49,93.39-9.91,119.41-47.8,12.9-18.79,16.11-42.23,16.92-64.49C1195.78,477.73,1198.06,450.37,1183.11,432.41Z"/><path class="cls-5" d="M480.87-34.76c-37.9,9.57-77,19.55-110,41.39-34.81,23-55.84,59.6-81.19,91.69-24.43,30.93-53,60.41-90.15,75.49-39.52,16-83,15.48-123.77,26.49C40.5,209.83,4.28,229.19-10,264.81c-.72,1.79,2.18,2.57,2.89.8C6.37,232,40.61,213.42,73.78,204c39.07-11.13,80.59-10.92,119.09-24.44C229,166.84,257.72,141.32,282,112.45c12.11-14.37,23.21-29.53,34.3-44.69,12.71-17.36,25.84-34.71,42.51-48.52,34.77-28.82,80-40.29,122.81-51.11C483.54-32.34,482.75-35.23,480.87-34.76Z"/><path class="cls-6" d="M1165.56,614.34c-19.94-2.67-41-2.47-59.59,6.19-19,8.85-33,25.74-50.89,36.44-18.3,10.93-38.46,18.2-58.67,24.73-10,3.23-20,6.27-30,9.5-8.73,2.82-17.78,5.69-25.16,11.34-15.92,12.21-19.18,33.6-20.39,52.35-.12,1.93,2.88,1.92,3,0,1.12-17.35,3.91-37.47,18.24-49.22,7.85-6.45,18-9.31,27.53-12.36s19-5.93,28.39-9c18.05-5.85,36.05-12.32,52.75-21.45a161.62,161.62,0,0,0,23.44-15.57c8.08-6.46,15.67-13.6,24.38-19.24,20-12.91,44.08-13.81,67-10.74C1167.47,617.59,1167.45,614.59,1165.56,614.34Z"/><path class="cls-7" d="M1111.16,330.62c-57.66-11.28-122-23.06-177.73,2.27C878.14,358,849.06,414.71,808.59,456.74,784.08,482.2,755.84,503.91,728,525.5c-27.2,21.06-55.38,39.18-89.9,44.87-17.63,2.9-35.53,3.52-53.34,4.62q-27.88,1.71-55.71,4.09c-36.91,3.16-73.81,7-110.5,12.11-16.11,2.23-32.34,5.34-46.61,13.53A97.22,97.22,0,0,0,342,632.27c-19.31,26.64-25.91,59.46-29.09,91.59-.88,8.85-1.52,17.71-2.16,26.58-.14,1.92,2.83,2.35,3,.42,2.47-34.13,5-69.66,20.84-100.67,6.81-13.33,16-25.68,27.66-35.16,12.91-10.49,28.15-16,44.37-18.93,17.7-3.23,35.74-5,53.61-7.08q27.26-3.15,54.58-5.66c35.73-3.28,71.68-4.39,107.37-7.91,16.3-1.6,32.53-4.52,47.82-10.56,14.42-5.7,27.81-13.76,40.48-22.63,13.38-9.36,26.13-19.61,38.94-29.72,13.43-10.6,26.76-21.35,39.52-32.76,23.27-20.83,42.8-44.48,62.19-68.85,18.22-22.89,37.11-46,61.42-62.74,51.84-35.69,117.36-29.38,176.06-18.8,7.41,1.34,14.8,2.76,22.19,4.2C1112.64,334,1113.05,331,1111.16,330.62Z"/><path class="cls-8" d="M985.84-310.42l-.4-.05h0a55.76,55.76,0,0,0-14.84-.07l-544.68-2.4L-130.8-315.4l-314-1.38a1.5,1.5,0,0,0,0,3l559.54,2.47,556.69,2.45L958-307.6c-9.77,3.31-18.95,8.73-27.48,14.93-18.07,13.14-34.55,28.73-51.22,43.57q-53.48,47.6-104.39,98A2704.46,2704.46,0,0,0,583.28,59.76Q538.68,114.35,497,171.22c-26.53,36.17-52,73.6-84.23,105-33.86,33-74.4,54.29-119.56,67.62-44.58,13.16-90.74,19.52-135.88,30.34-42.35,10.15-85.18,24.47-120.06,51.36-30.12,23.23-55,55.84-63,93.6a125,125,0,0,0-2.63,27.94c0,1.93,3,1.93,3,0-.66-41.25,20.33-78.9,49.78-106.64,32.66-30.76,75-47.86,117.8-59.33,84.29-22.61,177.35-26,248.78-81.78C424.54,273.13,451,239.17,476,205c27.4-37.34,54.74-74.66,83.5-111A2702.87,2702.87,0,0,1,743.45-115.11q48.63-49.87,99.8-97.19Q868.81-236,895-258.94c17-15,34-31.66,54.45-41.92a66.78,66.78,0,0,1,20.69-6.69l15.31.07C987.07-307.47,987.55-310.17,985.84-310.42Z"/></svg>