<svg id="Camada_1" data-name="Camada 1" xmlns="http://www.w3.org/2000/svg" viewBox="0 0 200 200"><defs><style>.cls-1{fill:#435898;}.cls-2{fill:#fbfcfc;}</style></defs><title>facebook</title><g id="GfqQaf.tif"><path class="cls-1" d="M105.21,185.94c-42.31,1-77.67-26-87.37-66.55C6.33,71.19,39.05,22.55,88.08,15,136,7.55,179.81,39.9,187,88c5.73,38.49-16.83,77.49-53.11,91.78a4.27,4.27,0,0,1-2.64.63c0-18.12.05-36.24,0-54.36,0-2.28.55-3,2.89-2.92,4,.19,8,0,12,.09,1.91.06,2.74-.48,2.91-2.48.48-5.6,1.06-11.2,1.78-16.78.27-2.11-.41-2.64-2.42-2.6-4.91.12-9.83,0-14.74,0-1.33,0-2.42,0-2.35-1.87.13-3.78-.06-7.58.19-11.36.28-4.2,2-5.84,6.24-6,3.68-.18,7.37-.15,11.05-.09,1.59,0,2.15-.49,2.13-2.11q-.11-8.75,0-17.51c0-1.53-.39-2.25-2-2.22-7.37.15-14.75-.38-22.09.47-12,1.38-18.91,8.16-20.82,20.22-1,6-.43,12.06-.49,18.09,0,1.87-.57,2.53-2.45,2.45-2.86-.13-5.73,0-8.6,0-1.44,0-2,.47-2,1.95.06,5.94.07,11.88,0,17.81,0,1.66.62,2.11,2.17,2.06,2.86-.09,5.73,0,8.6,0,1.45,0,2.25.23,2.24,2Q105.22,155.53,105.21,185.94Z"/><path class="cls-2" d="M105.21,185.94q.05-30.4.14-60.81c0-1.75-.79-2-2.24-2-2.87.06-5.73,0-8.6,0-1.55,0-2.19-.41-2.17-2.06.07-5.94.06-11.88,0-17.81,0-1.48.54-2,2-1.95,2.86.07,5.74-.08,8.6,0,1.88.08,2.43-.57,2.45-2.45.07-6-.46-12.07.49-18.09,1.91-12.06,8.81-18.85,20.82-20.22,7.34-.84,14.73-.32,22.09-.47,1.66,0,2.06.69,2,2.22q-.1,8.75,0,17.51c0,1.62-.54,2.14-2.13,2.11-3.68-.06-7.38-.09-11.05.09-4.21.2-6,1.84-6.24,6-.25,3.77-.06,7.57-.19,11.36-.06,1.87,1,1.88,2.35,1.87,4.91,0,9.83.07,14.74,0,2,0,2.69.48,2.42,2.6-.71,5.58-1.3,11.18-1.78,16.78-.17,2-1,2.54-2.91,2.48-4-.13-8,.1-12-.09-2.34-.11-2.9.65-2.89,2.92.09,18.12,0,36.24,0,54.36-5.78,3-12.1,4-18.42,4.89C110.3,185.63,107.79,186.42,105.21,185.94Z"/></g></svg>