<svg id="Camada_1" data-name="Camada 1" xmlns="http://www.w3.org/2000/svg" viewBox="0 0 200 200"><defs><style>.cls-1{fill:#f7f7f7;}</style></defs><title>google-partner</title><g id="pr4aND.tif"><path class="cls-1" d="M137,85.73h33.53c1.83,0,1.78,0,2.11,1.85a80.91,80.91,0,0,1,1,19.18c-.93,16.24-5.72,31.14-16.15,43.88a64.5,64.5,0,0,1-27.48,19.69,78.89,78.89,0,0,1-25.44,5A74.34,74.34,0,0,1,56.5,160.41a75.1,75.1,0,0,1-21.85-25.65,72.73,72.73,0,0,1-7.88-24.92A75.52,75.52,0,0,1,66.09,33.48a74.3,74.3,0,0,1,22.72-7.8,78.81,78.81,0,0,1,22.9-.4A70.32,70.32,0,0,1,134.18,32,71.88,71.88,0,0,1,149.46,42c.6.52,1.17,1.07,1.79,1.56s.67,1.08,0,1.74c-3.84,3.8-7.65,7.63-11.47,11.45-2.7,2.7-5.42,5.37-8.08,8.1-.72.73-1.16.86-2,.09a40,40,0,0,0-23.3-10.31,43.19,43.19,0,0,0-31.76,9,44,44,0,0,0-16,23.68c-4.3,15.77-1.22,30.09,9.3,42.62a42.49,42.49,0,0,0,28.94,15.45c11,1.15,21.4-.87,30.69-7.13a34.51,34.51,0,0,0,14.63-21.72c.25-1.08-.25-1.17-1.12-1.17q-18.86,0-37.73,0c-1.89,0-1.9,0-1.9-1.85q0-12.92,0-25.83c0-2,0-2,2-2Z"/></g></svg>