<svg id="Camada_1" data-name="Camada 1" xmlns="http://www.w3.org/2000/svg" viewBox="0 0 200 200"><defs><style>.cls-1{fill:#d92f2b;}.cls-2{fill:#53aa50;}.cls-3{fill:#5383f8;}.cls-4{fill:#f0b801;}</style></defs><title>google</title><g id="JBwDwl.tif"><path class="cls-1" d="M24.85,61.42a55.35,55.35,0,0,1,4.07-7.32,85.34,85.34,0,0,1,22.4-23.87A84.38,84.38,0,0,1,90.24,14.7a86,86,0,0,1,41.12,4.36,79.54,79.54,0,0,1,19.45,10.33,88,88,0,0,1,7.89,6.4c.51.46.48.71,0,1.18Q147.4,48.24,136.12,59.53c-1,1-1,1-2.14.05-9.91-8.75-21.55-12.58-34.66-12A49.62,49.62,0,0,0,66.74,61.76a52.23,52.23,0,0,0-13.5,20.9,4.55,4.55,0,0,1-.26.52L39,72.34c-3.53-2.74-7-5.5-10.59-8.2A36.64,36.64,0,0,0,24.85,61.42Z"/><path class="cls-2" d="M158.7,165.3a66,66,0,0,1-10.7,8.23,81.3,81.3,0,0,1-33.1,11.68,90.94,90.94,0,0,1-31.17-1A85,85,0,0,1,48,167.25,86.11,86.11,0,0,1,25,139a3.76,3.76,0,0,1-.15-.39c.32-.23.64-.45.95-.69q5.92-4.61,11.83-9.22,7.68-6,15.38-11.89a63.46,63.46,0,0,0,3.72,8.34c7.3,13,18,21.75,32.4,25.62,10.27,2.76,20.52,2.08,30.62-1.09A45.06,45.06,0,0,0,131,144.32a6.47,6.47,0,0,1,.59-.31,5,5,0,0,0,.9.86c1.68,1.28,3.33,2.6,5,3.89L149.31,158Q154,161.62,158.7,165.3Z"/><path class="cls-3" d="M158.7,165.3q-4.7-3.67-9.39-7.35l-11.83-9.19c-1.67-1.3-3.32-2.61-5-3.89a5,5,0,0,1-.9-.86c1.46-1.21,3-2.3,4.43-3.59A39.83,39.83,0,0,0,148.09,120c.16-.65.28-1.31.44-2,.1-.4,0-.59-.44-.57H102.79c-1.09,0-1.09,0-1.09-1.09q0-15.8,0-31.61c0-.72.15-.94.92-.94q39.59,0,79.19,0c.67,0,1,.13,1.11.86a103.09,103.09,0,0,1,1.47,19.06c-.31,14.6-3.3,28.54-10.19,41.53a75.09,75.09,0,0,1-15.26,19.91A1.2,1.2,0,0,1,158.7,165.3Z"/><path class="cls-4" d="M53,116.82q-7.69,5.95-15.38,11.89-5.93,4.6-11.83,9.22c-.31.24-.63.46-.95.69A70.35,70.35,0,0,1,20.66,129a79.87,79.87,0,0,1-3.6-13.27,86.21,86.21,0,0,1-1.35-19.64,87.94,87.94,0,0,1,2.12-15.52,86.15,86.15,0,0,1,6.46-18.24c.16-.32.37-.62.56-.93a36.61,36.61,0,0,1,3.59,2.71C32,66.84,35.51,69.6,39,72.34L53,83.18c-.48,2-1.14,3.86-1.55,5.83a52.13,52.13,0,0,0-.93,16,51.23,51.23,0,0,0,2.37,11.21A4.11,4.11,0,0,1,53,116.82Z"/></g></svg>