<svg id="Camada_1" data-name="Camada 1" xmlns="http://www.w3.org/2000/svg" viewBox="0 0 200 200"><defs><style>.cls-1{fill:#ee3901;}</style></defs><title>hotmart-black</title><g id="Tfuv9p.tif"><path class="cls-1" d="M111.4,11.47c-6,10.72-7.41,21.31-2,32.23,1.51,3,3.31,5.93,6.28,7.79,3.8,2.38,7.38.87,8.22-3.53a22.24,22.24,0,0,0,.23-5c-.07-1.65-.39-3.29-.71-5.78a30.1,30.1,0,0,1,12,13.44c2.1,4.52,2.74,9.43,3.53,14.29a11.82,11.82,0,0,0,1.57,4.76,4,4,0,0,0,4.82,1.65,3.08,3.08,0,0,0,2.25-3.58c-.11-1.49,0-3,0-4.32,1.25-.56,1.73,0,2.07.61,12.84,22.93,20,47.21,15.71,73.66-4.54,28.21-28.13,49.82-56.42,53.19-19.58,2.33-36.54-3.36-51-16.12-15.25-13.41-22.77-30.74-21.79-51C37.41,97,48.08,74,65.51,53.91a5.1,5.1,0,0,1,.92-.87,3.64,3.64,0,0,1,1.07-.22c-.82,2.92-1.75,5.67-2.34,8.5-.48,2.28-1.35,5.23,1.65,6.21s3.68-2.05,4.52-4c3.42-7.86,5.82-16.13,9.61-23.84C86.53,28.34,93.8,18.53,105.71,13c1.27-.59,2.6-1.07,3.92-1.54A7.37,7.37,0,0,1,111.4,11.47ZM101.33,156.1A30.06,30.06,0,1,0,71.2,126.23,30,30,0,0,0,101.33,156.1Z"/></g></svg>