<svg id="Camada_1" data-name="Camada 1" xmlns="http://www.w3.org/2000/svg" xmlns:xlink="http://www.w3.org/1999/xlink" viewBox="0 0 200 200"><defs><style>.cls-1,.cls-2,.cls-3{opacity:0.8;}.cls-1{fill:url(#Gradiente_sem_nome_12);}.cls-2{fill:url(#Gradiente_sem_nome_12-2);}.cls-3{fill:url(#Gradiente_sem_nome_12-3);}.cls-4{fill:url(#Gradiente_sem_nome_12-4);}.cls-5{fill:#e9e9e9;}.cls-6{fill:#bebdc2;}.cls-7{fill:#6d6d6d;}.cls-8{fill:#47464b;}.cls-9{fill:#3d3d40;}.cls-10{fill:#414045;}.cls-11{fill:#ececec;}.cls-12{fill:#dad9db;}.cls-13{fill:#e8e8e8;}.cls-14{fill:#d1d0d3;}.cls-15{fill:#cdcdcd;}.cls-16{fill:#c1c1c1;}.cls-17{fill:#797979;}.cls-18{fill:#444348;}.cls-19{fill:#9b9a9f;}.cls-20{fill:#cac9cd;}.cls-21{fill:#939393;}.cls-22{fill:#5d5c60;}.cls-23{fill:#79787d;}.cls-24{fill:#b3b2b8;}.cls-25{fill:#303034;}.cls-26{fill:#636266;}.cls-27{fill:#e6e6e6;}.cls-28{fill:#bebec2;}.cls-29{fill:#d4d3d6;}.cls-30{fill:#232326;}.cls-31{fill:#69696c;}.cls-32{fill:#c1c1c5;}.cls-33{fill:#c7c7cb;}.cls-34{fill:#57565b;}.cls-35{fill:#656568;}.cls-36{fill:#d8d8db;}.cls-37{fill:#ccccd0;}.cls-38{fill:#d3d3d6;}.cls-39{fill:#2c2b30;}.cls-40{fill:#313034;}.cls-41{fill:#343336;}.cls-42{fill:#474648;}.cls-43{fill:#a6a6a6;}.cls-44{fill:#919191;}.cls-45{fill:#8f8f90;}.cls-46{fill:#545359;}.cls-47{fill:#4d4c51;}.cls-48{fill:#3b3b3e;}.cls-49{fill:#4a4a4b;}.cls-50{fill:#686868;}.cls-51{fill:#c8c7c8;}.cls-52{fill:#78787c;}.cls-53{fill:#a8a8a8;}.cls-54{fill:#cfcfd2;}.cls-55{fill:#c1c1c6;}.cls-56{fill:#c8c8cc;}.cls-57{fill:#d3d3d7;}.cls-58{fill:#0c0c0c;}.cls-59{fill:#161616;}.cls-60{fill:#1c1c1c;}.cls-61{fill:#29292c;}.cls-62{fill:#515154;}.cls-63{fill:#25252a;}.cls-64{fill:#78797c;}.cls-65{fill:#86878a;}.cls-66{fill:#757679;}.cls-67{fill:#717175;}.cls-68{fill:#7e7e82;}.cls-69{fill:#8c8d90;}.cls-70{fill:#202123;}.cls-71{fill:#999a9d;}.cls-72{fill:#7b7c7f;}.cls-73{fill:#96979a;}.cls-74{fill:#7d7e81;}.cls-75{fill:#858689;}.cls-76{fill:#7e7f82;}.cls-77{fill:#9c9da0;}.cls-78{fill:#757478;}.cls-79{fill:#9d9ca1;}.cls-80{fill:#c6c6ca;}.cls-81{fill:#cacbce;}.cls-82{fill:#4c4c50;}.cls-83{fill:#c5c5c9;}.cls-84{fill:#b5b3b9;}.cls-85{fill:#a5a4a9;}.cls-86{fill:#abaaae;}.cls-87{fill:#303134;}.cls-88{fill:#27272a;}.cls-89{fill:#28282b;}.cls-90{fill:#c5c3c8;}.cls-91{fill:#b7b6ba;}.cls-92{fill:#bfbdc4;}.cls-93{fill:#fff;}.cls-94{fill:#e5d3d8;}</style><linearGradient id="Gradiente_sem_nome_12" x1="27.24" y1="93.49" x2="192.01" y2="93.49" gradientTransform="translate(-10.01 14.83) rotate(-7.6)" gradientUnits="userSpaceOnUse"><stop offset="0" stop-color="#4caaff"/><stop offset="1" stop-color="#2955e2"/></linearGradient><linearGradient id="Gradiente_sem_nome_12-2" x1="5.32" y1="124.25" x2="173.61" y2="124.25" gradientTransform="translate(-16.93 17.24) rotate(-9.33)" xlink:href="#Gradiente_sem_nome_12"/><linearGradient id="Gradiente_sem_nome_12-3" x1="0.95" y1="88.37" x2="173.65" y2="88.37" gradientTransform="translate(166.46 206) rotate(-171.05)" xlink:href="#Gradiente_sem_nome_12"/><linearGradient id="Gradiente_sem_nome_12-4" x1="22.18" y1="169.94" x2="44.85" y2="169.94" gradientTransform="matrix(1, 0, 0, 1, 0, 0)" xlink:href="#Gradiente_sem_nome_12"/></defs><title>img-1</title><path class="cls-1" d="M187.84,88.57c-5.9-7.26-13.38-13-19.32-20.29-6.5-7.94-11.2-16.86-16.22-25.75-8.39-14.87-19.23-25.53-36-30.2C100.68,8,81.25,7.32,66.2,14.14c-15.49,7-23.5,23.07-28.86,38.36A138.71,138.71,0,0,0,48.52,167.4c.93,1.59,5.27,4.26,5.81,3,16.43,7.76,30,9.7,48.67,9.13,19-.57,39.87-2.39,57.75-9.06,16-6,29-17.43,33.59-34.2C198.53,121,198.24,101.38,187.84,88.57Z"/><path class="cls-2" d="M170.42,89.28c-4.34-16.63-14.27-29-31.62-32.49-9.2-1.86-18.78-1.55-28.11-1.25a173,173,0,0,0-34.43,4.14,2,2,0,0,0-1.47,2.49c-17.08,5.6-36,2.15-52.57,9.68-13.23,6-19.68,17.1-19,31.53.74,16.76,6,29.48,20,39,7.22,4.9,13.81,9.52,19.29,16.44,5.27,6.65,9.63,14,15.53,20.18,10.15,10.55,24,14.68,38.4,13.69,14-1,30-6.14,38.93-17.59,4.84-6.22,7.07-13.9,10.19-21A91.74,91.74,0,0,1,162,129.13c4.73-5.2,9-10.14,10.36-17.26C173.76,104.45,172.3,96.47,170.42,89.28Z"/><path class="cls-3" d="M10.56,97.76c2,7.89,6.72,14,12.24,19.75a87,87,0,0,1,16.78,24.16c6.85,14.54,18.32,28.11,32.54,36.05,13.65,7.63,27.23,1.38,36.8-9.52,6.42-7.31,10.79-16.2,17.44-23.32,7.36-7.87,17.14-11.45,26.83-15.54,13.54-5.72,31.28-16.08,28.46-32.85,1.17-.5-2.19-4.1-3.45-5.22C163.58,78.23,155.33,64.47,143.55,49c-5-6.58-10.8-12.3-18.59-15.41s-16.28-4-24.5-4.49c-13.71-.84-26.93,1.25-35,13.31-2.88,4.29-5.57,7.85-10.66,9.6-4.16,1.43-8.75,1.5-13.07,2.07A37.67,37.67,0,0,0,23,61.43,35.27,35.27,0,0,0,10.56,97.76Z"/><path class="cls-4" d="M44.56,169.76c-1.12-3.13-4.14-3-6.79-3.88-3.49-1.13-4.6-4.94-8.47-5.41a3.71,3.71,0,0,0-1.45.1A4.1,4.1,0,0,0,23,161.7c-1.85,2.05-.31,4.28.86,6.12,1,1.64,2,2.81,1.63,4.81-.11.66-.53,1.28-.65,2A4.25,4.25,0,0,0,25.5,178a4.85,4.85,0,0,0,5.79,1.26,8,8,0,0,0,2.8-2.31c.85-1,1.47-2.23,2.85-2.67,1.11-.36,3.21-.11,4.38-.17C43.84,173.93,45.57,172.58,44.56,169.76Z"/><g id="_99iXTz.tif" data-name="99iXTz.tif"><path class="cls-5" d="M174.55,44a1.11,1.11,0,0,0,0,.16c-.25.36-.63.35-1,.36s-.74,0-1.11,0H29.19c-.71,0-1.5.27-2.12-.36a1.06,1.06,0,0,0,0-.17Z"/><path class="cls-6" d="M27.07,44.21l1.11,0H173.35l1.22,0c3.21.66,5.07,2.53,5.4,5.41.09,2.52,0,5,0,7.55,0,7,0,13.93,0,20.89a.24.24,0,0,1-.36.1,2.35,2.35,0,0,1-.28-1.6c0-8.41,0-16.82,0-25.23a5.85,5.85,0,0,0-.84-3.61,5.3,5.3,0,0,0-4.92-2.67q-72.63,0-145.26,0a6,6,0,0,0-4.83,2.08,3.85,3.85,0,0,0-1,2.64c0,.37,0,.74,0,1.11q0,49,0,98c0,.37,0,.74,0,1.11,0,1.32.15,1.44,1.48,1.5H80.25a3.66,3.66,0,0,1,1.86.2.28.28,0,0,1,.07.39,2.46,2.46,0,0,1-1.61.26H44.05c-7-.44-14-.07-21-.23,1.74,0,3.49,0,5.23,0,4.42,0,8.83-.06,13.25,0,.16.46-.2.39-.42.39-1.92,0-3.83,0-5.75,0,2.74,0,5.49,0,8.23-.18.46,0,1.15-.26,1.31.56a2.38,2.38,0,0,1-1.61.26H21.58c-1.93,0-3.86.05-5.79,0-1.43-.06-2.86.1-4.28-.1a.53.53,0,0,1-.34-.68c.07-.34.35-.29.59-.31s.57.08.83-.11c2.79,0,5.58,0,8.36,0,.9,0,1.17-.33.92-1.11a5.41,5.41,0,0,1-.19-1.65q0-49.52,0-99A5.92,5.92,0,0,1,27.07,44.21Z"/><path class="cls-7" d="M181.69,155.8c-4.8,0-9.59,0-14.39,0l-150.8,0-3.23,0c-.21-.18-.49,0-.72-.17a.46.46,0,0,1-.06-.45.58.58,0,0,1,.24-.21,1.85,1.85,0,0,1,1,0,1.33,1.33,0,0,1,.32.12c.46.34,1,.2,1.5.22H180.23a3.07,3.07,0,0,1,1.37.18A.24.24,0,0,1,181.69,155.8Z"/><path class="cls-8" d="M10.58,154.5c-2-.48-4-.7-5.92-1.31-.77-.24-1-.52-.61-1.21a2.11,2.11,0,0,1,.79-.07c.38.07.36.55.69.68a2.61,2.61,0,0,0,.41.06l.6,0a3.17,3.17,0,0,1,.48.06,2.22,2.22,0,0,1,.33.08c.93.18,1.93-.25,2.82.33a.26.26,0,0,1-.12.32c-.85,0-1.7,0-2.55,0a28.15,28.15,0,0,0,3.31-.1,29.54,29.54,0,0,0,4.6.58c2.21.24,4.42.15,6.63.3a1,1,0,0,1,.63.49c-.17.51-.62.46-1,.47a25.4,25.4,0,0,1-2.55,0,2.05,2.05,0,0,1-.37-.07c-1.92-.14-3.84-.23-5.76-.31a2.06,2.06,0,0,0-.33.09.66.66,0,0,1-.5,0c0-.26-.21-.27-.42-.24C11.38,154.46,10.95,154.7,10.58,154.5Z"/><path class="cls-9" d="M190.84,154.45l-.63,0c-.31.19-.73,0-1,.3a1.36,1.36,0,0,1-.3.12c-.48.06-.95.19-1.42.28l-.34,0c-.35,0-.7,0-1,0a13.11,13.11,0,0,1-3.3.32,11.49,11.49,0,0,0-2.81-.19,3.72,3.72,0,0,1-1.33-.11c-.29-.29-.05-.46.15-.64a.85.85,0,0,1,.39,0,54.24,54.24,0,0,0,9.75-.56,5.63,5.63,0,0,1,1.33,0C190.53,154,190.83,154.07,190.84,154.45Z"/><path class="cls-10" d="M196.87,152l.45.09c.26.3.16.61,0,.91a2.35,2.35,0,0,1-1.48.42c-.9.14-1.8.19-2.71.28h-2.69a1.29,1.29,0,0,1-1-.3c.16-.67.72-.5,1.15-.53a32.13,32.13,0,0,0,3.62-.11,4,4,0,0,1,.9-.1c.59.05,1.13,0,1.43-.62A.29.29,0,0,1,196.87,152Z"/><path class="cls-11" d="M189.5,154.72c1,.46,2.2-.07,3.23.71-1.23.55-2.51.34-3.72.52,0-.11,0-.25.11-.3.74-.37-.09-.34-.12-.51a.33.33,0,0,1,.08-.42l0-.06A.33.33,0,0,1,189.5,154.72Z"/><path class="cls-12" d="M7.24,152h3.57c-.38.65-1.17.63-1.72,1-.45,0-.89,0-1.34,0A1,1,0,0,1,7.24,152Z"/><path class="cls-13" d="M10.81,155.81a4.61,4.61,0,0,1-2.66-.42,4.94,4.94,0,0,1,2.88-.47.26.26,0,0,1,0,.26C10.55,155.28,10.84,155.59,10.81,155.81Z"/><path class="cls-14" d="M9.24,152.88c.21-.85,1.11-.44,1.56-.85h1.79c-.32.49-1.37-.17-1.35.85C10.58,153.45,9.91,153,9.24,152.88Z"/><path class="cls-10" d="M190.84,154.45l-.44-.2c0-.54.48-.46.82-.52.65-.11,1.32-.12,2-.24a4,4,0,0,1,1.74.13A21.89,21.89,0,0,1,190.84,154.45Z"/><path class="cls-15" d="M10.81,155.81c-.15-.33-.65-.07-.79-.47.27-.34.66-.14,1-.22l.13,0a2.11,2.11,0,0,0,.93.18.74.74,0,0,1,.52.25c.24,0,.5,0,.69.2Z"/><path class="cls-16" d="M189.08,155.13c.38.06.82-.13,1.19.31-.39.28-1,.06-1.26.52l-1.3-.16a.22.22,0,0,1,0-.26.76.76,0,0,1,.25-.13,1.82,1.82,0,0,0,.76-.24C188.83,155.09,188.94,155,189.08,155.13Z"/><path class="cls-17" d="M181.69,155.8q0-.09,0-.18c.26-.31.6-.24.94-.2,1.06.28,2.13-.27,3.19,0a.24.24,0,0,1,.1.34Z"/><path class="cls-18" d="M194.93,153.62l-1.86,0-.09-.11.08-.11,2.78,0C195.6,153.69,195.26,153.64,194.93,153.62Z"/><path class="cls-19" d="M6.58,152.88H5.92a.59.59,0,0,1,0-.86h.44C6.69,152.23,6.86,152.5,6.58,152.88Z"/><path class="cls-20" d="M7.24,152c.22.25.53.45.45.85-.21.23-.44.16-.68.07l0-.06a.81.81,0,0,1-.24-.86Z"/><path class="cls-21" d="M185.93,155.8q0-.09,0-.19a.81.81,0,0,1,.63-.29,2.84,2.84,0,0,1,.71,0,.7.7,0,0,1,.45.26l0,.19Z"/><path class="cls-22" d="M5.47,152.89c-.6,0-.41-.5-.5-.82a.18.18,0,0,1,.31-.08.14.14,0,0,1,.18,0A.66.66,0,0,1,5.47,152.89Z"/><path class="cls-23" d="M5.47,152.89V152H5.9l0,.86Z"/><path class="cls-24" d="M6.79,152l.24.86H6.58L6.34,152Z"/><path class="cls-15" d="M11,155.12a1.48,1.48,0,0,0,0-.2h1.12l.44-.19a.26.26,0,0,1,0,.4l0,0a1,1,0,0,1-.68.21,1.21,1.21,0,0,1-.87-.19Z"/><path class="cls-25" d="M197.33,153v-.91h.43A.81.81,0,0,1,197.33,153Z"/><path class="cls-18" d="M189.5,154.72l-.46-.05c.34-.32.76-.17,1.16-.18Z"/><path class="cls-26" d="M5.28,152l-.31.07L4.05,152A1.26,1.26,0,0,1,5.28,152Z"/><path class="cls-27" d="M10.58,154.5a1.7,1.7,0,0,1,1.16.18C11.34,154.7,10.93,154.82,10.58,154.5Z"/><path class="cls-28" d="M179.78,78.18h.17A4.24,4.24,0,0,1,180,79.5q0,29.47,0,58.94a2.92,2.92,0,0,0,.1,1.32v7.55c-.24,1,0,2-.15,2.92-.33,1.78-.33,1.78,1.55,1.78h8.21c.25.2.55.08.83.12a.41.41,0,0,1,.38.43c0,.31-.11.47-.44.45a60,60,0,0,1-7.09.21H158a1.7,1.7,0,0,1-1-.19c-.26-.72.36-.59.67-.61a9.27,9.27,0,0,1,2.44.11,25,25,0,0,0,2.95.07c-.81,0-1.62,0-2.43,0-.25,0-.64.13-.58-.38,1.93-.12,3.86,0,5.79-.05h0c-5.5,0-11,.35-16.49.21h-28a8.17,8.17,0,0,1-1.56-.06,1,1,0,0,1-.39-.22.32.32,0,0,1,.13-.38,4,4,0,0,1,1.86-.18h56.23c1,.06,1.42-.38,1.57-1.32a10.76,10.76,0,0,0,.13-1.77q0-34.23,0-68.46C179.36,79.33,179.16,78.65,179.78,78.18Z"/><path class="cls-5" d="M180.12,139.76c-.32-.43-.17-.94-.17-1.4q0-30.09,0-60.18,0-14.28,0-28.55a1.4,1.4,0,0,1,.16,1q0,44.47,0,88.95C180.13,139.61,180.12,139.69,180.12,139.76Z"/><path class="cls-29" d="M190.85,152.87c.07-.87-.84-.45-1.12-.85a41.83,41.83,0,0,0,6.09-.21c.33-.06.74-.17,1,.16l-.22.05c-.44.32-1,.42-1.37.86l-.86.06A11.57,11.57,0,0,1,190.85,152.87Z"/><path class="cls-5" d="M180,150.24a8.34,8.34,0,0,1,.15-2.92A9.38,9.38,0,0,1,180,150.24Z"/><path d="M23.28,46.92A5.31,5.31,0,0,1,28,44.67H173.71a5.28,5.28,0,0,1,5.11,2.89c.79,1.87.65,3.85.64,5.81-.22,31.74-.07,63.48-.12,95.22,0,.62.13,1.27-.37,1.82-.57-.25-.49-.77-.53-1.23-.13-1.31-.12-1.31-1.47-1.32H25.32c-2.29,0-2.29,0-2,2.31a1.27,1.27,0,0,1,0,.87c-.7.13-.81-.37-.89-.85a7.82,7.82,0,0,1,0-1.34c0-22.33,0-44.65,0-67q0-14.53-.08-29.07C22.3,50.8,22,48.73,23.28,46.92Z"/><path class="cls-30" d="M23.3,151.13a6.37,6.37,0,0,1-.47-2.7c0-.71.28-.93.93-.87.29,0,.59,0,.89,0H176.77c2,0,2,0,2,2a.81.81,0,0,0,.22.66q0-.6,0-1.21c0-28-.05-56,.06-84,0-4.67.09-9.35.15-14a3.58,3.58,0,0,0-.45-2.56c-.21-.26,0-.57,0-.86a4.72,4.72,0,0,1,.81,3.36q0,13,0,25.94a2.5,2.5,0,0,0,.13,1.31,2.83,2.83,0,0,0-.13,1.42q0,34.44,0,68.89a16.42,16.42,0,0,1-.08,1.78c-.18,1.62-.2,1.63-1.87,1.51a3.7,3.7,0,0,0-1.53-.08q-27.58,0-55.17,0c-1.19,0-2.35.34-3.54.23H84.22c-19.66-.48-39.32-.08-59-.21a2.82,2.82,0,0,1-1.82-.37Z"/><path class="cls-30" d="M23.28,46.92c.14.26.3.52,0,.8a3.38,3.38,0,0,0-.87,2.73c0,7.84-.1,15.68,0,23.52.42,25.14.07,50.27.19,75.41,0,.68,0,1.35.68,1.76h0c.18.27.69.18.68.65-1.56.12-1.74,0-1.85-1.55,0-.3,0-.59,0-.89q0-49.43,0-98.85A4.51,4.51,0,0,1,23.28,46.92Z"/><path class="cls-31" d="M82.18,152a.49.49,0,0,0,0-.2.21.21,0,0,1,.28,0,1.8,1.8,0,0,1,0,1c.06-.35,0-.78.31-1a3.88,3.88,0,0,1,1.12-.07.6.6,0,0,1,.3.07.34.34,0,0,1-.05.29,1.32,1.32,0,0,1-.53.25c-.62.29.14.77-.15,1.11a.87.87,0,0,1-.33.19,6.69,6.69,0,0,1-1.45.07H23.29a4,4,0,0,1-1.65-.15.38.38,0,0,1-.13-.57l21.86,0c.52,0,1,0,1.56,0a2,2,0,0,1,1.48-.29q3.27,0,6.54,0c2.46,0,4.91,0,7.37,0s4.89,0,7.33,0c4.34,0,8.67,0,13,0,.43,0,.9.14,1.26-.25Z"/><path d="M82.41,151.81h-.23l-35,0-23.19,0c-.2-.25-.58-.3-.68-.65a6.64,6.64,0,0,0,3,.46H84.2q.1,0,.07.11s0,.06-.06.06l-1.34.08A.38.38,0,0,1,82.41,151.81Z"/><path class="cls-32" d="M53,152.88h-8c-.35-.32-.78-.18-1.17-.18H36.2a1.92,1.92,0,0,1-1.26-.22c2,0,3.73,0,5.5,0,.39,0,.82.15,1.15-.22a11.9,11.9,0,0,1,2.5-.11c2.28,0,4.55-.05,6.82,0,.12.52-.29.39-.53.39-.87,0-1.74,0-2.36,0-.4.07-.2.29-.26.16s0-.09,0-.09c1.38-.12,2.78,0,4.16-.23C52.34,152.35,52.84,152.31,53,152.88Z"/><path class="cls-33" d="M44,152.24H22.9V152H44.05q.1.07.07.14S44.07,152.24,44,152.24Z"/><path class="cls-34" d="M7,152.94l.68-.07h3.56l4.47.07c.33.17.73,0,1.18.19-.26.53-.7.5-1.11.52a22.2,22.2,0,0,0-3,.1,5.7,5.7,0,0,1-2-.18H7.29v-.23h2.85a11.91,11.91,0,0,1,2.23-.11,10.85,10.85,0,0,1-2.23-.11C9.09,153,8,153.34,7,152.94Z"/><path class="cls-35" d="M12.81,153.58c.83-.46,1.73-.13,2.6-.22.38,0,.78,0,1.26,0-.31-.37-.74-.09-.95-.41h5.79v.41c-.53.49-1.19.26-1.8.3s-1-.09-1.47.32a28.76,28.76,0,0,1-5.28-.26Z"/><path class="cls-36" d="M82.18,152l0,.22a1.59,1.59,0,0,1-1.15.33c-5.17,0-10.33.06-15.5,0a1.25,1.25,0,0,1-.41-.13A.26.26,0,0,1,65,152Z"/><path class="cls-37" d="M44,152.24q0-.1,0-.21H55.21a.26.26,0,0,1-.13.35,8.91,8.91,0,0,1-4.12-.14Z"/><path class="cls-38" d="M55.2,152.24q0-.1,0-.21H65q0,.1,0,.21c-.38.39-.88.3-1.35.31-1.84,0-3.68,0-5.52,0C57.17,152.43,56.13,152.85,55.2,152.24Z"/><path class="cls-39" d="M178.33,155.56c-5.8,0-11.6,0-17.4,0H25.88l-2.12,0c.36-.84,1.12-.36,1.7-.51H173.8c1.15,0,2.3,0,3.45,0C177.66,155.08,178.18,154.94,178.33,155.56Z"/><path class="cls-40" d="M25.31,155.36c-.51.09-1.07-.18-1.55.2H20c-1.08-.18-2.18,0-3.25-.3a.25.25,0,0,1-.12-.32,4.28,4.28,0,0,1,2.25,0h0a13.87,13.87,0,0,0,4,0,5,5,0,0,1,2.41.08A.26.26,0,0,1,25.31,155.36Z"/><path class="cls-41" d="M178.33,155.56c-1.47-.44-3-.07-4.45-.2A.25.25,0,0,1,174,155a7,7,0,0,1,2.53-.19h1.16a1.17,1.17,0,0,1,.9.3h1.34c.13.15.34.08.49.18a.17.17,0,0,1-.05.23Z"/><path class="cls-42" d="M16.61,155.14a16.16,16.16,0,0,1,3.34.42H15.29C15.56,154.86,16.12,155.12,16.61,155.14Z"/><path class="cls-8" d="M16.61,155.14c-.34.47-1,0-1.32.41-.45-.12-1.07.37-1.34-.38a.43.43,0,0,1,.29-.38c.79.11,1.64-.13,2.38.35Z"/><path class="cls-9" d="M180.35,155.56q0-.1,0-.19a7.5,7.5,0,0,1,2.12-.09.18.18,0,0,1,.11.3l-.88,0Z"/><path class="cls-43" d="M12.58,155.13v-.49a1.45,1.45,0,0,1,.62,0c.21.11.55.11.47.5Z"/><path class="cls-44" d="M11.93,155.15h.67v.44h-.66A.29.29,0,0,1,11.93,155.15Z"/><path class="cls-45" d="M13.67,155.11l-.42-.38a.54.54,0,0,1,.89.2l-.19.25Z"/><path class="cls-42" d="M178.57,155.14h-.89a1.22,1.22,0,0,0-1.12,0h-2.68a2.35,2.35,0,0,1-1.2.1H155.78c-4.93,0-9.86,0-14.79,0-6.27,0-12.53,0-18.8,0-6.93,0-13.86,0-20.79,0-7.9,0-15.81,0-23.71,0-6.71,0-13.42,0-20.13,0-8-.05-15.95.06-23.92,0-2.41,0-4.82,0-7.24,0a2.07,2.07,0,0,1-1.09-.1H19.88c-.35,0-.75.12-1-.21,1.26-.12,2.55.26,3.79-.22a1.82,1.82,0,0,1,1-.44,45.66,45.66,0,0,0,5.76,0c2,0,4.06.16,6.09.07,2.33-.1,4.65.19,7-.1a28.74,28.74,0,0,1,3.31.06,12.44,12.44,0,0,0,1.55.08c1.41-.19,2.82.13,4.2,0a47.64,47.64,0,0,1,5.67-.16c1.48,0,2.95.21,4.43.19a11.52,11.52,0,0,0,2.88-.14,3.1,3.1,0,0,1,1.11-.06c3.43.36,6.86,0,10.29,0a8.91,8.91,0,0,1,.95-.05c2.36.08,4.72.17,7.08.21,1.65,0,3.32-.24,5-.13s3.46-.12,5.18.08a21.79,21.79,0,0,0,2.88-.12c2.41,0,4.81,0,7.23.13a38.87,38.87,0,0,0,6-.13c1.17-.1,2.28.24,3.43.2,2.55-.08,5.1-.08,7.64-.16.76,0,1.54,0,2.31,0a1.45,1.45,0,0,1,.34.07c.69.31,1.37,0,2.06,0a20.42,20.42,0,0,0,4.55-.11c1.59-.29,3.16.17,4.76.1,1.87-.08,3.75-.1,5.62-.07,2.91,0,5.83-.08,8.74.09,1.91.11,3.83-.19,5.76-.09,4.16.21,8.33,0,12.49,0,2.29,0,4.57.38,6.86,0a14.88,14.88,0,0,1,3.54.13.56.56,0,0,1,.52.36Z"/><path class="cls-46" d="M75.95,154.47c-1.43,0-2.85.32-4.28,0a5.53,5.53,0,0,0-1.73.14c-2,.25-4-.39-6.06,0a24,24,0,0,1-5.36-.09,32.81,32.81,0,0,0-6.32.09c-.07,0-.15.06-.22,0-2.08-.29-4.17.07-6.27,0a12.6,12.6,0,0,0-3.81,0c-1.26.31-2.56-.12-3.83,0a31.58,31.58,0,0,1-5.24,0c-3.11-.19-6.22.42-9.3-.15a1.85,1.85,0,0,1-1.33,0,93.26,93.26,0,0,1-9.93-.47,2.63,2.63,0,0,1-1.45-.43h2a40.06,40.06,0,0,0,5.53.4c18.63-.12,37.25,0,55.88,0C74.8,154,75.59,153.59,75.95,154.47Z"/><path class="cls-42" d="M14.14,154.92a1.48,1.48,0,0,0-.89-.2l-.66-.08a2.31,2.31,0,0,1,1.71-.13,20.45,20.45,0,0,0,3.61.19c.32,0,.67-.09.92.22-.74.1-1.52-.23-2.23.22Z"/><path class="cls-47" d="M10.14,153.14h2.18v.22H10.14Q10.14,153.25,10.14,153.14Z"/><path class="cls-48" d="M22.19,154.48h1.33c-.23.33-.58.19-.89.23A.46.46,0,0,1,22.19,154.48Z"/><path class="cls-46" d="M178.8,154.7a17.25,17.25,0,0,0-4.92-.06c-1.27.28-2.56-.09-3.85,0-1.83.09-3.67,0-5.5,0-2.17,0-4.34,0-6.5,0a66.12,66.12,0,0,0-7.6,0,23.11,23.11,0,0,1-3.91-.13,19.35,19.35,0,0,0-3.83.14,15.24,15.24,0,0,1-2.07-.1c-3.06,0-6.13.07-9.19,0-1.57-.06-3.17.19-4.76.17a2.2,2.2,0,0,1-1-.22c-.39.07-.81.32-1.14-.15.4-.56,1-.39,1.54-.39,5,0,10,0,14.94,0q19.68,0,39.36,0a55.58,55.58,0,0,0,7-.59,4.17,4.17,0,0,1,2.2.13c0,.44,0,.43-.34.55a12.4,12.4,0,0,1-3.16.4,47.34,47.34,0,0,1-7.05.28h-.22Z"/><path class="cls-18" d="M179,154.7a6.84,6.84,0,0,1,2.17-.23,61.08,61.08,0,0,0,8-.68,2,2,0,0,0,.49-.21c.24-.18.51-.09.77-.11a12.69,12.69,0,0,1,2.57.11h0c-.82.53-1.84.23-2.68.67-3.41.18-6.79.83-10.23.67C179.78,154.9,179.35,155.06,179,154.7Z"/><path class="cls-49" d="M182.58,155.57q0-.1,0-.21a.13.13,0,0,1,.22,0,23.13,23.13,0,0,0,3.36-.43c.06.26.51.27.41.63l-.63,0Z"/><path class="cls-50" d="M186.58,155.57c-.06-.26-.77-.11-.41-.63h1.11a.43.43,0,0,1,0,.63Z"/><path class="cls-51" d="M189.08,155.13l-.25.26a7.61,7.61,0,0,1-.94,0c-.2-.06-.45-.08-.35-.4a2.55,2.55,0,0,1,1.54-.22Z"/><path class="cls-39" d="M182.8,155.36h-2.45a.46.46,0,0,1-.44-.22C180.87,155.27,181.87,154.88,182.8,155.36Z"/><path class="cls-17" d="M187.53,155c.07.19.25.18.4.21a.26.26,0,0,1,0,.42l-.2,0-.48,0,0-.63Z"/><path class="cls-34" d="M190.39,153.58h-.67c-2.48,0-4.92.41-7.38.63-.41,0-.82,0-1.22,0H126c-.46,0-1-.18-1.38.21a.49.49,0,0,1-.67,0h0a10.92,10.92,0,0,0-2.65-.08c-2.55,0-5.1.09-7.65.07-6-.05-12-.1-18-.07-4.24,0-8.49,0-12.73,0a41.8,41.8,0,0,0-6.07,0h-.9c-.41-.4-.92-.21-1.38-.21-18.4,0-36.8,0-55.19-.05a22.86,22.86,0,0,1-6.56-.63c1.87-.16,3.72.29,5.58.22a.89.89,0,0,1,.4-.18c21.66.22,43.33.05,65,.09,14.31,0,28.62,0,42.93,0h51.18c2.82,0,5.61-.42,8.43-.54,1.06,0,2.15-.26,3.19.18h.89q.11.07.07.15S190.42,153.58,190.39,153.58Z"/><path class="cls-46" d="M189.51,153.36h-3.13a27.1,27.1,0,0,1-3,.15c-.17,0-.39-.06-.37-.29s.28-.19.42-.28l7.37-.07,3.56.07c-1.2.41-2.44.09-3.66.2C190.33,153.18,189.87,153,189.51,153.36Z"/><path class="cls-52" d="M195.27,152.88c0-1,.72-.89,1.37-.86C196.73,153.18,195.93,152.92,195.27,152.88Z"/><path class="cls-46" d="M190.39,153.58v-.22h2.67q0,.11,0,.22Z"/><path class="cls-53" d="M11.93,155.15v.43c-.33-.05-.8.18-.87-.42Z"/><path class="cls-21" d="M187.94,155.58v-.42a1.23,1.23,0,0,1,.89.22C188.58,155.68,188.24,155.57,187.94,155.58Z"/><path class="cls-31" d="M183.48,152.95c-.06.15-.56.39.07.4.94,0,1.89,0,2.83,0-1,.5-2.09.19-3.15.39a23.71,23.71,0,0,1-4.42.27H22.26a15.44,15.44,0,0,1-3.65-.23c0-.25.14-.31.35-.32H81.91a5,5,0,0,0,2.36-.41c.84-.06,1.68,0,2.51,0a8.55,8.55,0,0,1,1.78.07,5,5,0,0,0,2.57,0,2.79,2.79,0,0,1,1.15,0,17.9,17.9,0,0,0,4.58,0,1.93,1.93,0,0,1,.77,0,21.43,21.43,0,0,0,4.72,0,1.88,1.88,0,0,1,.72,0,3,3,0,0,0,1.65,0,1.57,1.57,0,0,1,.5,0,5.26,5.26,0,0,0,2.15,0,1.6,1.6,0,0,1,.51,0,5.26,5.26,0,0,0,2.19,0,1.67,1.67,0,0,1,.53,0,6.4,6.4,0,0,0,2.67-.06A11.35,11.35,0,0,1,115,153h1.79a1.82,1.82,0,0,1,1.39.35,4.29,4.29,0,0,0,1.33.07h60.41a7.09,7.09,0,0,1,.95,0H118.28a.32.32,0,0,1-.23-.22c0-.31.79-.49.15-.91a1.73,1.73,0,0,1-.71-.25.34.34,0,0,1-.06-.31.63.63,0,0,1,.33-.07c.57.08,1.17-.17,1.72.15a1.34,1.34,0,0,0,0,.19c.34.58.89.55,1.46.55,5.08,0,10.15,0,15.23,0,2.81,0,5.62,0,8.43,0,1.58,0,3.16,0,4.74,0,2,0,4.07,0,6.1,0a1.94,1.94,0,0,1,1.48.29l25.09,0C182.51,152.91,183,152.93,183.48,152.95Z"/><path d="M119.48,151.84l-2-.09q-.09-.06-.06-.12s0-.05.07-.05h58.21a4.61,4.61,0,0,0,2-.17c.09,0,.31-.14.26.13,0,.09-.14.16-.22.24-4.65,0-9.29,0-13.94,0h-43C120.29,151.8,119.88,151.82,119.48,151.84Z"/><path class="cls-54" d="M136.19,152.88c-5.34,0-10.67,0-16,0-.71,0-.82-.31-.68-.89h.19a2.7,2.7,0,0,0,1.21.09h15.38c.63,0,1.26,0,1.89,0,1,.27,2.16-.18,3.16.43C139.62,153,137.89,152.64,136.19,152.88Z"/><path class="cls-55" d="M156.94,152.88h-7.58c.61-.93,1.56-.49,2.31-.44s1.66.12,2.43.15c.21,0,0-.25.08-.11s0,0-.08.06a6.81,6.81,0,0,1-1.54,0c-.23,0-.46-.1-.22-.4,2.58,0,5.15-.15,7.72.09,1.07.52,2.24,0,3.34.45-1.76,0-3.52,0-5.28,0C157.72,152.7,157.29,152.56,156.94,152.88Z"/><path class="cls-36" d="M136.41,152.24H120.85c-.39,0-.82.15-1.16-.2H136.4q.11.07.08.14S136.43,152.24,136.41,152.24Z"/><path class="cls-56" d="M160.05,152.24h-7.81a5.37,5.37,0,0,1-2.79.13.25.25,0,0,1-.13-.34h16.52q.11.07.07.14s0,.07-.07.07Z"/><path class="cls-33" d="M165.85,152.24q0-.1,0-.21H179v.21Z"/><path class="cls-57" d="M149.33,152a2,2,0,0,1,0,.21c-.93.6-2,.19-2.94.32a74.54,74.54,0,0,1-8.21-.32h-1.79q0-.1,0-.21Z"/><path class="cls-58" d="M28,143.32c-.33-.34-.19-.78-.19-1.17q0-44.27,0-88.54c0-1.08.29-1.35,1.36-1.35q71.75,0,143.51,0c.41,0,.9-.21,1.24.24a3.32,3.32,0,0,0-.09,1.32q0,44.07,0,88.15a3.87,3.87,0,0,1-.08,1.33,2.74,2.74,0,0,1-1.21.09H29.18A2.44,2.44,0,0,1,28,143.32Z"/><path class="cls-59" d="M28,143.32H172.65l1,0q.09.06.05.12s0,.05-.07.05c-.48,0-1,0-1.45,0H29.33C28.88,143.53,28.37,143.75,28,143.32Z"/><path class="cls-60" d="M173.64,143.51q0-.08,0-.17,0-44.71,0-89.42c0-.46-.18-1,.19-1.39q0,15.16,0,30.32,0,29.65,0,59.3C173.87,142.6,174.1,143.12,173.64,143.51Z"/><path class="cls-61" d="M100.72,49.16c-.5-.23-.66-.64-.27-1s.79-.23.94.34A3.07,3.07,0,0,1,100.72,49.16Z"/><path class="cls-62" d="M100.72,49.16c0-.45.4-.5.67-.67C101.4,48.95,101.2,49.19,100.72,49.16Z"/><path class="cls-63" d="M178.28,148.09H23.13c0,.06,0,0,0,0s0-.09,0-.1.25-.18.38-.18H178.31Z"/><path d="M117.44,151.58q0,.08,0,.17v.09a1.89,1.89,0,0,1-1.38.27H85.58a1.89,1.89,0,0,1-1.38-.27v-.09q0-.08,0-.17Z"/><path class="cls-64" d="M97.19,149.57c.76-1.79.63.54,1.07.23.4.2.49.47.22.85-1,.33-.77-.67-1.09-1.08C97.33,149.67,97.26,149.67,97.19,149.57Z"/><path class="cls-65" d="M97.19,149.57h.2a1.76,1.76,0,0,1-.39,1c-.49-.07-.23-.7-.66-.81-.23.17.09.56-.3.76a3,3,0,0,1,.14-1.66c.54.12.42.64.66.88S97.11,149.7,97.19,149.57Z"/><path class="cls-66" d="M98.48,150.65a1.32,1.32,0,0,0-.22-.85c.39-.39.87-.22,1.32-.2a.54.54,0,0,1,0,.84C99.19,150.43,98.89,150.83,98.48,150.65Z"/><path class="cls-67" d="M100.71,150.68c-.31,0-.68.17-.9-.22.25-.38,0-.74,0-1.11.35,0,.49-.27.7-.46a.61.61,0,0,1,.59.4.87.87,0,0,1,0,.3c-.07.29-.1.58-.18.87A1,1,0,0,1,100.71,150.68Z"/><path class="cls-68" d="M100.71,150.68v-.24a1.27,1.27,0,0,1,.64-.39,1.8,1.8,0,0,1,.45,0,2.16,2.16,0,0,0,.86,0,1.46,1.46,0,0,1,.44,0,.76.76,0,0,1,.27.12.34.34,0,0,1,.06.28.14.14,0,0,1-.24,0C102.41,150.85,101.53,150.44,100.71,150.68Z"/><path class="cls-69" d="M104.49,149.52a.84.84,0,0,1,.19-.82c-.12.69.75,1.26-.07,1.85a.09.09,0,0,1-.08,0,1.64,1.64,0,0,1-.06-.2A.65.65,0,0,1,104.49,149.52Z"/><path class="cls-70" d="M99.77,149.34c.37.36,1,.7,0,1.11h-.25v-.84Z"/><path class="cls-71" d="M101.9,150.23h-.57c-.26-.14-.53-.28-.4-.66l.08-.25.08-.06c.76-.4.09.55.48.5a.21.21,0,0,1,.3,0A.44.44,0,0,1,101.9,150.23Z"/><path class="cls-72" d="M103.28,150.24l-.17,0c-.14-.17-.28-.34-.18-.59.36-.24.71-.51,1.15-.14a.28.28,0,0,1,.06.27C103.86,149.93,103.64,150.21,103.28,150.24Z"/><path class="cls-73" d="M101.1,149.26l-.08.06-.54-.45C100.94,148.59,101.16,148.7,101.1,149.26Z"/><path class="cls-74" d="M101.88,149.79l-.31,0c.3-.45.66-.66,1.15-.25a.22.22,0,0,1,.08.18c0,.07,0,.1,0,.1A1,1,0,0,1,101.88,149.79Z"/><path class="cls-75" d="M104,149.81l0-.34.4.05v.8l-.41.18a.5.5,0,0,1-.17-.26A.49.49,0,0,1,104,149.81Z"/><path class="cls-76" d="M104,150.21l0,.29c-.3.28-.6.36-.86-.06h.18C103.57,150.28,103.75,150.09,104,150.21Z"/><path class="cls-77" d="M102.71,149.8l0-.29.21.1c.1.18.25.35.18.59l-.41,0A.3.3,0,0,1,102.71,149.8Z"/><path class="cls-78" d="M84.44,153.35a12.75,12.75,0,0,1-3.2.24H19.88c-.43,0-.9-.17-1.27.21H18.4c-.16-.36,0-.45.34-.44.92,0,1.85,0,2.77,0H82.38c.39,0,.83.15,1.15-.22a.62.62,0,0,1,.79-.09A.3.3,0,0,1,84.44,153.35Z"/><path class="cls-54" d="M65.24,152.24h17c.13.6-.2.67-.69.67l-13.83,0c-1.62-.21-3.26,0-4.89-.23C63.54,152.07,64.46,152.6,65.24,152.24Z"/><path class="cls-79" d="M84.2,151.83h33.25q0,.08,0,.16l-.13.14a1.49,1.49,0,0,1-.73.18l-1.39,0c-9.44,0-18.88.11-28.32,0a11.32,11.32,0,0,1-2.41-.11.66.66,0,0,1-.31-.24A1.06,1.06,0,0,0,84.2,151.83Z"/><path class="cls-80" d="M55.2,152.24h2.9c-.49.68-1.17.16-1.65.31.9.15,1.89-.15,2.88-.08.36,0,.86-.21,1,.4H53c-1.14-.42-2.33-.1-3.49-.18-.61,0-1.23,0-1.84-.07,1.09-.4,2.27.17,3.33-.38Z"/><path class="cls-81" d="M60.32,152.88c-1-.41-2-.1-2.93-.18-.42,0-.85,0-1.51,0,.86-.45,1.63.07,2.22-.45h7.14c-.68.53-1.51,0-2.3.36,1.63.28,3.22-.18,4.75.27Z"/><path class="cls-79" d="M84.4,153.16l-.86,0h0a.85.85,0,0,1,0-1.11l.64,0,.07.05c.61.2.8.53.32,1.06Z"/><path class="cls-78" d="M83.53,152v1.11C82.82,152.77,82.84,152.39,83.53,152Z"/><path class="cls-82" d="M82.41,151.81h.46a4.56,4.56,0,0,0-.39,1Z"/><path class="cls-9" d="M25.31,155.14H173.89q0,.11,0,.22H25.31Q25.31,155.25,25.31,155.14Z"/><path class="cls-9" d="M176.56,155.14a.76.76,0,0,1,1.12,0Z"/><path class="cls-46" d="M76.84,154.47c.33-.35.77-.21,1.16-.21h44.75c.39,0,.83-.15,1.16.21a46.66,46.66,0,0,1-6.29.11c-.65,0-1.31.12-2,.11-3.3,0-6.6-.23-9.9-.15-3.73.1-7.46-.16-11.21.06a22.7,22.7,0,0,1-5.13-.05c-1.4-.24-2.9.15-4.36.14C82.32,154.66,79.58,154.54,76.84,154.47Z"/><path class="cls-9" d="M123.91,154.48h1.78C125.1,154.67,124.51,155.07,123.91,154.48Z"/><path class="cls-78" d="M118.11,153.39H181.4v.08H118.11Z"/><path class="cls-56" d="M138.19,152.24h8.25c.79.29,1.64,0,2.44.33-1.38.4-2.82.07-4.21.31h-8.48c1.14-.42,2.33-.08,3.49-.19a4.32,4.32,0,0,0,1.44-.11C140.14,152.23,139.11,152.78,138.19,152.24Z"/><path class="cls-28" d="M88.67,153.38l-1.78,0c-.51-.24-1.08,0-1.59-.17,0-.55.47-.5.8-.54a2.2,2.2,0,0,0,1.09-.48c.68,0,1.36,0,2,0,.26.08.32.34.48.52.37.28.79.12,1.19.13h6.77a2.74,2.74,0,0,1,1.41.21.31.31,0,0,1,.13.35,3,3,0,0,1-1.59,0h-.68a28,28,0,0,1-4.67,0H91.11A7.65,7.65,0,0,1,88.67,153.38Z"/><path class="cls-83" d="M144.67,152.88c1.3-.48,2.67,0,4.06-.28-.78-.36-1.62.17-2.29-.35h5.8c.68.53,1.51,0,2.3.36-1.77.3-3.51-.2-5.19.27Z"/><path class="cls-84" d="M99.14,153.32q0-.09,0-.19a1.39,1.39,0,0,1,1.14-.31c4.72,0,9.43,0,14.15,0a1.24,1.24,0,0,1,.41.13.26.26,0,0,1,.13.36l-1.79.06a9.69,9.69,0,0,1-2.66,0h-.46a6.75,6.75,0,0,1-2.22,0h-.46a6.78,6.78,0,0,1-2.22,0h-.46a3.41,3.41,0,0,1-1.55,0h-.68A10.58,10.58,0,0,1,99.14,153.32Z"/><path class="cls-78" d="M99.14,153.32l3.34.07a12.81,12.81,0,0,1-4.89,0Z"/><path class="cls-78" d="M92.24,153.39h4.67A11.53,11.53,0,0,1,92.24,153.39Z"/><path class="cls-85" d="M117.46,152l.86,0a1,1,0,0,1-.2,1.11h0a.77.77,0,0,1-.69.06c-.52-.39-.54-.77,0-1.16Z"/><path class="cls-78" d="M118.11,153.14a2.13,2.13,0,0,1,.2-1.11c.49,0,.48.36.45.7S118.41,153.13,118.11,153.14Z"/><path class="cls-78" d="M110.53,153.39h2.66A4,4,0,0,1,110.53,153.39Z"/><path class="cls-78" d="M88.67,153.38h2.44A3.28,3.28,0,0,1,88.67,153.38Z"/><path class="cls-79" d="M85.33,153.12c.52.09,1.08-.16,1.56.21H84.44a1.34,1.34,0,0,0,0-.19l0,0C84.75,152.95,85,152.85,85.33,153.12Z"/><path class="cls-78" d="M107.86,153.39h2.22A2.8,2.8,0,0,1,107.86,153.39Z"/><path class="cls-78" d="M105.18,153.39h2.22A2.8,2.8,0,0,1,105.18,153.39Z"/><path class="cls-86" d="M115,153.33q0-.1,0-.19a1.07,1.07,0,0,1,.84-.29,1.56,1.56,0,0,1,.89.19.21.21,0,0,1,0,.31Z"/><path class="cls-78" d="M103.17,153.39h1.55A1.49,1.49,0,0,1,103.17,153.39Z"/><path class="cls-78" d="M116.76,153.35q0-.1,0-.2A.43.43,0,0,1,117,153a.58.58,0,0,1,.41.14h.67q0,.11,0,.22Z"/><path class="cls-87" d="M100.93,149.57l.4.66c-.19.11-.36.28-.62.21C100.75,150.14,100.56,149.79,100.93,149.57Z"/><path class="cls-88" d="M102.71,149.8v.43a.53.53,0,0,1-.8,0l0-.43A.53.53,0,0,1,102.71,149.8Z"/><path class="cls-89" d="M104,150.21a.83.83,0,0,1-.65.25l-.11-.22c.09-.43.14-1,.77-.43Z"/><path class="cls-90" d="M114.76,153.13H89.46s-.09,0-.09,0a.94.94,0,0,1,0-.18c.29-.22.29-.44,0-.67H87.1c-.24.15-.41.15-.42-.19h28.75a.25.25,0,0,1-.12.34,1.42,1.42,0,0,1-.39.14c-4.66.1-9.32,0-14,0,4.11,0,8.21,0,12.32,0C113.8,152.6,114.48,152.36,114.76,153.13Z"/><path class="cls-91" d="M86.68,152c.09.17.25.19.42.19,0,.45-.14.67-.63.68s-.82-.15-1.14.2h-.88a.71.71,0,0,0-.21-1.07Z"/><path class="cls-86" d="M117.44,153.13H117c-.33-.2-1,0-.81-.77.09-.27.38-.19.55-.32h.69A.91.91,0,0,0,117.44,153.13Z"/><path class="cls-92" d="M116.74,152c-.08.18-.25.19-.41.19a.63.63,0,0,1-.89,0q0-.1,0-.19Z"/><path class="cls-92" d="M89.33,152.25c.24,0,.57-.07.61.28s-.34.35-.61.39Z"/><path class="cls-92" d="M114.76,153.13c-.33-.36-.77-.21-1.16-.21H100.13c-.23,0-.48-.05-.46-.35s.28-.3.51-.31h15c.18.32.71.38.66.88h-1.11Z"/><path class="cls-84" d="M115.87,153.13c-.27-.26-.8-.32-.66-.88h1.11c-.15.58.41.62.67.9h-.2Z"/></g><g id="AZpGHs.tif"><path class="cls-93" d="M80,105.8c0-.11,0-.22,0-.34V93.8a3.66,3.66,0,0,1,3.32-3.9c.19,0,.4,0,.56-.13h2.43c.13.14.31.06.47.09s.23.07.23.25c0,1,0,2.09,0,3.14,0,.18-.05.23-.23.23-.37,0-.74,0-1.11,0A1.34,1.34,0,0,0,84.17,95c0,.29-.13.67.06.83s.53,0,.81,0c.54,0,1.08,0,1.62,0,.23,0,.29.07.27.28a7.76,7.76,0,0,1,0,1.18A2.16,2.16,0,0,1,84.66,99c-.35,0-.43.09-.43.44,0,4,0,8,0,12,0,.36-.11.46-.43.4s-.57.12-.83-.1c-.49-.92-1-1.85-1.44-2.77S80.47,106.86,80,105.8Z"/><path class="cls-93" d="M110.57,99.22a5,5,0,0,1,3.84-4.36,12.17,12.17,0,0,1,7,.25,4.15,4.15,0,0,1,3,4.31v5.71a8.38,8.38,0,0,1-.4,2.65,5.47,5.47,0,0,1-3,3.39,10.82,10.82,0,0,1-7.07.75,5,5,0,0,1-3.9-5.42,4.79,4.79,0,0,1,3.49-4.57,13.57,13.57,0,0,1,1.49-.41c1-.23,2.09-.27,3.13-.47a4.26,4.26,0,0,0,1.18-.39,1.27,1.27,0,0,0,.83-1.16,1.3,1.3,0,0,0-.95-1.19,5.45,5.45,0,0,0-2.32-.25,3.57,3.57,0,0,0-1.12.21,1.43,1.43,0,0,0-.87.79c0,.09-.07.16-.21.16Zm9.71,4.1a.19.19,0,0,0-.18,0,19.29,19.29,0,0,1-3.36,1,3.51,3.51,0,0,0-1.79.81,2,2,0,0,0-.56,2.16,1.7,1.7,0,0,0,1.42,1.31,4.47,4.47,0,0,0,1.28,0,3.33,3.33,0,0,0,3.07-2.77A14.64,14.64,0,0,0,120.28,103.32Z"/><path class="cls-93" d="M138.18,99.61V90.23c0-.25,0-.35.32-.34.61,0,1.22,0,1.82,0A2.13,2.13,0,0,1,142.48,92h0v2.48c0,.21.06.28.28.28.69,0,1.37,0,2.06,0,.21,0,.28,0,.26.26s0,.66,0,1a2,2,0,0,1-2.13,1.83c-.36,0-.44.1-.43.44,0,2.91,0,5.83,0,8.74,0,1,.34,1.33,1.33,1.34h1c.16,0,.21.05.21.21v2.87c0,.16-.06.21-.21.21a22.21,22.21,0,0,1-4.54-.09,2.39,2.39,0,0,1-2.13-2.6c0-1.13,0-2.27,0-3.41Q138.18,102.58,138.18,99.61Z"/><path class="cls-93" d="M96.39,100.86q0-5.32,0-10.63c0-.26.06-.34.33-.33.64,0,1.28,0,1.92,0a2.1,2.1,0,0,1,2.06,2v19.58c0,.3-.06.39-.38.39-1.2,0-2.41,0-3.62,0-.26,0-.34-.06-.34-.33Q96.4,106.18,96.39,100.86Z"/><path class="cls-93" d="M126.5,106.94c0-1.45,0-2.9,0-4.35a8.71,8.71,0,0,1,1.34-4.67A7,7,0,0,1,132.39,95a14.73,14.73,0,0,1,3.25-.28c.21,0,.23.08.23.26V99c0,.21-.06.26-.26.26a15.12,15.12,0,0,0-2,0,3,3,0,0,0-2.77,2.93c0,.27,0,.54,0,.81v8.47c0,.26-.06.34-.33.34-1.24,0-2.48,0-3.71,0-.26,0-.34-.06-.34-.33,0-1.52,0-3,0-4.56Z"/><path class="cls-93" d="M89.44,103.29V95.15c0-.34.1-.4.41-.39.67,0,1.35,0,2,0a1.74,1.74,0,0,1,1.87,1.75c0,.14,0,.29,0,.44v14.52c0,.27-.06.36-.34.35-1.22,0-2.43,0-3.65,0-.27,0-.33-.07-.33-.33C89.44,108.76,89.44,106,89.44,103.29Z"/><path class="cls-93" d="M103.74,103.31V95.07c0-.25.06-.32.31-.31.65,0,1.31,0,2,0a1.81,1.81,0,0,1,2,2v14.69c0,.28,0,.38-.36.38-1.2,0-2.41,0-3.62,0-.28,0-.35-.06-.35-.34C103.75,108.76,103.74,106,103.74,103.31Z"/><path class="cls-93" d="M91.6,93.27H89.71c-.19,0-.28,0-.28-.25,0-1,0-1.93,0-2.9,0-.11,0-.23.16-.21a22.15,22.15,0,0,1,2.66.05,1.6,1.6,0,0,1,1.48,1.65c0,.49,0,1,0,1.49,0,.19-.1.19-.23.19C92.88,93.27,92.24,93.27,91.6,93.27Z"/><path class="cls-93" d="M105.88,93.27H104c-.21,0-.26-.07-.26-.27V90.14c0-.09-.07-.24.13-.24a23,23,0,0,1,2.63,0A1.68,1.68,0,0,1,108,91.81c0,.4,0,.81,0,1.21,0,.2-.07.24-.25.24Z"/></g><g id="aMojFO.tif"><path class="cls-94" d="M64,90.19h4.51a10.55,10.55,0,0,1,1.16.11,5.43,5.43,0,0,1,1.19.32,5.08,5.08,0,0,1,2,1.46,9.37,9.37,0,0,1,.77,1.08c.31.51.55,1.06.85,1.58.11.19.23.38.32.57l.31.64c.43.85.88,1.71,1.32,2.57s.8,1.56,1.22,2.34l.8,1.53c.3.58.61,1.17.9,1.75l1.06,2.05.91,1.74c.37.7.75,1.39,1.1,2.09.26.53.56,1,.8,1.56,0,.07.12.11.09.2H74.81a.2.2,0,0,0,0-.06c-.32-.64-.63-1.28-.95-1.9L72.91,108l-1-1.92-1.66-3.23L69.36,101c-.29-.58-.59-1.16-.87-1.75a6.89,6.89,0,0,1-.38-.8c0-.12-.07-.18-.11-.27l-.64-1.26c-.23-.47-.47-.94-.71-1.41s-.36-.64-.51-1-.37-.75-.56-1.12-.44-.85-.66-1.29L64,90.34A.31.31,0,0,1,64,90.19Z"/><path class="cls-93" d="M64,90.19a.31.31,0,0,0,.05.16l.92,1.8c.21.43.45.85.66,1.29s.39.74.56,1.12.34.64.51,1,.48.94.71,1.41L68,98.2c0,.09.14.15.11.27-.11-.09-.11,0-.14.07l-.9,1.77-1.26,2.53-.89,1.79c-.21.43-.44.83-.64,1.25s-.53,1.06-.79,1.59L62.68,109c-.23.43-.42.85-.64,1.28s-.5,1-.73,1.46H53s-.13.06-.12-.06.12-.12.16-.2l.66-1.3c.32-.62.64-1.23.95-1.85s.63-1.28.95-1.92.6-1.17.89-1.76c.2-.39.4-.78.6-1.17s.53-1,.79-1.57l.64-1.23.48-.94,1-2,.7-1.4c.3-.58.6-1.17.9-1.77l.95-1.88.82-1.59c.14-.29.28-.58.43-.86C63.84,90.22,63.87,90.14,64,90.19Z"/></g></svg>