<svg id="Camada_1" data-name="Camada 1" xmlns="http://www.w3.org/2000/svg" xmlns:xlink="http://www.w3.org/1999/xlink" viewBox="0 0 200 200"><defs><style>.cls-1,.cls-2{opacity:0.8;}.cls-1{fill:url(#Gradiente_sem_nome_47);}.cls-2{fill:url(#Gradiente_sem_nome_47-2);}.cls-3{fill:#d9dadb;}.cls-4{fill:#b7b7b9;}.cls-5{fill:#b1b1b3;}.cls-6{fill:#717178;}.cls-7{fill:#646469;}.cls-8{fill:#5b5b5e;}.cls-9{fill:#525256;}.cls-10{fill:#45454a;}.cls-11{fill:#69696e;}.cls-12{fill:#48484e;}.cls-13{fill:#36353a;}.cls-14{fill:#4f4e53;}.cls-15{fill:#333337;}.cls-16{fill:#333338;}.cls-17{fill:#2d2d31;}.cls-18{fill:#3f3e44;}.cls-19{fill:#bebfc1;}.cls-20{fill:#cbcccd;}.cls-21{fill:#bcbdbf;}.cls-22{fill:#88888c;}.cls-23{fill:#79797e;}.cls-24{fill:#0c0c0c;}.cls-25{fill:#18181a;}.cls-26{fill:#26272d;}.cls-27{fill:#89898e;}.cls-28{fill:url(#Gradiente_sem_nome_47-3);}.cls-29{fill:url(#Gradiente_sem_nome_47-4);}.cls-30{fill:#e5d3d8;}.cls-31{fill:#fff;}</style><linearGradient id="Gradiente_sem_nome_47" x1="22.98" y1="101.01" x2="188.53" y2="101.01" gradientTransform="translate(236.85 122.55) rotate(146.53)" gradientUnits="userSpaceOnUse"><stop offset="0" stop-color="#ef2b51"/><stop offset="1" stop-color="#bc1a1e"/></linearGradient><linearGradient id="Gradiente_sem_nome_47-2" x1="26.97" y1="111.8" x2="197.25" y2="111.8" gradientTransform="translate(77.47 -57.8) rotate(36.41)" xlink:href="#Gradiente_sem_nome_47"/><linearGradient id="Gradiente_sem_nome_47-3" x1="155.39" y1="39.35" x2="168.37" y2="39.35" gradientTransform="matrix(1, 0, 0, 1, 0, 0)" xlink:href="#Gradiente_sem_nome_47"/><linearGradient id="Gradiente_sem_nome_47-4" x1="146.99" y1="52.73" x2="158.2" y2="52.73" gradientTransform="translate(-3.49 62.77) rotate(-22.65)" xlink:href="#Gradiente_sem_nome_47"/></defs><title>img-2</title><path class="cls-1" d="M43.64,171.91a52.68,52.68,0,0,0,42.7,20.37c15.77-.21,33.66-7.35,40.17-22.66,2.06-4.86,3.39-9.9,6.22-14.42a47.21,47.21,0,0,1,11.8-12.37c8.1-6.15,17.34-10.48,25.83-16,6.53-4.28,12.9-9.71,15.58-17.27,2.74-7.73,1-16.13-1.93-23.54-3.88-9.78-10-16.59-20-20-10.79-3.68-19.62-7-28.36-14.62-7.86-6.85-14.76-14.76-23-21.19-6.42-5-15-11.28-23.54-8.64-1,.32-19.43,1.47-19.26,2.29-8,1.63,2-.13-6.18-.33A39.12,39.12,0,0,0,41.8,28.91C28.27,37.17,22.33,52.1,25.38,67.44c1.77,8.92,5.65,17.21,8.38,25.84,3.26,10.29,3.15,19.33.82,29.81C30.73,140.39,32.57,157.48,43.64,171.91Z"/><path class="cls-2" d="M180.22,120.72c2.45-16.6-.7-34.14-10-48.24-12.83-19.52-33.11-25.25-44-46.28-1-1.86-4.54-4.81-6.52-6.13C107.57,8.4,90.34,4.92,74.17,9.95,56.32,15.5,44.53,29.61,36.44,45.78c-5,10-9.89,19.69-15.73,29.22C16.44,82,13,89,12.29,97.28c-1.2,14,4.4,28.34,14.24,38.25a43.46,43.46,0,0,0,16,10.41c9.83,3.52,20.53,2.33,30.5,5.18,16.6,4.75,29.28,18,45.82,22.84C151.1,183.47,176.09,148.77,180.22,120.72Z"/><g id="opXbhj.tif"><path class="cls-3" d="M68.39,21.22h64.78a.31.31,0,0,1-.12.43,2,2,0,0,1-1,.22q-31.38,0-62.75,0a1.65,1.65,0,0,1-.76-.2A.32.32,0,0,1,68.39,21.22Z"/><path class="cls-4" d="M68.39,21.22v.28a1.94,1.94,0,0,1-1.55.37c-3,0-5.92.06-8.88,0s-6.16,0-9.24,0c-.62,0-1.29.12-1.77-.46l0-.22Z"/><path class="cls-5" d="M133.18,21.5v-.27h12.63a.53.53,0,0,1,0,.22c-.44.56-1.07.43-1.65.44-2,0-4,0-6,0-1.2,0-2.41,0-3.61,0A1.73,1.73,0,0,1,133.18,21.5Z"/><path class="cls-6" d="M41.52,174.37a1.77,1.77,0,0,1-.27-1.09c.25-2.4,0-4.81.12-7.21a13.91,13.91,0,0,1,0-1.95c0,2.54,0,5.07,0,7.61,0,.44.14.91-.15,1.33a3.49,3.49,0,0,1-.25-1.88q0-71.06,0-142.12a5.75,5.75,0,0,1,.21-2.17,1.06,1.06,0,0,1,.41,1c-.05,2.13.07,4.26-.15,6.4a72,72,0,0,0,0,8.1c.11.18.22-.14.08,0s-.09,0-.1-.1c-.1-2.5,0-5,0-7.51,0-.28-.1-.71.46-.59a3.62,3.62,0,0,1,.38,2.39q0,15.3,0,30.59,0,48.7,0,97.41c0,3.42-.28,6.86.6,10.23-.08.43-.25.7-.69.32A7.38,7.38,0,0,1,41.52,174.37Z"/><path class="cls-7" d="M152.13,53.34c0,.5.07,1,.07,1.5q0,54.22,0,108.44c0,.41,0,.82-.07,1.23-.25,2.43-.17,4.87-.29,7.3,0,.51.19,1.1-.39,1.48-.53-.23-.47-.72-.56-1.14a76.47,76.47,0,0,1,.15-8.78,4.64,4.64,0,0,0,.42-2.13q0-51.24,0-102.47a4.79,4.79,0,0,0-.44-2.12,4.46,4.46,0,0,1-.17-1.36c0-9,0-18.1,0-27.14a1.43,1.43,0,0,1,.8-1.31,38.28,38.28,0,0,1,.17,5.36c0,4.15-.12,8.3,0,12.44C152,47.54,151.77,50.45,152.13,53.34Z"/><path class="cls-8" d="M148.28,178a4.1,4.1,0,0,1-1.93.5c-.73-.54-1.5-.06-2.24-.07a36.09,36.09,0,0,0-6,.12c-3.83,0-7.68.1-11.5-.19-1.53-.12-3.06-.28-4.59-.28-17,0-33.91-.1-50.86.07-4.17,0-8.35.46-12.54.46-.41,0-.82,0-1.22-.08a28.9,28.9,0,0,0-4.06-.16c-.3-.23-1.18,0-.68-.86a6.24,6.24,0,0,1,2.57-.24h84.71a41.21,41.21,0,0,0,7.78-.36C148.44,177,148.52,177.39,148.28,178Z"/><path class="cls-9" d="M133.18,21.5l5,0c2.58.27,5.17,0,7.75.18.81.06,1.53.59,2.37.34a.56.56,0,0,1,.56.24c-.08.72-.66.7-1.17.8a34.9,34.9,0,0,0-6.83-.34H56.24a5.21,5.21,0,0,1-2.56-.28c-.51-.77,0-.81.58-.84a29.63,29.63,0,0,0,3.68-.1l10.45,0h.51c0,.57-.42.37-.68.37-1,0-1.91,0-2.87,0,1.8.15,3.59-.11,5.39-.11h59.75a8.52,8.52,0,0,0,1.23,0c.22,0,.67.41.67-.24Z"/><path class="cls-10" d="M57.94,21.54c-1,.49-2.11.11-3.16.24-.44.06-1-.23-1.2.51-.41.49-1,.41-1.51.42-1.09,0-2.18,0-3.26,0a7.21,7.21,0,0,0-5,1.51,1.38,1.38,0,0,1-.86.37.22.22,0,0,1-.13-.36c.57-2.1,2.28-2.53,4.11-2.78Z"/><path class="cls-11" d="M41.76,34.12c-.5.55-.25,1.22-.26,1.84,0,2.22,0,4.44,0,6.66h-.33q0-7.86,0-15.73A3.64,3.64,0,0,1,41.73,25c.45-.14.91-.29,1,.41a23.28,23.28,0,0,0-.6,6.74C42.17,32.85,42.3,33.56,41.76,34.12Z"/><path class="cls-12" d="M152.13,53.34c-.3-.23-.27-.56-.27-.88-.13-6.76-.42-13.51-.27-20.27.65.1.38.62.39,1,0,1.9,0,3.8,0,5.69,0,.44-.13.91.14,1.32C152.27,44.56,152.2,48.95,152.13,53.34Z"/><path class="cls-13" d="M152.13,40.16c-.53-.59-.21-1.3-.27-1.95-.18-2,.32-4-.28-6,0-1.63,0-3.25,0-4.93-.44.21-.17.58-.31.83-.92-.94-.65-2.05-.45-3.15a.61.61,0,0,1,.74.14,8.16,8.16,0,0,1,.61,2.79C152.17,32,152.14,36.07,152.13,40.16Z"/><path class="cls-14" d="M151.25,172.15c.12.28-.1.65.34.94-.22-2.45.38-4.78.27-7.15,0-.48-.18-1,.26-1.42,0,2.54.05,5.08,0,7.61a7.06,7.06,0,0,1-1.42,4.18c-.35.27-.56.07-.73-.23A7.32,7.32,0,0,1,151.25,172.15Z"/><path class="cls-15" d="M53.29,178.22c1.37.17,2.78-.26,4.12.29-3.41.16-6.83.16-10.24,0a6,6,0,0,1-4.38-1.93.32.32,0,0,1,.17-.39,1,1,0,0,1,.89.2,9.23,9.23,0,0,0,5.55,1.45A12.65,12.65,0,0,1,53.29,178.22Z"/><path class="cls-16" d="M148.27,22.06c-.69.62-1.4,0-2.06-.06a70.1,70.1,0,0,0-7.17-.24c-.31,0-.64,0-.89-.22l7.68-.1A6.56,6.56,0,0,1,148.27,22.06Z"/><path class="cls-17" d="M138.11,178.52c.6-.51,1.31-.24,2-.27,2-.11,3.92.16,5.87-.23.13,0,1.09-.4.4.45A70.63,70.63,0,0,1,138.11,178.52Z"/><path class="cls-18" d="M41.2,173.05v-9.3h.3c0,3,0,6,0,9.07,0,.16-.16.31-.24.46A.36.36,0,0,1,41.2,173.05Z"/><path class="cls-19" d="M150.2,176c.06.34.3.29.54.27-.77.63-1.36,1.52-2.46,1.66a.69.69,0,0,1,0-.8C148.74,176.47,149.18,175.76,150.2,176Z"/><path class="cls-7" d="M148,22.85l.83-.55c.44,0,.66.41,1,.61.15.67,1.09,1.07.63,1.94A4.5,4.5,0,0,1,148,22.85Z"/><path class="cls-20" d="M150.45,24.81c.2-.76-1.21-1-.62-1.89,1,.41,1.29,1.34,1.73,2.18l-.82,0C150.52,25.13,150.41,25,150.45,24.81Z"/><path class="cls-21" d="M42.92,176.34l-.14.27a4.47,4.47,0,0,1-1.27-2.24c.61,0,.71.57,1.06.86a.58.58,0,0,1,.46.35A.81.81,0,0,1,42.92,176.34Z"/><path class="cls-22" d="M42.56,25.06a.7.7,0,0,1-.84,0c.09-.67.69-.62,1.12-.81l.07.32A.41.41,0,0,1,42.56,25.06Z"/><path class="cls-5" d="M132.4,21.52c.24.38.68.16,1.17.45H64.07c1.8-.42,3.37.11,4.83-.45.36,0,.73-.06,1.09-.06h61.59C131.85,21.46,132.12,21.5,132.4,21.52Z"/><path d="M42.56,25.06l.35-.51a7.05,7.05,0,0,1,5.76-2.24c1.63,0,3.27,0,4.91,0,5.49,0,11,.06,16.46.06q36.76,0,73.51,0a15.9,15.9,0,0,1,4.46.55l2.44,2,.28.32c.56.92,0,2,.54,3q0,13.45,0,26.91c0,.54,0,1.09.06,1.63a4.58,4.58,0,0,1,.25,1.89q0,51.49,0,103a4.58,4.58,0,0,1-.25,1.89q0,4.37-.06,8.74L150.2,176c-.89,0-1.13,1-1.9,1.14-3.05.78-6.16.51-9.26.51H54c-.5,0-1,0-1.51,0a15,15,0,0,1-7.35-.37,5,5,0,0,1-2.31-1.83l-.25-.3c-1.08-3.05-.74-6.22-.74-9.35q0-65.26,0-130.52c0-.41,0-.82,0-1.23q0-2.81,0-5.61A12.16,12.16,0,0,1,42.56,25.06Z"/><path class="cls-23" d="M151.32,163.4c0-3.75,0-7.5,0-11.25q0-46.93,0-93.86c0-.55,0-1.1,0-1.64.69.6.52,1.42.52,2.18q0,40.65,0,81.29,0,10.69,0,21.39C151.84,162.18,151.92,162.89,151.32,163.4Z"/><path class="cls-9" d="M42.83,175.53c2.19,2.33,5,2.27,7.9,2.16.59,0,1.17,0,1.76,0l.8.49a59.21,59.21,0,0,1-6.42-.19,12.2,12.2,0,0,1-4-1.69Z"/><path class="cls-24" d="M48.18,100.13q0-31.42,0-62.85c0-1.36.38-1.62,1.67-1.62q46.72.06,93.45,0c1.31,0,1.75.2,1.75,1.67q-.07,62.85,0,125.69c0,1.35-.36,1.63-1.66,1.62q-46.72-.06-93.45,0c-2,0-1.71.25-1.71-1.78Q48.17,131.48,48.18,100.13Z"/><path class="cls-25" d="M99.44,171.1C98.6,169.25,97,169,95,169.19c1.71-1.58,4.3-.52,5,1.7A1.72,1.72,0,0,1,99.44,171.1Z"/><path class="cls-26" d="M97.46,28.71a1,1,0,0,1-.82,1c-.66.1-.89-.47-.95-.93a.79.79,0,0,1,.84-.86C97,27.86,97.31,28.25,97.46,28.71Z"/><path class="cls-27" d="M99.44,171.1c0-.38.2-.43.48-.2.16,1.06.41,2.14-.68,3.1C99.19,172.95,99.75,172,99.44,171.1Z"/><path class="cls-23" d="M93.63,173.87a2.31,2.31,0,0,1-.26-2.48l.57,1.9C94.1,173.61,94.11,173.87,93.63,173.87Z"/><path class="cls-12" d="M93.63,173.87c.3-.1.28-.35.31-.59l1.35,1.65A1.78,1.78,0,0,1,93.63,173.87Z"/></g><path class="cls-28" d="M166.62,39.11c-.59-.31-1.21-.36-1.68-.9a4.72,4.72,0,0,1-.73-1.48,9.43,9.43,0,0,0-1-2.37c-1-1.35-2.82-.95-4.19-.42a5.29,5.29,0,0,0-3.25,3.79c-.36,1.42-.63,3.65,0,5a2.16,2.16,0,0,0,1.32,1.2,10.35,10.35,0,0,0,1.95.16c.37,0,1.64-.77,2.56.52,2.64,1,6.44,1.12,6.77-2.48A3.06,3.06,0,0,0,166.62,39.11Z"/><path class="cls-29" d="M161.69,49.39c-1.37-.81-2.5.18-3.76.16-1.46,0-2.94-.8-4.21,0a3.87,3.87,0,0,0-1.52,3.4c0,1.31.63,3.43,1.72,4.26a1.46,1.46,0,0,0,2.16-.25,4.21,4.21,0,0,1,.76-.64c2.3-.69,6.77.9,6.53-3.81A3.91,3.91,0,0,0,161.69,49.39Z"/><g id="aMojFO.tif"><path class="cls-30" d="M91.58,82.42H98a15.1,15.1,0,0,1,1.66.16,7.77,7.77,0,0,1,1.7.45,7.27,7.27,0,0,1,2.83,2.09,13.4,13.4,0,0,1,1.1,1.54c.45.73.78,1.52,1.22,2.25.16.27.32.55.46.82s.3.61.45.91c.61,1.22,1.26,2.45,1.89,3.68s1.15,2.24,1.74,3.35q.58,1.09,1.15,2.18c.43.83.87,1.67,1.29,2.51s1,2,1.52,2.93.86,1.66,1.3,2.5c.52,1,1.07,2,1.58,3,.38.76.8,1.47,1.15,2.24,0,.1.17.16.13.29H107.1a.29.29,0,0,0,0-.08c-.45-.91-.9-1.83-1.36-2.72l-1.36-2.64-1.4-2.74-2.38-4.62q-.66-1.29-1.31-2.6c-.42-.83-.84-1.66-1.24-2.5a9.86,9.86,0,0,1-.55-1.15c0-.17-.09-.26-.16-.39l-.91-1.81c-.32-.68-.67-1.35-1-2-.24-.46-.52-.91-.73-1.38s-.54-1.07-.8-1.61-.63-1.22-.94-1.84l-1.31-2.58A.44.44,0,0,1,91.58,82.42Z"/><path class="cls-31" d="M91.58,82.42a.44.44,0,0,0,.07.23L93,85.23c.3.61.64,1.22.94,1.84s.56,1.06.8,1.61.49.91.73,1.38c.34.67.69,1.34,1,2l.91,1.81c.06.12.2.21.16.39-.16-.12-.16,0-.21.11L96,96.91q-.91,1.81-1.81,3.63c-.43.86-.85,1.72-1.28,2.57-.3.61-.63,1.18-.91,1.79-.36.76-.76,1.52-1.14,2.27s-.76,1.5-1.14,2.24-.59,1.22-.91,1.83-.71,1.39-1.05,2.1H75.88c-.05,0-.19.09-.18-.08s.17-.18.23-.28l.94-1.86c.45-.88.91-1.77,1.35-2.65s.9-1.83,1.36-2.74.86-1.68,1.28-2.52c.28-.56.57-1.12.87-1.68.39-.74.76-1.5,1.12-2.25l.91-1.77.69-1.35,1.48-2.91,1-2c.44-.83.86-1.67,1.29-2.53s.91-1.79,1.36-2.68l1.17-2.28c.21-.41.4-.83.61-1.23C91.41,82.46,91.45,82.35,91.58,82.42Z"/></g></svg>