<?xml version="1.0" encoding="utf-8"?>
<!-- Generator: Adobe Illustrator 21.0.2, SVG Export Plug-In . SVG Version: 6.00 Build 0)  -->
<svg version="1.1" id="Camada_1" xmlns="http://www.w3.org/2000/svg" xmlns:xlink="http://www.w3.org/1999/xlink" x="0px" y="0px"
	 viewBox="0 0 200 200" style="enable-background:new 0 0 200 200;" xml:space="preserve">
<style type="text/css">
	.st0{fill:url(#SVGID_1_);}
</style>
<title>network</title>
<g id="z3RGox.tif">
	
		<linearGradient id="SVGID_1_" gradientUnits="userSpaceOnUse" x1="40.0518" y1="99.9935" x2="160" y2="99.9935" gradientTransform="matrix(1 0 0 -1 0 200)">
		<stop  offset="0" style="stop-color:#38F9D7"/>
		<stop  offset="0.92" style="stop-color:#43E97B"/>
	</linearGradient>
	<path class="st0" d="M117.7,99.3c2.8,0,5.6,0,8.4,0c1,0,1.4-0.4,1.6-1.3c2-7.3,8.7-12.4,16.2-12.4c7.4,0.1,14.6,6.4,15.8,13.9
		c1.1,6.7-2.4,13.4-8.7,16.9c-5.8,3.2-13,2.4-17.9-1.9c-2.7-2.2-4.6-5.2-5.5-8.6c-0.1-0.7-0.7-1.2-1.4-1.2c0,0-0.1,0-0.1,0
		c-6,0-12,0-18,0c-0.7-0.1-1.5,0.3-1.7,1c-0.9,1.7-2.2,3.2-3.7,4.3c-0.6,0.3-0.9,1.1-0.6,1.7c2.1,7.7,4.2,15.3,6.3,23
		c0.1,0.6,0.6,1,1.2,1c5,0.8,8.8,4.9,8.8,9.5c0,4.2-3.5,8.5-7.8,9.4c-4.1,0.9-8.6-1.6-10.5-5.8c-1.7-3.6-0.7-8,2.4-10.5
		c0.7-0.5,1-1.5,0.6-2.3c-2.1-7.5-4.2-15.1-6.2-22.7c-0.2-0.6-0.3-1-1.1-0.9c-2.4,0.2-4.7-0.5-6.7-1.7c-0.6-0.5-1.5-0.5-2.2-0.1
		c-4.8,2.7-9.5,5.4-14.3,8.1c-0.8,0.4-0.7,0.8-0.5,1.5c3.2,10.7-6.2,21.2-16.6,20.7c-7.2-0.3-14.2-6.6-15.4-13.9
		c-1.1-7,2.7-14.2,9.4-17.4c6.5-3.1,14.2-1.5,18.9,3.9c0.6,0.7,1,0.8,1.9,0.3c4.3-2.5,8.6-4.9,12.9-7.3c0.9-0.5,1.3-1,0.6-2
		c-0.5-0.8-0.8-1.8-0.9-2.7c0-0.7-0.5-1.3-1.2-1.4c-7-1.9-14-3.8-21.1-5.7c-0.7-0.2-1,0.1-1.4,0.6c-2,2.4-4.4,4-7.7,4
		c-3.9,0-7.6-2.9-9-6.9c-1.2-3.4,0.2-7.5,3.3-10c6.1-4.9,13.7-0.8,15.2,5.7c0.1,0.9,0.8,1.6,1.6,1.7c6.5,1.7,13,3.5,19.5,5.3
		c1,0.3,1.5,0.2,1.9-0.8c0.5-1.2,1.3-2.2,2.2-3.1c0.6-0.4,0.7-1.2,0.3-1.7c0,0,0,0,0-0.1c-2.3-3.9-4.6-7.8-6.9-11.7
		c-0.2-0.5-0.8-0.8-1.3-0.6c0,0,0,0,0,0c-10,2.9-19.1-5-20.5-13.5c-1-6.1,2.3-13,8.1-16.5c10.9-6.5,23,1.7,24.4,12
		c0.8,5.8-1.4,10.5-5.6,14.4c-0.6,0.3-0.7,1.1-0.4,1.6c0,0.1,0.1,0.1,0.1,0.2c2.3,3.8,4.5,7.7,6.7,11.6c0.2,0.5,0.8,0.8,1.3,0.6
		c0,0,0,0,0,0c4-1,7.5,0.1,10.6,2.6c0.6,0.5,1,0.6,1.7,0c5.2-5.3,10.5-10.6,15.8-15.8c0.6-0.4,0.7-1.2,0.4-1.9
		c-1.9-4.1-0.3-8.9,3.8-11.5c3.7-2.5,8.7-1.9,11.7,1.5c2.6,2.8,3.7,6.1,2.1,9.8s-4.4,5.9-8.5,6.3c-1.4,0.1-2.7-0.2-3.9-0.8
		c-0.6-0.4-1.4-0.2-1.8,0.4c-5.5,5.6-11,11.1-16.5,16.6c-0.5,0.5-0.7,1.2-0.4,1.9c0.8,2.6,0.8,2.6,3.5,2.6
		C113.2,99.3,115.5,99.3,117.7,99.3L117.7,99.3z M67.5,124.8c0-6.5-4.5-11.1-10.8-11.1c-6.6,0-11.2,4.4-11.2,10.9
		c0,6.4,4.5,11.2,10.6,11.2C62.9,135.8,67.4,131.4,67.5,124.8L67.5,124.8z M132.5,102c0,6.7,4.5,11.1,11.2,11.1
		c6.3,0,10.9-4.7,10.9-11.1c0-6.4-4.7-11-11.4-11C137,91,132.5,95.7,132.5,102L132.5,102z M74.1,72.6c6.5,0.1,11.2-4.4,11.2-10.9
		c0-6.4-4.2-11.1-11.1-11.2c-5.8-0.2-10.7,4.3-11,10.1c0,0.2,0,0.4,0,0.6C63.2,68,67.5,72.5,74.1,72.6z M102.6,100.1
		c0-4.4-2.8-7.3-7.1-7.3c-4.5,0-7.4,2.9-7.4,7.4c0,4.3,2.9,7.1,7.4,7C99.9,107.2,102.6,104.4,102.6,100.1z M125.6,69.2
		c0,2.6,1.6,4.2,4.3,4.2c2.2,0.1,4-1.5,4.1-3.7c0-0.2,0-0.4,0-0.5c0-2.6-1.6-4.2-4.2-4.2C127.2,65,125.6,66.5,125.6,69.2L125.6,69.2
		z M104.8,145.4c0,2.6,1.6,4.2,4.1,4.2c2.7,0,4.2-1.5,4.2-4.2c0-2.6-1.5-4.1-4-4.2C106.3,141.1,104.8,142.6,104.8,145.4z M47.8,90.1
		c0,2.7,1.4,4.2,4.2,4.1c2.6,0,4.1-1.5,4.1-4.2c0-2.7-1.4-4.1-4.2-4.1C49,86,47.8,87.4,47.8,90.1z"/>
</g>
</svg>
