<?xml version="1.0" encoding="utf-8"?>
<!-- Generator: Adobe Illustrator 21.0.2, SVG Export Plug-In . SVG Version: 6.00 Build 0)  -->
<svg version="1.1" id="Camada_1" xmlns="http://www.w3.org/2000/svg" xmlns:xlink="http://www.w3.org/1999/xlink" x="0px" y="0px"
	 viewBox="0 0 200 200" style="enable-background:new 0 0 200 200;" xml:space="preserve">
<style type="text/css">
	.st0{fill:url(#SVGID_1_);}
	.st1{fill:url(#SVGID_2_);}
	.st2{fill:url(#SVGID_3_);}
</style>
<title>rocket</title>
<g id="EZ19m4.tif">
	
		<linearGradient id="SVGID_1_" gradientUnits="userSpaceOnUse" x1="42.6951" y1="99.98" x2="157.2843" y2="99.98" gradientTransform="matrix(1 0 0 -1 0 200)">
		<stop  offset="0" style="stop-color:#4CAAFF"/>
		<stop  offset="1" style="stop-color:#2955E2"/>
	</linearGradient>
	<path class="st0" d="M157.2,42.5c0.1,13.6,0.6,26.1-3.6,38.1c-2.4,6.8-6.1,12.6-11.8,17.2c-6,4.8-11.9,9.7-17.6,14.8
		c-1.1,1.1-1.8,2.6-1.9,4.1c-0.2,9.4-1.2,18.6-4.8,27.4c-2.4,5.8-5.2,9.7-9.7,13.4L42.7,91.3c3.1-3.7,7.1-6,11.4-7.8
		c9.3-3.9,19.2-5.2,29.2-5.1c2,0.1,3.9-0.8,5-2.4c4.3-5.3,8.9-10.4,13.1-15.8c6.5-8.6,15.2-13.6,25.5-15.1
		C136.8,43.7,146.8,43.4,157.2,42.5z M148.5,51.7c-5.1,0.3-9.8,0.3-14.5,0.9c-10.5,1.2-19.8,4.7-26.4,13.8
		c-4.2,5.8-9.1,11-13.7,16.5c-7.1,8.5-14.2,17-21.2,25.4l19.6,19.5c0.4-0.3,1.1-0.8,1.7-1.3c14.1-11.7,28.2-23.6,42.3-35.2
		c4.2-3.4,7.3-8,9.1-13.1C148.2,69.8,148.9,61.1,148.5,51.7z M113.2,121.6l-15.6,13l10,9.7C111.5,137.7,112.8,130.2,113.2,121.6
		L113.2,121.6z M55.9,92.3l10.4,10l12.6-15.1C70.4,87.6,63.2,88.8,55.9,92.3z"/>
	
		<linearGradient id="SVGID_2_" gradientUnits="userSpaceOnUse" x1="43.5374" y1="60.2865" x2="77.9046" y2="60.2865" gradientTransform="matrix(1 0 0 -1 0 200)">
		<stop  offset="0" style="stop-color:#4CAAFF"/>
		<stop  offset="1" style="stop-color:#2955E2"/>
	</linearGradient>
	<path class="st1" d="M77.9,139.7l-34.4,17.2l17.2-34.4L77.9,139.7z"/>
	
		<linearGradient id="SVGID_3_" gradientUnits="userSpaceOnUse" x1="122.3557" y1="130.5219" x2="139.7076" y2="130.5219" gradientTransform="matrix(1 0 0 -1 0 200)">
		<stop  offset="0" style="stop-color:#4CAAFF"/>
		<stop  offset="1" style="stop-color:#2955E2"/>
	</linearGradient>
	<path class="st2" d="M131,78.1c-4.7,0.1-8.5-3.6-8.6-8.3c0-0.1,0-0.2,0-0.4c0-4.7,3.8-8.6,8.5-8.7c0.1,0,0.1,0,0.2,0
		c4.8,0.1,8.7,3.9,8.7,8.7C139.7,74.3,135.8,78.2,131,78.1C131,78.1,131,78.1,131,78.1z"/>
</g>
</svg>
