<svg id="Camada_1" data-name="Camada 1" xmlns="http://www.w3.org/2000/svg" viewBox="0 0 200 200"><defs><style>.cls-1{fill:#00b5cc;}.cls-2{fill:#fff;}</style></defs><title>seo</title><circle class="cls-1" cx="101.69" cy="100" r="85.96"/><path class="cls-2" d="M63.4,112.9a15.73,15.73,0,0,0,2.94-.28,8.66,8.66,0,0,0,2.64-.93,4.94,4.94,0,0,0,2.61-4.62,4.12,4.12,0,0,0-.55-2.17,5.89,5.89,0,0,0-1.48-1.62,15.66,15.66,0,0,0-2.12-1.35l-2.5-1.35A21.23,21.23,0,0,1,62.22,99a12.29,12.29,0,0,1-2.28-2.06,8.89,8.89,0,0,1-1.57-2.69,10.32,10.32,0,0,1-.58-3.63,11.1,11.1,0,0,1,1-4.65,10,10,0,0,1,2.86-3.66,14.1,14.1,0,0,1,4.68-2.42A21.46,21.46,0,0,1,72.75,79a19,19,0,0,1,3.27.27,25.9,25.9,0,0,1,2.94.69,17.34,17.34,0,0,1,2.42.91,10.64,10.64,0,0,1,1.65.94L80,87a9.92,9.92,0,0,0-3.22-1.59,14.83,14.83,0,0,0-4.54-.66,12.93,12.93,0,0,0-2.83.3,7.6,7.6,0,0,0-2.36.93,4.59,4.59,0,0,0-1.6,1.65,4.77,4.77,0,0,0-.58,2.39,4.66,4.66,0,0,0,.41,2.09,4.62,4.62,0,0,0,1.16,1.46,9.45,9.45,0,0,0,1.73,1.15q1,.52,2.15,1.18,1.7.94,3.22,1.87A13.46,13.46,0,0,1,76.21,100a9.55,9.55,0,0,1,1.84,2.78,9.35,9.35,0,0,1,.69,3.77,11.9,11.9,0,0,1-1.16,5.39,10.37,10.37,0,0,1-3.24,3.82,15,15,0,0,1-5,2.28,26.07,26.07,0,0,1-10.42.44,23.42,23.42,0,0,1-3.38-.82,18.33,18.33,0,0,1-2.56-1,13.16,13.16,0,0,1-1.68-1l3.08-5.45a15.54,15.54,0,0,0,1.46.88,14.41,14.41,0,0,0,2.06.91,17.89,17.89,0,0,0,2.53.69A14.75,14.75,0,0,0,63.4,112.9Z"/><path class="cls-2" d="M82.65,118l9.13-38.12h23.65l-1.37,5.78H97.26L95,95.19h14.88l-1.37,5.67H93.7L91,112.18h18L107.62,118Z"/><path class="cls-2" d="M131,118.78a16.33,16.33,0,0,1-5.86-1,13.17,13.17,0,0,1-4.62-2.94,13,13,0,0,1-3-4.79,18.56,18.56,0,0,1-1.07-6.54,28.31,28.31,0,0,1,1.43-8.8,24.94,24.94,0,0,1,4.21-7.89A21.67,21.67,0,0,1,129,81.13,19.56,19.56,0,0,1,138.31,79a16.54,16.54,0,0,1,5.88,1,12.9,12.9,0,0,1,4.62,2.94,13.23,13.23,0,0,1,3,4.79,18.57,18.57,0,0,1,1.07,6.54,28.33,28.33,0,0,1-1.43,8.8,25.26,25.26,0,0,1-4.18,7.89,21.27,21.27,0,0,1-6.85,5.67A19.73,19.73,0,0,1,131,118.78ZM137.59,85a10.68,10.68,0,0,0-5.69,1.57,15,15,0,0,0-4.37,4.1,20.25,20.25,0,0,0-2.83,5.75,21.46,21.46,0,0,0-1,6.52,12.15,12.15,0,0,0,1.92,7.21q1.92,2.7,6.16,2.7a10.82,10.82,0,0,0,5.72-1.57,14.86,14.86,0,0,0,4.4-4.1,20.25,20.25,0,0,0,2.83-5.75,21.52,21.52,0,0,0,1-6.52,12,12,0,0,0-2-7.21Q141.83,85,137.59,85Z"/></svg>