<?xml version="1.0" encoding="utf-8"?>
<!-- Generator: Adobe Illustrator 21.0.2, SVG Export Plug-In . SVG Version: 6.00 Build 0)  -->
<svg version="1.1" id="Camada_1" xmlns="http://www.w3.org/2000/svg" xmlns:xlink="http://www.w3.org/1999/xlink" x="0px" y="0px"
	 viewBox="0 0 200 200" style="enable-background:new 0 0 200 200;" xml:space="preserve">
<style type="text/css">
	.st0{fill:url(#SVGID_1_);}
	.st1{fill:url(#SVGID_2_);}
</style>
<title>trafego</title>
<g id="_7GUK0b.tif">
	
		<linearGradient id="SVGID_1_" gradientUnits="userSpaceOnUse" x1="54.8833" y1="77.8971" x2="158" y2="77.8971" gradientTransform="matrix(1 0 0 -1 0 200)">
		<stop  offset="0" style="stop-color:#4CAAFF"/>
		<stop  offset="1" style="stop-color:#2955E2"/>
	</linearGradient>
	<path class="st0" d="M58.8,163.2c-3.3-1.6-4.2-3.2-3.8-6.9c0.8-6.6,1.6-13.1,2.4-19.7c0.2-2.3,1.9-4.3,4.2-4.8
		c6.6-1.9,13.3-3.8,19.9-5.6c2.8-0.9,5.8,0.7,6.7,3.5c0,0.1,0.1,0.3,0.1,0.4c0.7,2.9-0.9,5.6-4,6.5c-2.8,0.8-5.6,1.6-8.4,2.4
		c-0.4,0.1-1,0.1-1.1,0.5s0.5,0.6,0.8,0.8c5.7,3.4,12.1,5.6,18.7,6.3c9,1,17.7-0.2,25.9-4.2c13.7-6.7,22.4-17.6,25.8-32.5
		c1.6-7.1,1.5-14.5-0.4-21.5c-0.9-3.5,0.7-6.3,3.8-7.2c2.9-0.7,5.8,1,6.6,3.9c0,0,0,0,0,0.1c0.9,3.2,1.5,6.6,1.8,9.9
		c0.9,9.3-0.6,18.7-4.4,27.2c-8.3,18.8-22.6,30.5-42.8,34.5c-15.3,3-29.6-0.2-42.6-8.6c-1.1-0.7-1.1,0-1.2,0.7c-0.4,3-0.7,6-1.1,9.1
		c-0.1,2.4-1.7,4.5-4,5.3H58.8z"/>
	
		<linearGradient id="SVGID_2_" gradientUnits="userSpaceOnUse" x1="42.0218" y1="122.1812" x2="145.0857" y2="122.1812" gradientTransform="matrix(1 0 0 -1 0 200)">
		<stop  offset="0" style="stop-color:#4CAAFF"/>
		<stop  offset="1" style="stop-color:#2955E2"/>
	</linearGradient>
	<path class="st1" d="M141.2,36.8c3.2,1.5,4.2,3.1,3.8,6.7c-0.8,6.6-1.6,13.2-2.4,19.8c-0.3,2.6-1.9,4.2-4.3,4.9
		c-6.6,1.9-13.3,3.8-20,5.6c-2.8,0.8-5.8-0.8-6.7-3.6s0.8-5.8,3.6-6.7c0,0,0.1,0,0.1,0c2.9-0.9,5.9-1.7,8.9-2.5
		c0.3-0.1,0.8-0.1,0.8-0.4c0.1-0.5-0.4-0.5-0.7-0.7c-6.7-4-14.3-6.3-22.1-6.7c-12.3-0.6-23.2,3-32.7,10.9
		c-9.6,8-15.1,18.4-16.5,30.8c-0.7,5.8-0.3,11.6,1.2,17.2c0.8,2.9-0.9,5.8-3.8,6.6c-2.9,0.8-5.8-0.9-6.6-3.8
		c-1-3.8-1.7-7.7-1.9-11.7c-0.6-9.5,1.3-19,5.4-27.7c6.6-14,17.2-23.8,31.6-29.5c7.2-2.8,14.9-4.1,22.6-3.9
		c10.8,0.3,21.2,3.6,30.2,9.5c1.2,0.8,1.2,0.7,1.4-0.7c0.3-3,0.7-6,1-8.9c0.1-2.4,1.7-4.5,4-5.3L141.2,36.8z"/>
</g>
</svg>
