<svg id="Camada_1" data-name="Camada 1" xmlns="http://www.w3.org/2000/svg" viewBox="0 0 455 151"><defs><style>.cls-1{fill:#fff;}.cls-2{fill:#e5d3d8;}</style></defs><title>afiliart-light</title><g id="AZpGHs.tif"><path class="cls-1" d="M137.9,78.64c0-.53-.09-1.05-.09-1.58V22.27a18.74,18.74,0,0,1,3.45-11.61c3-4,7.36-5.78,12.14-6.72.88-.17,1.86,0,2.64-.61h11.42c.63.64,1.46.27,2.19.43s1.07.32,1.06,1.18c-.05,4.91,0,9.83,0,14.74,0,.83-.25,1.09-1.08,1.07-1.74-.06-3.49-.06-5.23,0-4.3.13-6.73,2.64-6.7,6.93,0,1.35-.61,3.14.3,3.92s2.51.23,3.82.23c2.54,0,5.07.06,7.61,0,1.08,0,1.34.33,1.27,1.33-.13,1.84.21,3.71-.2,5.53a10.14,10.14,0,0,1-10.5,8c-1.66,0-2,.42-2,2.06.06,18.75,0,37.51.09,56.26,0,1.69-.5,2.17-2,1.89-1.29-.24-2.7.55-3.91-.45-2.29-4.32-4.51-8.68-6.77-13Q141.5,86.1,137.9,78.64Z"/><path class="cls-1" d="M383.49,147.66c-.85-.68-2-.48-2.91-.89-.62-.27-.93-.47-.7-1.25.28-1,.78-.35,1.19-.27s.91.27,1.37.37c4.51,1,6.9-1.29,6.25-6.05a6.9,6.9,0,0,1-4.41,1.83,5.36,5.36,0,0,1-5.56-4,12.53,12.53,0,0,1-.13-7.48c1.39-5.11,6.37-6.36,10.11-2.54.49-.3.32-.83.39-1.24a.74.74,0,0,1,.82-.69c.52,0,.76.15.75.71-.1,5.54.26,11.09-.2,16.62-.21,2.56-2.23,4.27-4.91,4.58-.37,0-.87-.27-1.09.31Zm5.34-14.19a13,13,0,0,1,0-2.37c.36-1.94-1.74-3.93-3.46-4.25a4,4,0,0,0-4.71,2.53,10.91,10.91,0,0,0-.33,7.28c.7,2.47,2.51,3.5,5.09,3.08,2.11-.35,3.39-2,3.39-4.37q0-.94,0-1.89Z"/><path class="cls-1" d="M444.39,138.47c-2.61,2.85-5.43,3.7-8.56,2.54a4.53,4.53,0,0,1-3.09-3.13c-.1-.38-.41-1,.35-1.13.47-.07,1-.2,1.33.48a4.65,4.65,0,0,0,6,2.4,2.73,2.73,0,0,0,2.08-2.34,2.41,2.41,0,0,0-1.71-2.57c-1.72-.64-3.54-1-5.23-1.71a3.58,3.58,0,0,1-2.28-4.85,4.28,4.28,0,0,1,1.57-1.94,7.08,7.08,0,0,1,7.87.34,3.54,3.54,0,0,1,1.33,2.26c0,.39.41,1-.42,1.06-.44,0-1,.32-1.24-.53-.53-2.33-3.51-3.1-5.6-2.33a2.58,2.58,0,0,0-1.93,2.25,2.28,2.28,0,0,0,1.66,2.41,9.77,9.77,0,0,0,2,.62,8.87,8.87,0,0,1,5.9,3.3Z"/><path class="cls-1" d="M281.7,47.74c1.77-10.75,7.63-17.83,18.06-20.5a57.14,57.14,0,0,1,32.77,1.17c9.64,3.22,14.31,10.11,14.31,20.24v26.8a39.34,39.34,0,0,1-1.9,12.46,25.71,25.71,0,0,1-14.06,15.9,50.8,50.8,0,0,1-33.22,3.54c-12.18-2.83-19.11-12.87-18.34-25.44C280,71,285.55,64,295.73,60.44a63.74,63.74,0,0,1,7-1.92c4.85-1.09,9.84-1.26,14.71-2.19A20,20,0,0,0,323,54.51c2.24-1.16,4-2.81,3.92-5.47-.08-2.83-1.88-4.61-4.45-5.6-3.53-1.36-7.21-1.41-10.92-1.19a16.77,16.77,0,0,0-5.26,1,6.73,6.73,0,0,0-4.1,3.7c-.18.44-.35.77-1,.77ZM327.29,67a.87.87,0,0,0-.85.07,90.62,90.62,0,0,1-15.76,4.59,16.49,16.49,0,0,0-8.4,3.81c-3,2.81-3.66,6.25-2.61,10.14a8,8,0,0,0,6.67,6.17,21,21,0,0,0,6,.09,15.65,15.65,0,0,0,14.42-13C327.56,74.9,327.18,70.89,327.29,67Z"/><path class="cls-1" d="M411.4,49.58V5.51c0-1.17.19-1.63,1.5-1.58,2.85.12,5.71,0,8.56,0a10,10,0,0,1,10.1,9.9V25.5c0,1,.27,1.32,1.3,1.3,3.22-.07,6.45,0,9.67,0,1,0,1.31.22,1.23,1.22-.12,1.52,0,3.08-.17,4.58a9.5,9.5,0,0,1-10,8.61c-1.67,0-2.06.45-2,2.08.07,13.69,0,27.37,0,41.06,0,4.69,1.59,6.27,6.27,6.28h4.91c.77,0,1,.25,1,1V105.1c0,.76-.27,1-1,1a104.3,104.3,0,0,1-21.34-.4c-6.27-.81-9.88-5.31-10-12.23-.07-5.33,0-10.67,0-16Q411.4,63.53,411.4,49.58Z"/><path class="cls-1" d="M215.1,55.44q0-25,0-49.93c0-1.21.26-1.61,1.54-1.57,3,.1,6,0,9,0a9.86,9.86,0,0,1,9.69,9.21V105.1c0,1.4-.28,1.85-1.77,1.82-5.65-.1-11.31-.08-17,0-1.23,0-1.58-.29-1.58-1.56Q215.14,80.41,215.1,55.44Z"/><path class="cls-1" d="M356.52,84c0-6.82-.16-13.64,0-20.45.24-7.8,1.9-15.29,6.3-21.92C368,34,375.44,30,384.21,28.09a69.21,69.21,0,0,1,15.28-1.3c1,0,1.09.38,1.09,1.2V46.54c0,1-.26,1.23-1.23,1.23a71,71,0,0,0-9.18.23c-7.72,1-12.39,5.92-13,13.75-.1,1.26-.15,2.53-.15,3.8v39.8c0,1.21-.26,1.61-1.55,1.59-5.81-.08-11.63-.07-17.44,0-1.21,0-1.59-.26-1.58-1.54.07-7.14,0-14.27,0-21.41Z"/><path class="cls-1" d="M182.43,66.83V28.61c0-1.6.46-1.89,1.92-1.84,3.17.12,6.34,0,9.51,0,5.29.09,8.33,3,8.8,8.22.06.68.06,1.37.06,2.06v68.19c0,1.29-.27,1.68-1.62,1.66-5.71-.08-11.42-.07-17.13,0-1.25,0-1.57-.32-1.57-1.57C182.45,92.52,182.43,79.67,182.43,66.83Z"/><path class="cls-1" d="M249.62,66.94V28.24c0-1.18.27-1.5,1.46-1.46,3.06.1,6.13,0,9.2,0,6.31,0,9.45,3.06,9.62,9.38v69c0,1.33-.23,1.8-1.69,1.77-5.65-.1-11.31-.08-17,0-1.3,0-1.66-.27-1.65-1.62C249.65,92.52,249.62,79.73,249.62,66.94Z"/><path class="cls-1" d="M192.58,19.78h-8.87c-.88,0-1.32-.1-1.31-1.17.06-4.54,0-9.08,0-13.62,0-.53-.1-1.07.75-1,4.16.14,8.36-.39,12.49.25,4.37.68,6.59,3.25,6.93,7.73.18,2.31,0,4.64.1,7,0,.9-.45.88-1.09.87C198.6,19.77,195.59,19.78,192.58,19.78Z"/><path class="cls-1" d="M259.68,19.78h-8.87c-1,0-1.22-.31-1.21-1.25V5.06c0-.44-.32-1.14.62-1.12,4.12.09,8.26-.36,12.34.2,4.84.66,7.12,3.59,7.27,8.79.06,1.9,0,3.8,0,5.7,0,.93-.31,1.15-1.18,1.14C265.7,19.75,262.69,19.78,259.68,19.78Z"/><path class="cls-1" d="M249.4,127.53c3.35-3.48,7.91-3,9.58.79a5.66,5.66,0,0,1,3.86-3,4.87,4.87,0,0,1,6.13,4.15c.58,3.62.14,7.27.28,10.91,0,.81-.45.77-1,.81-.75.06-.86-.3-.86-.94,0-3.06.07-6.13,0-9.19-.09-3.55-2.94-5.38-5.78-3.76a4.77,4.77,0,0,0-2.27,4.28,43.59,43.59,0,0,1-.07,4.9c-.25,1.56,1.13,3.47-.87,4.69-1.91-1.3-.52-3.18-.76-4.76-.31-2.07.14-4.22-.26-6.31-.53-2.77-2.67-4-5.29-3a4,4,0,0,0-2.59,3.79v9c0,.71.1,1.34-1,1.32s-.8-.76-.8-1.31v-13c0-.53-.53-1.45.76-1.45s.74.87.86,1.44C249.34,127,249.35,127.18,249.4,127.53Z"/><path class="cls-1" d="M128.46,127.45c3.61-3.32,7.28-3,9.47.8a7.08,7.08,0,0,1,3-2.71c3.51-1.29,6.82.6,7.12,4.38.28,3.47.1,7,.14,10.46,0,.65-.29.77-.86.8-.76,0-.86-.34-.85-1v-7.13a21.11,21.11,0,0,0-.11-2.21c-.32-2.9-1.63-4.22-4-4.09a4.42,4.42,0,0,0-4,4.66v8.4c0,.65.23,1.39-.94,1.35s-.85-.69-.86-1.3c0-3.06,0-6.13-.14-9.19-.15-2.74-1.59-4-4-3.93a4.06,4.06,0,0,0-4,4.11q0,.14,0,.28v8.72c0,.56.3,1.28-.81,1.3s-1.05-.51-1-1.28V126.71c0-.53-.37-1.31.77-1.32s.89.62.93,1.24A7.69,7.69,0,0,0,128.46,127.45Z"/><path class="cls-1" d="M352.87,130.7v-9.34c0-.94.2-1.33,1.22-1.26,2.31.16,4.65-.22,7,.21a8.16,8.16,0,0,1,6.81,6.79,21.68,21.68,0,0,1,0,7.1c-.69,4.11-4,6.71-8.57,6.95-1.79.09-3.59,0-5.38,0-.91,0-1-.38-1-1.14C352.89,136.93,352.87,133.81,352.87,130.7Zm1.75-.07c0,2.59,0,5.17,0,7.76,0,1,.28,1.27,1.23,1.2,1.16-.08,2.32,0,3.48,0a6.85,6.85,0,0,0,6.76-5.73,17.92,17.92,0,0,0,.18-5.2c-.45-4.56-3.19-7-7.77-7-1,0-1.91.06-2.85,0s-1,.29-1,1.08c0,2.61,0,5.26,0,7.89Z"/><path class="cls-1" d="M111,130.64v-9.19c0-.95.11-1.4,1.25-1.37,3.38.09,6.76,0,10.13,0,.64,0,1.1,0,1.08.87s-.63.66-1.09.66H114c-.9,0-1.17.24-1.13,1.14.07,1.85.07,3.7,0,5.54,0,.92.28,1.15,1.16,1.13,2.32-.06,4.65,0,7,0,.54,0,1.16-.2,1.17.78s-.58.81-1.14.81h-7c-.85,0-1.22.15-1.19,1.1.07,2.11.06,4.22,0,6.33,0,.88.22,1.18,1.13,1.16,2.8-.06,5.6,0,8.39,0,.56,0,1.19-.17,1.19.79s-.62.8-1.18.8c-3.38,0-6.76-.05-10.14,0-1.14,0-1.26-.42-1.25-1.37Q111,135.23,111,130.64Z"/><path class="cls-1" d="M234.93,139.15c-1.32,1.29-2.55,2.19-4.25,2.24-3.3.08-5.28-1.3-6.12-4.51a13.29,13.29,0,0,1,.1-7.19c1.41-4.82,6.11-6,10.12-2.28v-7.69c0-.65,0-1.06.89-1.11,1.13-.06,1,.63,1,1.31v19.32a5.66,5.66,0,0,1,0,.79c-.06.45.29,1.1-.62,1.15s-1-.38-1-1.06A9.15,9.15,0,0,0,234.93,139.15Zm-.17-5.75v-2.69a3.84,3.84,0,0,0-2.85-3.7,4,4,0,0,0-4.66,1.35c-1.69,2.32-1.79,7.43-.19,9.8a4.31,4.31,0,0,0,4.93,1.49,3.67,3.67,0,0,0,2.77-3.72c0-.84,0-1.68,0-2.52Z"/><path class="cls-1" d="M154.41,139.77V146c0,.8-.17,1.1-1,1.12s-.83-.52-.83-1.1V126.83c0-.47-.55-1.35.65-1.38s.78.76.9,1.32c0,.19.05.38.1.78a8.33,8.33,0,0,1,3.2-2.14,5.41,5.41,0,0,1,6.8,3.4,12.29,12.29,0,0,1,.24,8.69,5.76,5.76,0,0,1-9.29,2.59C155,139.94,154.91,139.62,154.41,139.77Zm0-6.45v2.37c0,2.22,1,3.54,2.94,4,2.34.58,4.22-.16,5.14-2.24a9.79,9.79,0,0,0-.22-8.54,3.9,3.9,0,0,0-4.81-2,3.81,3.81,0,0,0-3.05,4Z"/><path class="cls-1" d="M420.46,138.78a7.09,7.09,0,0,1-6.25,2.6,4.09,4.09,0,0,1-3.9-3.11,4.27,4.27,0,0,1,1.73-4.86c1.8-1.24,3.85-1.22,5.92-1.27.81,0,2.09.61,2.37-.4a3.91,3.91,0,0,0-.76-3.87c-1.7-1.8-6.25-1.49-6.84,1.3-.2.95-.8.7-1.29.66-.77-.07-.42-.68-.39-1.11a1.81,1.81,0,0,1,.09-.47c.72-2,3.62-3.4,6.41-3s4.51,1.9,4.62,4.35c.12,2.69,0,5.38.08,8.07,0,.68.15,1.37.1,2s.78,1.28-.42,1.47-1.37-.44-1.36-1.37C420.57,139.59,420.52,139.39,420.46,138.78Zm-2.24-5.23c-2.69,0-3.81.23-4.85,1-1.92,1.34-1.88,3.92.08,4.93,2.14,1.1,5.89-.25,6.78-2.48a4.24,4.24,0,0,0,.07-3.1C420,133.11,418.85,133.72,418.22,133.55Z"/><path class="cls-1" d="M184.78,133.34H180.5c-.83,0-1.11.21-1,1.06.18,2,.79,3.91,2.67,4.93a6,6,0,0,0,5.88-.4c.45-.25.86-1.1,1.45,0s-.3,1.13-.74,1.41c-3.54,2.2-9.71,1.68-10.88-4.56a10.5,10.5,0,0,1,.77-6.94,6.38,6.38,0,0,1,7.9-3.21c2.48.87,4.09,4.06,3.64,7.07-.1.67-.43.72-.95.72C187.74,133.33,186.26,133.34,184.78,133.34ZM184,131.8c1.16,0,2.32-.07,3.47,0,.94.07,1-.34.93-1.1a4.12,4.12,0,0,0-3.61-4A4.58,4.58,0,0,0,180,130c-.6,1.66-.54,1.75,1.18,1.76Z"/><path class="cls-1" d="M284,138.25c1,.86.7,1.47-.27,2.06-3.25,2-9.31,1.81-10.71-4.05-.67-2.83-.65-5.68,1.08-8.23a6.28,6.28,0,0,1,7.67-2.38c2.38,1,3.92,4.25,3.43,7-.15.87-.71.62-1.17.62-2.75,0-5.5.06-8.25,0-1.06,0-1.36.28-1.27,1.33.41,4.64,4.52,6.73,8.5,4.28C283.38,138.71,283.7,138.47,284,138.25Zm-4.94-6.45c1.11,0,2.22-.06,3.32,0,.89.07,1.07-.29,1-1.08a4.15,4.15,0,0,0-3.6-4c-2.23-.26-4.21,1.28-4.94,3.78-.26.89-.26,1.38.9,1.28s2.26,0,3.34,0Z"/><path class="cls-1" d="M199.9,133.34c-1.43,0-2.86.07-4.28,0-1.08-.08-1.22.41-1.14,1.3.38,4.57,4.54,6.7,8.5,4.35.4-.24.83-1.21,1.46-.18s-.26,1.24-.78,1.54c-3.9,2.25-10.07,1.35-10.86-5.22a11.28,11.28,0,0,1,.41-5.32,6.38,6.38,0,0,1,5.53-4.57,6.17,6.17,0,0,1,6.51,7.55c-.13.63-.48.58-.89.58Zm-.9-1.54c1.16,0,2.32-.06,3.47,0,.83.05.95-.29.92-1a4.12,4.12,0,0,0-4.14-4.09,5,5,0,0,0-4.53,4.48c0,.71.41.59.81.59Z"/><path class="cls-1" d="M327,133.28a8.92,8.92,0,0,1-.33,3.06,6.38,6.38,0,0,1-6.11,5c-3.47.06-5.88-1.56-6.82-4.73a11.49,11.49,0,0,1,0-6.56,6.46,6.46,0,0,1,6.58-4.89,6.58,6.58,0,0,1,6.38,5.18A8,8,0,0,1,327,133.28Zm-1.88.14a14,14,0,0,0,0-1.74c-.35-2.76-2.16-4.68-4.57-4.91s-4.34,1.26-5.1,3.84a9.1,9.1,0,0,0,.27,6.19,4.53,4.53,0,0,0,4.36,3.09,4.58,4.58,0,0,0,4.46-2.93,6.7,6.7,0,0,0,.58-3.55Z"/><path class="cls-1" d="M210.35,127.89a6.22,6.22,0,0,1,3.07-2.43c3.65-1.09,6.61.7,6.9,4.5.27,3.47.08,7,.13,10.46,0,.69-.33.74-.88.76-.75,0-1-.23-1-1V131.3c0-3-1.25-4.56-3.81-4.52a4.31,4.31,0,0,0-4.43,4.68V140c0,.56.18,1.16-.79,1.17s-1-.38-1-1.15V126.72c0-.56-.3-1.29.81-1.29s.85.66.89,1.27C210.27,127,210.3,127.3,210.35,127.89Z"/><path class="cls-1" d="M290.36,127.78a6.65,6.65,0,0,1,3.74-2.47c3.3-.63,6,1,6.2,4.36.26,3.57.09,7.17.14,10.76,0,.71-.37.73-.89.75s-.83-.2-.82-.82v-7.44a21.52,21.52,0,0,0-.14-2.52c-.32-2.57-1.7-3.77-4.07-3.61a4.22,4.22,0,0,0-4.13,4.16v8.71c0,.64.4,1.55-.92,1.54s-.8-.89-.8-1.45V126.92c0-.51-.56-1.43.73-1.48s.7.86.85,1.4A8,8,0,0,1,290.36,127.78Z"/><path class="cls-1" d="M335.65,141.37c-3,0-5.21-1.29-5.72-3.32-.1-.38-.32-.9.06-1.18a2,2,0,0,1,1.06-.13c.54,0,.5.49.57.81.61,2.68,6,3.1,7.53,1a2.38,2.38,0,0,0-.61-3.56,7.8,7.8,0,0,0-2.78-1.06,13.23,13.23,0,0,1-3.57-1.22,3.68,3.68,0,0,1-.89-5.9c2.11-2.24,6.84-2.22,8.92,0a3.54,3.54,0,0,1,.71,1c.25.63.87,1.47,0,1.92s-1.25-.22-1.63-1.07c-1-2.3-5-2.76-6.66-.88a2.23,2.23,0,0,0,.51,3.52,8.76,8.76,0,0,0,2.82,1,14.61,14.61,0,0,1,3,1,3.89,3.89,0,0,1,2.56,3.82,4.25,4.25,0,0,1-3.08,3.82A7.65,7.65,0,0,1,335.65,141.37Z"/><path class="cls-1" d="M305.77,132.84c0-1.53-.07-3.06,0-4.59.07-1.06-.28-1.38-1.3-1.28-.53.05-1.32.35-1.33-.76s.83-.75,1.32-.72c1,.07,1.45-.21,1.3-1.28a17.31,17.31,0,0,1,0-1.74c0-.58,0-1,.8-1s1.18.05,1.06.92a3.24,3.24,0,0,0,0,.47c0,2.43,0,2.43,2.48,2.58.5,0,.93,0,.92.71s-.38.82-1,.84c-2.41.11-2.41.13-2.41,2.49v7.6c0,2.14.41,2.57,2.56,2.64a.8.8,0,0,1,.91.8c.12.72-.45.72-.9.8-2.53.44-4.15-.71-4.36-3.28-.14-1.73,0-3.48,0-5.22Z"/><path class="cls-1" d="M402.52,132.81c0-1.48-.07-3,0-4.43.07-1.05-.16-1.57-1.34-1.41-.55.07-1.32.31-1.3-.8s.88-.72,1.35-.68c1.06.09,1.4-.3,1.27-1.31a14.43,14.43,0,0,1,0-1.74c0-.58.06-1,.83-1s1.15.12,1,.95a2,2,0,0,0,0,.32c0,2.54,0,2.56,2.51,2.71.52,0,.92,0,.89.74s-.25.8-.85.82c-.82,0-2-.43-2.38.22s-.16,1.72-.17,2.61v7.43c0,1.93.57,2.47,2.44,2.48.67,0,1,.17,1,.82s-.5.69-.94.77c-2.55.43-4.07-.73-4.35-3.31a5.86,5.86,0,0,1,0-.63v-4.59Z"/><path class="cls-1" d="M170.67,127.83c1.16-1.67,2.47-2.63,4.31-2.64.62,0,1.16,0,1.1.9,0,.73-.27.94-1,.95-3,0-4.4,1.54-4.4,4.52v8.39c0,.61.18,1.26-.88,1.24s-1-.45-1-1.18V126.55c0-.46-.26-1.08.65-1.12s1,.26,1,1A14.09,14.09,0,0,0,170.67,127.83Z"/><path class="cls-1" d="M372.33,133.32v-6.95c0-.62.06-1,.83-.94s1,.17,1,1v13.73c0,.7-.12,1-.94,1.06s-.89-.43-.89-1.08C372.34,137.85,372.33,135.59,372.33,133.32Z"/><path class="cls-1" d="M428.69,133.28v6.8c0,.65,0,1.09-.89,1.11s-.87-.46-.87-1.09q0-6.8,0-13.6c0-.61-.07-1.1.85-1.08s.92.38.92,1.06C428.67,128.75,428.69,131,428.69,133.28Z"/><path class="cls-1" d="M397,133.26v6.8c0,.62,0,1.11-.86,1.13s-.9-.4-.9-1.06v-13.6c0-.58-.13-1.1.82-1.1s.94.52.94,1.19C397,128.83,397,131,397,133.26Z"/><path class="cls-1" d="M243,133.33v6.81c0,.69-.1,1.07-.94,1s-.77-.5-.77-1V126.36c0-.65.12-.93.86-.93s.87.28.86.93Q243,129.84,243,133.33Z"/><path class="cls-1" d="M372.34,119.72c0-.39-.29-1.09.81-1.11s1,.64,1,1.33,0,1.17-.94,1.18S372.32,120.51,372.34,119.72Z"/><path class="cls-1" d="M243,119.73c.13.94.09,1.4-.88,1.38-1.16,0-.68-.81-.75-1.32-.1-.68-.06-1.21.93-1.17S242.88,119.45,243,119.73Z"/><path class="cls-1" d="M428.68,120c.08.61,0,1.09-.92,1.09s-.83-.67-.82-1.23-.28-1.26.8-1.27S428.69,119.28,428.68,120Z"/><path class="cls-1" d="M397,120.06c0,.37.24,1-.82,1.05s-1-.48-.92-1.14-.33-1.39.87-1.36C397.1,118.63,397,119.23,397,120.06Z"/></g><g id="aMojFO.tif"><path class="cls-2" d="M62.76,5.32c7.07,0,14.13,0,21.2,0a49.55,49.55,0,0,1,5.46.53A25.51,25.51,0,0,1,95,7.33a21.39,21.39,0,0,1,4,2.11,21.31,21.31,0,0,1,5.3,4.74,44,44,0,0,1,3.62,5.07c1.47,2.4,2.56,5,4,7.4.51.89,1.06,1.79,1.51,2.68s1,2,1.47,3c2,4,4.14,8.05,6.21,12.07,1.9,3.67,3.77,7.34,5.72,11q1.91,3.57,3.77,7.17c1.41,2.74,2.85,5.48,4.23,8.23,1.66,3.22,3.31,6.42,5,9.63,1.41,2.73,2.82,5.46,4.26,8.19,1.72,3.28,3.52,6.52,5.18,9.83,1.24,2.49,2.63,4.83,3.76,7.35.14.32.55.51.44.94H113.71a.94.94,0,0,0,0-.27c-1.48-3-2.94-6-4.45-8.94s-3-5.8-4.46-8.67-3.06-6-4.58-9L92.42,64.69q-2.17-4.25-4.31-8.54c-1.37-2.73-2.76-5.45-4.08-8.21a32.38,32.38,0,0,1-1.8-3.76c.15-.55-.31-.86-.51-1.28-1-2-2-3.93-3-5.94-1.06-2.23-2.2-4.43-3.34-6.63-.78-1.52-1.7-3-2.38-4.52-.79-1.81-1.76-3.5-2.62-5.28-1-2-2.07-4-3.09-6.05L63,6A1.45,1.45,0,0,1,62.76,5.32Z"/><path class="cls-1" d="M62.76,5.32a1.45,1.45,0,0,0,.24.74l4.31,8.46c1,2,2.11,4,3.09,6.05.83,1.76,1.83,3.47,2.62,5.28.68,1.55,1.6,3,2.38,4.52,1.13,2.2,2.27,4.4,3.34,6.63,1,2,2,3.95,3,5.94.2.41.67.7.51,1.28-.51-.41-.53.08-.68.35l-4.23,8.32q-3,5.94-5.94,11.9c-1.41,2.82-2.78,5.64-4.19,8.43-1,2-2.07,3.88-3,5.88-1.19,2.51-2.49,5-3.73,7.46S58,91.48,56.75,93.9c-1.06,2-1.95,4-3,6q-1.78,3.41-3.45,6.88H11.24c-.18,0-.62.29-.58-.27.41-.17.57-.58.75-.93l3.1-6.1c1.48-2.9,3-5.8,4.44-8.7s2.94-6,4.46-9c1.41-2.75,2.82-5.51,4.2-8.28.93-1.83,1.87-3.68,2.84-5.5,1.29-2.42,2.49-4.93,3.69-7.37,1-1.94,2-3.88,3-5.8l2.27-4.42,4.85-9.55c1.11-2.18,2.2-4.38,3.31-6.56C49,31.58,50.4,28.81,51.81,26c1.5-2.94,3-5.88,4.46-8.81,1.27-2.49,2.56-5,3.83-7.49.68-1.34,1.31-2.71,2-4.05C62.21,5.45,62.34,5.07,62.76,5.32Z"/></g></svg>