<svg id="Camada_1" data-name="Camada 1" xmlns="http://www.w3.org/2000/svg" xmlns:xlink="http://www.w3.org/1999/xlink" viewBox="0 0 1825 1300"><defs><style>.cls-1,.cls-2,.cls-3,.cls-4,.cls-6,.cls-8{fill:none;stroke-miterlimit:10;stroke-width:4px;}.cls-1,.cls-10,.cls-11,.cls-2,.cls-3,.cls-4,.cls-5,.cls-6,.cls-7,.cls-8,.cls-9{opacity:0.41;isolation:isolate;}.cls-1{stroke:url(#Gradiente_sem_nome_14);}.cls-2{stroke:url(#Gradiente_sem_nome_14-2);}.cls-3{stroke:url(#Gradiente_sem_nome_14-3);}.cls-4{stroke:url(#Gradiente_sem_nome_14-4);}.cls-5{fill:url(#Gradiente_sem_nome_14-5);}.cls-6{stroke:url(#Gradiente_sem_nome_14-6);}.cls-7{fill:url(#Gradiente_sem_nome_14-7);}.cls-8{stroke:url(#Gradiente_sem_nome_14-8);}.cls-9{fill:url(#Gradiente_sem_nome_14-9);}.cls-10{fill:url(#Gradiente_sem_nome_14-10);}.cls-11{fill:url(#Gradiente_sem_nome_14-11);}</style><linearGradient id="Gradiente_sem_nome_14" x1="180.61" y1="708.25" x2="95.13" y2="606.49" gradientTransform="translate(505.21 95.05) rotate(45)" gradientUnits="userSpaceOnUse"><stop offset="0" stop-color="#ef2b51"/><stop offset="0.98" stop-color="#bc1a1e"/></linearGradient><linearGradient id="Gradiente_sem_nome_14-2" x1="207.81" y1="877.89" x2="144.6" y2="802.64" gradientTransform="translate(645.76 121.51) rotate(45)" xlink:href="#Gradiente_sem_nome_14"/><linearGradient id="Gradiente_sem_nome_14-3" x1="304.72" y1="882.61" x2="276.67" y2="849.21" gradientTransform="translate(697.43 48.07) rotate(45)" xlink:href="#Gradiente_sem_nome_14"/><linearGradient id="Gradiente_sem_nome_14-4" x1="128.88" y1="943.96" x2="100.83" y2="910.56" gradientTransform="translate(689.31 190.37) rotate(45)" xlink:href="#Gradiente_sem_nome_14"/><linearGradient id="Gradiente_sem_nome_14-5" x1="1745.9" y1="1182.97" x2="1663.21" y2="1084.53" gradientTransform="translate(1300.93 -873.23) rotate(45)" xlink:href="#Gradiente_sem_nome_14"/><linearGradient id="Gradiente_sem_nome_14-6" x1="1675.15" y1="1008.76" x2="1611.94" y2="933.51" gradientTransform="translate(1168.08 -877.72) rotate(45)" xlink:href="#Gradiente_sem_nome_14"/><linearGradient id="Gradiente_sem_nome_14-7" x1="1594.83" y1="1232.74" x2="1569.57" y2="1202.66" gradientTransform="translate(1324.46 -762.13) rotate(45)" xlink:href="#Gradiente_sem_nome_14"/><linearGradient id="Gradiente_sem_nome_14-8" x1="1621.88" y1="1234.4" x2="1593.82" y2="1201.01" gradientTransform="translate(1331.98 -780.27) rotate(45)" xlink:href="#Gradiente_sem_nome_14"/><linearGradient id="Gradiente_sem_nome_14-9" x1="1712.15" y1="901.88" x2="1651.73" y2="829.95" gradientTransform="translate(1104.92 -935.69) rotate(45)" xlink:href="#Gradiente_sem_nome_14"/><linearGradient id="Gradiente_sem_nome_14-10" x1="188.84" y1="1097.32" x2="163.57" y2="1067.24" gradientTransform="translate(816.89 192.4) rotate(45)" xlink:href="#Gradiente_sem_nome_14"/><linearGradient id="Gradiente_sem_nome_14-11" x1="188.84" y1="319.71" x2="163.57" y2="289.63" gradientTransform="translate(267.04 -35.36) rotate(45)" xlink:href="#Gradiente_sem_nome_14"/></defs><title>bkg2</title><rect class="cls-1" x="78.5" y="598.01" width="118.73" height="118.73" transform="translate(-424.45 290.03) rotate(-45)"/><rect class="cls-2" x="132.82" y="796.88" width="86.75" height="86.75" transform="translate(-542.55 370.7) rotate(-45)"/><rect class="cls-3" x="272.55" y="847.77" width="36.28" height="36.28" transform="translate(-527.15 459.17) rotate(-45)"/><rect class="cls-4" x="96.72" y="909.12" width="36.28" height="36.28" transform="translate(-622.03 352.8) rotate(-45)"/><rect class="cls-5" x="1645.19" y="1074.38" width="118.73" height="118.73" transform="translate(-302.43 1537.37) rotate(-45)"/><rect class="cls-6" x="1600.17" y="927.75" width="86.75" height="86.75" transform="translate(-205.31 1446.6) rotate(-45)"/><rect class="cls-7" x="1564.06" y="1199.56" width="36.28" height="36.28" transform="translate(-397.63 1475.44) rotate(-45)"/><rect class="cls-8" x="1589.71" y="1199.56" width="36.28" height="36.28" transform="translate(-390.12 1493.58) rotate(-45)"/><rect class="cls-9" x="1638.57" y="822.54" width="86.75" height="86.75" transform="translate(-119.66 1442.93) rotate(-45)"/><rect class="cls-10" x="158.06" y="1064.14" width="36.28" height="36.28" transform="translate(-713.68 441.58) rotate(-45)"/><rect class="cls-11" x="158.06" y="286.53" width="36.28" height="36.28" transform="translate(-163.83 213.83) rotate(-45)"/></svg>