<svg id="Camada_1" data-name="Camada 1" xmlns="http://www.w3.org/2000/svg" xmlns:xlink="http://www.w3.org/1999/xlink" viewBox="0 0 1825 1300"><defs><style>.cls-1,.cls-10,.cls-11,.cls-12,.cls-13,.cls-14,.cls-15,.cls-16,.cls-17,.cls-18,.cls-19,.cls-2,.cls-20,.cls-21,.cls-22,.cls-23,.cls-24,.cls-3,.cls-4,.cls-5,.cls-6,.cls-7,.cls-8,.cls-9{fill:none;stroke-miterlimit:10;stroke-width:4px;}.cls-1{stroke:url(#Gradiente_sem_nome);}.cls-2{stroke:url(#Gradiente_sem_nome_2);}.cls-3{stroke:url(#Gradiente_sem_nome_3);}.cls-4{stroke:url(#Gradiente_sem_nome_4);}.cls-5{stroke:url(#Gradiente_sem_nome_5);}.cls-6{stroke:url(#Gradiente_sem_nome_6);}.cls-7{stroke:url(#Gradiente_sem_nome_7);}.cls-8{stroke:url(#Gradiente_sem_nome_8);}.cls-9{stroke:url(#Gradiente_sem_nome_9);}.cls-10{stroke:url(#Gradiente_sem_nome_10);}.cls-11{stroke:url(#Gradiente_sem_nome_11);}.cls-12{stroke:url(#Gradiente_sem_nome_12);}.cls-13{stroke:url(#Gradiente_sem_nome_13);}.cls-14{stroke:url(#Gradiente_sem_nome_14);}.cls-15{stroke:url(#Gradiente_sem_nome_15);}.cls-16{stroke:url(#Gradiente_sem_nome_16);}.cls-17{stroke:url(#Gradiente_sem_nome-2);}.cls-18{stroke:url(#Gradiente_sem_nome-3);}.cls-19{stroke:url(#Gradiente_sem_nome-4);}.cls-20{stroke:url(#Gradiente_sem_nome-5);}.cls-21{stroke:url(#Gradiente_sem_nome-6);}.cls-22{stroke:url(#Gradiente_sem_nome-7);}.cls-23{stroke:url(#Gradiente_sem_nome-8);}.cls-24{stroke:url(#Gradiente_sem_nome-9);}</style><linearGradient id="Gradiente_sem_nome" x1="2748.64" y1="123.5" x2="2911.83" y2="123.5" gradientTransform="matrix(0.92, -0.08, -0.08, 0.92, -2280.65, 541.39)" gradientUnits="userSpaceOnUse"><stop offset="0" stop-color="#6c011a"/><stop offset="0.98" stop-color="#cd0029"/></linearGradient><linearGradient id="Gradiente_sem_nome_2" x1="2559.6" y1="172.76" x2="2753.91" y2="172.76" gradientTransform="matrix(0.92, -0.08, -0.08, 0.92, -2190.78, 639.41)" xlink:href="#Gradiente_sem_nome"/><linearGradient id="Gradiente_sem_nome_3" x1="2511.92" y1="39.6" x2="2656.59" y2="39.6" gradientTransform="matrix(0.92, -0.08, -0.08, 0.92, -2256.71, 712.79)" xlink:href="#Gradiente_sem_nome"/><linearGradient id="Gradiente_sem_nome_4" x1="942.57" y1="-6.32" x2="1087.24" y2="-6.32" gradientTransform="matrix(-0.92, 0.08, 0.08, -0.92, 1175.24, 650.69)" xlink:href="#Gradiente_sem_nome"/><linearGradient id="Gradiente_sem_nome_5" x1="642.65" y1="2492.51" x2="800.29" y2="2492.51" gradientTransform="matrix(0.08, -0.92, 0.92, -0.08, -625.08, 1138.95)" xlink:href="#Gradiente_sem_nome"/><linearGradient id="Gradiente_sem_nome_6" x1="1563.95" y1="-827.61" x2="1674.83" y2="-827.61" gradientTransform="matrix(-0.08, 0.92, -0.92, 0.08, -463.67, -1055.82)" xlink:href="#Gradiente_sem_nome"/><linearGradient id="Gradiente_sem_nome_7" x1="1660.2" y1="770.01" x2="1766.58" y2="770.01" gradientTransform="matrix(0.08, -0.92, 0.92, -0.08, -729.56, 2424.4)" xlink:href="#Gradiente_sem_nome"/><linearGradient id="Gradiente_sem_nome_8" x1="1463.95" y1="816.96" x2="1570.33" y2="816.96" gradientTransform="matrix(0.08, -0.92, 0.92, -0.08, -612.82, 2353.71)" xlink:href="#Gradiente_sem_nome"/><linearGradient id="Gradiente_sem_nome_9" x1="1287.59" y1="753.66" x2="1434.09" y2="753.66" gradientTransform="matrix(0.08, -0.92, 0.92, -0.08, -486.94, 2360.34)" xlink:href="#Gradiente_sem_nome"/><linearGradient id="Gradiente_sem_nome_10" x1="1394.64" y1="1015.39" x2="1437.33" y2="1015.39" gradientTransform="matrix(0.08, -0.92, 0.92, -0.08, -609.61, 2208.39)" xlink:href="#Gradiente_sem_nome"/><linearGradient id="Gradiente_sem_nome_11" x1="1460.56" y1="628.69" x2="1670.94" y2="628.69" gradientTransform="matrix(0.08, -0.92, 0.92, -0.08, -584, 2481.61)" xlink:href="#Gradiente_sem_nome"/><linearGradient id="Gradiente_sem_nome_12" x1="1212.32" y1="925.16" x2="1252.54" y2="925.16" gradientTransform="matrix(0.08, -0.92, 0.92, -0.08, -456.58, 2226.1)" xlink:href="#Gradiente_sem_nome"/><linearGradient id="Gradiente_sem_nome_13" x1="1349.67" y1="897.64" x2="1456.05" y2="897.64" gradientTransform="matrix(0.08, -0.92, 0.92, -0.08, -562.29, 2279.21)" xlink:href="#Gradiente_sem_nome"/><linearGradient id="Gradiente_sem_nome_14" x1="1327.27" y1="534.5" x2="1433.65" y2="534.5" gradientTransform="matrix(0.08, -0.92, 0.92, -0.08, -428.49, 2501.43)" xlink:href="#Gradiente_sem_nome"/><linearGradient id="Gradiente_sem_nome_15" x1="1357.72" y1="442.01" x2="1400.41" y2="442.01" gradientTransform="matrix(0.08, -0.92, 0.92, -0.08, -397.31, 2558.94)" xlink:href="#Gradiente_sem_nome"/><linearGradient id="Gradiente_sem_nome_16" x1="1251.15" y1="610.49" x2="1293.84" y2="610.49" gradientTransform="matrix(0.08, -0.92, 0.92, -0.08, -380.66, 2431.2)" xlink:href="#Gradiente_sem_nome"/><linearGradient id="Gradiente_sem_nome-2" x1="1351.57" y1="-964.04" x2="1462.45" y2="-964.04" gradientTransform="matrix(-0.08, 0.92, -0.92, 0.08, -651.22, -1096.33)" xlink:href="#Gradiente_sem_nome"/><linearGradient id="Gradiente_sem_nome-3" x1="1418.35" y1="-941.85" x2="1529.23" y2="-941.85" gradientTransform="matrix(-0.08, 0.92, -0.92, 0.08, -599.02, -1096.54)" xlink:href="#Gradiente_sem_nome"/><linearGradient id="Gradiente_sem_nome-4" x1="2680.21" y1="-2243.35" x2="2791.09" y2="-2243.35" gradientTransform="matrix(-0.08, 0.92, -0.92, 0.08, -175.2, -2175.78)" xlink:href="#Gradiente_sem_nome"/><linearGradient id="Gradiente_sem_nome-5" x1="831.83" y1="2411.29" x2="874.52" y2="2411.29" gradientTransform="matrix(0.08, -0.92, 0.92, -0.08, -687.17, 1217.46)" xlink:href="#Gradiente_sem_nome"/><linearGradient id="Gradiente_sem_nome-6" x1="121.93" y1="1753.31" x2="268.43" y2="1753.31" gradientTransform="matrix(0.08, -0.92, 0.92, -0.08, -29.19, 1490.01)" xlink:href="#Gradiente_sem_nome"/><linearGradient id="Gradiente_sem_nome-7" x1="55.29" y1="1775.6" x2="95.5" y2="1775.6" gradientTransform="matrix(0.08, -0.92, 0.92, -0.08, 44.15, 1450.84)" xlink:href="#Gradiente_sem_nome"/><linearGradient id="Gradiente_sem_nome-8" x1="111.98" y1="1868.1" x2="152.19" y2="1868.1" gradientTransform="matrix(0.08, -0.92, 0.92, -0.08, -24.25, 1404.98)" xlink:href="#Gradiente_sem_nome"/><linearGradient id="Gradiente_sem_nome-9" x1="-33.48" y1="1863.27" x2="72.9" y2="1863.27" gradientTransform="matrix(0.08, -0.92, 0.92, -0.08, 52.98, 1384.31)" xlink:href="#Gradiente_sem_nome"/></defs><title>bkg1</title><rect class="cls-1" x="240.51" y="355.81" width="132.68" height="132.68" transform="translate(-208.63 340.62) rotate(-45)"/><rect class="cls-2" x="154.11" y="500.3" width="158.69" height="158.69" transform="translate(-341.5 334.85) rotate(-45)"/><rect class="cls-3" x="53.31" y="478.16" width="117.21" height="117.21" transform="translate(-346.77 236.35) rotate(-45)"/><rect class="cls-4" x="184.62" y="681.29" width="117.21" height="117.21" transform="translate(-451.94 388.69) rotate(-45)"/><rect class="cls-5" x="1657.88" y="207.92" width="128.04" height="128.04" transform="translate(312.04 1297.21) rotate(-45)"/><rect class="cls-6" x="118.36" y="318" width="88.97" height="88.97" transform="translate(-208.62 221.32) rotate(-45)"/><rect class="cls-7" x="75.37" y="745.94" width="85.21" height="85.21" transform="translate(-523.03 314.38) rotate(-45)"/><rect class="cls-8" x="219.07" y="851.51" width="85.21" height="85.21" transform="translate(-555.59 446.91) rotate(-45)"/><rect class="cls-9" x="257.25" y="990.03" width="118.73" height="118.73" transform="translate(-649.3 531.24) rotate(-45)"/><rect class="cls-10" x="422.7" y="809.33" width="31.99" height="31.99" transform="translate(-455.1 551.94) rotate(-45)"/><rect class="cls-11" x="35.65" y="906.82" width="172.11" height="172.11" transform="translate(-666.42 376.86) rotate(-45)"/><rect class="cls-12" x="478.88" y="1003.96" width="29.92" height="29.92" transform="translate(-575.85 647.63) rotate(-45)"/><rect class="cls-13" x="334.26" y="875.26" width="85.21" height="85.21" transform="translate(-538.65 535.32) rotate(-45)"/><rect class="cls-14" x="132.92" y="1147.88" width="85.21" height="85.21" transform="translate(-790.39 472.8) rotate(-45)"/><rect class="cls-15" x="105.71" y="1240.88" width="31.99" height="31.99" transform="translate(-853.1 454.19) rotate(-45)"/><rect class="cls-16" x="268.23" y="1197.11" width="31.99" height="31.99" transform="translate(-774.55 556.29) rotate(-45)"/><rect class="cls-17" x="73.49" y="71.34" width="88.97" height="88.97" transform="translate(-47.35 117.35) rotate(-45)"/><rect class="cls-18" x="99.84" y="134.26" width="88.97" height="88.97" transform="translate(-84.12 154.4) rotate(-45)"/><rect class="cls-19" x="1614.5" y="106.23" width="88.97" height="88.97" transform="translate(379.34 1217.22) rotate(-45)"/><rect class="cls-20" x="1580.08" y="220.25" width="31.99" height="31.99" transform="translate(300.43 1197.79) rotate(-45)"/><rect class="cls-21" x="1536.71" y="1107.42" width="118.73" height="118.73" transform="translate(-357.56 1470.34) rotate(-45)"/><rect class="cls-22" x="1665.07" y="1220.76" width="29.92" height="29.92" transform="translate(-381.72 1549.89) rotate(-45)"/><rect class="cls-23" x="1686.23" y="1115.27" width="29.92" height="29.92" transform="translate(-300.93 1533.96) rotate(-45)"/><rect class="cls-24" x="1722.14" y="1170.5" width="85.21" height="85.21" transform="translate(-340.91 1603.17) rotate(-45)"/></svg>