<svg id="Camada_1" data-name="Camada 1" xmlns="http://www.w3.org/2000/svg" xmlns:xlink="http://www.w3.org/1999/xlink" viewBox="0 0 1825 1300"><defs><style>.cls-1,.cls-10,.cls-11,.cls-12,.cls-13,.cls-14,.cls-15,.cls-2,.cls-3,.cls-4,.cls-5,.cls-6,.cls-7,.cls-8,.cls-9{fill:none;stroke-miterlimit:10;stroke-width:4px;opacity:0.21;}.cls-1{stroke:url(#Gradiente_sem_nome_5);}.cls-2{stroke:url(#Gradiente_sem_nome_9);}.cls-3{stroke:url(#Gradiente_sem_nome_11);}.cls-4{stroke:url(#Gradiente_sem_nome_12);}.cls-5{stroke:url(#Gradiente_sem_nome_14);}.cls-6{stroke:url(#Gradiente_sem_nome_15);}.cls-7{stroke:url(#Gradiente_sem_nome_16);}.cls-8{stroke:url(#Gradiente_sem_nome);}.cls-9{stroke:url(#Gradiente_sem_nome-2);}.cls-10{stroke:url(#Gradiente_sem_nome-3);}.cls-11{stroke:url(#Gradiente_sem_nome-4);}.cls-12{stroke:url(#Gradiente_sem_nome-5);}.cls-13{stroke:url(#Gradiente_sem_nome-6);}.cls-14{stroke:url(#Gradiente_sem_nome-7);}.cls-15{stroke:url(#Gradiente_sem_nome-8);}</style><linearGradient id="Gradiente_sem_nome_5" x1="642.65" y1="2492.51" x2="800.29" y2="2492.51" gradientTransform="matrix(0.08, -0.92, 0.92, -0.08, -625.08, 1138.95)" gradientUnits="userSpaceOnUse"><stop offset="0" stop-color="#6c011a"/><stop offset="0.98" stop-color="#cd0029"/></linearGradient><linearGradient id="Gradiente_sem_nome_9" x1="1469.11" y1="643.59" x2="1615.61" y2="643.59" gradientTransform="matrix(0.08, -0.92, 0.92, -0.08, -573.13, 2467.37)" xlink:href="#Gradiente_sem_nome_5"/><linearGradient id="Gradiente_sem_nome_11" x1="466.66" y1="2107.49" x2="677.03" y2="2107.49" gradientTransform="matrix(0.08, -0.92, 0.92, -0.08, -398.5, 1348.04)" xlink:href="#Gradiente_sem_nome_5"/><linearGradient id="Gradiente_sem_nome_12" x1="383.4" y1="2103.71" x2="423.61" y2="2103.71" gradientTransform="matrix(0.08, -0.92, 0.92, -0.08, -283.96, 1314.93)" xlink:href="#Gradiente_sem_nome_5"/><linearGradient id="Gradiente_sem_nome_14" x1="1327.27" y1="534.5" x2="1433.65" y2="534.5" gradientTransform="matrix(0.08, -0.92, 0.92, -0.08, -428.49, 2501.43)" xlink:href="#Gradiente_sem_nome_5"/><linearGradient id="Gradiente_sem_nome_15" x1="1357.72" y1="442.01" x2="1400.41" y2="442.01" gradientTransform="matrix(0.08, -0.92, 0.92, -0.08, -397.31, 2558.94)" xlink:href="#Gradiente_sem_nome_5"/><linearGradient id="Gradiente_sem_nome_16" x1="1251.15" y1="610.49" x2="1293.84" y2="610.49" gradientTransform="matrix(0.08, -0.92, 0.92, -0.08, -380.66, 2431.2)" xlink:href="#Gradiente_sem_nome_5"/><linearGradient id="Gradiente_sem_nome" x1="1351.57" y1="-964.04" x2="1462.45" y2="-964.04" gradientTransform="matrix(-0.08, 0.92, -0.92, 0.08, -651.22, -1096.33)" xlink:href="#Gradiente_sem_nome_5"/><linearGradient id="Gradiente_sem_nome-2" x1="1418.35" y1="-941.85" x2="1529.23" y2="-941.85" gradientTransform="matrix(-0.08, 0.92, -0.92, 0.08, -599.02, -1096.54)" xlink:href="#Gradiente_sem_nome_5"/><linearGradient id="Gradiente_sem_nome-3" x1="2680.21" y1="-2243.35" x2="2791.09" y2="-2243.35" gradientTransform="matrix(-0.08, 0.92, -0.92, 0.08, -175.2, -2175.78)" xlink:href="#Gradiente_sem_nome_5"/><linearGradient id="Gradiente_sem_nome-4" x1="831.83" y1="2411.29" x2="874.52" y2="2411.29" gradientTransform="matrix(0.08, -0.92, 0.92, -0.08, -687.17, 1217.46)" xlink:href="#Gradiente_sem_nome_5"/><linearGradient id="Gradiente_sem_nome-5" x1="121.93" y1="1753.31" x2="268.43" y2="1753.31" gradientTransform="matrix(0.08, -0.92, 0.92, -0.08, -29.19, 1490.01)" xlink:href="#Gradiente_sem_nome_5"/><linearGradient id="Gradiente_sem_nome-6" x1="55.29" y1="1775.6" x2="95.5" y2="1775.6" gradientTransform="matrix(0.08, -0.92, 0.92, -0.08, 44.15, 1450.84)" xlink:href="#Gradiente_sem_nome_5"/><linearGradient id="Gradiente_sem_nome-7" x1="111.98" y1="1868.1" x2="152.19" y2="1868.1" gradientTransform="matrix(0.08, -0.92, 0.92, -0.08, -24.25, 1404.98)" xlink:href="#Gradiente_sem_nome_5"/><linearGradient id="Gradiente_sem_nome-8" x1="-33.48" y1="1863.27" x2="72.9" y2="1863.27" gradientTransform="matrix(0.08, -0.92, 0.92, -0.08, 52.98, 1384.31)" xlink:href="#Gradiente_sem_nome_5"/></defs><title>bkg3</title><rect class="cls-1" x="1657.88" y="207.92" width="128.04" height="128.04" transform="translate(312.04 1297.21) rotate(-45)"/><rect class="cls-2" x="84.96" y="939.51" width="118.73" height="118.73" transform="translate(-664.04 394.61) rotate(-45)"/><rect class="cls-3" x="1496.74" y="563.95" width="172.11" height="172.11" transform="translate(3.97 1309.59) rotate(-45)"/><rect class="cls-4" x="1665.07" y="756.74" width="29.92" height="29.92" transform="translate(-53.61 1413.99) rotate(-45)"/><rect class="cls-5" x="132.92" y="1147.88" width="85.21" height="85.21" transform="translate(-790.39 472.8) rotate(-45)"/><rect class="cls-6" x="105.71" y="1240.88" width="31.99" height="31.99" transform="translate(-853.1 454.19) rotate(-45)"/><rect class="cls-7" x="268.23" y="1197.11" width="31.99" height="31.99" transform="translate(-774.55 556.29) rotate(-45)"/><rect class="cls-8" x="73.49" y="71.34" width="88.97" height="88.97" transform="translate(-47.35 117.35) rotate(-45)"/><rect class="cls-9" x="99.84" y="134.26" width="88.97" height="88.97" transform="translate(-84.12 154.4) rotate(-45)"/><rect class="cls-10" x="1614.5" y="106.23" width="88.97" height="88.97" transform="translate(379.34 1217.22) rotate(-45)"/><rect class="cls-11" x="1580.08" y="220.25" width="31.99" height="31.99" transform="translate(300.43 1197.79) rotate(-45)"/><rect class="cls-12" x="1536.71" y="1107.42" width="118.73" height="118.73" transform="translate(-357.56 1470.34) rotate(-45)"/><rect class="cls-13" x="1665.07" y="1220.76" width="29.92" height="29.92" transform="translate(-381.72 1549.89) rotate(-45)"/><rect class="cls-14" x="1686.23" y="1115.27" width="29.92" height="29.92" transform="translate(-300.93 1533.96) rotate(-45)"/><rect class="cls-15" x="1722.14" y="1170.5" width="85.21" height="85.21" transform="translate(-340.91 1603.17) rotate(-45)"/></svg>