<svg id="Camada_1" data-name="Camada 1" xmlns="http://www.w3.org/2000/svg" xmlns:xlink="http://www.w3.org/1999/xlink" viewBox="0 0 1825 1300"><defs><style>.cls-1,.cls-2,.cls-3,.cls-4,.cls-5,.cls-6,.cls-7,.cls-8{fill:none;stroke-miterlimit:10;stroke-width:4px;opacity:0.21;isolation:isolate;}.cls-1{stroke:url(#Gradiente_sem_nome_2);}.cls-2{stroke:url(#Gradiente_sem_nome_5);}.cls-3{stroke:url(#Gradiente_sem_nome_6);}.cls-4{stroke:url(#Gradiente_sem_nome_7);}.cls-5{stroke:url(#Gradiente_sem_nome_12);}.cls-6{stroke:url(#Gradiente_sem_nome_13);}.cls-7{stroke:url(#Gradiente_sem_nome_14);}.cls-8{stroke:url(#Gradiente_sem_nome_15);}</style><linearGradient id="Gradiente_sem_nome_2" x1="3820.06" y1="188.18" x2="3966.56" y2="188.18" gradientTransform="matrix(0.08, -0.92, -0.92, 0.08, -1.91, 4099.37)" gradientUnits="userSpaceOnUse"><stop offset="0" stop-color="#6c011a"/><stop offset="0.98" stop-color="#cd0029"/></linearGradient><linearGradient id="Gradiente_sem_nome_5" x1="3678.22" y1="297.41" x2="3784.6" y2="297.41" gradientTransform="matrix(0.08, -0.92, -0.92, 0.08, 142.73, 4133.44)" xlink:href="#Gradiente_sem_nome_2"/><linearGradient id="Gradiente_sem_nome_6" x1="3708.67" y1="389.66" x2="3751.36" y2="389.66" gradientTransform="matrix(0.08, -0.92, -0.92, 0.08, 173.91, 4190.95)" xlink:href="#Gradiente_sem_nome_2"/><linearGradient id="Gradiente_sem_nome_7" x1="3602.1" y1="221.9" x2="3644.79" y2="221.9" gradientTransform="matrix(0.08, -0.92, -0.92, 0.08, 190.55, 4063.21)" xlink:href="#Gradiente_sem_nome_2"/><linearGradient id="Gradiente_sem_nome_12" x1="2074.08" y1="-688.16" x2="2220.58" y2="-688.16" gradientTransform="matrix(0.08, -0.92, -0.92, 0.08, 884.82, 3179.48)" xlink:href="#Gradiente_sem_nome_2"/><linearGradient id="Gradiente_sem_nome_13" x1="2185.15" y1="-569.48" x2="2225.36" y2="-569.48" gradientTransform="matrix(0.08, -0.92, -0.92, 0.08, 884.22, 3266.3)" xlink:href="#Gradiente_sem_nome_2"/><linearGradient id="Gradiente_sem_nome_14" x1="2232.93" y1="-551.55" x2="2273.14" y2="-551.55" gradientTransform="matrix(0.08, -0.92, -0.92, 0.08, 857.8, 3287.75)" xlink:href="#Gradiente_sem_nome_2"/><linearGradient id="Gradiente_sem_nome_15" x1="2266.05" y1="-719.44" x2="2372.43" y2="-719.44" gradientTransform="matrix(0.08, -0.92, -0.92, 0.08, 758.28, 3196.6)" xlink:href="#Gradiente_sem_nome_2"/></defs><title>bkg4</title><rect class="cls-1" x="76.88" y="475.37" width="118.73" height="118.73" transform="translate(-338.21 252.96) rotate(-45)"/><rect class="cls-2" x="124.84" y="683.75" width="85.21" height="85.21" transform="translate(-464.57 331.14) rotate(-45)"/><rect class="cls-3" x="97.63" y="776.75" width="31.99" height="31.99" transform="translate(-527.28 312.53) rotate(-45)"/><rect class="cls-4" x="260.15" y="732.98" width="31.99" height="31.99" transform="translate(-448.73 414.63) rotate(-45)"/><rect class="cls-5" x="1630.67" y="1085.8" width="118.73" height="118.73" transform="translate(-314.75 1530.45) rotate(-45)"/><rect class="cls-6" x="1569.96" y="1172.89" width="29.92" height="29.92" transform="translate(-375.73 1468.62) rotate(-45)"/><rect class="cls-7" x="1530.87" y="1151.74" width="29.92" height="29.92" transform="translate(-372.22 1434.78) rotate(-45)"/><rect class="cls-8" x="1563.48" y="958.35" width="85.21" height="85.21" transform="translate(-237.37 1428.84) rotate(-45)"/></svg>