<svg id="Camada_1" data-name="Camada 1" xmlns="http://www.w3.org/2000/svg" xmlns:xlink="http://www.w3.org/1999/xlink" viewBox="0 0 1825 1300"><defs><style>.cls-1,.cls-10,.cls-2,.cls-3,.cls-4,.cls-5,.cls-6,.cls-7,.cls-8,.cls-9{fill:none;stroke-miterlimit:10;stroke-width:4px;opacity:0.21;isolation:isolate;}.cls-1{stroke:url(#Gradiente_sem_nome);}.cls-2{stroke:url(#Gradiente_sem_nome_2);}.cls-3{stroke:url(#Gradiente_sem_nome_5);}.cls-4{stroke:url(#Gradiente_sem_nome_6);}.cls-5{stroke:url(#Gradiente_sem_nome_7);}.cls-6{stroke:url(#Gradiente_sem_nome_11);}.cls-7{stroke:url(#Gradiente_sem_nome_12);}.cls-8{stroke:url(#Gradiente_sem_nome_15);}.cls-9{stroke:url(#Gradiente_sem_nome-2);}.cls-10{stroke:url(#Gradiente_sem_nome-3);}</style><linearGradient id="Gradiente_sem_nome" x1="2303.31" y1="-928.68" x2="2460.95" y2="-928.68" gradientTransform="matrix(0.08, -0.92, -0.92, 0.08, 647.79, 3078.74)" gradientUnits="userSpaceOnUse"><stop offset="0" stop-color="#6c011a"/><stop offset="0.98" stop-color="#cd0029"/></linearGradient><linearGradient id="Gradiente_sem_nome_2" x1="3522.02" y1="524.3" x2="3668.52" y2="524.3" gradientTransform="matrix(0.08, -0.92, -0.92, 0.08, 308.54, 4246.71)" xlink:href="#Gradiente_sem_nome"/><linearGradient id="Gradiente_sem_nome_5" x1="3380.18" y1="633.54" x2="3486.56" y2="633.54" gradientTransform="matrix(0.08, -0.92, -0.92, 0.08, 453.18, 4280.78)" xlink:href="#Gradiente_sem_nome"/><linearGradient id="Gradiente_sem_nome_6" x1="3410.63" y1="725.79" x2="3453.32" y2="725.79" gradientTransform="matrix(0.08, -0.92, -0.92, 0.08, 484.36, 4338.29)" xlink:href="#Gradiente_sem_nome"/><linearGradient id="Gradiente_sem_nome_7" x1="3424.23" y1="493.95" x2="3466.92" y2="493.95" gradientTransform="matrix(0.08, -0.92, -0.92, 0.08, 399.13, 4195.95)" xlink:href="#Gradiente_sem_nome"/><linearGradient id="Gradiente_sem_nome_11" x1="2409.45" y1="-1089.32" x2="2452.14" y2="-1089.32" gradientTransform="matrix(0.08, -0.92, -0.92, 0.08, 562.99, 2988.25)" xlink:href="#Gradiente_sem_nome"/><linearGradient id="Gradiente_sem_nome_12" x1="2023.34" y1="-653.69" x2="2169.84" y2="-653.69" gradientTransform="matrix(0.08, -0.92, -0.92, 0.08, 930.25, 3190.29)" xlink:href="#Gradiente_sem_nome"/><linearGradient id="Gradiente_sem_nome_15" x1="2089.74" y1="-802.18" x2="2196.12" y2="-802.18" gradientTransform="matrix(0.08, -0.92, -0.92, 0.08, 850.12, 3107.18)" xlink:href="#Gradiente_sem_nome"/><linearGradient id="Gradiente_sem_nome-2" x1="3599.99" y1="382.45" x2="3642.68" y2="382.45" gradientTransform="matrix(0.08, -0.92, -0.92, 0.08, 244.8, 4163.29)" xlink:href="#Gradiente_sem_nome"/><linearGradient id="Gradiente_sem_nome-3" x1="2240.23" y1="-769.49" x2="2282.92" y2="-769.49" gradientTransform="matrix(0.08, -0.92, -0.92, 0.08, 781.31, 3152.79)" xlink:href="#Gradiente_sem_nome"/></defs><title>bkg5</title><rect class="cls-1" x="1629.09" y="744.65" width="128.04" height="128.04" transform="translate(-75.91 1434.06) rotate(-45)"/><rect class="cls-2" x="54.26" y="923.79" width="118.73" height="118.73" transform="translate(-661.92 368.3) rotate(-45)"/><rect class="cls-3" x="102.22" y="1132.17" width="85.21" height="85.21" transform="translate(-788.27 446.49) rotate(-45)"/><rect class="cls-4" x="75.01" y="1225.17" width="31.99" height="31.99" transform="translate(-850.98 427.88) rotate(-45)"/><rect class="cls-5" x="204.2" y="1051.12" width="31.99" height="31.99" transform="translate(-690.07 468.25) rotate(-45)"/><rect class="cls-6" x="1743.95" y="645.06" width="31.99" height="31.99" transform="translate(48.04 1438.09) rotate(-45)"/><rect class="cls-7" x="1640.33" y="1146.05" width="118.73" height="118.73" transform="translate(-354.53 1554.93) rotate(-45)"/><rect class="cls-8" x="1717.34" y="1024.51" width="85.21" height="85.21" transform="translate(-239.09 1557.02) rotate(-45)"/><rect class="cls-9" x="166.46" y="848.49" width="31.99" height="31.99" transform="translate(-557.85 382.22) rotate(-45)"/><rect class="cls-10" x="1654.5" y="990.87" width="31.99" height="31.99" transform="translate(-222.68 1476.12) rotate(-45)"/></svg>