<svg id="Camada_1" data-name="Camada 1" xmlns="http://www.w3.org/2000/svg" viewBox="0 0 409 291"><defs><style>.cls-1{fill:#b4002a;}.cls-2{fill:#cd0029;}</style></defs><title>brand</title><g id="aMojFO.tif"><path class="cls-1" d="M149.78,1.53c20.06,0,40.11-.1,60.17,0,5.18,0,10.34.93,15.51,1.5,5.49.6,10.59,2.42,15.73,4.2,4.07,1.41,7.63,3.81,11.25,6a60.47,60.47,0,0,1,15.05,13.46,124.92,124.92,0,0,1,10.29,14.39c4.16,6.81,7.28,14.16,11.28,21,1.46,2.52,3,5.08,4.28,7.61,1.47,2.79,2.72,5.79,4.17,8.64,5.8,11.45,11.71,22.85,17.61,34.25,5.38,10.4,10.71,20.82,16.22,31.15q5.41,10.14,10.71,20.34c4,7.77,8.08,15.54,12,23.35,4.64,9.15,9.46,18.22,14.2,27.33,4,7.75,8,15.51,12.1,23.24,4.89,9.3,10,18.52,14.69,27.9,3.51,7,7.48,13.72,10.67,20.86.4.9,1.55,1.45,1.25,2.68H294.38a2.66,2.66,0,0,0-.12-.78c-4.2-8.46-8.36-16.94-12.63-25.37-4.17-8.23-8.46-16.4-12.67-24.61-4.36-8.52-8.68-17.07-13-25.6q-11-21.52-22-43Q227.8,158,221.73,145.84c-3.88-7.75-7.83-15.48-11.57-23.3-1.7-3.56-3.86-6.91-5.11-10.69.44-1.57-.89-2.45-1.46-3.62-2.76-5.66-5.81-11.17-8.52-16.86-3-6.34-6.25-12.57-9.47-18.81-2.21-4.3-4.82-8.41-6.75-12.82-2.23-5.12-5-9.94-7.43-15-2.75-5.8-5.83-11.45-8.76-17.17q-6.12-12-12.22-24A4.11,4.11,0,0,1,149.78,1.53Z"/><path class="cls-2" d="M149.78,1.53a4.11,4.11,0,0,0,.67,2.09q6.13,12,12.22,24c2.92,5.72,6,11.37,8.76,17.17,2.38,5,5.2,9.85,7.43,15,1.92,4.41,4.54,8.53,6.75,12.82,3.21,6.24,6.45,12.48,9.47,18.81,2.71,5.69,5.75,11.2,8.52,16.86.57,1.17,1.9,2,1.46,3.62-1.45-1.15-1.51.22-1.92,1-4,7.88-8,15.74-12,23.63q-8.46,16.86-16.86,33.76c-4,8-7.89,16-11.89,23.92-2.81,5.58-5.86,11-8.53,16.69-3.38,7.14-7,14.16-10.52,21.21s-6.93,14-10.55,20.86c-3,5.62-5.52,11.44-8.46,17.06q-5.06,9.68-9.78,19.52-55.5,0-111,0c-.51,0-1.76.83-1.63-.77,1.2-.49,1.61-1.63,2.13-2.65,2.94-5.76,5.85-11.54,8.79-17.3,4.2-8.24,8.45-16.45,12.61-24.7,4.26-8.45,8.34-17,12.66-25.4,4-7.81,8-15.65,11.92-23.48,2.64-5.21,5.3-10.44,8.06-15.6,3.67-6.88,7-14,10.49-20.92,2.77-5.5,5.62-11,8.44-16.45,2.15-4.18,4.3-8.36,6.44-12.55q6.89-13.56,13.77-27.12c3.14-6.2,6.25-12.42,9.4-18.62,4-7.87,8.05-15.71,12.06-23.58,4.24-8.33,8.43-16.68,12.67-25,3.61-7.1,7.27-14.16,10.86-21.27,1.92-3.81,3.71-7.69,5.64-11.5C148.21,1.91,148.58.83,149.78,1.53Z"/></g></svg>