<svg id="Camada_1" data-name="Camada 1" xmlns="http://www.w3.org/2000/svg" viewBox="0 0 110 40"><title>inside-logo</title><g id="vdVFyw.tif"><path d="M41.38.45c.77.1,1.55.16,2.31.3a11.62,11.62,0,0,1,5.39,2.43L46.38,7C45.15,6.45,44,5.9,42.84,5.47a5.26,5.26,0,0,0-2.92-.25,2.18,2.18,0,0,0-1,.55,1.11,1.11,0,0,0,.42,1.78A27.5,27.5,0,0,0,42,8.42c1.46.46,3,.82,4.38,1.41a4.94,4.94,0,0,1,3.29,4.59A5.93,5.93,0,0,1,46.82,20a9.4,9.4,0,0,1-5,1.34,14.25,14.25,0,0,1-9.28-2.89L32,18l3-3.61c1.15.59,2.21,1.22,3.33,1.7a7.9,7.9,0,0,0,4,.56,2.87,2.87,0,0,0,1.06-.32,1.15,1.15,0,0,0,.05-2,7.58,7.58,0,0,0-1.66-.67c-1.67-.51-3.38-.9-5-1.48a5.23,5.23,0,0,1-3.52-3.37A6.07,6.07,0,0,1,36.6,1.35,19.43,19.43,0,0,1,39.69.54c.2-.05.41-.06.62-.09Z"/><path d="M1.49.93a1.49,1.49,0,0,1,.36-.1h5l.27,0V21l-.45,0H2A3.1,3.1,0,0,1,1.49,21Z"/><path d="M105,39.55a12,12,0,0,1-1.53-.39,17.38,17.38,0,0,1-1.63-.84L102.93,37c.85.27,1.61.52,2.37.73a1.24,1.24,0,0,0,.71-.07c.15-.06.35-.26.35-.39a.62.62,0,0,0-.29-.48c-.43-.18-.89-.28-1.34-.41s-.72-.21-1.06-.34a2,2,0,0,1-1.42-1.89A2.23,2.23,0,0,1,103.54,32a4.71,4.71,0,0,1,4.75.68L107.35,34c-.75-.22-1.41-.43-2.07-.6a.85.85,0,0,0-.56.06.66.66,0,0,0-.32.43.52.52,0,0,0,.25.41,5.26,5.26,0,0,0,.86.31c.57.18,1.16.32,1.71.54a1.92,1.92,0,0,1,1.28,2.11,2.18,2.18,0,0,1-1.39,1.94,9.64,9.64,0,0,1-1.24.37Z"/><path d="M16.39,10.17V21H10.9V.86l.44,0c1.44,0,2.89,0,4.33,0a.77.77,0,0,1,.69.34Q20.13,6,23.93,10.91l.45.56V.87h5.53V21a25.3,25.3,0,0,0-3.07,0,2.9,2.9,0,0,1-2.95-1.45c-2.31-3.13-4.75-6.16-7.14-9.22-.08-.1-.16-.19-.25-.28Z"/><path d="M61.83.86l.42,0c2.59,0,5.19,0,7.78,0a12.64,12.64,0,0,1,6.21,1.54,8.89,8.89,0,0,1,4.67,7.15,9.68,9.68,0,0,1-3.23,8.84,10.85,10.85,0,0,1-5.77,2.47,20.17,20.17,0,0,1-2.57.18c-2.32,0-4.63,0-7,0h-.56Zm5.59,4.89V16a33.28,33.28,0,0,0,3.36,0,4.66,4.66,0,0,0,4.41-4.18C75.62,8.75,74,6.4,71.05,5.93A33.81,33.81,0,0,0,67.42,5.74Z"/><path d="M83.92.85h16.17V5.58H89.45V8.64h9.63v4.43h-.6c-2.85,0-5.71,0-8.56,0-.4,0-.54.1-.52.51,0,.87,0,1.75,0,2.69h10.82V21H83.92Z"/><path d="M52.49.85h5.57V21H52.49Z"/><path d="M85.2,28.75c-1.16.67-1.5.66-2.14-.06-.36.18-.71.49-1,.48s-.65-.35-1-.59a1.36,1.36,0,0,1-1.22.63c-.62-.06-.86-.51-1.07-1-.42.42-.56,1.2-1.36,1s-.74-.83-.91-1.5c-.17.27-.3.48-.44.68a1.93,1.93,0,0,1-2.44.71c-.26-.11-.43-.23-.27-.54s.34-.37.62-.17.52.36.78.06a.7.7,0,0,0,0-.94c-.21-.28-.47-.53-.75-.84-.28.46-.51.89-.78,1.28A6,6,0,0,1,72.21,29c-.44.38-.91.2-1-.38s-.07-1.32-.09-2c0-.32,0-.64,0-1.1-.18.21-.34.32-.4.48q-.51,1.36-1,2.73c-.07.22-.07.44-.4.43s-.49-.12-.5-.41c0-1.31,0-2.61,0-3.91.68-.08.8,0,.81.64,0,.36,0,.71,0,1.07,0,0,0,.1,0,.27.12-.24.18-.39.26-.54a13.49,13.49,0,0,1,.66-1.17.69.69,0,0,1,.9-.26.79.79,0,0,1,.55.87c0,.61,0,1.23-.05,1.85a6.2,6.2,0,0,0,.07.7l.24.17c.1-.18.19-.37.29-.54s.37-.65.56-1a1,1,0,0,0,.16-1.07c-.22-.5.31-1.14.86-1.16s.6.2.45.61c-.05.14-.13.26-.19.39l-.17.35c.57.56,1.45.85,1.42,1.91,1.07-1,.55-2.22.73-3.37a4.58,4.58,0,0,1-.72-.06c-.14,0-.36-.15-.37-.24s.07-.45.38-.44h.71c0-.32,0-.61.06-.9s0-.52.34-.44.69,0,.66.53c0,.27,0,.54,0,.86.33,0,.65,0,1,.09.12,0,.22.16.33.25-.11.11-.22.3-.35.31a7.34,7.34,0,0,1-1,0c0,1.17,0,2.26,0,3.36,0,.19.2.37.31.55.16-.12.4-.21.47-.37a9.31,9.31,0,0,0,.39-1.23A8.2,8.2,0,0,1,79,25.46a1,1,0,0,1,1.7-.45,3.55,3.55,0,0,1,.9,0c.11,0,.2.3.2.46,0,.65,0,1.3,0,1.94a2.25,2.25,0,0,0,0,.53c.07.28,0,.73.44.68s.49-.45.46-.81a4,4,0,0,1,.39-2.36c.45-.81,1.11-.95,1.72-.47a2.72,2.72,0,0,1,.9,0c.13.05.2.37.21.57,0,.77,0,1.54,0,2.46a5.7,5.7,0,0,0,1-2c0-.1-.13-.23-.13-.34a2,2,0,0,1,.11-.81.57.57,0,0,1,.54-.18c.19.09.29.35.49.61l.64-.11c.57-.09.75.11.67.67s-.18,1.12-.22,1.68a2,2,0,0,0,.15.8c.05.14.24.31.36.31a.52.52,0,0,0,.37-.31,5,5,0,0,0,.06-.76,8.76,8.76,0,0,1,.3-1.89c.38-1,1.06-1.17,2-.7A1.78,1.78,0,0,1,93,25c.14.07.23.36.24.55,0,.79,0,1.59,0,2.38a2.26,2.26,0,0,0,.33.73c.19-.2.47-.36.56-.59A3.5,3.5,0,0,0,94.28,27c0-.69,0-1.39,0-2.07.76-.1.88,0,.88.61a2.84,2.84,0,0,0,.09.84c.13-.34.25-.68.38-1s.19-.58.59-.51a.68.68,0,0,1,.62.74A8.17,8.17,0,0,0,97,27c.18-.58.36-1.16.55-1.73.09-.27.17-.56.56-.46s.71.18.71.66c0,.63,0,1.26,0,1.9a3.2,3.2,0,0,0,.13.86c0,.14.22.24.34.35a1.52,1.52,0,0,0,.31-.33,5.64,5.64,0,0,0,.24-.7,1.2,1.2,0,0,1-.2,1.41.74.74,0,0,1-1.12-.06A2.77,2.77,0,0,1,98,27.76a11.85,11.85,0,0,1,0-1.63l-.23,0c-.15.62-.31,1.24-.46,1.87a3.48,3.48,0,0,1-.05.43c-.07.17-.23.47-.27.46-.22-.07-.54-.18-.6-.35a7.16,7.16,0,0,1-.24-1.38c0-.36-.05-.72-.13-1.09a4.19,4.19,0,0,0-.66,2.2,3.37,3.37,0,0,1,0,.34c0,.25.12.61-.32.64s-.74,0-.75-.51c-.76.78-1.29.7-1.74-.15a3.52,3.52,0,0,1-1.14.62,3.62,3.62,0,0,1-1.29-.38.81.81,0,0,1-1.11.33,1.53,1.53,0,0,1-.7-.91,16.84,16.84,0,0,1,0-2.31c-.34-.12-.58-.05-.79.39-.35.74-.81,1.43-1.2,2.16a2.46,2.46,0,0,0-.28.79c-.11.75-.11,1.52-.28,2.25a1.24,1.24,0,0,1-1.47.9,1,1,0,0,1-.79-1.54,14.24,14.24,0,0,1,1.37-1.56A5.55,5.55,0,0,0,85.2,28.75ZM81,27.07a7.68,7.68,0,0,0-.21-1.17.69.69,0,0,0-.44-.42.66.66,0,0,0-.53.3,3,3,0,0,0-.13,2.53c.17.44.58.49.8.09A8.78,8.78,0,0,0,81,27.07ZM92.39,27a6.59,6.59,0,0,0-.21-1.1c-.07-.18-.29-.42-.44-.42a.73.73,0,0,0-.56.35,3.2,3.2,0,0,0-.12,2.41.68.68,0,0,0,.43.38.56.56,0,0,0,.45-.29C92.14,27.87,92.27,27.37,92.39,27Zm-8.8.1a8.41,8.41,0,0,0,.24,1.11c.06.17.25.4.4.41a.67.67,0,0,0,.48-.32A2.94,2.94,0,0,0,85,25.93a.69.69,0,0,0-.42-.44.65.65,0,0,0-.53.3A11.55,11.55,0,0,0,83.6,27.11Zm1.66,2.67L85,29.69c-.33.51-.7,1-1,1.52a.49.49,0,0,0,.26.76.52.52,0,0,0,.7-.42C85.11,31,85.17,30.37,85.26,29.78Z"/><path d="M94.27,39.43V31.86a32.81,32.81,0,0,1,4,0,3.47,3.47,0,0,1,3.16,3.63,3.59,3.59,0,0,1-3.19,3.73C97,39.43,95.64,39.37,94.27,39.43Zm2.11-5.79V37.5c1,0,2,.13,2.65-.86a1.94,1.94,0,0,0,0-2.16C98.4,33.5,97.39,33.6,96.39,33.64Z"/><path d="M93.47,39.37c-.73,0-1.39,0-2,0-.14,0-.3-.26-.37-.43-.39-.91-.38-.91-1.37-.91A4.39,4.39,0,0,1,89,38c-.89-.14-1.54.06-1.71,1.07a.44.44,0,0,1-.32.28c-.63,0-1.26,0-2,0l.71-1.7c.78-1.87,1.58-3.73,2.35-5.6a.53.53,0,0,1,.61-.4c.51,0,1.15-.15,1.52.09s.47.88.67,1.36q1.2,2.84,2.4,5.69Zm-4.19-5h-.12l-.79,2h1.69Z"/><path d="M42.14,22.64v2c.54,0,1,0,1.5,0a1.08,1.08,0,0,1,1.11,1.12,15.43,15.43,0,0,1,0,2.09,1.22,1.22,0,0,1-1.09,1.25,21.06,21.06,0,0,1-2.7,0c-.08,0-.22-.22-.22-.34q0-2.79,0-5.59a.51.51,0,0,1,.3-.37A8.64,8.64,0,0,1,42.14,22.64Zm0,4.39c0,.26,0,.52,0,.77a.41.41,0,0,0,.11.29.79.79,0,0,0,1.11-.53c0-.35,0-.71,0-1.06s-.14-.68-.62-.67-.64.15-.64.67C42.13,26.67,42.13,26.85,42.13,27Z"/><path d="M55.46,29.22c-.45,0-.81,0-1.16,0a.41.41,0,0,1-.27-.29q0-2.89,0-5.78a.43.43,0,0,1,.27-.31c.34-.09.69-.13,1.11-.19v3.81l.13,0a13.06,13.06,0,0,0,.78-1.23.91.91,0,0,1,1-.57,7.21,7.21,0,0,0,.84,0c-.4.64-.72,1.21-1.1,1.74a.72.72,0,0,0,0,1c.37.56.7,1.15,1.1,1.83-.52,0-.94,0-1.34,0-.14,0-.29-.19-.37-.33-.32-.5-.62-1-1-1.53Z"/><path d="M40.25,27.38H37.8c-.08.47.08.7.52.7h1.85a4.86,4.86,0,0,1,0,.79.43.43,0,0,1-.3.28,12.47,12.47,0,0,1-2,.06,1.5,1.5,0,0,1-1.43-1.47,13.41,13.41,0,0,1,0-1.55,1.65,1.65,0,0,1,.1-.52c.28-.78,1.09-1.15,2.24-1,1,.11,1.46.56,1.54,1.44C40.28,26.49,40.25,26.9,40.25,27.38Zm-2.45-1a5,5,0,0,0,.7,0,1.3,1.3,0,0,0,.37-.19c-.1-.16-.17-.41-.31-.47C38.07,25.56,37.78,25.8,37.8,26.43Z"/><path d="M45.16,26.94s0-.06,0-.1c0-1.84,1.3-2.71,3-2a1.35,1.35,0,0,1,1,1.18,18.79,18.79,0,0,1,0,2,1.2,1.2,0,0,1-.17.5,2.24,2.24,0,0,1-2.44.75,1.56,1.56,0,0,1-1.36-1.54c0-.24,0-.49,0-.73Zm2.64,0h0c0-.21,0-.42,0-.63,0-.36-.25-.51-.58-.52s-.62.1-.64.5,0,.78,0,1.16.22.61.64.61.61-.23.6-.64C47.8,27.29,47.8,27.13,47.8,27Z"/><path d="M53.65,27c0,.06,0,.13,0,.19A2.06,2.06,0,0,1,50.44,29a1.28,1.28,0,0,1-.78-1c-.05-.67,0-1.35,0-2a.86.86,0,0,1,.08-.28c.29-.78,1.13-1.15,2.3-1a1.56,1.56,0,0,1,1.58,1.43c0,.29,0,.58.06.87Zm-1.41,0h0c0-.18,0-.36,0-.53,0-.41-.24-.58-.62-.58S51,26,51,26.41s0,.68,0,1c0,.5.16.66.62.67s.6-.16.62-.67C52.25,27.26,52.24,27.1,52.24,26.93Z"/><path d="M30.58,26.63c.05-.63,0-.71-.56-.73s-.84,0-1.24,0a.81.81,0,0,1-.08-.19c0-1,0-1,1-1a9.29,9.29,0,0,1,1.11.06A1.17,1.17,0,0,1,32,26c0,1,0,1.94,0,2.91a.43.43,0,0,1-.3.3,7.48,7.48,0,0,1-.91-.14,1,1,0,0,0-.32,0c-.24,0-.47.14-.71.17a1.32,1.32,0,0,1-1.52-1.76,1,1,0,0,1,.94-.78C29.65,26.67,30.1,26.66,30.58,26.63Zm.08,1.06-.14-.16c-.29.09-.59.18-.88.29,0,0,0,.32.07.33a1.61,1.61,0,0,0,.72,0C30.55,28.11,30.59,27.85,30.66,27.69Z"/><path d="M27.31,25.91v3.25h-1.4V25.93l-.67-.1V24.73l.63-.07c.1-.66-.17-1.53.6-1.9a7.44,7.44,0,0,1,1.86-.34,9.38,9.38,0,0,1,0,1c0,.09-.17.22-.28.23-.78.11-.78.1-.69,1l.93,0C28.39,25.73,28.34,25.79,27.31,25.91Z"/><path d="M35.89,28c.13,1.32.15,1.11-.94,1.24a3.8,3.8,0,0,1-1,0,1.58,1.58,0,0,1-1.43-1.58,12.1,12.1,0,0,1,0-1.36A1.57,1.57,0,0,1,34,24.7a11.28,11.28,0,0,1,1.55,0c.32,0,.46.16.42.49a6.2,6.2,0,0,0,0,.69c-.5,0-.95-.09-1.4-.09s-.65.15-.66.68c0,.31,0,.62,0,.92,0,.49.2.68.67.66Z"/><path d="M66.91,23.19a2.71,2.71,0,0,0-.53,3.23,1.15,1.15,0,0,1-1.13-1.3,3.1,3.1,0,0,1,1.57-2.44c.62-.37,1.13-.07,1.13.64,0,1.63,0,3.27,0,4.9a3.3,3.3,0,0,1-.38,1.27c-.11.23-.4.37-.62.56Z"/><path d="M60.85,26c-.59-1-.59-1.53,0-1.94a1.27,1.27,0,0,1,1.6.17c.47.54.32,1-.61,1.93l.81,1,.28-.63.59.1c-.14.37-.39.71-.35,1s.38.56.6.87l-.34.42-.73-.62c-1.13.78-2.06.78-2.64,0S59.7,27,60.85,26Zm.42.46c-.62.3-.9.67-.83,1.1a.88.88,0,0,0,.71.81,1.09,1.09,0,0,0,1.15-.63Zm.23-.79c.36-.18.67-.41.57-.85a.69.69,0,0,0-.45-.45.68.68,0,0,0-.56.3C60.87,25.13,61.21,25.4,61.5,25.68Z"/></g></svg>