<svg id="Camada_1" data-name="Camada 1" xmlns="http://www.w3.org/2000/svg" viewBox="0 0 455 151"><defs><style>.cls-1{fill:#fff;}.cls-2{fill:#b4002a;}.cls-3{fill:#cd0029;}</style></defs><title>logo-light</title><g id="AZpGHs.tif"><path class="cls-1" d="M137.9,78.64c0-.53-.09-1.05-.09-1.58q0-27.39,0-54.79a18.74,18.74,0,0,1,3.45-11.61c3-4,7.36-5.78,12.14-6.72.88-.17,1.86,0,2.64-.61h11.42c.63.64,1.46.27,2.19.43s1.07.32,1.06,1.18c-.05,4.91,0,9.83,0,14.74,0,.83-.25,1.09-1.08,1.07-1.74-.06-3.49-.06-5.23,0-4.3.13-6.73,2.64-6.7,6.93,0,1.35-.61,3.14.3,3.92s2.51.23,3.82.23c2.54,0,5.07.06,7.61,0,1.08,0,1.34.33,1.27,1.33-.13,1.84.21,3.71-.2,5.53a10.14,10.14,0,0,1-10.5,8c-1.66,0-2,.42-2,2.06.06,18.75,0,37.51.09,56.26,0,1.69-.5,2.17-2,1.89-1.29-.24-2.7.55-3.91-.45-2.29-4.32-4.51-8.68-6.77-13C142.8,88.55,140.29,83.62,137.9,78.64Z"/><path class="cls-1" d="M383.49,147.66c-.85-.68-2-.48-2.91-.89-.62-.27-.93-.47-.7-1.25.28-1,.78-.35,1.19-.27s.91.27,1.37.37c4.51,1,6.9-1.29,6.25-6.05a6.9,6.9,0,0,1-4.41,1.83,5.36,5.36,0,0,1-5.56-4,12.53,12.53,0,0,1-.13-7.48c1.39-5.11,6.37-6.36,10.11-2.54.49-.3.32-.83.39-1.24s.3-.7.82-.69.76.15.75.71c-.1,5.54.26,11.09-.2,16.62-.21,2.56-2.23,4.27-4.91,4.58-.37,0-.87-.27-1.09.31Zm5.34-14.19a13,13,0,0,1,0-2.37c.36-1.94-1.74-3.93-3.46-4.25a4,4,0,0,0-4.71,2.53,10.91,10.91,0,0,0-.33,7.28c.7,2.47,2.51,3.5,5.09,3.08,2.11-.35,3.39-2,3.39-4.37Q388.82,134.43,388.82,133.48Z"/><path class="cls-1" d="M444.39,138.47c-2.61,2.85-5.43,3.7-8.56,2.54a4.53,4.53,0,0,1-3.09-3.13c-.1-.38-.41-1,.35-1.13.47-.07,1-.2,1.33.48a4.65,4.65,0,0,0,6,2.4,2.73,2.73,0,0,0,2.08-2.34,2.41,2.41,0,0,0-1.71-2.57c-1.72-.64-3.54-1-5.23-1.71a3.58,3.58,0,0,1-2.28-4.85,4.28,4.28,0,0,1,1.57-1.94,7.08,7.08,0,0,1,7.87.34,3.54,3.54,0,0,1,1.33,2.26c0,.39.41,1-.42,1.06-.44,0-1,.32-1.24-.53-.53-2.33-3.51-3.1-5.6-2.33a2.58,2.58,0,0,0-1.93,2.25,2.28,2.28,0,0,0,1.66,2.41,9.77,9.77,0,0,0,2,.62,8.87,8.87,0,0,1,5.9,3.3Z"/><path class="cls-1" d="M281.7,47.74c1.77-10.75,7.63-17.83,18.06-20.5a57.14,57.14,0,0,1,32.77,1.17c9.64,3.22,14.31,10.11,14.31,20.24,0,8.93,0,17.87,0,26.8a39.34,39.34,0,0,1-1.9,12.46,25.71,25.71,0,0,1-14.06,15.9,50.8,50.8,0,0,1-33.22,3.54c-12.18-2.83-19.11-12.87-18.34-25.44C280,71,285.55,64,295.73,60.44a63.74,63.74,0,0,1,7-1.92c4.85-1.09,9.84-1.26,14.71-2.19A20,20,0,0,0,323,54.51c2.24-1.16,4-2.81,3.92-5.47-.08-2.83-1.88-4.61-4.45-5.6-3.53-1.36-7.21-1.41-10.92-1.19a16.77,16.77,0,0,0-5.26,1,6.73,6.73,0,0,0-4.1,3.7c-.18.44-.35.77-1,.77C294.77,47.73,288.32,47.74,281.7,47.74ZM327.29,67a.87.87,0,0,0-.85.07,90.62,90.62,0,0,1-15.76,4.59,16.49,16.49,0,0,0-8.4,3.81c-3,2.81-3.66,6.25-2.61,10.14a8,8,0,0,0,6.67,6.17,21,21,0,0,0,6,.09,15.65,15.65,0,0,0,14.42-13C327.56,74.9,327.18,70.89,327.29,67Z"/><path class="cls-1" d="M411.4,49.58q0-22,0-44.07c0-1.17.19-1.63,1.5-1.58,2.85.12,5.71,0,8.56,0a10,10,0,0,1,10.1,10c0,3.86,0,7.72,0,11.57,0,1,.27,1.32,1.3,1.3,3.22-.07,6.45,0,9.67,0,1,0,1.31.22,1.23,1.22-.12,1.52,0,3.08-.17,4.58a9.5,9.5,0,0,1-10,8.61c-1.67,0-2.06.45-2,2.08.07,13.69,0,27.37,0,41.06,0,4.69,1.59,6.27,6.27,6.28,1.64,0,3.28,0,4.91,0,.77,0,1,.25,1,1q0,6.74,0,13.47c0,.76-.27,1-1,1a104.3,104.3,0,0,1-21.34-.4c-6.27-.81-9.88-5.31-10-12.23-.07-5.33,0-10.67,0-16Q411.4,63.53,411.4,49.58Z"/><path class="cls-1" d="M215.1,55.44q0-25,0-49.93c0-1.21.26-1.61,1.54-1.57,3,.1,6,0,9,0a9.86,9.86,0,0,1,9.69,9.21c0,.47,0,1,0,1.43q0,45.26,0,90.52c0,1.4-.28,1.85-1.77,1.82-5.65-.1-11.31-.08-17,0-1.23,0-1.58-.29-1.58-1.56Q215.14,80.41,215.1,55.44Z"/><path class="cls-1" d="M356.52,84c0-6.82-.16-13.64,0-20.45.24-7.8,1.9-15.29,6.3-21.92C368,34,375.44,30,384.21,28.09a69.21,69.21,0,0,1,15.28-1.3c1,0,1.09.38,1.09,1.2,0,6.18,0,12.37,0,18.55,0,1-.26,1.23-1.23,1.23a71,71,0,0,0-9.18.23c-7.72,1-12.39,5.92-13,13.75-.1,1.26-.15,2.53-.15,3.8q0,19.9,0,39.8c0,1.21-.26,1.61-1.55,1.59-5.81-.08-11.63-.07-17.44,0-1.21,0-1.59-.26-1.58-1.54.07-7.14,0-14.27,0-21.41Z"/><path class="cls-1" d="M182.43,66.83c0-12.74,0-25.48,0-38.22,0-1.6.46-1.89,1.92-1.84,3.17.12,6.34,0,9.51,0,5.29.09,8.33,3,8.8,8.22.06.68.06,1.37.06,2.06q0,34.09,0,68.19c0,1.29-.27,1.68-1.62,1.66-5.71-.08-11.42-.07-17.13,0-1.25,0-1.57-.32-1.57-1.57C182.45,92.52,182.43,79.67,182.43,66.83Z"/><path class="cls-1" d="M249.62,66.94c0-12.9,0-25.8,0-38.7,0-1.18.27-1.5,1.46-1.46,3.06.1,6.13,0,9.2,0,6.31,0,9.45,3.06,9.62,9.38,0,.26,0,.53,0,.79q0,34.1,0,68.2c0,1.33-.23,1.8-1.69,1.77-5.65-.1-11.31-.08-17,0-1.3,0-1.66-.27-1.65-1.62C249.65,92.52,249.62,79.73,249.62,66.94Z"/><path class="cls-1" d="M192.58,19.78c-3,0-5.91,0-8.87,0-.88,0-1.32-.1-1.31-1.17.06-4.54,0-9.08,0-13.62,0-.53-.1-1.07.75-1,4.16.14,8.36-.39,12.49.25,4.37.68,6.59,3.25,6.93,7.73.18,2.31,0,4.64.1,7,0,.9-.45.88-1.09.87C198.6,19.77,195.59,19.78,192.58,19.78Z"/><path class="cls-1" d="M259.68,19.78c-3,0-5.92,0-8.87,0-1,0-1.22-.31-1.21-1.25,0-4.49,0-9,0-13.47,0-.44-.32-1.14.62-1.12,4.12.09,8.26-.36,12.34.2,4.84.66,7.12,3.59,7.27,8.79.06,1.9,0,3.8,0,5.7,0,.93-.31,1.15-1.18,1.14C265.7,19.75,262.69,19.78,259.68,19.78Z"/><path class="cls-1" d="M249.4,127.53c3.35-3.48,7.91-3,9.58.79a5.66,5.66,0,0,1,3.86-3,4.87,4.87,0,0,1,6.13,4.15c.58,3.62.14,7.27.28,10.91,0,.81-.45.77-1,.81-.75.06-.86-.3-.86-.94,0-3.06.07-6.13,0-9.19-.09-3.55-2.94-5.38-5.78-3.76a4.77,4.77,0,0,0-2.27,4.28,43.59,43.59,0,0,1-.07,4.9c-.25,1.56,1.13,3.47-.87,4.69-1.91-1.3-.52-3.18-.76-4.76-.31-2.07.14-4.22-.26-6.31-.53-2.77-2.67-4-5.29-3a4,4,0,0,0-2.59,3.79c0,3,0,6,0,9,0,.71.1,1.34-1,1.32s-.8-.76-.8-1.31c0-4.33,0-8.66,0-13,0-.53-.53-1.45.76-1.45s.74.87.86,1.44C249.34,127,249.35,127.18,249.4,127.53Z"/><path class="cls-1" d="M128.46,127.45c3.61-3.32,7.28-3,9.47.8a7.08,7.08,0,0,1,3-2.71c3.51-1.29,6.82.6,7.12,4.38.28,3.47.1,7,.14,10.46,0,.65-.29.77-.86.8-.76,0-.86-.34-.85-1,0-2.38,0-4.76,0-7.13a21.11,21.11,0,0,0-.11-2.21c-.32-2.9-1.63-4.22-4-4.09a4.42,4.42,0,0,0-4,4.66c0,2.8,0,5.6,0,8.4,0,.65.23,1.39-.94,1.35s-.85-.69-.86-1.3c0-3.06,0-6.13-.14-9.19-.15-2.74-1.59-4-4-3.93a4.06,4.06,0,0,0-4,4.39c0,2.91,0,5.81,0,8.72,0,.56.3,1.28-.81,1.3s-1.05-.51-1-1.28c0-4.39,0-8.77,0-13.16,0-.53-.37-1.31.77-1.32s.89.62.93,1.24A7.69,7.69,0,0,0,128.46,127.45Z"/><path class="cls-1" d="M352.87,130.7c0-3.11,0-6.23,0-9.34,0-.94.2-1.33,1.22-1.26,2.31.16,4.65-.22,6.95.21a8.16,8.16,0,0,1,6.81,6.79,21.68,21.68,0,0,1,0,7.1c-.69,4.11-4,6.71-8.57,6.95-1.79.09-3.59,0-5.38,0-.91,0-1-.38-1-1.14C352.89,136.93,352.87,133.81,352.87,130.7Zm1.75-.07c0,2.59.05,5.17,0,7.76,0,1,.28,1.27,1.23,1.2,1.16-.08,2.32,0,3.48,0a6.85,6.85,0,0,0,6.76-5.73,17.92,17.92,0,0,0,.18-5.2c-.45-4.56-3.19-7-7.77-7-1,0-1.91.06-2.85,0s-1,.29-1,1.08C354.65,125.35,354.62,128,354.62,130.63Z"/><path class="cls-1" d="M111,130.64c0-3.06,0-6.12,0-9.19,0-.95.11-1.4,1.25-1.37,3.38.09,6.76,0,10.13,0,.64,0,1.1,0,1.08.87s-.63.66-1.09.66c-2.8,0-5.6,0-8.39,0-.9,0-1.17.24-1.13,1.14.07,1.85.07,3.7,0,5.54,0,.92.28,1.15,1.16,1.13,2.32-.06,4.65,0,7,0,.54,0,1.16-.2,1.17.78s-.58.81-1.14.81c-2.32,0-4.65,0-7,0-.85,0-1.22.15-1.19,1.1.07,2.11.06,4.22,0,6.33,0,.88.22,1.18,1.13,1.16,2.8-.06,5.6,0,8.39,0,.56,0,1.19-.17,1.19.79s-.62.8-1.18.8c-3.38,0-6.76-.05-10.14,0-1.14,0-1.26-.42-1.25-1.37C111,136.76,111,133.7,111,130.64Z"/><path class="cls-1" d="M234.93,139.15c-1.32,1.29-2.55,2.19-4.25,2.24-3.3.08-5.28-1.3-6.12-4.51a13.29,13.29,0,0,1,.1-7.19c1.41-4.82,6.11-6,10.12-2.28,0-2.71,0-5.2,0-7.69,0-.65,0-1.06.89-1.11,1.13-.06,1,.63,1,1.31q0,9.66,0,19.32a5.66,5.66,0,0,1,0,.79c-.06.45.29,1.1-.62,1.15s-1-.38-1-1.06A9.15,9.15,0,0,0,234.93,139.15Zm-.17-5.75c0-.9,0-1.79,0-2.69a3.84,3.84,0,0,0-2.85-3.7,4,4,0,0,0-4.66,1.35c-1.69,2.32-1.79,7.43-.19,9.8a4.31,4.31,0,0,0,4.93,1.49,3.67,3.67,0,0,0,2.77-3.72C234.77,135.09,234.77,134.25,234.77,133.41Z"/><path class="cls-1" d="M154.41,139.77c0,2,0,4.14,0,6.23,0,.8-.17,1.1-1,1.12s-.83-.52-.83-1.1c0-6.4,0-12.79,0-19.19,0-.47-.55-1.35.65-1.38s.78.76.9,1.32c0,.19.05.38.1.78a8.33,8.33,0,0,1,3.2-2.14,5.41,5.41,0,0,1,6.8,3.4,12.29,12.29,0,0,1,.24,8.69c-1.36,4-5.9,5.24-9.29,2.59C155,139.94,154.91,139.62,154.41,139.77Zm0-6.45q0,1.19,0,2.37c0,2.22,1,3.54,2.94,4,2.34.58,4.22-.16,5.14-2.24a9.79,9.79,0,0,0-.22-8.54,3.9,3.9,0,0,0-4.81-2,3.81,3.81,0,0,0-3.05,4Q154.41,132.13,154.41,133.32Z"/><path class="cls-1" d="M420.46,138.78a7.09,7.09,0,0,1-6.25,2.6,4.09,4.09,0,0,1-3.9-3.11,4.27,4.27,0,0,1,1.73-4.86c1.8-1.24,3.85-1.22,5.92-1.27.81,0,2.09.61,2.37-.4a3.91,3.91,0,0,0-.76-3.87c-1.7-1.8-6.25-1.49-6.84,1.3-.2.95-.8.7-1.29.66-.77-.07-.42-.68-.39-1.11a1.81,1.81,0,0,1,.09-.47c.72-2,3.62-3.4,6.41-3s4.51,1.9,4.62,4.35c.12,2.69,0,5.38.08,8.07,0,.68.15,1.37.1,2,0,.49.78,1.28-.42,1.47s-1.37-.44-1.36-1.37C420.57,139.59,420.52,139.39,420.46,138.78Zm-2.24-5.23c-2.69,0-3.81.23-4.85,1-1.92,1.34-1.88,3.92.08,4.93,2.14,1.1,5.89-.25,6.78-2.48a4.24,4.24,0,0,0,.07-3.1C420,133.11,418.85,133.72,418.22,133.55Z"/><path class="cls-1" d="M184.78,133.34c-1.43,0-2.85,0-4.28,0-.83,0-1.11.21-1,1.06.18,2,.79,3.91,2.67,4.93s4,.66,5.88-.4c.45-.25.86-1.1,1.45,0s-.3,1.13-.74,1.41c-3.54,2.2-9.71,1.68-10.88-4.56a10.5,10.5,0,0,1,.77-6.94,6.38,6.38,0,0,1,7.9-3.21c2.48.87,4.09,4.06,3.64,7.07-.1.67-.43.72-.95.72C187.74,133.33,186.26,133.34,184.78,133.34ZM184,131.8c1.16,0,2.32-.07,3.47,0,.94.07,1-.34.93-1.1a4.12,4.12,0,0,0-3.61-4A4.58,4.58,0,0,0,180,130c-.6,1.66-.54,1.75,1.18,1.76Z"/><path class="cls-1" d="M284,138.25c1,.86.7,1.47-.27,2.06-3.25,2-9.31,1.81-10.71-4.05-.67-2.83-.65-5.68,1.08-8.23a6.28,6.28,0,0,1,7.67-2.38c2.38,1,3.92,4.25,3.43,7.05-.15.87-.71.62-1.17.62-2.75,0-5.5.06-8.25,0-1.06,0-1.36.28-1.27,1.33.41,4.64,4.52,6.73,8.5,4.28C283.38,138.71,283.7,138.47,284,138.25Zm-4.94-6.45c1.11,0,2.22-.06,3.32,0,.89.07,1.07-.29,1-1.08a4.15,4.15,0,0,0-3.6-4c-2.23-.26-4.21,1.28-4.94,3.78-.26.89-.26,1.38.9,1.28S278,131.8,279.08,131.8Z"/><path class="cls-1" d="M199.9,133.34c-1.43,0-2.86.07-4.28,0-1.08-.08-1.22.41-1.14,1.3.38,4.57,4.54,6.7,8.5,4.35.4-.24.83-1.21,1.46-.18s-.26,1.24-.78,1.54c-3.9,2.25-10.07,1.35-10.86-5.22a11.28,11.28,0,0,1,.41-5.32,6.38,6.38,0,0,1,5.53-4.57,6.17,6.17,0,0,1,6.51,7.55c-.13.63-.48.58-.89.58ZM199,131.8c1.16,0,2.32-.06,3.47,0,.83.05.95-.29.92-1a4.12,4.12,0,0,0-4.14-4.09c-2.23,0-4.56,2.39-4.53,4.48,0,.71.41.59.81.59Z"/><path class="cls-1" d="M327,133.28a8.92,8.92,0,0,1-.33,3.06,6.38,6.38,0,0,1-6.11,5c-3.47.06-5.88-1.56-6.82-4.73a11.49,11.49,0,0,1,0-6.56,6.46,6.46,0,0,1,6.58-4.89,6.58,6.58,0,0,1,6.38,5.18A8,8,0,0,1,327,133.28Zm-1.88.14a14,14,0,0,0,0-1.74c-.35-2.76-2.16-4.68-4.57-4.91s-4.34,1.26-5.1,3.84a9.1,9.1,0,0,0,.27,6.19,4.53,4.53,0,0,0,4.36,3.09,4.58,4.58,0,0,0,4.46-2.93A6.7,6.7,0,0,0,325.12,133.41Z"/><path class="cls-1" d="M210.35,127.89a6.22,6.22,0,0,1,3.07-2.43c3.65-1.09,6.61.7,6.9,4.5.27,3.47.08,7,.13,10.46,0,.69-.33.74-.88.76-.75,0-1-.23-1-1,0-3,0-5.92,0-8.88s-1.25-4.56-3.81-4.52a4.31,4.31,0,0,0-4.43,4.68q0,4.28,0,8.56c0,.56.18,1.16-.79,1.17s-1-.38-1-1.15c0-4.44,0-8.88,0-13.32,0-.56-.3-1.29.81-1.29s.85.66.89,1.27C210.27,127,210.3,127.3,210.35,127.89Z"/><path class="cls-1" d="M290.36,127.78a6.65,6.65,0,0,1,3.74-2.47c3.3-.63,6,1,6.2,4.36.26,3.57.09,7.17.14,10.76,0,.71-.37.73-.89.75s-.83-.2-.82-.82c0-2.48,0-5,0-7.44a21.52,21.52,0,0,0-.14-2.52c-.32-2.57-1.7-3.77-4.07-3.61a4.22,4.22,0,0,0-4.13,4.16c0,2.9,0,5.81,0,8.71,0,.64.4,1.55-.92,1.54s-.8-.89-.8-1.45c0-4.28,0-8.55,0-12.83,0-.51-.56-1.43.73-1.48s.7.86.85,1.4A8,8,0,0,1,290.36,127.78Z"/><path class="cls-1" d="M335.65,141.37c-3,0-5.21-1.29-5.72-3.32-.1-.38-.32-.9.06-1.18a2,2,0,0,1,1.06-.13c.54,0,.5.49.57.81.61,2.68,6,3.1,7.53,1a2.38,2.38,0,0,0-.61-3.56,7.8,7.8,0,0,0-2.78-1.06,13.23,13.23,0,0,1-3.57-1.22,3.68,3.68,0,0,1-.89-5.9c2.11-2.24,6.84-2.22,8.92,0a3.54,3.54,0,0,1,.71,1c.25.63.87,1.47,0,1.92s-1.25-.22-1.63-1.07c-1-2.3-5-2.76-6.66-.88a2.23,2.23,0,0,0,.51,3.52,8.76,8.76,0,0,0,2.82,1,14.61,14.61,0,0,1,3,1,3.89,3.89,0,0,1,2.56,3.82,4.25,4.25,0,0,1-3.08,3.82A7.65,7.65,0,0,1,335.65,141.37Z"/><path class="cls-1" d="M305.77,132.84c0-1.53-.07-3.06,0-4.59.07-1.06-.28-1.38-1.3-1.28-.53.05-1.32.35-1.33-.76s.83-.75,1.32-.72c1,.07,1.45-.21,1.3-1.28a17.31,17.31,0,0,1,0-1.74c0-.58,0-1,.8-1,.65,0,1.18.05,1.06.92a3.24,3.24,0,0,0,0,.47c0,2.43,0,2.43,2.48,2.58.5,0,.93,0,.92.71s-.38.82-1,.84c-2.41.11-2.41.13-2.41,2.49,0,2.53,0,5.06,0,7.6,0,2.14.41,2.57,2.56,2.64a.8.8,0,0,1,.91.8c.12.72-.45.72-.9.8-2.53.44-4.15-.71-4.36-3.28-.14-1.73,0-3.48,0-5.22Z"/><path class="cls-1" d="M402.52,132.81c0-1.48-.07-3,0-4.43.07-1.05-.16-1.57-1.34-1.41-.55.07-1.32.31-1.3-.8s.88-.72,1.35-.68c1.06.09,1.4-.3,1.27-1.31-.07-.57,0-1.16,0-1.74s.06-1,.83-1,1.15.12,1,.95a2,2,0,0,0,0,.32c.05,2.54,0,2.56,2.51,2.71.52,0,.92,0,.89.74s-.25.8-.85.82c-.82,0-2-.43-2.38.22s-.16,1.72-.17,2.61c0,2.48,0,5,0,7.43,0,1.93.57,2.47,2.44,2.48.67,0,1,.17,1,.82s-.5.69-.94.77c-2.55.43-4.07-.73-4.35-3.31a5.87,5.87,0,0,1,0-.63q0-2.29,0-4.59Z"/><path class="cls-1" d="M170.67,127.83c1.16-1.67,2.47-2.63,4.31-2.64.62,0,1.16,0,1.1.9,0,.73-.27.94-1,.95-3,0-4.4,1.54-4.4,4.52q0,4.2,0,8.39c0,.61.18,1.26-.88,1.24s-1-.45-1-1.18c0-4.49,0-9,0-13.46,0-.46-.26-1.08.65-1.12s1,.26,1,1A14.09,14.09,0,0,0,170.67,127.83Z"/><path class="cls-1" d="M372.33,133.32c0-2.32,0-4.63,0-6.95,0-.62.06-1,.83-.94s1,.17,1,1c0,4.58,0,9.16,0,13.73,0,.7-.12,1-.94,1.06s-.89-.43-.89-1.08C372.34,137.85,372.33,135.59,372.33,133.32Z"/><path class="cls-1" d="M428.69,133.28c0,2.27,0,4.53,0,6.8,0,.65,0,1.09-.89,1.11s-.87-.46-.87-1.09q0-6.8,0-13.6c0-.61-.07-1.1.85-1.08s.92.38.92,1.06C428.67,128.75,428.69,131,428.69,133.28Z"/><path class="cls-1" d="M397,133.26c0,2.27,0,4.53,0,6.8,0,.62,0,1.11-.86,1.13s-.9-.4-.9-1.06c0-4.53,0-9.07,0-13.6,0-.58-.13-1.1.82-1.1s.94.52.94,1.19C397,128.83,397,131,397,133.26Z"/><path class="cls-1" d="M243,133.33c0,2.27,0,4.54,0,6.81,0,.69-.1,1.07-.94,1s-.77-.5-.77-1c0-4.59,0-9.19,0-13.78,0-.65.12-.93.86-.93s.87.28.86.93C243,128.68,243,131,243,133.33Z"/><path class="cls-1" d="M372.34,119.72c0-.39-.29-1.09.81-1.11s1,.64,1,1.33,0,1.17-.94,1.18S372.32,120.51,372.34,119.72Z"/><path class="cls-1" d="M243,119.73c.13.94.09,1.4-.88,1.38-1.16,0-.68-.81-.75-1.32-.1-.68-.06-1.21.93-1.17C243.41,118.65,242.88,119.45,243,119.73Z"/><path class="cls-1" d="M428.68,120c.08.61,0,1.09-.92,1.09s-.83-.67-.82-1.23-.28-1.26.8-1.27S428.69,119.28,428.68,120Z"/><path class="cls-1" d="M397,120.06c0,.37.24,1-.82,1.05s-1-.48-.92-1.14-.33-1.39.87-1.36C397.1,118.63,397,119.23,397,120.06Z"/><g id="aMojFO.tif"><path class="cls-2" d="M62.68,6.22c7,0,14,0,21,0a53.5,53.5,0,0,1,5.41.52,25.15,25.15,0,0,1,5.49,1.47,20.92,20.92,0,0,1,3.93,2.1,21.1,21.1,0,0,1,5.25,4.7,43.6,43.6,0,0,1,3.59,5c1.45,2.38,2.54,4.94,3.94,7.35.51.88,1,1.77,1.49,2.66s1,2,1.45,3c2,4,4.09,8,6.15,12,1.88,3.63,3.74,7.27,5.66,10.87q1.89,3.54,3.74,7.1c1.4,2.71,2.82,5.42,4.2,8.15,1.62,3.19,3.3,6.36,5,9.54,1.41,2.7,2.81,5.41,4.22,8.11,1.71,3.25,3.48,6.46,5.13,9.74,1.23,2.43,2.61,4.79,3.72,7.28.14.31.54.51.44.93H113.14a.93.93,0,0,0,0-.27c-1.46-3-2.92-5.91-4.41-8.85s-3-5.72-4.42-8.59-3-6-4.55-8.93q-3.83-7.51-7.67-15-2.15-4.23-4.27-8.47c-1.36-2.71-2.73-5.4-4-8.13A32.62,32.62,0,0,1,82,44.73c.16-.55-.31-.86-.51-1.26-1-2-2-3.9-3-5.88-1.05-2.21-2.18-4.39-3.3-6.57-.77-1.5-1.68-2.93-2.36-4.48-.78-1.79-1.76-3.47-2.59-5.23-1-2-2-4-3.06-6Q65,11.14,62.91,7A1.43,1.43,0,0,1,62.68,6.22Z"/><path class="cls-3" d="M62.68,6.22a1.43,1.43,0,0,0,.23.73q2.14,4.18,4.27,8.37c1,2,2.1,4,3.06,6,.83,1.76,1.81,3.44,2.59,5.23.67,1.54,1.58,3,2.36,4.48,1.12,2.18,2.25,4.35,3.3,6.57.95,2,2,3.91,3,5.88.2.41.66.71.51,1.26-.5-.4-.53.08-.67.36-1.39,2.75-2.79,5.49-4.17,8.25q-3,5.89-5.88,11.78c-1.39,2.78-2.75,5.57-4.15,8.35-1,1.95-2,3.85-3,5.82-1.18,2.49-2.44,4.94-3.67,7.4S58,91.56,56.76,94c-1,2-1.93,4-3,6q-1.77,3.38-3.41,6.81-19.37,0-38.74,0c-.18,0-.61.29-.57-.27.42-.17.56-.57.74-.93l3.07-6c1.47-2.87,2.95-5.74,4.4-8.62s2.91-5.93,4.42-8.86c1.4-2.73,2.78-5.46,4.16-8.19.92-1.82,1.85-3.64,2.81-5.44,1.28-2.4,2.44-4.87,3.66-7.3,1-1.92,2-3.83,2.94-5.74.75-1.46,1.5-2.92,2.25-4.38l4.8-9.47c1.1-2.16,2.18-4.34,3.28-6.5,1.4-2.75,2.81-5.48,4.21-8.23,1.48-2.91,2.94-5.82,4.42-8.73,1.26-2.48,2.54-4.94,3.79-7.42.67-1.33,1.3-2.68,2-4C62.13,6.36,62.26,6,62.68,6.22Z"/></g></g></svg>