<svg id="Camada_1" data-name="Camada 1" xmlns="http://www.w3.org/2000/svg" xmlns:xlink="http://www.w3.org/1999/xlink" viewBox="0 0 400 400"><defs><style>.cls-1{fill:url(#Gradiente_sem_nome_6);}.cls-2,.cls-3{fill:#fff;}.cls-3{font-size:86.82px;font-family:BebasNeue-Regular, Bebas Neue;letter-spacing:0.01em;}</style><linearGradient id="Gradiente_sem_nome_6" x1="15.97" y1="200.33" x2="386.21" y2="200.33" gradientUnits="userSpaceOnUse"><stop offset="0" stop-color="#ef2b51"/><stop offset="1" stop-color="#bc1a1e"/></linearGradient></defs><title>premium</title><g id="ClWUlM.tif"><path class="cls-1" d="M35.74,274.9c1-8.47-2.28-15.14-8.51-20.8-6.05-5.51-7.64-12.45-5-20.16,2.74-8.06,2.29-15.59-2.55-22.8-4.74-7.06-5.07-14.26-.07-21.45S25,175,22.29,166.9s-1.12-15.05,5.44-20.81c5.89-5.16,8.95-11.57,8-19.61-.2-1.63.05-3.31,0-5-.35-5.85,2-10.39,7.09-13.07,9.2-4.8,14.72-11.92,16-22.42.82-6.76,4.91-11.25,11.55-12.94,10-2.52,16.48-8.58,20.4-18A15.53,15.53,0,0,1,106,45c8.64.17,15.35-3.05,20.11-9.86,5.69-8.14,13.3-10.48,22.4-8.29,8.07,1.95,14.59-.89,20.4-5.75,6.91-5.78,14-6.14,21.68-2.09,6.7,3.52,13.58,3.84,20.32.26,8.77-4.66,16.57-3.52,24,2.95a20.15,20.15,0,0,0,18.46,4.82c9.68-2.14,17.7.08,23.46,9,4,6.11,10.24,8.71,17.43,8.7,9,0,15.24,3.79,18.68,12.16,3.3,8,8.84,13.25,17.58,15.23s12.66,8.66,13.9,17c1.1,7.4,4.64,13.07,11.19,16.48,8.84,4.59,12.53,11.67,11.48,21.41-.84,7.78,1.82,14.18,7.56,19.35,6.68,6,8.45,13.1,5.24,21.59-2.71,7.18-2.1,14.15,2.29,20.64,5.42,8,5.35,15.87-.24,23.89-4.24,6.08-4.87,12.88-2.26,19.8,3.46,9.14,1.47,16.64-5.84,23.12A19.92,19.92,0,0,0,367,273.5c1,9.1-1.75,16.6-10.51,21-7.28,3.67-11,9.62-12.15,17.75-1.14,8.41-5.56,14.43-14.39,16.49A22.55,22.55,0,0,0,313,343.51c-3,7.93-8.58,11.92-17.15,12.06s-15.6,3.47-20.73,10.72c-4.93,7-11.64,9.17-20.18,7.38-7.43-1.56-14.64-.46-20.63,5.08-6.91,6.39-14.77,7.05-22.93,2.78-6.84-3.58-13.42-3.44-20.3-.17-6,2.84-12.21,4.6-18.51.7a27.81,27.81,0,0,1-4-2.93,21.82,21.82,0,0,0-20.09-5.45c-9.19,2-16.86-.05-22.17-8-5.08-7.56-12.4-10.08-20.85-10.34-7.52-.23-12.58-3.83-15.26-10.62-3.46-8.77-9.44-14.34-18.7-16.59-7.29-1.77-11.9-6.69-12.94-14.05-1.34-9.53-5.74-16.32-14.42-20.85C37,289.54,34.35,283,35.74,274.9Z"/></g><path class="cls-2" d="M88.79,137c-1.84-.15-2.49-1.35-2.47-3.06,0-2.23,1.44-2.63,3.27-2.66,5.19-.06,10.38-.24,15.58-.24q47.43,0,94.87,0v-.13q53.88,0,107.76.07c2.58,0,6.82-1.64,6.89,3.1s-4.24,3.18-6.78,3.18"/><path class="cls-2" d="M184.92,114.13c1-2.26.25-4-1.76-5.63-1.64-1.3-1.49-2.47.77-2.92a2.59,2.59,0,0,1,.88-.12c3.34.57,3.36-4.81,6-3.88,2,.69,2.69,4,5.8,4,2.4,0,2.75,1.38,1,3.1a1.29,1.29,0,0,1-.34.29c-3.69,1.63.58,6.42-2.49,7.39-2.15.68-4.7-2.82-7.69-.28C185.33,117.64,184.54,116.3,184.92,114.13Z"/><path class="cls-2" d="M168.66,100.37c1.72,2.65,3,5.46,6.9,5.38,2.14,0,1.82,1.87.42,2.59-3.64,1.88-.9,5.88-2.49,7.59-1.74,1.87-4.75-3.19-7.79-.06-1.67,1.71-3.14.55-2.48-1.8s.22-3.95-1.7-5.41c-2.13-1.62-2-3.16.88-3.07C166.11,105.71,166.42,102.15,168.66,100.37Z"/><path class="cls-2" d="M212.34,100.4c1.83,2.57,3.13,5.37,7,5.4,2.26,0,1.43,1.79.24,2.66a4.74,4.74,0,0,0-2,5.7c.71,2.7-.87,2.84-2.66,1.59a4,4,0,0,0-5.2,0c-2.48,1.77-3.22.48-2.63-2,.46-1.92.23-3.43-1.37-4.73-2.13-1.74-2.22-3.34.92-3.45C210,105.48,210.24,102.15,212.34,100.4Z"/><path class="cls-2" d="M305,114.13c.53,2.53-.84,3-2.73,1.68s-3.37-1.67-5.2-.2c-.66.53-1.49,1.29-2.37.69s-.62-1.68-.26-2.44c1.64-3.5-2.19-4.73-3.17-7.55,3.8-.5,6.73-2.13,8.17-6.37,2,3.31,3.76,5.88,7.6,6"/><path class="cls-2" d="M119.93,112.66c.4-1.21-.18-2.44-1.5-3.43-3.38-2.54-2.13-3.8,1.28-3.73s3.06-5.37,5.55-4.25c2,.88,2.58,4.35,5.88,4.47,2.28.08,2.41,1.62.77,2.82-2.15,1.58-2.37,3.33-1.75,5.76.56,2.19-.68,2.7-2.49,1.57-1.54-1-2.94-2-4.81-.64C119.88,117.39,118.9,116.55,119.93,112.66Z"/><path class="cls-2" d="M255.93,99.84c1.82,3.44,3.25,6,6.86,5.92,1.6,0,2.14,1.27.71,2.3-2.36,1.7-3.14,3.65-2.24,6.46.48,1.51-.41,2.56-1.87,1.57-2.38-1.62-4.42-1.89-6.8,0-1.4,1.1-2.16.24-2-1.39a3.78,3.78,0,0,1,.35-1.72c2.2-3.31-5.8-4.84-1.94-6.91C251.74,104.56,254.14,103.36,255.93,99.84Z"/><path class="cls-2" d="M141.27,114.08c1.12-2.3.15-4-1.79-5.63-1.76-1.46-1.17-2.86.92-2.77,3.39.14,4-4,6.17-4.11s2.85,4.18,6.24,4c2.39-.1,3,1.57.88,2.9-3.25,2-.56,5.9-2.26,7.36s-4.62-2.55-7.62-.08C141.72,117.51,141,116.84,141.27,114.08Z"/><path class="cls-2" d="M229,113.06c.67-1.91-.68-3.24-2.17-4.56s-1.4-2.47.81-2.89a2.66,2.66,0,0,1,.87-.13c3.28.54,3.46-4.82,6-3.77,2,.8,2.78,3.89,5.81,4,2.17.06,2.46,1.28.88,2.81a3.56,3.56,0,0,1-.65.59c-2.89,1.63-.12,5.29-2,6.62-1.71,1.2-4.13-2-6.59-.22S227.82,117.28,229,113.06Z"/><path class="cls-2" d="M269,106.39c3.63-.53,6.91-.71,7.94-4.77.37-1.47,1.86-.67,2.1.5.79,3.85,6,2.36,6.53,4.77.47,2-4,3.61-2.77,7.2.7,2-.87,2.37-2.3,1.4-2.05-1.39-3.77-1.2-5.65.28-1,.77-2.91,1-2.2-.78C274.26,111,271.31,109.14,269,106.39Z"/><path class="cls-2" d="M93.89,106.39c3.92-.44,7-.63,8-4.52.51-2,1.93-1,2.32.31.83,2.67,2.4,3.92,5.22,3.61.71-.08,1.59,0,1.83.85s-.54,1.28-1.07,1.76a9.79,9.79,0,0,1-1.69,1.42c-2.79,1.57,2.09,5.92-1.79,6.16-2,.13-4.26-2.23-6.8-.32-1,.73-2.4.39-2-1.06C98.95,111,96.62,109.16,93.89,106.39Z"/><path class="cls-2" d="M186.58,39.61h24.94c1.6.27,3.2.61,4.81.8,43.86,5.26,80,25.12,108.26,58.75C341.58,119.36,352,143,356.81,169c1.07,5.81,1.73,11.69,2.59,17.54v25.83c-.65,4.84-1.08,9.71-2,14.5-7,37.27-24.09,68.76-53.37,93.34a166.79,166.79,0,0,1-69.28,34.9c-10,2.4-20.21,3-30.36,4.23H193.71c-1.9-.24-3.8-.61-5.71-.72C119.27,354.87,56.83,301,43,233.42c-1.3-6.37-2.28-12.81-3.41-19.22V184.8a24.7,24.7,0,0,0,.7-3,152.19,152.19,0,0,1,27.93-73.64c21.05-29.44,48.62-50,83.1-61.24C162.83,43.16,174.72,41.48,186.58,39.61ZM199.52,348.3c87.69.12,153.23-74.64,148.11-158.44-4.41-72.25-64.93-143-154.6-139.32C115.07,53.73,49,116.44,50.8,202.33,52.65,289.5,122.35,348.18,199.52,348.3Z"/><path class="cls-2" d="M318.33,264.78c-.06,4.78-4.31,3.09-6.87,3.1q-53.62.16-107.24.07v-.12q-47.61,0-95.22,0c-5.19,0-10.38-.23-15.56-.34-1.69,0-3.36,0-3.5-2.36s1-3.29,3.14-3.37c1.63-.06,3.26-.11,4.89-.11q106.79-.06,213.58,0c2.54,0,6.84-1.7,6.77,3.18"/><path class="cls-2" d="M185.84,293.57c1-2.26.25-4-1.76-5.63-1.64-1.3-1.49-2.47.77-2.92a2.59,2.59,0,0,1,.88-.12c3.34.57,3.36-4.81,6-3.88,2,.69,2.69,4,5.8,4,2.4,0,2.75,1.38,1,3.1a1.29,1.29,0,0,1-.34.29c-3.69,1.63.58,6.42-2.49,7.39-2.15.68-4.7-2.82-7.69-.28C186.26,297.08,185.46,295.74,185.84,293.57Z"/><path class="cls-2" d="M169.58,279.8c1.72,2.65,3,5.46,6.9,5.38,2.14,0,1.82,1.87.42,2.59-3.64,1.88-.9,5.88-2.49,7.59-1.74,1.87-4.75-3.19-7.79-.06-1.67,1.71-3.14.55-2.48-1.8s.22-3.95-1.7-5.41c-2.13-1.62-2-3.16.88-3.07C167,285.15,167.34,281.59,169.58,279.8Z"/><path class="cls-2" d="M213.27,279.83c1.83,2.57,3.13,5.37,7,5.4,2.26,0,1.43,1.79.24,2.66a4.74,4.74,0,0,0-2,5.7c.71,2.7-.87,2.84-2.66,1.59a4,4,0,0,0-5.2,0c-2.48,1.77-3.22.48-2.63-2,.46-1.92.23-3.43-1.37-4.73-2.13-1.74-2.22-3.34.92-3.45C210.92,284.91,211.16,281.59,213.27,279.83Z"/><path class="cls-2" d="M306,293.57c.53,2.53-.84,3-2.73,1.68s-3.37-1.67-5.2-.2c-.66.53-1.49,1.29-2.37.69s-.62-1.68-.26-2.44c1.64-3.5-2.19-4.73-3.17-7.55,3.8-.5,6.73-2.13,8.17-6.37,2,3.31,3.76,5.88,7.6,6"/><path class="cls-2" d="M120.85,292.1c.4-1.21-.18-2.44-1.5-3.43-3.38-2.54-2.13-3.8,1.28-3.73s3.06-5.37,5.55-4.25c2,.88,2.58,4.35,5.88,4.47,2.28.08,2.41,1.62.77,2.82-2.15,1.58-2.37,3.33-1.75,5.76.56,2.19-.68,2.7-2.49,1.57-1.54-1-2.94-2-4.81-.64C120.81,296.83,119.82,296,120.85,292.1Z"/><path class="cls-2" d="M256.85,279.28c1.82,3.44,3.25,6,6.86,5.92,1.6,0,2.14,1.27.71,2.3-2.36,1.7-3.14,3.65-2.24,6.46.48,1.51-.41,2.56-1.87,1.57-2.38-1.62-4.42-1.89-6.8,0-1.4,1.1-2.16.24-2-1.39a3.78,3.78,0,0,1,.35-1.72c2.2-3.31-5.8-4.84-1.94-6.91C252.66,284,255.07,282.79,256.85,279.28Z"/><path class="cls-2" d="M142.19,293.52c1.12-2.3.15-4-1.79-5.63-1.76-1.46-1.17-2.86.92-2.77,3.39.14,4-4,6.17-4.11s2.85,4.18,6.24,4c2.39-.1,3,1.57.88,2.9-3.25,2-.56,5.9-2.26,7.36s-4.62-2.55-7.62-.08C142.64,296.95,141.95,296.28,142.19,293.52Z"/><path class="cls-2" d="M230,292.5c.67-1.91-.68-3.24-2.17-4.56s-1.4-2.47.81-2.89a2.66,2.66,0,0,1,.87-.13c3.28.54,3.46-4.82,6-3.77,2,.8,2.78,3.89,5.81,4,2.17.06,2.46,1.28.88,2.81a3.56,3.56,0,0,1-.65.59c-2.89,1.63-.12,5.29-2,6.62-1.71,1.2-4.13-2-6.59-.22S228.74,296.72,230,292.5Z"/><path class="cls-2" d="M269.93,285.82c3.63-.53,6.91-.71,7.94-4.77.37-1.47,1.86-.67,2.1.5.79,3.85,6,2.36,6.53,4.77.47,2-4,3.61-2.77,7.2.7,2-.87,2.37-2.3,1.4-2.05-1.39-3.77-1.2-5.65.28-1,.77-2.91,1-2.2-.78C275.18,290.42,272.23,288.58,269.93,285.82Z"/><path class="cls-2" d="M94.81,289.51c3.92-.44,7-.63,8-4.52.51-2,1.93-1,2.32.31.83,2.67,2.4,3.92,5.22,3.61.71-.08,1.59,0,1.83.85s-.54,1.28-1.07,1.76a9.79,9.79,0,0,1-1.69,1.42c-2.79,1.57,2.09,5.92-1.79,6.16-2,.13-4.26-2.23-6.8-.32-1,.73-2.4.39-2-1.06,1-3.55-1.29-5.44-4-8.21"/><text class="cls-3" transform="translate(99.32 230.14) scale(0.79 1)">PREMIUM</text></svg>