<svg id="Layer_1" data-name="Layer 1" xmlns="http://www.w3.org/2000/svg" xmlns:xlink="http://www.w3.org/1999/xlink" viewBox="0 0 877.69 634.75"><defs><style>.cls-1{fill:#dbd9d1;}.cls-2,.cls-4,.cls-42,.cls-43{stroke:#fff;}.cls-2,.cls-21,.cls-27,.cls-4,.cls-42,.cls-43,.cls-7{stroke-miterlimit:10;}.cls-2,.cls-4,.cls-42,.cls-43,.cls-7{stroke-width:0.98px;}.cls-2{fill:url(#linear-gradient);}.cls-3{fill:#d1cebc;}.cls-4{fill:url(#linear-gradient-2);}.cls-5{fill:#728185;}.cls-6{fill:#060b01;}.cls-27,.cls-7{fill:none;stroke:#39221d;}.cls-8{fill:#9b998c;}.cls-9{fill:#d3a163;}.cls-10{fill:#2948ff;}.cls-11{fill:#1235c6;}.cls-12{fill:url(#linear-gradient-3);}.cls-13{fill:url(#linear-gradient-4);}.cls-14{fill:#331c2f;}.cls-15{fill:url(#linear-gradient-5);}.cls-16,.cls-21{fill:#f7f6f4;}.cls-17{fill:url(#linear-gradient-6);}.cls-18{fill:url(#linear-gradient-7);}.cls-19{fill:url(#linear-gradient-8);}.cls-20{fill:url(#linear-gradient-9);}.cls-21{stroke:#f7f6f4;stroke-width:1.25px;}.cls-22{fill:#737ede;}.cls-23{fill:url(#linear-gradient-10);}.cls-24{fill:url(#linear-gradient-11);}.cls-25{fill:#b5b09f;}.cls-26{fill:#df6641;}.cls-27{stroke-width:2px;}.cls-28{fill:url(#linear-gradient-12);}.cls-29{fill:url(#linear-gradient-13);}.cls-30{fill:url(#linear-gradient-14);}.cls-31{fill:url(#linear-gradient-15);}.cls-32{fill:url(#linear-gradient-16);}.cls-33{fill:url(#linear-gradient-17);}.cls-34{fill:#d36567;}.cls-35{fill:#eebfbb;}.cls-36{fill:url(#linear-gradient-18);}.cls-37{fill:url(#linear-gradient-19);}.cls-38{fill:#594110;}.cls-39{fill:url(#linear-gradient-20);}.cls-40{fill:url(#linear-gradient-21);}.cls-41{fill:#db5543;}.cls-42{fill:url(#linear-gradient-22);}.cls-43{fill:url(#linear-gradient-23);}</style><linearGradient id="linear-gradient" x1="208.94" y1="519.77" x2="206.98" y2="808.85" gradientUnits="userSpaceOnUse"><stop offset="0" stop-color="#00fff8"/><stop offset="1" stop-color="#00ff7f"/></linearGradient><linearGradient id="linear-gradient-2" x1="571.28" y1="230.14" x2="737.17" y2="228.62" xlink:href="#linear-gradient"/><linearGradient id="linear-gradient-3" x1="245.47" y1="661.93" x2="328.9" y2="661.93" gradientUnits="userSpaceOnUse"><stop offset="0" stop-color="#ff00c5"/><stop offset="1" stop-color="#ff434d"/></linearGradient><linearGradient id="linear-gradient-4" x1="173.11" y1="665.26" x2="304.96" y2="665.26" xlink:href="#linear-gradient-3"/><linearGradient id="linear-gradient-5" x1="268.99" y1="394.07" x2="315.21" y2="394.07" xlink:href="#linear-gradient-3"/><linearGradient id="linear-gradient-6" x1="283.08" y1="405.36" x2="297.82" y2="405.36" xlink:href="#linear-gradient-3"/><linearGradient id="linear-gradient-7" x1="310.12" y1="394.07" x2="315.21" y2="394.07" xlink:href="#linear-gradient-3"/><linearGradient id="linear-gradient-8" x1="311.92" y1="394.07" x2="321.53" y2="394.07" xlink:href="#linear-gradient-3"/><linearGradient id="linear-gradient-9" x1="315.21" y1="394.07" x2="321.53" y2="394.07" xlink:href="#linear-gradient-3"/><linearGradient id="linear-gradient-10" x1="389.12" y1="171.19" x2="459.27" y2="171.19" gradientUnits="userSpaceOnUse"><stop offset="0" stop-color="#d1cebc"/><stop offset="1" stop-color="#a6a395"/></linearGradient><linearGradient id="linear-gradient-11" x1="348.16" y1="171.19" x2="389.12" y2="171.19" xlink:href="#linear-gradient-10"/><linearGradient id="linear-gradient-12" x1="589.44" y1="125.59" x2="589.44" y2="-65.26" xlink:href="#linear-gradient-3"/><linearGradient id="linear-gradient-13" x1="620.33" y1="125.59" x2="620.33" y2="-65.26" xlink:href="#linear-gradient-3"/><linearGradient id="linear-gradient-14" x1="651.22" y1="125.59" x2="651.22" y2="-65.26" xlink:href="#linear-gradient-3"/><linearGradient id="linear-gradient-15" x1="682.1" y1="125.59" x2="682.1" y2="-65.26" xlink:href="#linear-gradient-3"/><linearGradient id="linear-gradient-16" x1="712.99" y1="125.59" x2="712.99" y2="-65.26" xlink:href="#linear-gradient-3"/><linearGradient id="linear-gradient-17" x1="324.19" y1="304.87" x2="543.39" y2="304.87" xlink:href="#linear-gradient-3"/><linearGradient id="linear-gradient-18" x1="800.44" y1="652.59" x2="898.75" y2="652.59" xlink:href="#linear-gradient-3"/><linearGradient id="linear-gradient-19" x1="876.68" y1="645.04" x2="953.77" y2="645.04" xlink:href="#linear-gradient-3"/><linearGradient id="linear-gradient-20" x1="549.07" y1="569.31" x2="642.38" y2="569.31" xlink:href="#linear-gradient-3"/><linearGradient id="linear-gradient-21" x1="468.33" y1="516.59" x2="636.08" y2="516.59" xlink:href="#linear-gradient-3"/><linearGradient id="linear-gradient-22" x1="756.57" y1="729.36" x2="758.52" y2="832.88" xlink:href="#linear-gradient"/><linearGradient id="linear-gradient-23" x1="725.82" y1="729.94" x2="727.77" y2="833.46" xlink:href="#linear-gradient"/></defs><title>desenho 2</title><rect class="cls-1" x="371.21" y="131.4" width="406.81" height="2.37"/><rect class="cls-1" x="340.92" y="174.77" width="467.38" height="2.37"/><rect class="cls-1" x="313.93" y="218.15" width="521.36" height="2.37"/><rect class="cls-1" x="284.73" y="261.53" width="579.76" height="2.37"/><rect class="cls-1" x="385.1" y="132.59" width="2.37" height="43.38"/><rect class="cls-1" x="347.06" y="176.05" width="2.37" height="43.38"/><rect class="cls-1" x="313.96" y="219.42" width="2.37" height="43.38"/><rect class="cls-1" x="461.57" y="132.59" width="2.37" height="43.38"/><rect class="cls-1" x="538.04" y="132.59" width="2.37" height="43.38"/><rect class="cls-1" x="614.51" y="132.59" width="2.37" height="43.38"/><rect class="cls-1" x="690.97" y="132.59" width="2.37" height="43.38"/><rect class="cls-1" x="767.44" y="132.59" width="2.37" height="43.38"/><rect class="cls-1" x="420.73" y="176.05" width="2.37" height="43.38"/><rect class="cls-1" x="497.19" y="176.05" width="2.37" height="43.38"/><rect class="cls-1" x="573.66" y="176.05" width="2.37" height="43.38"/><rect class="cls-1" x="650.13" y="176.05" width="2.37" height="43.38"/><rect class="cls-1" x="726.6" y="176.05" width="2.37" height="43.38"/><rect class="cls-1" x="803.07" y="176.05" width="2.37" height="43.38"/><rect class="cls-1" x="385.1" y="219.42" width="2.37" height="43.38"/><rect class="cls-1" x="461.57" y="219.42" width="2.37" height="43.38"/><rect class="cls-1" x="538.04" y="219.42" width="2.37" height="43.38"/><rect class="cls-1" x="614.51" y="219.42" width="2.37" height="43.38"/><rect class="cls-1" x="690.97" y="219.42" width="2.37" height="43.38"/><rect class="cls-1" x="767.44" y="219.42" width="2.37" height="43.38"/><rect class="cls-1" x="102.64" y="167.56" width="406.81" height="2.37"/><rect class="cls-1" x="72.35" y="210.94" width="467.38" height="2.37"/><rect class="cls-1" x="45.36" y="254.32" width="521.36" height="2.37"/><rect class="cls-1" x="16.16" y="297.69" width="579.76" height="2.37"/><rect class="cls-1" x="116.53" y="168.75" width="2.37" height="43.38"/><rect class="cls-1" x="78.49" y="212.21" width="2.37" height="43.38"/><rect class="cls-1" x="45.39" y="255.59" width="2.37" height="43.38"/><rect class="cls-1" x="193" y="168.75" width="2.37" height="43.38"/><rect class="cls-1" x="269.47" y="168.75" width="2.37" height="43.38"/><rect class="cls-1" x="345.94" y="168.75" width="2.37" height="43.38"/><rect class="cls-1" x="422.4" y="168.75" width="2.37" height="43.38"/><rect class="cls-1" x="498.87" y="168.75" width="2.37" height="43.38"/><rect class="cls-1" x="152.16" y="212.21" width="2.37" height="43.38"/><rect class="cls-1" x="228.62" y="212.21" width="2.37" height="43.38"/><rect class="cls-1" x="305.09" y="212.21" width="2.37" height="43.38"/><rect class="cls-1" x="381.56" y="212.21" width="2.37" height="43.38"/><rect class="cls-1" x="458.03" y="212.21" width="2.37" height="43.38"/><rect class="cls-1" x="534.49" y="212.21" width="2.37" height="43.38"/><rect class="cls-1" x="116.53" y="255.59" width="2.37" height="43.38"/><rect class="cls-1" x="193" y="255.59" width="2.37" height="43.38"/><rect class="cls-1" x="269.47" y="255.59" width="2.37" height="43.38"/><rect class="cls-1" x="345.94" y="255.59" width="2.37" height="43.38"/><rect class="cls-1" x="422.4" y="255.59" width="2.37" height="43.38"/><rect class="cls-1" x="498.87" y="255.59" width="2.37" height="43.38"/><rect class="cls-1" x="164.97" y="338.96" width="406.81" height="2.37"/><rect class="cls-1" x="134.68" y="382.34" width="467.38" height="2.37"/><rect class="cls-1" x="107.69" y="425.72" width="521.36" height="2.37"/><rect class="cls-1" x="78.49" y="469.09" width="579.76" height="2.37"/><rect class="cls-1" x="178.86" y="340.15" width="2.37" height="43.38"/><rect class="cls-1" x="140.82" y="383.61" width="2.37" height="43.38"/><rect class="cls-1" x="107.72" y="426.99" width="2.37" height="43.38"/><rect class="cls-1" x="255.33" y="340.15" width="2.37" height="43.38"/><rect class="cls-1" x="331.8" y="340.15" width="2.37" height="43.38"/><rect class="cls-1" x="408.27" y="340.15" width="2.37" height="43.38"/><rect class="cls-1" x="484.73" y="340.15" width="2.37" height="43.38"/><rect class="cls-1" x="561.2" y="340.15" width="2.37" height="43.38"/><rect class="cls-1" x="214.49" y="383.61" width="2.37" height="43.38"/><rect class="cls-1" x="290.96" y="383.61" width="2.37" height="43.38"/><rect class="cls-1" x="367.42" y="383.61" width="2.37" height="43.38"/><rect class="cls-1" x="443.89" y="383.61" width="2.37" height="43.38"/><rect class="cls-1" x="520.36" y="383.61" width="2.37" height="43.38"/><rect class="cls-1" x="596.83" y="383.61" width="2.37" height="43.38"/><rect class="cls-1" x="178.86" y="426.99" width="2.37" height="43.38"/><rect class="cls-1" x="255.33" y="426.99" width="2.37" height="43.38"/><rect class="cls-1" x="331.8" y="426.99" width="2.37" height="43.38"/><rect class="cls-1" x="408.27" y="426.99" width="2.37" height="43.38"/><rect class="cls-1" x="484.73" y="426.99" width="2.37" height="43.38"/><rect class="cls-1" x="561.2" y="426.99" width="2.37" height="43.38"/><path class="cls-2" d="M292.92,720.4a39.38,39.38,0,0,0-25.33-45.14A35.34,35.34,0,0,0,252.9,628a30.61,30.61,0,0,0-24.73-39.6,23.79,23.79,0,1,0-45.59.81A30.63,30.63,0,0,0,161.71,628,35.32,35.32,0,0,0,147,675.26a39.38,39.38,0,0,0-25.34,45.14,49.37,49.37,0,0,0,27.82,90.16c1.56,0,3.1-.08,4.62-.22H260.48c1.52.14,3.06.22,4.62.22a49.37,49.37,0,0,0,27.82-90.16Z" transform="translate(-99.65 -226)"/><rect class="cls-3" x="566.09" y="125.39" width="175.35" height="440.42"/><rect class="cls-3" x="574.63" y="134.2" width="158.27" height="423.84"/><rect class="cls-4" x="574.63" y="134.2" width="158.27" height="190.37"/><rect class="cls-3" x="566.09" y="104.01" width="175.35" height="11.26"/><rect class="cls-5" x="578.87" y="370.82" width="149.8" height="1.72"/><rect class="cls-5" x="578.87" y="354" width="149.8" height="1.72"/><path class="cls-6" d="M606.11,836.34s35.7,1.73,47.64,5.07,19,4.57,12.1,8.54-48.88,8.32-57.77,8.6c0,0-3.26,1.59-4-3.65S600.88,834.9,606.11,836.34Z" transform="translate(-99.65 -226)"/><polyline class="cls-3" points="362.36 581.92 328.93 581.92 328.93 197.16 552.81 197.16 552.81 581.92 502.01 581.92"/><line class="cls-7" x1="480.86" y1="177.89" x2="504.66" y2="632.55"/><line class="cls-7" x1="358.34" y1="501.91" x2="497.54" y2="497.79"/><line class="cls-7" x1="353.12" y1="401.5" x2="492.32" y2="397.38"/><line class="cls-7" x1="348.16" y1="308" x2="487.36" y2="303.88"/><line class="cls-7" x1="342.92" y1="208.74" x2="482.12" y2="204.62"/><line class="cls-7" x1="363.41" y1="589.01" x2="502.61" y2="584.89"/><polygon class="cls-8" points="328.93 581.92 268.03 566.18 268.03 277.61 268.03 201.43 328.93 197.16 328.93 581.92"/><path class="cls-9" d="M313.8,369.61a17.7,17.7,0,0,1-4.49-4.76s0,0-.06,0,0,0-.07-.05h-.09l-.08,0-.05,0-.07.08a.28.28,0,0,0,0,.09s0,0,0,.06a25.39,25.39,0,0,0,2.33,5.28,15.91,15.91,0,0,1-4.93-5.74.2.2,0,0,0-.27-.09h0l0,0a.18.18,0,0,0-.11.25.08.08,0,0,1,0,.05h0a47.45,47.45,0,0,0,3.59,7.25c-1.37-1.17-2.7-2.38-4-3.68l0,0-.06,0a.21.21,0,0,0-.11,0l-.07,0-.05,0a.16.16,0,0,0-.05.1s0,0,0,.07,0,0,0,0a13.42,13.42,0,0,0,7.69,8.26,5.6,5.6,0,0,1-3.29-.38.24.24,0,0,0-.23.41,13.72,13.72,0,0,0,6.8,2.54.17.17,0,0,0,.17-.08c1.47-1.25,2.9-2.55,4.37-3.79a.19.19,0,0,0,.05-.21v0C320.27,372.9,317,366.83,313.8,369.61Z" transform="translate(-99.65 -226)"/><path class="cls-9" d="M268.82,366.51a3,3,0,0,1,3-.59c1.83.59,2.16,5.39-3,5.29C268.82,371.21,268.17,367.65,268.82,366.51Z" transform="translate(-99.65 -226)"/><path class="cls-10" d="M359.31,410.57c-10.24-18.88-31.83-34.13-31.83-34.13l-1.81,1.65c-2.52-2.13-4.14-3.39-4.14-3.39l-7.17,6a40,40,0,0,1,3.9,4.14l-1.05.95C327,396.46,338.83,422,338.83,422c-19.57-8.65-45.41-14.9-45.41-14.9-1.26,5.57,16.06,36.51,21.75,40.38s51,13.2,54.6,7.35S369.55,429.46,359.31,410.57Z" transform="translate(-99.65 -226)"/><path class="cls-11" d="M315.17,447.43c3.16,2.15,18.53,6,32.19,8,.29-5.89-18.09-15.18-27.29-27.79s-26.65-20.55-26.65-20.55C292.16,412.62,309.48,443.56,315.17,447.43Z" transform="translate(-99.65 -226)"/><path class="cls-12" d="M326.73,510.32,274.22,521.9l-23.9,108.69.91,25S240.76,749.37,248,805.79l15.48-.7c.6,5.36,1,8.44,1,8.44l16.31-.46c.06-2.88.18-5.83.31-8.78l11.9-.54s-1.29-89,17.82-158.14S331.24,539.77,326.73,510.32Z" transform="translate(-99.65 -226)"/><path class="cls-13" d="M302.66,548.63A143,143,0,0,0,300.87,523l-43.18-9s-17.53,14.13-16,44.77a67.8,67.8,0,0,1-.19,10.91s-4.81,33.69-28,76.92-38.07,108.76-40.35,159.27h14.44c-.09,3.56-.16,7.15-.18,10.81h16s1-4.05,2.85-10.81h10.47s22.75-92.83,46-130.6,40.5-100.53,42.32-121.26C305.16,551.31,304.31,549.61,302.66,548.63Z" transform="translate(-99.65 -226)"/><path class="cls-10" d="M261.84,399.05a32.13,32.13,0,0,0-27,22.13c-5.15,15.35-1.92,29.54,9.58,46.77s10,36.81,10,40.57,8.32,13.71,32.42,15.19,40.29-11.12,42.44-17.36-5.29-27.82-4.8-49.71S301.06,397,261.84,399.05Z" transform="translate(-99.65 -226)"/><path class="cls-9" d="M251.19,402.19S272,413,276.56,411.62s-3.22-12-3.22-12S263.43,396.62,251.19,402.19Z" transform="translate(-99.65 -226)"/><path class="cls-9" d="M251.19,402.19a113.48,113.48,0,0,0,4.29-29.39h14.94s-1.62,17.86,2.92,26.81C273.34,399.61,269.8,406.33,251.19,402.19Z" transform="translate(-99.65 -226)"/><rect class="cls-9" x="155.83" y="135.76" width="13.84" height="17.52"/><path class="cls-9" d="M269.32,361.76s4.35,13.09,4.36,19.91-12.44,6.5-13.8-1.36C259.88,380.31,264.88,362.09,269.32,361.76Z" transform="translate(-99.65 -226)"/><path class="cls-14" d="M270.34,386.12s-6.94,1.64-9.8-3.79c0,0,3.42,15.52,10.72,10.87C271.26,393.2,270.48,388.46,270.34,386.12Z" transform="translate(-99.65 -226)"/><path class="cls-15" d="M315.21,377.93,270,391.29a9.41,9.41,0,0,0,0,8.5l45.18,10.41" transform="translate(-99.65 -226)"/><path class="cls-16" d="M270,399.79a9.41,9.41,0,0,1,0-8.5l.75-.22a2,2,0,0,0-1.47-.81c-1.53,0-2.77,2.34-2.77,5.24s1.24,5.25,2.77,5.25a2,2,0,0,0,1.44-.79Z" transform="translate(-99.65 -226)"/><path class="cls-17" d="M293.85,410.2l-10.64-2.89.24-.68a8.93,8.93,0,0,0,0-5l-.36-1.13,14.74,3.34-1.43.87c-2.26,1.38-2.49,4.62-2.49,4.65Zm-8.92-3.82,7.73,2.09a8,8,0,0,1,1.88-4L285,402.33A10.09,10.09,0,0,1,284.93,406.38Z" transform="translate(-99.65 -226)"/><path class="cls-18" d="M312.87,409.66l2.34.54V377.93l-2.34.69S306.69,391.65,312.87,409.66Z" transform="translate(-99.65 -226)"/><path class="cls-19" d="M321.53,394.07c0,9.39-2.15,17-4.81,17s-4.8-7.61-4.8-17,2.15-17,4.8-17S321.53,384.68,321.53,394.07Z" transform="translate(-99.65 -226)"/><path class="cls-20" d="M316.72,377.06a2.11,2.11,0,0,0-1.51.87s4.53.89,4.43,15.41c-.08,12.29-2.62,17.28-4.43,16.86a2.08,2.08,0,0,0,1.51.87c2.66,0,4.81-7.61,4.81-17S319.38,377.06,316.72,377.06Z" transform="translate(-99.65 -226)"/><polygon class="cls-16" points="212.3 155.1 184.17 162.53 184.1 162.82 211.77 156.95 212.3 155.1"/><path class="cls-14" d="M312,397.51c.11,0,.21.09.33.08,1.58-.07,2.77-2.09,2.65-4.5s-1.36-4-2.83-4.17c-.15,1.63-.25,3.34-.25,5.15C311.92,395.25,312,396.4,312,397.51Z" transform="translate(-99.65 -226)"/><path class="cls-21" d="M269.79,391.81s-1.2.24-1.64,2.66c-.4,2.12.53,5,1.7,5.09C269.85,399.56,268.59,393.3,269.79,391.81Z" transform="translate(-99.65 -226)"/><path class="cls-14" d="M247,708.05s34.84-62,44-97.56c0,0-1.12,47.57-44.75,111.56Z" transform="translate(-99.65 -226)"/><path class="cls-14" d="M303.8,523.83s1.52,10.62,0,19.12S310.17,534.75,303.8,523.83Z" transform="translate(-99.65 -226)"/><path class="cls-11" d="M294.57,423.08l-2.21,7c1.84,52-6.59,82.85-19.75,73.9-14.26-9.7-39-65.2-39-65.2a16.46,16.46,0,0,1-1.1-3.33c.07,10.32,4,20.72,11.93,32.54a59.73,59.73,0,0,1,8.95,23.15c6.26,8.21,13.15,17.85,21.57,19.22C304.44,515.13,294.57,423.08,294.57,423.08Z" transform="translate(-99.65 -226)"/><path class="cls-10" d="M294.57,423.08,292,422.2c-.1-1.86-.21-3.75-.33-5.66l-9.05-.5s-.14,1-.4,2.78l-1.15-.4c-.15,12.12-5.66,33.69-7.29,39.8-.07.14-.13.29-.19.42s-5.69-28.74-20.86-40.86c-12.28-9.81-20.77,2.31-20.7,13.5h0v0a18.35,18.35,0,0,0,1.55,7.44s.26.58.73,1.6C238,453,247,476.58,265.85,497.12a34,34,0,0,0,6.76,6.82,6.91,6.91,0,0,0,6,1.28h0a6.19,6.19,0,0,0,1.58-.72C298.87,494.4,294.57,423.08,294.57,423.08Z" transform="translate(-99.65 -226)"/><path class="cls-11" d="M263.12,430.49s10.18,17.35,10.49,28.15c0,0,7.65-26.56,7.39-37.85,0,0-4.12,19.57-5.45,21.95S268.79,432.78,263.12,430.49Z" transform="translate(-99.65 -226)"/><path class="cls-9" d="M187.37,816.6h16s1-4.05,2.85-10.81H187.55C187.46,809.35,187.39,812.94,187.37,816.6Z" transform="translate(-99.65 -226)"/><path class="cls-9" d="M264.5,813.53l16.31-.46c.06-2.88.18-5.83.31-8.78l-17.6.8C264.12,810.45,264.5,813.53,264.5,813.53Z" transform="translate(-99.65 -226)"/><path class="cls-14" d="M255.48,366.91a4.8,4.8,0,0,0,4-2.82s5.3,3.68,11.11,1.69l.32,1.13a6.62,6.62,0,0,0,1.92-3.79c.23-2.74-.71-11.15-15-5.49a6,6,0,0,0-2.71-.85,4.24,4.24,0,0,0-3.83,5.34c.79,3.64.93,13.62,4.05,15.58,0,0,.74-4.23.82-5.89l-.67-.2Z" transform="translate(-99.65 -226)"/><path class="cls-9" d="M255.48,366.91a3,3,0,0,0-3-.6c-1.83.6-2.16,5.4,3,5.3C255.48,371.61,256.13,368.05,255.48,366.91Z" transform="translate(-99.65 -226)"/><path class="cls-9" d="M283.81,416.08a19.74,19.74,0,0,1-.39-5.83c.39-2.18,1.91-4.14,2.66-4.37a35.4,35.4,0,0,1,3.52.81,1.43,1.43,0,0,1,1.49.43,1.09,1.09,0,0,1,1,1s2,4.49-1,8.35Z" transform="translate(-99.65 -226)"/><path class="cls-9" d="M283.31,410.83s-.15-2.43.53-3.35l.58.16Z" transform="translate(-99.65 -226)"/><path class="cls-14" d="M187.37,816.6a7.84,7.84,0,0,0,0,6.62h12.1s4.56-2.17,3.86-6.62Z" transform="translate(-99.65 -226)"/><polygon class="cls-14" points="164.85 587.53 161.65 592.16 161.65 597.09 204.94 596.76 205.31 594.75 181.16 587.07 164.85 587.53"/><path class="cls-6" d="M461.29,837.29s-37.81,2.88-44.83,7-4.11,7.61,24.51,11.2c0,0,23.79,5.12,23.52,0S465.44,836.94,461.29,837.29Z" transform="translate(-99.65 -226)"/><path class="cls-7" d="M603.14,836.17c38.94,2.21,65.23,6.4,65.23,11.22,0,7.11-57.24,12.87-127.85,12.87s-127.85-5.76-127.85-12.87c0-4.2,20-7.92,50.86-10.27" transform="translate(-99.65 -226)"/><line class="cls-7" x1="341.31" y1="177.89" x2="364.92" y2="631.09"/><polygon class="cls-22" points="389.12 144.75 389.12 197.63 459.27 197.16 459.27 144.75 389.12 144.75"/><polygon class="cls-23" points="389.12 144.75 389.12 197.63 459.27 197.16 459.27 144.75 389.12 144.75"/><polygon class="cls-24" points="389.12 144.75 348.16 147.72 348.16 197.16 389.12 197.63 389.12 144.75"/><path class="cls-25" d="M837.26,335.64a2.35,2.35,0,1,1-2.35-2.35A2.35,2.35,0,0,1,837.26,335.64Z" transform="translate(-99.65 -226)"/><path class="cls-25" d="M825.59,335.64a2.36,2.36,0,1,1-2.35-2.35A2.35,2.35,0,0,1,825.59,335.64Z" transform="translate(-99.65 -226)"/><path class="cls-26" d="M813.91,335.64a2.35,2.35,0,1,1-2.35-2.35A2.35,2.35,0,0,1,813.91,335.64Z" transform="translate(-99.65 -226)"/><line class="cls-7" x1="574.63" y1="324.57" x2="732.91" y2="324.57"/><polyline class="cls-27" points="579.26 324.57 588.97 261.34 599.95 324.57"/><polyline class="cls-27" points="604.71 324.57 614.42 226.14 625.4 324.57"/><polyline class="cls-27" points="631.5 324.57 641.22 193.04 652.2 324.57"/><polyline class="cls-27" points="656.85 324.57 666.56 226.14 677.54 324.57"/><polyline class="cls-27" points="682.14 324.57 691.86 258.81 702.83 324.57"/><polyline class="cls-27" points="708.94 324.57 718.65 208.74 729.63 324.57"/><polyline class="cls-28" points="584.89 76.59 582.95 76.59 582.95 42.04 595.92 42.04 595.92 76.59 592.98 76.59"/><polyline class="cls-29" points="615.78 76.59 613.84 76.59 613.84 9.57 626.81 9.57 626.81 76.59 623.87 76.59"/><polyline class="cls-30" points="646.67 76.59 644.73 76.59 644.73 20.45 657.7 20.45 657.7 76.59 654.76 76.59"/><polyline class="cls-31" points="677.56 76.59 675.62 76.59 675.62 0 688.59 0 688.59 76.59 685.65 76.59"/><polyline class="cls-32" points="708.45 76.59 706.51 76.59 706.51 9.57 719.48 9.57 719.48 76.59 716.54 76.59"/><path class="cls-33" d="M543.39,360.2V311.7c-7.48-42.07-16.86-52-22.9-51.78-15.13.49-19.39,57.26-35.07,55.28s-21.47-66.7-40.7-65.64c-24.19,1.34-27.51,75.14-42.94,73.93s-28.89-44.3-46.69-42.91-30.9,36.21-30.9,36.21V360.2Z" transform="translate(-99.65 -226)"/><path class="cls-34" d="M782.44,518.42q-5.4-1.62-10.7-3.53c-.12,0-.17.15,0,.19q5.29,1.9,10.7,3.53c.12,0,.17-.15.05-.19Z" transform="translate(-99.65 -226)"/><path class="cls-34" d="M773.67,446.3a.1.1,0,0,0,0-.19.1.1,0,0,0,0,.19Z" transform="translate(-99.65 -226)"/><path class="cls-35" d="M791,515.75a.46.46,0,0,0-.09-.16l0,0a21.2,21.2,0,0,1-5.69-4,.24.24,0,0,0-.4.16c-.09,1.41.57,2.33,1,3.64-3.74-.7-7.76-1.4-11.17-3.11h-.07a.14.14,0,0,0-.09,0l-.07,0a.13.13,0,0,0-.07.06l0,0a.14.14,0,0,0,0,.09.15.15,0,0,0,0,.09s0,0,0,.05a35.22,35.22,0,0,0,6.65,4.73l-8-2.52c-.32-.21-.64-.43-1-.63s-.48.24-.23.4a68.18,68.18,0,0,0,7.78,4.87c-2.35-.47-4.7-1-7-1.61a.23.23,0,0,0-.12,0h0a.18.18,0,0,0-.1.09l0,0a.09.09,0,0,0,0,0,.2.2,0,0,0,0,.13s0,0,0,0,0,0,.06.07c2.42,1.14,4.91,2.14,7.39,3.14a29.63,29.63,0,0,1-5.43-1.45c-.27-.11-.36.28-.18.42a13.48,13.48,0,0,0,8.44,2.82,10.74,10.74,0,0,0,8.11-.22l0,0s0,0,0,0a.17.17,0,0,0,.06-.12v0c0-2.34,0-4.68.19-7Z" transform="translate(-99.65 -226)"/><path class="cls-35" d="M774.94,442.55a.23.23,0,0,0-.43-.11,8.64,8.64,0,0,0-1.22,3.24,18.25,18.25,0,0,0-6.14-8.69s-.06,0-.08,0l-.07,0-.08,0a.16.16,0,0,0-.09,0,0,0,0,0,0,0,0,.14.14,0,0,0,0,.1s0,.06,0,.09,0,0,0,0a18.45,18.45,0,0,1,2.37,4.15,15.74,15.74,0,0,0-4.34-4.46.18.18,0,0,0-.23,0l0,0,0,0a.14.14,0,0,0,0,.15h0s0,0,0,.07a21.84,21.84,0,0,1,2.94,5.27,22.36,22.36,0,0,0-3.4-3.62l0,0s-.07,0-.11,0h0l-.09,0-.06.06a.21.21,0,0,0,0,.17s0,0,0,0a48,48,0,0,1,2.42,5.78,12,12,0,0,1-3.18-2.3s0,0,0,0,0,0-.08,0l-.09,0-.06,0a.1.1,0,0,0,0,.06.16.16,0,0,0,0,.07.14.14,0,0,0,0,.09s0,0,0,.06c2.14,3.88,4,8.54,7.63,11.25h.06a.16.16,0,0,0,.21.06,29.73,29.73,0,0,0,5.67-2.76s0,0,0,0a.16.16,0,0,0,.06-.08s0,0,0-.06,0,0,0-.07A40.66,40.66,0,0,1,774.94,442.55Z" transform="translate(-99.65 -226)"/><path class="cls-14" d="M850.3,420.21s3.43,15.25,1.47,22.57-3.28,11.1,0,15.44,13.72,1,13.6-6.84-7.54-32.64-12.29-33.93S850.3,420.21,850.3,420.21Z" transform="translate(-99.65 -226)"/><path class="cls-10" d="M847.51,462.4s-11.84,18.39-29.61,17.29a30.51,30.51,0,0,1-4.49-.75C803.55,476.25,793.1,467.19,786,460a66.07,66.07,0,0,1-5-7.81l-1.38.91c-1.44-1.66-2.26-2.69-2.26-2.69l-8.24,4.44s.61,1.53,1.74,4.05L769.14,460s16.17,38.49,43.54,47.12c.86.28,1.73.52,2.6.72a35.94,35.94,0,0,0,6.08.9l.95.07.48,0h.31c25.1.92,37.8-20.5,37.8-20.5Z" transform="translate(-99.65 -226)"/><path class="cls-11" d="M860.9,488.38l-10.83-21-4.9-1.59s-7,8.36-8.21,17.71-1.93,17.95-7.42,19.88S816.23,510,794.18,496a50.85,50.85,0,0,0,18.5,11.14c.86.28,1.73.52,2.6.72a35.94,35.94,0,0,0,6.08.9l.95.07.48,0h.31C848.2,509.8,860.9,488.38,860.9,488.38Z" transform="translate(-99.65 -226)"/><path class="cls-35" d="M949,740.59s6,42.52,12.72,76.13l-11.9,1.59s-12.06-27.51-19.91-69.56Z" transform="translate(-99.65 -226)"/><path class="cls-35" d="M817.11,751.7c-10.42,31.09-19,66.61-19,66.61h15.24c8.94-24.11,17.19-43.6,25.41-61.61A65.92,65.92,0,0,1,817.11,751.7Z" transform="translate(-99.65 -226)"/><path class="cls-36" d="M857.39,756.36h0c3-9,6.1-18,9.43-26.78,21.09-55.36,32.3-103.16,31.92-115.74s-2.83-65.8-2.83-65.8l-33.48,7.65s-38.95,84.72-62,188.26C800.48,744,827.09,760.89,857.39,756.36Z" transform="translate(-99.65 -226)"/><path class="cls-37" d="M953.77,736.32h0c-12.17-63.17-16.68-128.61-17-148.12-.67-38.13-14.31-50.14-14.31-50.14l-39,18.17S873,560.56,878,649.11c2,34.67,11.18,71.19,21.68,102.78C905.74,752.21,938.34,753.1,953.77,736.32Z" transform="translate(-99.65 -226)"/><rect class="cls-35" x="853.69" y="414.37" width="15.38" height="19.46" transform="translate(-156.87 -81.21) rotate(-9.3)"/><path class="cls-11" d="M879.93,453.63s-7.8,58.29-89.26,60.35l.13,10.68s48.77,9.64,82.46-6.39c35.42-16.85,34.08-56.7,34.08-56.7s.64-15.68-9.76-17.72C888.36,442.05,881.93,445.11,879.93,453.63Z" transform="translate(-99.65 -226)"/><path class="cls-11" d="M902,445.46s12.12,5.53,14.2,19.28c1.87,12.35.66,33.13,5,50.4L902,506.09Z" transform="translate(-99.65 -226)"/><path class="cls-26" d="M921.18,515.14s2.29,16.67,3.73,19.24-8.17,14.3-12.71,16.11C908,552.16,920.6,527,920.6,527Z" transform="translate(-99.65 -226)"/><path class="cls-10" d="M915.44,490.83c-.57-12-3.19-41-13.44-45.37-9.1-3.9-12.56-3.58-44.23,9.51,0,0-13,3.65-16.15,20.71-2.47,13.31,4.39,25.23,8.47,35.65h0l0,.11a45.41,45.41,0,0,1,2.16,6.8c3.33,10.7,9.21,30.58,8.62,35.77a11.7,11.7,0,0,0,7.59,3.76c19.69,2,48.11-3.3,53.37-17.27C927.28,526.07,916,502.79,915.44,490.83Z" transform="translate(-99.65 -226)"/><path class="cls-35" d="M859.34,454.35s-4.37,10.23-.52,11.39c2.24.67,13.95-5.68,19.18-18.78Z" transform="translate(-99.65 -226)"/><path class="cls-35" d="M859.34,454.35s-.44-6.51-4-19.4l15.18-2.48A29.84,29.84,0,0,0,878,447l-13.47,9.41Z" transform="translate(-99.65 -226)"/><path class="cls-35" d="M852.22,415.74s-1.53,19.83,1.1,22.46,10.39-.59,12.37-5.73S860.18,415,852.22,415.74Z" transform="translate(-99.65 -226)"/><path class="cls-14" d="M882.21,685.34s-7.32-49.83-5.53-81.51c0,0-8.27,49.61,0,98.41Z" transform="translate(-99.65 -226)"/><path class="cls-10" d="M794.72,512l1.18,15.51s56.06,10,87.67-15.51l-19.79-26.58S846.06,511.73,794.72,512Z" transform="translate(-99.65 -226)"/><path class="cls-11" d="M854.56,525.71s47.5-12.3,52.79-55c0,0,3.06,38.77-50.33,63.6Z" transform="translate(-99.65 -226)"/><path class="cls-14" d="M856.46,439.14a14.51,14.51,0,0,0,6.36-2.82s1.1,6.4-5.26,7.49Z" transform="translate(-99.65 -226)"/><path class="cls-14" d="M867.62,416.32s-3.64,4-11.71,0c0,0-1.7,2.41-3.85,1.78l-.15,3a7.21,7.21,0,0,1-4.56-6.82c0-5.25,6.95-9.7,15.54-8.21s10.08,8,10.18,11,4,12.22,13,15.41,8,14.49,3.26,17c-4,2.12-12.66,6.25-17.31-4.05s-4.35-23-3.56-24.54Z" transform="translate(-99.65 -226)"/><path class="cls-35" d="M865.66,417.07a3,3,0,0,1,3-.6c1.83.6,2.15,5.4-3,5.3C865.66,421.77,865,418.21,865.66,417.07Z" transform="translate(-99.65 -226)"/><polygon class="cls-14" points="698.43 592.31 676.32 597.45 675.73 600.88 715.49 600.88 716.68 595.84 713.66 592.31 698.43 592.31"/><polygon class="cls-14" points="850.18 592.31 850.18 599.63 865.42 611.1 877.68 609.32 862.08 590.72 850.18 592.31"/><polygon class="cls-14" points="99.85 592.31 101.8 595.5 84.61 611.1 72.35 609.32 87.96 590.72 99.85 592.31"/><path class="cls-38" d="M500.38,358.13s0,0,0,0c-1.8-4-6.14-10.57-11.39-9.38h0a.15.15,0,0,0-.09.07.21.21,0,0,0,0,.24l0,0a.3.3,0,0,0,.08.08l0,0a9.12,9.12,0,0,1,3.48,2.49,1.53,1.53,0,0,0-1.67,1.62,2.33,2.33,0,0,0-2.19,2.18h0c-1.06,1.58,1.25,5.12,3.55,6.34h0l.06,0h0a3.27,3.27,0,0,0,.33.14,52.3,52.3,0,0,0,7.72-3.55A.21.21,0,0,0,500.38,358.13Z" transform="translate(-99.65 -226)"/><path class="cls-38" d="M531.79,268.84a1.64,1.64,0,0,0-.36-.34l-.11-.08a2.44,2.44,0,0,0-1-.31s0,0,0-.06a2.36,2.36,0,0,0-2.79-1.2c-1.07-3-3.49-5.05-6-7a.28.28,0,0,0-.43.15s0,0,0,0,0,.05,0,.07,0,.08,0,.12a24.52,24.52,0,0,1,2.9,4.93c-1.15-1.35-2.92-2.1-4.5-3.12h0a.17.17,0,0,0-.12,0l-.09,0s0,0,0,0a.23.23,0,0,0-.06.12.09.09,0,0,0,0,0,.27.27,0,0,0,0,.12s0,0,0,.06a38.79,38.79,0,0,1,3.06,4.36,8.42,8.42,0,0,1,.88,2.22l0,0a.24.24,0,0,0-.45-.09,6.13,6.13,0,0,0-.82,4.17,8.14,8.14,0,0,0,2.66,3.62s.06,0,.09,0l.09,0,.07,0,7.19-1h.21a.21.21,0,0,0,.22-.18.26.26,0,0,0,.1-.19C532.63,273.68,533.17,270.32,531.79,268.84Zm-8.54.41a13.29,13.29,0,0,1,.3,2.14A2.65,2.65,0,0,1,523.25,269.25Z" transform="translate(-99.65 -226)"/><path class="cls-38" d="M559.59,696.8s.21,7.09.81,12l12.06-1.59s.36-5.42,1.12-10.93Z" transform="translate(-99.65 -226)"/><path class="cls-38" d="M507.67,603.55s2.44,7.48,4.56,12l11.93-1s-2.34-9.61-3.37-15.08Z" transform="translate(-99.65 -226)"/><polygon class="cls-14" points="460.74 482.83 452.55 495.25 444.62 497.03 444.62 499.85 456.99 499.85 473.93 488.82 472.81 481.25 460.74 482.83"/><polygon class="cls-14" points="412.58 389.54 397.53 397.96 396.74 399.44 401.78 399.44 404.92 398.66 428.3 395.63 427.31 390.78 424.51 388.58 412.58 389.54"/><path class="cls-10" d="M561.37,322.79C551.52,307.93,540,279.87,540,279.87l-4.15.89c-1.56-3.22-2.33-5.2-2.33-5.2l-9.67,1.2c.38,2.27.79,4.49,1.22,6.68l-2.48.59C536.6,348.53,561,367.54,561,367.54h0c8,9.68,14,13.55,14,13.55l9.35-30.65C576.16,343.05,568.31,333.06,561.37,322.79Z" transform="translate(-99.65 -226)"/><path class="cls-11" d="M578.48,344.65c-10.11.05-13.32,7.84-23,5.32-10-2.6-17.68-17.75-17.71-17.79C549.52,358.6,561,367.54,561,367.54h0c8,9.68,14,13.55,14,13.55l9.35-30.65C582.37,348.65,580.41,346.71,578.48,344.65Z" transform="translate(-99.65 -226)"/><path class="cls-39" d="M631.73,441.48c9.51,13.95,11.83,31.76,10.15,48.55s-7,33-11.72,49.18c-14.26,49.23-31.78,105.17-34.44,156.35l-46.33,1.59c-1.65-29.09,3.3-66.13,7.87-92.24q9.13-52,21.6-103.42l17-54.29Z" transform="translate(-99.65 -226)"/><path class="cls-40" d="M583,444.68s-52.5-27.09-94.06-18.17-9.32,144.2,3,182l45.87-14.31S520.82,521.53,518.85,479c0,0,31.43,27.87,68.08,28.46s49.56-22.27,49.14-33.32c-1.21-31.71-16.41-35.75-16.41-35.75Z" transform="translate(-99.65 -226)"/><path class="cls-14" d="M577.61,506.7s34.94,5.54,48.37-14c0,0-8.16,15.19-25.52,19.11s-24.63,2.39-24.63,2.39Z" transform="translate(-99.65 -226)"/><path class="cls-11" d="M505.19,360.2l-11.72,10.09s29.23,53.85,51.64,53.34l-1.67-32.72S518.84,378.16,505.19,360.2Z" transform="translate(-99.65 -226)"/><path class="cls-10" d="M567.88,353.5s-17.14,37.86-24.44,37.41-42.51-33-42.51-33l-9.61,4.6s27.45,42.75,42.48,56.36,36.21-4.69,41.84-20.81S567.88,353.5,567.88,353.5Z" transform="translate(-99.65 -226)"/><path class="cls-38" d="M585.13,339.23s-6-14-6.47-21l-12.19,3.09s.69,19.48,4.27,28.64C570.74,350,578.78,342,585.13,339.23Z" transform="translate(-99.65 -226)"/><polygon class="cls-38" points="477.89 82.11 464.31 84.33 465.86 103.81 481.03 101.32 477.89 82.11"/><path class="cls-38" d="M564,310.33s-2.84,18.71-1,21.87,8.81,1.68,11.38-4S564,310.33,564,310.33Z" transform="translate(-99.65 -226)"/><path class="cls-41" d="M569.55,409.11s5.26-6.17,7.47-10.33c0,0-.86,32.19-9,35.24C568.05,434,569.52,416.77,569.55,409.11Z" transform="translate(-99.65 -226)"/><path class="cls-14" d="M567.43,333.75a18.77,18.77,0,0,0,11.06-8.64s-3.68,8.33-10.93,9.8Z" transform="translate(-99.65 -226)"/><path class="cls-14" d="M573.85,311.09a20.22,20.22,0,0,1-10.16,1.21l-.1.76s-2.1-2.95-.6-5.76c1.85-3.49,10.57-7.12,16-2.6,4,3.29,3.39,15.73.92,18,0,0-2.48-2.48-3.37-7.82C576.56,314.89,576,310.38,573.85,311.09Z" transform="translate(-99.65 -226)"/><path class="cls-38" d="M575,311.69a2.94,2.94,0,0,1,3-.6c1.83.6,2.16,5.4-3,5.3C575,316.39,574.36,312.83,575,311.69Z" transform="translate(-99.65 -226)"/><path class="cls-10" d="M567.79,353.82c-.27-1.22,17.29-20.52,27.84-15.24s28.13,46,32.53,66.82,5.24,35.06,4.07,36.24-19.34,5.56-36.34,5.56-27.84-8.49-27.84-13.18S573.07,377.55,567.79,353.82Z" transform="translate(-99.65 -226)"/><path class="cls-42" d="M749.71,817.81l5.84,1L768.76,792l-10.93-5.91,12.9,1.92,5.18-10.48-4.44-2.62h5.73l4.38-8.86c-61.42,12.6-45.68,78.13-45.68,78.13H743l11.52-23.33Z" transform="translate(-99.65 -226)"/><path class="cls-43" d="M711.75,760.05l3.56,14.87h5l-4.7,1.31,4.69,19.59h8.57l-8,2.41,1.5,6.27,6.49-.81-6,2.86L728,827.76h2.31l-2,1.27,3.63,15.16h8.56S752.72,778,711.75,760.05Z" transform="translate(-99.65 -226)"/></svg>