<svg id="Layer_1" data-name="Layer 1" xmlns="http://www.w3.org/2000/svg" xmlns:xlink="http://www.w3.org/1999/xlink" viewBox="0 0 384.9 1005.17"><defs><style>.cls-1{opacity:0.7;fill:url(#linear-gradient);}</style><linearGradient id="linear-gradient" x1="530.19" y1="37.62" x2="530.19" y2="1042.78" gradientUnits="userSpaceOnUse"><stop offset="0" stop-color="#ff00c5"/><stop offset="1" stop-color="#ff434d"/></linearGradient></defs><title>Ícone - PDDA esquerda</title><path class="cls-1" d="M636,37.62q-38.44,0-64.83,25.63-6,6-8.29,6a1.33,1.33,0,0,1-1.51-1.51L563.6,52.7a6.73,6.73,0,0,0-1.89-6.41,8.73,8.73,0,0,0-6.4-2.64H452a8.72,8.72,0,0,0-6.41,2.64c-1.76,1.77-2.89,3.9-3.48-1.31L377.73,578.69c-.4,10.22.09,12.36,1.6,14.12a7.54,7.54,0,0,0,6,2.64L549,595.18l2.1.27-10.55,78c0,1.5-.51,2.39-1.51,2.63s-2-.37-3-1.88Q516.37,641,473.43,641q-99.51,0-116.09,130.4L340,912.38a244.83,244.83,0,0,0-2.27,33.16q0,97.23,86.69,97.24,43,0,70.1-31.66a3.14,3.14,0,0,1,3-1.13c1,.26,1.52,1.13,1.52,2.64l-2.27,15.08a7.13,7.13,0,0,0,1.51,6.4,7.5,7.5,0,0,0,6,2.64h104a8.69,8.69,0,0,0,6.4-2.64,12.25,12.25,0,0,0,3.39-6.4l63.56-531.63a7.22,7.22,0,0,0-1.51-6.41,7.54,7.54,0,0,0-6-2.64l-165.29-.23,11.31-89.86c3.27,7.75,3.27,7.75,4.2,9.28Q544,439.4,587,439.39q99.49,0,116.09-130.41l17.33-141a256.16,256.16,0,0,0,2.27-33.16Q722.65,37.61,636,37.62Zm-109,743.6L512.63,902.58q-1.53,15.09-9.81,24.12a26.54,26.54,0,0,1-20.35,9q-10.56,0-15.83-9t-3.76-24.12L478,781.22q1.5-15.08,9.42-24.13t18.47-9a19.72,19.72,0,0,1,15.83,7.16c4,4.79,6,10.93,6,18.47A26.51,26.51,0,0,1,526.94,781.22Zm70.57-603.39L582.44,299.19c-1,10.05-4.14,18.08-9.42,24.11s-11.44,9.05-18.47,9.05a19.66,19.66,0,0,1-15.83-7.16q-6-7.15-6-18.47a26.51,26.51,0,0,1,.75-7.53l14.32-121.36q1.51-15.08,9.81-24.13a26.54,26.54,0,0,1,20.35-9,17.2,17.2,0,0,1,15.83,9Q599,162.75,597.51,177.83Z" transform="translate(-337.74 -37.62)"/></svg>