<svg id="Layer_1" data-name="Layer 1" xmlns="http://www.w3.org/2000/svg" xmlns:xlink="http://www.w3.org/1999/xlink" viewBox="0 0 384.9 1005.17"><defs><style>.cls-1{opacity:0.7;fill:url(#linear-gradient);}</style><linearGradient id="linear-gradient" x1="2111.19" y1="37.62" x2="2111.19" y2="1042.78" gradientTransform="matrix(-1, 0, 0, 1, 2685.74, 0)" gradientUnits="userSpaceOnUse"><stop offset="0" stop-color="#ff00c5"/><stop offset="1" stop-color="#ff434d"/></linearGradient></defs><title>Ãcone - PDDA direita</title><path class="cls-1" d="M382.1,134.86A257.88,257.88,0,0,0,384.36,168L401.7,309q16.57,130.41,116.08,130.41,43,0,62.57-33.17c.92-1.53.92-1.53,4.19-9.28l11.31,89.86L430.57,487a7.55,7.55,0,0,0-6,2.64,7.22,7.22,0,0,0-1.51,6.41l63.56,531.63a12.32,12.32,0,0,0,3.39,6.4,8.71,8.71,0,0,0,6.41,2.64h104a7.5,7.5,0,0,0,6-2.64,7.13,7.13,0,0,0,1.51-6.4l-2.27-15.08c0-1.51.51-2.38,1.52-2.64a3.14,3.14,0,0,1,3,1.13q27.13,31.65,70.1,31.66,86.69,0,86.69-97.24a244.83,244.83,0,0,0-2.27-33.16l-17.33-141Q730.83,641,631.32,641q-43,0-62.57,33.17c-1,1.51-2,2.14-3,1.88s-1.51-1.13-1.51-2.63l-10.54-78,2.09-.27,163.61.27a7.54,7.54,0,0,0,6-2.64c1.51-1.76,2-3.9,1.61-14.12L662.6,45c-.59,5.21-1.72,3.08-3.48,1.31a8.72,8.72,0,0,0-6.41-2.64H549.44a8.69,8.69,0,0,0-6.4,2.64,6.74,6.74,0,0,0-1.9,6.41l2.27,15.07a1.33,1.33,0,0,1-1.51,1.51q-2.26,0-8.29-6-26.37-25.62-64.83-25.63Q382.11,37.62,382.1,134.86ZM577,773.68c0-7.54,2-13.68,6-18.47a19.73,19.73,0,0,1,15.83-7.16c7.05,0,13.19,3,18.47,9s8.42,14.08,9.42,24.13l15.08,121.36q1.51,15.09-3.77,24.12t-15.83,9a26.55,26.55,0,0,1-20.35-9q-8.28-9-9.81-24.12L577.8,781.22A26.51,26.51,0,0,1,577,773.68Zm-66-620a17.2,17.2,0,0,1,15.83-9,26.58,26.58,0,0,1,20.36,9q8.31,9,9.8,24.13L571.3,299.19a26.42,26.42,0,0,1,.76,7.53q0,11.31-6,18.47a19.64,19.64,0,0,1-15.82,7.16q-10.56,0-18.48-9.05t-9.42-24.11L507.23,177.83Q505.72,162.76,511,153.7Z" transform="translate(-382.1 -37.62)"/></svg>