<svg id="Camada_1" data-name="Camada 1" xmlns="http://www.w3.org/2000/svg" viewBox="0 0 345 245"><defs><style>.cls-1{fill:#e5d3d8;}.cls-2{fill:#fff;}</style></defs><title>brand-light</title><g id="aMojFO.tif"><path class="cls-1" d="M126.48-.49c17.06,0,34.12-.09,51.19,0,4.41,0,8.8.79,13.19,1.28,4.67.51,9,2.06,13.38,3.57,3.46,1.2,6.49,3.24,9.57,5.1a51.44,51.44,0,0,1,12.8,11.45,106.27,106.27,0,0,1,8.75,12.24c3.54,5.79,6.19,12,9.6,17.86,1.24,2.14,2.55,4.32,3.64,6.47,1.25,2.37,2.31,4.93,3.55,7.35,4.93,9.74,10,19.44,15,29.14,4.58,8.85,9.11,17.71,13.8,26.5q4.6,8.63,9.11,17.3c3.4,6.61,6.87,13.22,10.21,19.86,4,7.78,8,15.5,12.08,23.25,3.4,6.59,6.81,13.19,10.29,19.77,4.16,7.91,8.51,15.75,12.5,23.73,3,6,6.36,11.67,9.08,17.75.34.77,1.32,1.23,1.06,2.28H249.49a2.26,2.26,0,0,0-.1-.66c-3.57-7.2-7.11-14.41-10.74-21.58-3.55-7-7.2-14-10.78-20.94q-5.56-10.87-11.06-21.78-9.36-18.31-18.72-36.58-5.24-10.27-10.4-20.61c-3.3-6.59-6.66-13.17-9.84-19.82-1.45-3-3.28-5.88-4.35-9.09.37-1.34-.76-2.08-1.24-3.08-2.35-4.81-4.94-9.5-7.25-14.34-2.55-5.39-5.32-10.69-8.06-16-1.88-3.66-4.1-7.15-5.74-10.91-1.9-4.36-4.25-8.46-6.32-12.76-2.34-4.93-5-9.74-7.45-14.61Q132.23,11.44,127,1.23A3.5,3.5,0,0,1,126.48-.49Z"/><path class="cls-2" d="M126.48-.49a3.5,3.5,0,0,0,.57,1.78q5.21,10.21,10.4,20.42c2.48,4.87,5.1,9.67,7.45,14.61,2,4.25,4.42,8.38,6.32,12.76,1.63,3.75,3.86,7.26,5.74,10.91,2.73,5.31,5.49,10.62,8.06,16,2.31,4.84,4.89,9.53,7.25,14.34.48,1,1.62,1.7,1.24,3.08-1.23-1-1.28.19-1.63.85q-5.1,10.06-10.21,20.1-7.2,14.34-14.34,28.72c-3.4,6.81-6.71,13.61-10.11,20.35-2.39,4.75-5,9.36-7.26,14.2-2.88,6.07-6,12-9,18s-5.9,11.91-9,17.75c-2.55,4.78-4.7,9.73-7.2,14.51q-4.3,8.23-8.32,16.61H2.09c-.43,0-1.5.71-1.39-.66,1-.42,1.37-1.39,1.81-2.25,2.5-4.9,5-9.82,7.48-14.72,3.57-7,7.19-14,10.73-21,3.62-7.19,7.09-14.46,10.77-21.61,3.4-6.64,6.81-13.31,10.14-20,2.25-4.43,4.51-8.88,6.86-13.27,3.12-5.85,6-11.91,8.92-17.8,2.36-4.68,4.78-9.36,7.18-14l5.48-10.68L81.78,85.44c2.67-5.27,5.32-10.57,8-15.84,3.4-6.69,6.85-13.36,10.26-20.06,3.61-7.09,7.17-14.19,10.78-21.27,3.07-6,6.18-12,9.24-18.09,1.63-3.24,3.16-6.54,4.8-9.78C125.15-.17,125.46-1.09,126.48-.49Z"/></g></svg>