<svg id="Camada_1" data-name="Camada 1" xmlns="http://www.w3.org/2000/svg" xmlns:xlink="http://www.w3.org/1999/xlink" viewBox="0 0 200 200"><defs><style>.cls-1{fill:url(#Gradiente_sem_nome_10);}.cls-2{fill:url(#Gradiente_sem_nome_10-2);}.cls-3{fill:url(#Gradiente_sem_nome_10-3);}</style><linearGradient id="Gradiente_sem_nome_10" x1="5.57" y1="101.04" x2="196.42" y2="101.04" gradientUnits="userSpaceOnUse"><stop offset="0.28" stop-color="#ab0373"/><stop offset="1" stop-color="#290a59"/></linearGradient><linearGradient id="Gradiente_sem_nome_10-2" x1="51.57" y1="101.01" x2="150.43" y2="101.01" xlink:href="#Gradiente_sem_nome_10"/><linearGradient id="Gradiente_sem_nome_10-3" x1="140.07" y1="50.21" x2="163.53" y2="50.21" xlink:href="#Gradiente_sem_nome_10"/></defs><title>icon-instagram</title><g id="BJzL7W.tif"><path class="cls-1" d="M107,196.29c-20.17,0-35.61.4-51-.11-16.49-.55-31.12-5.76-41.08-20a51.8,51.8,0,0,1-9.09-29.72c-.28-29.89-.39-59.78,0-89.67C6.17,28.09,28.49,6,57.12,5.78q44.22-.38,88.44,0c29.43.28,50.17,20.64,50.6,50.07.45,31.11.22,62.24,0,93.35a55.7,55.7,0,0,1-6.43,26.41c-7.08,13.06-19.27,18-33.06,19.75C138.59,197.61,120.4,195.7,107,196.29Zm-4.77-16.82c16.54-.51,32.78.5,49-.79,14.21-1.13,22.8-7.81,26.13-21.2a56.13,56.13,0,0,0,1.26-8.48c1.36-15,.7-30,.65-45-.06-16.23.83-32.49-.65-48.7-1.58-17.41-14.94-30.49-32.35-32-12.28-1.08-24.56-.63-36.83-.55-17.87.11-35.76-.89-53.62.62A35.69,35.69,0,0,0,23.21,55.7a130.46,130.46,0,0,0-.56,15.12c.37,25.38-1,50.79.72,76.14,1.22,17.94,14.09,30.28,32.11,31.77C71.17,180,86.86,178.89,102.25,179.47Z"/><path class="cls-2" d="M101.27,51.57c27.49,0,49.19,21.94,49.16,49.6s-22,49.34-49.91,49.26c-27.4-.08-49-22.07-49-49.81C51.63,73.19,73.57,51.53,101.27,51.57ZM101,133.42c17.48,0,32.4-14.89,32.42-32.39S118.52,68.62,101,68.6,68.61,83.49,68.59,101,83.48,133.4,101,133.42Z"/><path class="cls-3" d="M151.66,61.94a11.41,11.41,0,0,1-11.59-12.07,11.73,11.73,0,0,1,23.46.68A11.4,11.4,0,0,1,151.66,61.94Z"/></g></svg>