<svg id="Camada_1" data-name="Camada 1" xmlns="http://www.w3.org/2000/svg" xmlns:xlink="http://www.w3.org/1999/xlink" viewBox="0 0 200 200"><defs><style>.cls-1{fill:url(#Gradiente_sem_nome_11);}.cls-2{fill:url(#Gradiente_sem_nome_11-2);}</style><linearGradient id="Gradiente_sem_nome_11" x1="5.53" y1="101.01" x2="196.47" y2="101.01" gradientUnits="userSpaceOnUse"><stop offset="0.26" stop-color="#ab0373"/><stop offset="1" stop-color="#290a59"/></linearGradient><linearGradient id="Gradiente_sem_nome_11-2" x1="68.95" y1="99.74" x2="132.26" y2="99.74" xlink:href="#Gradiente_sem_nome_11"/></defs><title>icon-money</title><g id="NJ5w01.tif"><path class="cls-1" d="M101.12,5.52A95.49,95.49,0,1,1,5.53,101C5.47,48.26,48.42,5.51,101.12,5.52ZM25.19,101c.35,41.9,33.27,75.55,75.43,75.76a75.71,75.71,0,1,0,.28-151.43C58.86,25.35,25.62,58.77,25.19,101Z"/><path class="cls-2" d="M77.39,116c1.5,0,3,0,4.51,0,3,0,3.65.67,3.75,3.61a15.86,15.86,0,0,0,.15,2.06c1,6,5,9.64,11.62,10.37a24.26,24.26,0,0,0,9.87-.71c4-1.24,7.07-3.58,7.85-8,.87-4.86-1-8.59-5.15-11.14a45.72,45.72,0,0,0-11-4.68c-6.46-1.89-12.68-4.3-18-8.54-5.68-4.5-8.4-10.36-8.61-17.57-.19-6.68,1.46-12.65,6.09-17.6a25,25,0,0,1,13.76-7.56c2.06-.4,2.65-1.29,2.52-3.27a71.29,71.29,0,0,1,0-7.32c.1-2.42,1-3.23,3.4-3.27s5.14,0,7.7,0c2.18,0,2.73.61,2.76,2.85,0,2.88.08,5.76,0,8.64,0,1.42.55,2,1.85,2.28,12.73,3.13,20.06,11.86,21.09,25,.31,4-.45,4.81-4.39,4.83-2.94,0-5.89,0-8.83,0s-3.7-.89-3.74-3.74a13.87,13.87,0,0,0-3.17-9c-3.31-3.93-7.73-4.5-12.49-3.86-3.79.51-7.12,1.83-8.67,5.66-2.06,5.09-1.34,10.74,3.93,14,4.54,2.81,9.62,4.19,14.59,5.87a53,53,0,0,1,14.12,6.9c7.7,5.51,10.16,13.2,9.24,22.22-1.2,11.73-9.61,18.47-20.55,21-3.74.86-3.75.79-3.75,4.62,0,1.57,0,3.14-.07,4.69-.13,2-.84,2.69-2.83,2.73-2.88,0-5.76.06-8.64,0-2.33-.06-3.14-.94-3.18-3.24,0-1.94-.1-3.89,0-5.82.1-1.63-.48-2.3-2.12-2.61a31.16,31.16,0,0,1-13-5.65,22.07,22.07,0,0,1-8.61-14.67,28.27,28.27,0,0,1-.39-6.17c.1-1.93.85-2.74,2.78-2.82s3.76,0,5.64,0Z"/></g></svg>