<svg id="Camada_1" data-name="Camada 1" xmlns="http://www.w3.org/2000/svg" xmlns:xlink="http://www.w3.org/1999/xlink" viewBox="0 0 200 200"><defs><style>.cls-1{fill:url(#Gradiente_sem_nome_11);}.cls-2{fill:url(#Gradiente_sem_nome_11-2);}</style><linearGradient id="Gradiente_sem_nome_11" x1="5.13" y1="99.74" x2="196.07" y2="99.74" gradientUnits="userSpaceOnUse"><stop offset="0.26" stop-color="#ab0373"/><stop offset="1" stop-color="#290a59"/></linearGradient><linearGradient id="Gradiente_sem_nome_11-2" x1="90.45" y1="75.01" x2="145.73" y2="75.01" xlink:href="#Gradiente_sem_nome_11"/></defs><title>icon-clock</title><g id="V6S0wJ.tif"><path class="cls-1" d="M5.13,99.66C5,47.16,48.09,4,101,4.25c52.24.2,95.2,43.17,95.08,95.41-.12,52.87-43.1,95.72-95.84,95.56A95.57,95.57,0,0,1,5.13,99.66Zm20.65,0c-.29,40.16,32.16,74,73.16,74.87A74.83,74.83,0,0,0,102.7,24.92C60,23.76,25.55,58.38,25.79,99.66Z"/><path class="cls-2" d="M90.47,73.71q0-14.18,0-28.35c0-4.08,2.11-6.51,5.63-6.53,3.73,0,6,2.35,6,6.47q.06,23.56,0,47.11c0,3.27,0,3.25,3.29,3.25,10.66,0,21.32,0,32,0,5.91,0,9.66,5.07,7.85,10.38-1.08,3.16-3.87,5.07-7.6,5.08-10.94,0-21.89,0-32.83,0-2.06,0-4.12,0-6.18,0a8,8,0,0,1-8.19-8.26c0-9.74,0-19.47,0-29.21Z"/></g></svg>