<svg id="Camada_1" data-name="Camada 1" xmlns="http://www.w3.org/2000/svg" viewBox="0 0 1016 457"><defs><style>.cls-1{fill:#fdfafb;}.cls-2{fill:#fd352b;}.cls-3{fill:#3cbfaf;}.cls-4{fill:#3dbfb0;}.cls-5{fill:#41c0b1;}.cls-6{fill:#fff;}.cls-7{fill:#b4002a;}.cls-8{fill:#cd0029;}.cls-9{fill:#35bdad;}.cls-10{fill:#fdfdfd;}</style></defs><title>instagram-ads</title><g id="xBDpxt.tif"><path class="cls-1" d="M813,1.69q0-.34,0-.69H977q0,.36,0,.72Z"/><path class="cls-2" d="M813,1.69l164,0c7.56,1.46,10,3.51,10.22,11.13.48,14,.35,28,.42,42q.07,15.74,0,31.48a41,41,0,0,1-.74,7.93c-1.11,5.39-4.12,7.9-9.66,8.16-19.64.92-39.3.32-58.95.3-4.07,0-6.93.74-9,4.52-2.31,4.22-5.2,8.11-7.78,12.19-2.9,4.58-4.35,4.68-7.47.13s-6.14-9.11-9-13.78a5.93,5.93,0,0,0-5.73-3c-21,.1-42,.07-63,.11-8.71,0-11.49-2.34-11.55-11.13-.17-26.81-.06-53.63-.12-80.44C804.63,5.49,807.95,2.88,813,1.69Zm83.16,33.52c-1.36-1.8-2.44-3.45-3.72-4.92-6.48-7.37-17.27-6.75-22.69,1.42-3.14,4.74-4.54,10.07-3.26,15.71,3.56,15.73,14.31,25.44,27.84,32.76A3.66,3.66,0,0,0,898.1,80c11.85-6.48,21.74-14.77,26.31-28.09,2-5.91,2.3-11.75-.39-17.5C918.92,23.59,907,22,899.3,31.13,898.27,32.37,897.33,33.68,896.15,35.21Z"/><path class="cls-3" d="M823.11,154.84a81.65,81.65,0,0,1-8.56-.05c-5.18-.59-7.86,1.67-9.63,6.49q-18,49.22-36.38,98.29c-.66,1.77-.33,5.82-3.82,4.35-2.82-1.19-4.68-3.84-3.19-7.77,6-15.87,11.77-31.83,17.66-47.74,6.47-17.47,13.08-34.9,19.39-52.43,1.62-4.51,4.29-6.56,8.92-6C812.72,150.58,818.71,148.48,823.11,154.84Z"/><path class="cls-3" d="M567.88,141c3,.42,6.64-1,9.6,1.8.71.68,1.74,1.17,1.29,2.37-.38,1-1.4.63-2.17.72-4.34.47-9.35-1.8-12.84,2.08-2.94,3.26-3.2,7.94-4.51,12-9.88,30.88-19.61,61.8-29.49,92.67-.52,1.63-.13,4.68-3.08,4.31s-3.09-3.07-3.17-5.45a29.14,29.14,0,0,1,1.61-9.8q14.52-45.62,29-91.26C557.17,140.87,557.18,140.87,567.88,141Z"/><path class="cls-4" d="M911.7,162.17c-12.45-1.91-23.66-2.47-34.85-3.35-6.84-.53-8.52,1.07-9.05,7.84q-3.92,49.78-7.92,99.56c-.11,1.37.52,3.36-1.52,3.74-2.31.43-3.08-1.41-3.72-3.23-2.45-6.91-.67-13.89-.17-20.79,2.05-28.22,4.42-56.42,6.63-84.63.46-5.84,2.65-7.86,8.61-7.42,9,.66,17.92,1.27,26.86,2.15A27.69,27.69,0,0,1,911.7,162.17Z"/><path class="cls-3" d="M326.71,145.31c.33,1.83,0,2.37-.74,2.48a13.57,13.57,0,0,1-2.49.15c-14.41-.54-12.61,3-15.14,12.36-8.62,32-17,64-25.6,95.95-.48,1.77.13,5.84-3.59,4.43-2.32-.88-4.65-2.92-3.64-6.68,9.42-35,18.68-70.07,28-105.1a8,8,0,0,1,1.48-3.08c3-3.47,17.21-4,20.71-1C326.22,145.27,326.95,145.42,326.71,145.31Z"/><path class="cls-4" d="M145.15,289c2.76,0,5.7-.94,8,1.55.65.71,1.83,1.16,1.49,2.34s-1.62.91-2.55,1c-13.78,1-27.56,2.08-41.34,3-6.54.44-8.16,2.06-7.67,8.71q3.23,43.58,6.56,87.15a10.61,10.61,0,0,1,.15,3c-.38,1.69,1.71,4.68-1.33,4.84a5,5,0,0,1-4.94-4.75c-.51-5-.83-10-1.19-14.93q-3-40.84-6-81.69c-.3-4.11,2.12-6.8,6.46-7.13C116.92,291.06,131,290.06,145.15,289Z"/><path class="cls-3" d="M502.57,148.67c-13.46-2.73-27.06-3.09-40.7-3-7.51,0-8.93,1.43-8.88,9.1.19,32.32.43,64.63.51,96.95,0,1.78,1.66,5.24-1.69,5.16-2.7-.06-4.86-2.41-4.85-5.88q0-20.24-.12-40.48c-.15-20-.37-40-.56-60-.08-8.28,1.37-9.68,9.9-9.71,12.66,0,25.32.06,37.71,3.18C497,144.81,500.29,145.6,502.57,148.67Z"/><path class="cls-3" d="M816.22,287.14c2.94.48,6.66-.55,9.56,2.16.58.54,1.43,1,1.12,2s-1.41.91-2.1.74c-10.3-2.5-12.86,4.31-15.63,12.07-10.07,28.19-20.56,56.24-31,84.31-.65,1.76-.47,5.15-3.75,3.93-2.51-.94-3.48-2.69-2.49-6.22,8.79-31.26,22.06-60.91,32.55-91.56C807.07,287.14,807.78,286.79,816.22,287.14Z"/><path class="cls-3" d="M562.68,287.35c-13.12-3.25-25.23-3.66-37.35-4.07-7-.23-8.77,1.22-8.83,8-.24,29.81-.4,59.61-.7,89.42,0,1.65,1.44,4.75-1.66,4.75-2.39,0-4.48-2-5-4.79a11,11,0,0,1,0-2q.4-47,.76-93.91c0-3.95,2.17-6.28,5.59-6.29,13.64,0,27.3.2,40.52,4.27C559,283.68,559.06,283.87,562.68,287.35Z"/><path class="cls-4" d="M909.52,298.47c-11.15-2.4-22.53-1.69-33.7-3.15-4.66-.61-6.28,2.82-6.59,6.91-1.09,14.43-2.14,28.86-3.23,43.29-1.23,16.25-2.47,32.51-3.8,48.75-.1,1.24.73,3.35-1.59,3.57-2.11.2-2.85-1.5-3.25-3.15-.74-3.06-1.6-6.08-1.35-9.33q3.49-44.52,6.86-89.05c.34-4.48,3-6.12,7-5.9q12.17.69,24.32,1.86A26.65,26.65,0,0,1,909.52,298.47Z"/><path class="cls-4" d="M316.61,291.74c-8.87-3.27-17.92-5-27.33-4-22.48,2.42-41.69,15-42.29,43.56-.32,15.21-.39,30.34,6.88,44.38.24.46,1,1.3,0,2.22-6-4.52-9.07-10.81-10.78-17.81A102.14,102.14,0,0,1,241.62,317c3.35-18.24,18.24-31.33,37.69-33.9a55.12,55.12,0,0,1,30.26,4.11C312.11,288.32,314.64,289.51,316.61,291.74Z"/><path class="cls-4" d="M67.52,304.06c-12.43-2.93-24.67.31-37,.88-4.92.23-6.89,2.44-6.47,7.31,2.08,23.86,4.26,47.71,6.39,71.56.56,6.3,1.17,12.59,1.52,18.9.09,1.57,1.72,4.36-.88,4.61A4.86,4.86,0,0,1,26,402.83c-.34-2.64-.61-5.29-.84-7.94q-3.87-43.49-7.73-87c-.44-5,1.54-7.47,6.47-7.91,6.62-.6,13.24-1.19,19.85-1.83,7.58-.73,15-.29,21.82,3.47C66.41,302.1,67.59,302.24,67.52,304.06Z"/><path class="cls-4" d="M702.8,377.55c-7.48-4.57-11-11.75-12.37-20a105.18,105.18,0,0,1,3-46.95c2.93-10.1,9.74-16.9,18.86-21.53,15.74-8,31.66-8,47.62-.62,1,.45,2.33.61,2.71,2.52-4.15-.83-8.07-1.78-12-2.37-15.56-2.29-29.38,1.82-41.39,11.84-5,4.2-7.72,10-9.48,16.14a109,109,0,0,0-3.08,43A43.41,43.41,0,0,0,702.8,377.55Z"/><path class="cls-4" d="M383.42,249.53c-7.16-5.78-11.82-13.2-13.15-22.25-2.76-18.87-3.42-37.85-.17-56.72,4.24-24.63,31-37.17,51.05-24.19A16,16,0,0,1,423,148l.07-.06c-5.73-.74-11.29-2.67-17.24-1.67-15.5,2.6-27.46,14.81-29.61,31.56a202.06,202.06,0,0,0,.57,53.79c.91,6.5,4.1,11.86,7.35,17.27A7.85,7.85,0,0,0,383.42,249.53Z"/><path class="cls-4" d="M642.87,146.87h-9.37c-5.08,0-7.32,2.12-7.48,7q-1.59,49.94-3.24,99.88c-.06,1.62,1,4.42-1.4,4.64-2.62.24-4.35-2.2-5.21-4.57-.48-1.32-.13-3-.08-4.46q1.62-49.69,3.26-99.38c.21-6.18,2.36-8.31,8.69-8C633.09,142.32,639,140.24,642.87,146.87Z"/><path class="cls-4" d="M945.9,398.11c-9-6.76-12.53-16.08-12.55-27,0-16.54,1.33-33,6-48.89,6.54-22.37,33.75-31.15,53.12-16-7.5-2.34-13.77-3.82-20.28-2.38-12.17,2.69-21.75,8.86-25.5,21.24a148.58,148.58,0,0,0-5.9,58.7c.54,5.22,3.27,9.34,5.8,13.63A4.51,4.51,0,0,0,945.9,398.11Z"/><path class="cls-4" d="M17.29,159.93c1.22.06,2.51-.18,3.51.25,1.64.71,3.93,1.74,3.86,3.49-.09,2.33-2.62,1.07-4.06,1.39-1.78.4-3.62.51-5.43.73-4.69.58-6.75,2.87-6.34,7.59,1.45,16.73,3,33.45,4.53,50.16s3.17,33.43,4.54,50.16c.13,1.56,2,4.73-.89,4.84a5.31,5.31,0,0,1-5.1-5.15c-.42-5.3-1.12-10.58-1.62-15.87q-4-43.2-8-86.4c-.72-7.78.59-9.46,8.16-10.43C12.71,160.41,15,160.18,17.29,159.93Z"/><path class="cls-4" d="M62,163c-3.36,1.27-6.39.78-9.32,1.08-5,.51-7.21,2.79-6.83,7.79q2.66,35.1,5.48,70.19c.79,10,1.71,19.9,2.49,29.86.09,1.18.91,2.86-.81,3.49-1.17.43-2.1-.72-3.07-1.33a5.9,5.9,0,0,1-2.73-5Q43.64,223.54,40,178c-.29-3.65-.47-7.32-1-10.94-.41-2.87.8-4.82,2.85-6.45,3.45-2.73,16-2.22,19.2.75A7.61,7.61,0,0,1,62,163Z"/><path class="cls-3" d="M342.19,379.13c-5.91-4-10.08-9.16-11.48-16.19-3.94-19.8-4.57-39.76-.43-59.51,4.19-20,32.32-32.25,50.86-17.58-5.41-.47-10-2.08-15-1.64-13.76,1.25-28.77,12.43-30.6,29.41a197,197,0,0,0,.69,49.77A35.26,35.26,0,0,0,342.19,379.13Z"/><path class="cls-3" d="M680.14,283.93c-3.28,0-5.91,0-8.55,0-4.15,0-6.48,1.88-6.61,6.28q-1.41,46.21-3,92.41c-.06,1.73,1.73,5.17-1.72,5.11-2.86,0-5-2.43-4.9-5.83.12-3.16.41-6.32.5-9.48.77-26.65,1.71-53.29,2.2-79.94.24-13.24,1.15-14,14.37-13.33C676.67,279.37,676.68,279.31,680.14,283.93Z"/><path class="cls-4" d="M605.95,283.5h-7.59c-5.31,0-7.26,1.82-7.37,7-.65,30.31-1.28,60.62-2,90.92,0,1.59,1.51,4.63-1.88,4.58-2.44,0-4.12-2-4.68-4.49a14.75,14.75,0,0,1,0-3.49q.94-45.71,1.9-91.42c.13-6.4,2.12-8.51,8.5-8C597.25,278.93,602.72,277,605.95,283.5Z"/><path class="cls-4" d="M431.76,283.63c-3.43,0-6.07-.06-8.7,0-5.4.15-7.14,1.9-7.09,7.28.28,29.66.65,59.32.79,89,0,2,2.12,5.95-1.82,6-3.47,0-4.83-3.19-4.83-6.88q0-28.75-.29-57.5c-.1-11.83-.39-23.66-.54-35.49-.06-5,1.69-7.06,6.69-7.22C421.39,278.61,427.45,276.61,431.76,283.63Z"/><path class="cls-4" d="M222.45,215.92c-.67-13.31-1.3-26.62-2.05-39.93-.14-2.5.52-3.63,3.2-3.81,2.86-.19,3.25,1.19,3.36,3.55,1.27,27.46,2.65,54.91,3.9,82.37.08,1.79,1.25,5-1,5.16-2.71.17-5.27-2-5.46-5.41-.45-8.15-.91-16.3-1.17-24.46-.18-5.82,0-11.64,0-17.46Z"/><path class="cls-3" d="M904.24,183.34c4.73,2.79,8.38,6.37,8.69,12a169.7,169.7,0,0,1-4,48.56c-2.33,9.92-14.53,15.24-23.63,10.85A2.18,2.18,0,0,1,884,252.3c0-1.55.93-1.76,2.28-1.91,12.58-1.46,14.74-3.2,17-15.9,2.58-14.41,4.23-28.95,3.05-43.66A22.38,22.38,0,0,0,904.24,183.34Z"/><path class="cls-3" d="M178.84,157.27a46.15,46.15,0,0,0-20-.49c-14.74,3.08-22.93,11.76-24.46,26.69-.83,8.13.38,16.15,3,25.27-12.38-9.75-9.73-22.28-9.12-33.81.57-10.83,10-19.79,22.29-22.64C160.65,150,170.36,150.38,178.84,157.27Z"/><path class="cls-4" d="M997.57,170.8c-3-.61-6-1.54-9-1.77-20.87-1.55-35.11,7.23-36.53,30.77-.38,6.25-1.06,12.55,2.57,19.3-9.65-5.74-10.16-13.92-9.38-22.63,1.21-13.59,4.72-25.73,19.57-30.54C976.44,162.16,987.47,163.24,997.57,170.8Z"/><path class="cls-3" d="M694.95,182.21c0,7.24.17,14,0,20.8q-.79,26.47-1.93,52.92c-.07,1.63,1.51,4.62-1.56,4.8-2.4.14-3.86-2.29-4.9-4.4a5.57,5.57,0,0,1-.12-2.47c.7-21,1.53-41.94,2-62.92C688.53,186.16,691.78,184.54,694.95,182.21Z"/><path class="cls-3" d="M903,318a13.15,13.15,0,0,1,8,11.61,158,158,0,0,1-3.28,43.08c-2.08,10-11.72,14.7-21.75,11.16-1.14-.4-1.66-1-1.56-2.14s.66-1.93,2.1-2.24c12.36-2.67,13.53-4.13,15.67-16.67,1.54-9,1.88-18.17,2.67-27.26a51,51,0,0,0-1.8-17.63Z"/><path class="cls-4" d="M965.41,387.27c9.24-.89,13.64-4.53,15.58-13.25a178,178,0,0,0,4.07-41.63,20.9,20.9,0,0,0-2-7.67c5.18,1.68,8.22,6.14,8.73,12.74.56,7.35-.42,14.65-1.1,21.92-.7,7.6-1.45,15.27-3.91,22.57C983.35,392,972.44,394.82,965.41,387.27Z"/><path class="cls-4" d="M218.54,293.37c-10.73-2.51-20.87-1.77-30.29,4.26-5.88,3.76-9.8,8.85-10.71,16-1.12,8.82-.83,17.5,2.58,26.79-10.55-6.2-9.48-15.95-9.78-25-.4-12.12,5.17-20.8,16.43-25.37C197.85,285.6,208.62,286.09,218.54,293.37Z"/><path class="cls-3" d="M374.46,305.75c4,1.54,6.62,4.18,7.33,7.78a140.32,140.32,0,0,1,.85,49.06c-.81,5.23-5.05,8.59-10.12,10.05-4.42,1.28-7.92-.89-11.35-4.06,11.13-1.66,15.16-6.12,15.94-17.08a187.75,187.75,0,0,0-1-38.79C375.78,310.52,375.08,308.38,374.46,305.75Z"/><path class="cls-4" d="M62.18,323.93c4.3,2.11,6.85,5.13,7.76,9.4a167.29,167.29,0,0,1,3.72,42.58c-.48,10.32-9.07,16.5-19.51,14.83-1.81-.29-2.06-1.29-2.14-2.72s.18-2.36,1.91-2.87C65.35,381.78,67,379.53,67.1,367.7,67.18,353.07,66,338.57,62.18,323.93Z"/><path class="cls-4" d="M267.15,149.3c-9.3.5-17.05,1-24.82,1.33q-16,.75-31.91,1.39c-6.22.25-8.15,2.35-7.81,8.7a8.7,8.7,0,0,1,.08,2.48c-.43,1.7,1.67,4.68-1.26,4.91a5.16,5.16,0,0,1-5.13-4.59,51.36,51.36,0,0,1-.29-11,5.69,5.69,0,0,1,5.68-5.28c19.27-1,38.55-1.9,57.82-2.85C262.64,144.26,264.08,146.54,267.15,149.3Z"/><path class="cls-4" d="M110.51,159.52c-4.07.34-7.19.5-10.29.89-4.51.56-6.74,3-6.34,7.75,1.25,14.76,2.39,29.52,3.57,44.28l.62,7.71c-4.11-6.32-7.5-11.14-7.87-17.7-.71-12.79-2-25.54-3-38.32-.45-5.8,1.58-8.5,7.47-8.69,4.74-.15,10-2.69,14.16,1.76A26.94,26.94,0,0,1,110.51,159.52Z"/><path class="cls-3" d="M481.83,314.16c0,22.26,0,44.51-.06,66.77,0,1.59,1.2,4.28-1.39,4.57-2.41.27-4.26-1.78-5.08-4-.48-1.34-.2-3-.21-4.45-.18-17.78-.13-35.56-.65-53.33C474.29,318.62,476.9,316.25,481.83,314.16Z"/><path class="cls-3" d="M712.81,148.65c-.42.39-.56.6-.64.58-9.21-2.13-15.79,2.41-22.09,8.29-4.86,4.54-10.39,8.37-15.27,12.9-3.25,3-4.51.21-6.43-1.37-2.73-2.25-.41-3.34,1-4.54,7.31-6.07,14.61-12.14,22-18.11C696.42,142.33,708.3,143.58,712.81,148.65Z"/><path class="cls-3" d="M495.68,282.47c-10.55-1.41-16.79,4.7-23.06,10.95-3.53,3.52-7.55,6.56-11.07,10.08-3,3-4.56.33-6.53-1.23-2.8-2.23-.3-3.35,1-4.54,6.52-5.94,13-11.9,19.68-17.7C480.26,276,491.74,277.27,495.68,282.47Z"/><path class="cls-5" d="M491.06,211.77c5.44,1.73,7.67,5.37,7.8,9.9.31,10.82.17,21.66.17,32.49,0,.91.43,2.11-.78,2.62s-1.84-.33-2.66-.91a7.48,7.48,0,0,1-3.27-6.81c.12-8.49,0-17-.08-25.49C492.21,219.78,492.7,216,491.06,211.77Z"/><path class="cls-4" d="M436.51,204.11c-9,0-17.08,0-25.16,0-5.94,0-8.2,2.54-8.38,8.46-.05,1.73,1.34,4.79-1.22,5-2.26.16-4.44-2.13-5.13-4.72-2.43-9.12,1-13.5,10.55-13.62,7-.09,14,0,20.92-.28C431.61,198.79,434.18,199.8,436.51,204.11Z"/><path class="cls-5" d="M946,270.66c-8.09-5.75-12.72-19.65-9.49-28.06.84-2.19,2.89-3.2,4.64-4.36,4.26-2.82,14.85-.16,17.46,4.43-4.5.23-9.24-2.25-13.18,1.95-1.46,1.56-2.47,2.82-2.52,5-.14,6.5-.46,13,2.87,19A6,6,0,0,1,946,270.66Z"/><path class="cls-4" d="M967.14,259.74c1.21-1,2.11-.34,3-.18,5.62,1,8.62-1,9.78-6.43a76.68,76.68,0,0,0,1.61-17.37c-.06-3,1.08-3,3.2-1.78s3.33,2.55,3.36,5.08c.09,6.52-.13,13-1.73,19.35-1.33,5.27-4.72,7.27-10.07,5.9C973,263.47,969.71,262.38,967.14,259.74Z"/><path class="cls-5" d="M573.84,182.36c3.36,11.6,6.59,22.74,9.83,33.89.47,1.63.08,2.6-1.79,2.58-5.83-.08-11.66-.14-17.49-.24-1,0-2.24-.09-1.92-1.53s.41-3.15,2.51-3.16c2.5,0,5-.17,7.49.06,3.94.37,5.57-.48,3.91-4.85-1.59-4.18-2.17-8.75-3.82-12.9C570.7,191.48,571.14,187.23,573.84,182.36Z"/><path class="cls-5" d="M815.94,191.59c2.81,11.75,5.38,22.56,8,33.36.57,2.36-.16,3.38-2.73,3.17-5.14-.42-10.29-.62-15.43-1-1.15-.09-3,.42-2.67-1.84.25-1.79,1.36-2.49,3.16-2.39,2.82.16,5.66.12,8.48.35,2.41.2,3.3-.29,2.56-3-1.36-5-2-10.12-3.6-15C812.17,200.51,813,196.45,815.94,191.59Z"/><path class="cls-5" d="M323.35,184.62c4,11.67,7.64,22.45,11.33,33.23.87,2.55-.66,2.8-2.53,2.84-5.14.11-10.29.29-15.43.29-1.08,0-3.08.95-3-1.22,0-1.66.18-3.82,2.9-3.77,2.49,0,5-.19,7.47-.09,3.58.13,4.87-.92,3.38-4.67-1.89-4.77-3.1-9.81-5-14.55C320.81,192.84,321,189.36,323.35,184.62Z"/><path class="cls-5" d="M158.2,247.17h4.47c5.84,0,8.2-2.25,8.4-8a84.64,84.64,0,0,0-1.23-18.6c4.41.1,6.32,2.34,6.83,6a84.71,84.71,0,0,1,1.14,17.36c-.38,5.87-3.08,8.29-9,8.15C163.75,251.94,160.77,250.67,158.2,247.17Z"/><path class="cls-3" d="M149.52,233.52c-2.53.16-4.79.33-7,.43-6.77.3-10,4.29-9,11a43.14,43.14,0,0,0,4.89,15.65c-5.82-3.17-8.41-7.16-9.73-12-.78-2.86-.84-5.93-1.75-8.73-1.52-4.67,1.36-7.27,4.3-9.62C135.18,227,145.82,228.9,149.52,233.52Z"/><path class="cls-5" d="M821.72,325.77c2.61,10.92,4.93,20.92,7.42,30.87.62,2.5.08,3.3-2.51,3.07-4.62-.4-9.27-.55-13.9-.92-1.09-.09-3.05.7-2.86-1.57.15-1.74.9-3.24,3.12-3.05,1,.08,2,.09,3,.16,7.16.47,6.92.52,5.49-6.81-1.23-6.32-4.94-12.58-1.18-19.23Z"/><path class="cls-4" d="M209.09,351.48c4.69.33,6.48,2.8,6.91,6.81a93.44,93.44,0,0,1,.79,15.4c-.22,3.85-2.18,6.34-5.9,6.94a14.05,14.05,0,0,1-11.25-2.79c-1.36-1.09-.17-1.74,1.3-2,8.91-1.3,9.15-1.67,9.2-10.57A86.32,86.32,0,0,0,209.09,351.48Z"/><path class="cls-4" d="M179.28,388.16c-8.6-5.9-9.84-14.24-10.07-22.78-.07-2.73,2.78-4.55,5-5.8,4.17-2.34,12.67-.38,16.37,3.51-2,1.16-4.21.72-6.25.83-6.07.33-8.73,3.43-8.44,9.58C176.14,378.34,178.2,382.76,179.28,388.16Z"/><path class="cls-4" d="M493.59,168.47c4.69,3.11,8.26,5.66,7.52,10.48-.82,5.34-5,8.22-9.76,9.53-3.94,1.09-8.18,1.09-12.3,1.49-1.47.14-3,.32-3.07-2.06-.05-2,.51-2.9,2.65-3.24,3.7-.59,7.58-.55,10.79-3.19C493.24,178.34,496.12,175,493.59,168.47Z"/><path class="cls-5" d="M403.08,239.36c9.31-2.27,12-5.18,13-14.51.22-1.93.94-2.72,2.76-2.58,1.52.11,3.75-.75,3.9,1.79.34,5.77,1,11.54-4.18,16.1S408.7,244.86,403.08,239.36Z"/><path class="cls-4" d="M553.63,305c4,2.31,7.29,4.76,6.85,9.09-.49,4.81-4.32,7.31-8.52,8.88-3.8,1.42-7.92.83-11.87,1.4-1.71.25-2.93,0-2.95-2.19,0-2,.51-3.14,2.75-3.2a21.91,21.91,0,0,0,4.92-.76C551.32,316.54,554.44,312,553.63,305Z"/><path class="cls-5" d="M102,271c-6.13-1.59-29-40.54-28.82-48.4Z"/><path class="cls-5" d="M645.9,372.08h-33.1c-1.58,0-2.48-.55-2.47-2.31,0-2,1.09-2.51,2.87-2.46,9.13.26,18.26.47,27.39.7C643.28,368.08,644.58,369.94,645.9,372.08Z"/><path class="cls-4" d="M312.81,365.65c-10.81,7.08-21.67,9.34-33.89,1.5,2.89,0,4.92-.11,6.94,0a26.45,26.45,0,0,0,15.74-3.74C306.37,360.59,308.89,361.15,312.81,365.65Z"/><path class="cls-5" d="M153,378c2-.25,5.18-.49,7.55,2.32,1.16,1.37,1.16,2.45-.94,2.61-8.92.69-17.85,1.32-26.77,2-1.94.15-2.56-.77-2.73-2.6-.22-2.31,1-2.85,2.89-3C139.25,378.92,145.53,378.47,153,378Z"/><path class="cls-5" d="M727.59,367.21a32.53,32.53,0,0,0,23.12-3.09c1.64-.89,4-.46,5.76.63a5,5,0,0,1,2.12,2.67c.43,1.76-1.51,1.32-2.37,1.81C746.39,374.72,736.87,373.93,727.59,367.21Z"/><path class="cls-5" d="M132.85,334c-1.49,0-3,0-4.47,0-1.92,0-1.87-1.48-2-2.8s.32-2.21,1.83-2.33c6.44-.51,12.87-1.07,19.32-1.54,1.45-.11,2.35,1.11,3.37,1.92.76.6,1.89,1.23,1.46,2.33s-1.63,1-2.62,1.07l-16.86,1.16Z"/><path class="cls-5" d="M834.2,268.66c-4.12-.75-6.14-2.63-6.91-5.84s-1.64-6.43-2.17-9.7c-.19-1.15-1.94-3.13.59-3.61,1.84-.34,4-.36,4.58,2.47C831.41,257.31,832.76,262.57,834.2,268.66Z"/><path class="cls-5" d="M595.51,258.19c-3.88-.9-5.93-2.32-6.68-5.49s-1.93-6.34-2.69-9.56c-.23-1-1.75-2.71.61-3.12,1.52-.26,3.51-.73,4.15,1.53C592.42,246.88,593.86,252.23,595.51,258.19Z"/><path class="cls-5" d="M348.56,259.09c-7.32-1.64-7.39-7.16-8.71-11.53-.56-1.86-4-4.7-.25-6.15s3.8,2.56,4.63,4.84C345.68,250.25,347,254.31,348.56,259.09Z"/><path class="cls-5" d="M831.32,379.15c2-.07,3.35.32,3.78,2.49.73,3.71,1.8,7.35,2.64,11,.24,1.06.9,2.47-.31,3.16s-2.59-.31-3.46-1.25c-3.68-4-3.11-9.5-4.55-14.28C829,378.92,830.67,379.24,831.32,379.15Z"/><path class="cls-5" d="M184.22,202.79c-12.42-.61-22.13-3.33-24.87-7C166.69,194.64,180.48,198.51,184.22,202.79Z"/><path class="cls-5" d="M223.5,335.9c-6.5-1.28-12.84-2.45-19.13-3.83-1.81-.4-4.64-.87-4-3.36.41-1.55,2.92-.36,4.46-.12,4.92.79,9.89,1.53,14.44,3.69C220.86,333,222.65,333.77,223.5,335.9Z"/><path class="cls-5" d="M994.35,215.92c-6.15-1.89-12.76-2.56-18.44-7.27C981.54,208.84,990.8,212.33,994.35,215.92Z"/><path class="cls-5" d="M413.43,165.59c4,1.58,6.25,3.83,6.5,8.39C416.27,172,413.61,170.09,413.43,165.59Z"/><path class="cls-5" d="M654,186c3.52,1.84,5.46,5.3,8.18,8-2.59-2.79-6.6-4.15-8.11-8Z"/><path class="cls-5" d="M986.18,189.67c3.77.18,6,2,6.39,6.38C989.16,194.65,987.72,192.14,986.18,189.67Z"/><path class="cls-4" d="M946.57,397.43c.58.51,1.69,1.11,1,1.83-.53.52-1.25-.47-1.62-1.14A4.51,4.51,0,0,1,946.57,397.43Z"/><path class="cls-5" d="M650,182c-.67.38-1.14,0-1.5-.47-.08-.11.11-.42.17-.64L650,182Z"/><path class="cls-4" d="M384.14,248.88c.69.33,1.11,1.06.55,1.51-.72.58-.87-.5-1.28-.86A8.12,8.12,0,0,1,384.14,248.88Z"/><path class="cls-4" d="M423,148a2,2,0,0,1,.39.24c.05.05,0,.18,0,.28l-.37-.58Z"/><path class="cls-5" d="M650,182l1,1L651,183c-.76.1-1.13-.2-1-1Z"/><path class="cls-5" d="M651,183l1,1L652,184c-.76.09-1.12-.21-1-1Z"/><path class="cls-3" d="M903.06,317.94l-.59-.26c.09,0,.23-.05.27,0a1.79,1.79,0,0,1,.24.37Z"/><path class="cls-5" d="M652,184l1,1L653,185c-.75.08-1.11-.22-1-1Z"/><path class="cls-5" d="M653,185a1,1,0,0,1,1,1L654,186c-.74.07-1.1-.23-1-1Z"/><path class="cls-1" d="M896.15,35.21c1.18-1.53,2.11-2.84,3.15-4.08C907,22,918.92,23.59,924,34.45c2.69,5.75,2.42,11.58.39,17.5C919.84,65.27,909.95,73.56,898.1,80a3.66,3.66,0,0,1-3.78.15c-13.53-7.32-24.28-17-27.84-32.76-1.28-5.65.12-11,3.26-15.71,5.42-8.17,16.2-8.79,22.69-1.42C893.72,31.76,894.79,33.41,896.15,35.21Z"/></g><g id="AZpGHs.tif"><path class="cls-6" d="M883.15,441.33c0-.2,0-.41,0-.61V419.58a6.63,6.63,0,0,1,6-7.07c.34-.07.72,0,1-.24h4.41c.24.25.56.1.84.17s.41.12.41.46c0,1.89,0,3.79,0,5.69,0,.32-.1.42-.42.41-.67,0-1.35,0-2,0a2.42,2.42,0,0,0-2.59,2.67c0,.52-.24,1.21.12,1.51s1,.09,1.47.09c1,0,2,0,2.94,0,.42,0,.52.13.49.51a14.06,14.06,0,0,1-.08,2.13,3.91,3.91,0,0,1-4.05,3.09c-.64,0-.77.16-.77.79,0,7.23,0,14.47,0,21.71,0,.65-.19.84-.77.73s-1,.21-1.51-.17c-.88-1.67-1.74-3.35-2.61-5Q884.54,444.21,883.15,441.33Z"/><path class="cls-6" d="M938.63,429.41c.68-4.15,2.94-6.88,7-7.91a22,22,0,0,1,12.64.45c3.72,1.24,5.52,3.9,5.52,7.81V440.1a15.18,15.18,0,0,1-.73,4.81,9.92,9.92,0,0,1-5.42,6.13,19.6,19.6,0,0,1-12.82,1.37c-4.7-1.09-7.37-5-7.08-9.82a8.69,8.69,0,0,1,6.33-8.28,24.59,24.59,0,0,1,2.7-.74c1.87-.42,3.8-.49,5.68-.84a7.72,7.72,0,0,0,2.15-.7,2.31,2.31,0,0,0,1.51-2.11,2.35,2.35,0,0,0-1.72-2.16,9.87,9.87,0,0,0-4.21-.46,6.47,6.47,0,0,0-2,.39,2.6,2.6,0,0,0-1.58,1.43c-.07.17-.14.3-.39.3Zm17.59,7.43a.34.34,0,0,0-.33,0,35,35,0,0,1-6.08,1.77,6.36,6.36,0,0,0-3.24,1.47,3.67,3.67,0,0,0-1,3.91,3.09,3.09,0,0,0,2.57,2.38,8.1,8.1,0,0,0,2.32,0,6,6,0,0,0,5.56-5A26.53,26.53,0,0,0,956.23,436.84Z"/><path class="cls-6" d="M988.68,430.12v-17c0-.45.07-.63.58-.61,1.1,0,2.2,0,3.3,0a3.86,3.86,0,0,1,3.9,3.82v4.5c0,.39.1.51.5.5,1.24,0,2.49,0,3.73,0,.39,0,.51.08.47.47,0,.59,0,1.19-.07,1.77a3.67,3.67,0,0,1-3.86,3.32c-.64,0-.79.17-.77.8,0,5.28,0,10.56,0,15.84,0,1.81.61,2.42,2.42,2.42h1.89c.3,0,.39.1.39.39v5.2c0,.29-.1.39-.39.39a40.24,40.24,0,0,1-8.23-.15c-2.42-.31-3.81-2-3.86-4.72,0-2.06,0-4.12,0-6.17Q988.68,435.5,988.68,430.12Z"/><path class="cls-6" d="M912.94,432.38q0-9.65,0-19.27c0-.47.1-.62.59-.61,1.16,0,2.32,0,3.47,0a3.8,3.8,0,0,1,3.74,3.55v35.48c0,.54-.11.71-.68.7-2.18,0-4.36,0-6.56,0-.47,0-.61-.11-.61-.6Q913,442,912.94,432.38Z"/><path class="cls-6" d="M967.5,443.4c0-2.63-.06-5.26,0-7.89a15.79,15.79,0,0,1,2.43-8.46,12.69,12.69,0,0,1,8.25-5.22,26.7,26.7,0,0,1,5.9-.5c.39,0,.42.15.42.46v7.16c0,.39-.1.47-.47.47a27.39,27.39,0,0,0-3.54.09,5.38,5.38,0,0,0-5,5.31c0,.49-.06,1-.06,1.47v15.36c0,.47-.1.62-.6.61-2.24,0-4.49,0-6.73,0-.47,0-.61-.1-.61-.59,0-2.75,0-5.51,0-8.26Z"/><path class="cls-6" d="M900.33,436.78V422c0-.62.18-.73.74-.71,1.22,0,2.45,0,3.67,0a3.16,3.16,0,0,1,3.4,3.17c0,.26,0,.53,0,.79V451.6c0,.5-.1.65-.63.64-2.2,0-4.41,0-6.61,0-.48,0-.61-.12-.61-.61C900.34,446.69,900.33,441.73,900.33,436.78Z"/><path class="cls-6" d="M926.26,436.82V421.89c0-.46.1-.58.56-.56,1.18,0,2.37,0,3.55,0,2.43,0,3.65,1.18,3.71,3.62v26.62c0,.51-.09.69-.65.68-2.18,0-4.36,0-6.56,0-.5,0-.64-.1-.64-.63C926.27,446.69,926.26,441.76,926.26,436.82Z"/><path class="cls-6" d="M904.25,418.62h-3.42c-.34,0-.51,0-.51-.45,0-1.75,0-3.5,0-5.26,0-.2,0-.41.29-.39a40.14,40.14,0,0,1,4.82.1,2.9,2.9,0,0,1,2.67,3c.07.89,0,1.79,0,2.7,0,.35-.17.34-.42.34C906.57,418.62,905.41,418.62,904.25,418.62Z"/><path class="cls-6" d="M930.14,418.62h-3.42c-.39,0-.47-.12-.47-.48v-5.2c0-.17-.12-.44.24-.43a41.66,41.66,0,0,1,4.76.08c1.87.25,2.75,1.39,2.81,3.39,0,.73,0,1.47,0,2.2,0,.36-.12.44-.46.44Z"/><g id="aMojFO.tif"><path class="cls-7" d="M854.13,413.39h8.1a20.64,20.64,0,0,1,2.09.2,9.7,9.7,0,0,1,2.12.57,9.29,9.29,0,0,1,3.54,2.62,16.82,16.82,0,0,1,1.39,1.93c.56.92,1,1.91,1.52,2.84.2.34.39.68.57,1s.39.77.56,1.16c.77,1.54,1.58,3.09,2.37,4.63s1.44,2.81,2.18,4.19q.73,1.37,1.44,2.74c.54,1,1.09,2.09,1.62,3.14.63,1.23,1.27,2.45,1.93,3.68l1.63,3.13c.66,1.25,1.34,2.49,2,3.76.47.94,1,1.85,1.44,2.81.05.12.21.2.17.36H873.6a.36.36,0,0,0,0-.1c-.56-1.16-1.13-2.28-1.7-3.41s-1.16-2.21-1.71-3.31S869,443,868.43,441.9l-3-5.79-1.65-3.27c-.52-1-1.05-2.08-1.54-3.14a12.59,12.59,0,0,1-.7-1.45c.06-.21-.12-.33-.2-.49-.39-.77-.77-1.5-1.16-2.27s-.84-1.69-1.27-2.53c-.3-.58-.65-1.13-.91-1.73s-.68-1.34-1-2-.77-1.54-1.18-2.32q-.84-1.61-1.65-3.21A.55.55,0,0,1,854.13,413.39Z"/><path class="cls-8" d="M854.13,413.39a.55.55,0,0,0,.09.28l1.65,3.23c.39.77.81,1.54,1.18,2.32s.7,1.33,1,2,.61,1.16.91,1.73c.43.84.87,1.68,1.27,2.53s.77,1.51,1.16,2.27c.08.16.25.27.2.49-.19-.15-.2,0-.26.14-.54,1.06-1.08,2.12-1.61,3.18q-1.16,2.27-2.27,4.55c-.54,1.07-1.06,2.15-1.6,3.22-.39.75-.77,1.49-1.16,2.25-.46,1-.94,1.91-1.42,2.86s-.95,1.88-1.43,2.82c-.39.77-.74,1.54-1.16,2.32s-.89,1.75-1.32,2.63H834.42c-.07,0-.24.11-.22-.1.16-.07.22-.22.29-.36l1.18-2.32c.57-1.11,1.14-2.21,1.7-3.33s1.12-2.29,1.71-3.42,1.07-2.11,1.61-3.16c.35-.7.71-1.4,1.08-2.1.49-.93.94-1.88,1.41-2.82.39-.74.77-1.48,1.13-2.21l.87-1.69L847,427l1.27-2.51,1.62-3.18,1.71-3.37c.49-1,1-1.91,1.46-2.86.26-.51.5-1,.77-1.54C853.92,413.45,854,413.31,854.13,413.39Z"/></g></g><g id="C1x6mK.tif"><path class="cls-6" d="M69.39,303.94c13.34,6.89,20.25,17.87,21.93,32.76,1.59,14.05,3.44,28,1.86,42.21C91.43,394.66,78,408,62.13,408.78c-7.94.37-15.75,1.93-23.68,2.11-.71,0-1.28.18-1.45,1H35c-.16-2.59-3.75-2.79-3.79-5.45q-2.38-28.29-4.77-56.58-1.66-19.36-3.45-38.7c-.36-3.88,1.06-7,5-7.19C41.75,303.12,55.59,299.28,69.39,303.94Zm-8.53,18.81c-4.3-3.43-9.27-1.5-14-1.64-2.07-.06-1.53,1.67-1.41,3q2.78,30,5.54,60c-.67,4.35.78,6.34,5.43,5a19.52,19.52,0,0,1,3.48-.25c6.67-.6,11.55-4.91,12.22-11.61,1.57-15.53-.31-30.87-3.62-46A11.5,11.5,0,0,0,60.85,322.75Z"/><path class="cls-6" d="M687.21,186.45,675.68,196c-3.53,2.93-7,2.72-10.58-.06-6-4.71-11.29-10.27-17-15.3-1.8.94-1,2.45-1.09,3.63q-1.2,35.17-2.29,70.35c-.2,6.22-2.4,8.44-8.61,7.94-5.18-.42-11.31,1.56-14.65-4.74q1.74-52.13,3.47-104.27c.2-6,2.11-7.9,8.18-7.83,3,0,6,0,9,0,2.44,0,3.81,1.85,5.37,3.3q9.16,8.44,18.29,16.91c5,5.74,5,5.73,10.57,1,4-3.3,8.19-6.3,11.84-9.9,6.66-6.57,13.91-11.11,23.76-9.17,4.68,1.07,6.71,3.59,6.5,8.78-1.31,33.54-2.33,67.09-3.42,100.64-.18,5.61-2.24,7.85-7.85,7.51s-12,2-15.38-4.92l2.78-79.63Z"/><path class="cls-6" d="M109.15,158.16c4.37.76,6.38,3.23,6.73,7.79,2.56,33.32,5.29,66.64,8,100,.46,5.77-1.56,8.44-7.42,8.61-4.89.14-10.31,2.73-14.53-2.08a9.87,9.87,0,0,1-1-1.7,8.6,8.6,0,0,0-.59-1.82q-13.23-22.32-26.53-44.61c-.35-.59-.54-1.61-1.64-1.33v7c1.15,13,2.25,25.94,3.47,38.9.65,6.89-.82,9.15-7.83,9.54-5.22.29-11.41,3.22-14.92-3.73-.79-10.45-1.57-20.89-2.39-31.34q-2.87-36.58-5.76-73.16c-.35-4.5,2-6.75,6.36-7.2,3.29-.34,6.68.19,9.87-1.07,3.63.89,6.32,2.54,6.66,6.82.12,1.54,1.19,3.06,2,4.47q9.74,16.51,19.56,33L96,217.4a5.78,5.78,0,0,0,.63-3.52c-1.24-15.53-2.55-31.06-3.71-46.6-.42-5.56,1.72-7.78,7.36-8.28C103.23,158.73,106.19,158.44,109.15,158.16Z"/><path class="cls-6" d="M504.18,148.83c6.51,3.87,12.36,8.44,16.12,15.2,5.76,10.36,4.21,21.8-4.51,31.73-1.72,2-2.26,3,0,5,4.9,4.55,6.73,10.44,6.69,17.1-.06,8.32.17,16.64.28,25-.95,3.92.39,7.83.07,11.75-1,4-3.51,6.1-7.68,6.11a61.84,61.84,0,0,0-7.41.06c-4.44.55-7.58-1.14-9.82-4.86,0-11.64.21-23.29,0-34.93-.11-5-2.46-8.92-7.77-10.3-4.28-2.45-8.8-.51-13.2-.6-2.64-.06-1.71,2.42-1.71,3.85q0,19.22.23,38.43c.06,6.58-1.79,8.62-8.5,8.47-5.36-.12-11.58,2-14.79-4.86.07-1.66.2-3.32.2-5q-.15-49.22-.32-98.44c0-6.23,2.05-8.28,8.34-8.31a207,207,0,0,1,42.6,3.83l-.06,0C503,148.83,503.53,148.89,504.18,148.83Zm-10.34,20.23c.1-.84-.39-1-1.08-1-5-1.62-10.14-1.64-15.26-2.16-2-.2-2.63.46-2.56,2.44.17,5.15.18,10.3.25,15.46.31,1.72-1.44,4.87,1.39,4.86,7.36,0,15.09.5,20.85-5.71,4.75-5.12,3.19-11.17-3.64-13.88Z"/><path class="cls-6" d="M912.2,162c3.38,2.42,7,4.59,10.09,7.3,7.46,6.47,12.08,14.53,12.58,24.61a209.08,209.08,0,0,1-4.2,52.12A37.62,37.62,0,0,1,888,275.7c-6.9-1.07-13.84-1-20.74-1.51-3.84-.3-6.7-1.31-8.69-4.58q4.16-52.93,8.32-105.87c.35-4.45,3.11-6.73,7.54-6.29,11.86,1.17,23.81,1.43,35.59,3.44l0,0C910.25,162.12,911.25,162,912.2,162ZM903.94,183c0-.89-.57-1.08-1.31-1.06-3.31-2.43-7.35-1.59-11-2.49-2.24-.55-3,.26-3.16,2.37-.27,4.15-.64,8.28-1,12.43q-2.1,27.57-4.18,55.15c-.17,1.55-1.12,3.23,1.16,4.2,9.72,4.14,21.06-1,23.42-11.13a170.71,170.71,0,0,0,4-48c-.28-5.18-2.78-9.43-8-11.48Z"/><path class="cls-6" d="M494.42,281.45c4.4.51,6.62,2.54,6.65,7.4.18,30.77.57,61.55.89,92.32.06,6.25-1.57,7.87-7.87,7.93-2,0-4-.07-6,.1-3.58.3-6.1-1-7.45-4.42q0-35.94,0-71.89l-1.83-.75-5.08,5.76c-3.82,2.44-6.86,5.78-10.15,8.82-3.54,3.28-6.69,3.38-10.48.28l-16.62-13.66c0,6.14,0,11.55,0,17q.22,26,.48,52c0,5.76-1.77,7.72-7.73,7.48-4.26-.17-9.1,1.87-12.52-2.52a11.41,11.41,0,0,1-1.06-2.17c.05-1.66.17-3.32.15-5q-.44-44.94-.9-89.87c-.06-6.16,1.7-7.89,8-8.06,2.49-.07,5-.22,7.46-.34,5,1.59,7.85,6,11.8,9,3.57,2.68,6.47,6.2,10.41,8.44,4.84,5.71,4.85,5.73,10.14,1.06,3.59-3.17,7.43-6.13,10.63-9.66C479.07,284.29,485.52,280.21,494.42,281.45Z"/><path class="cls-6" d="M823,248.41c-8.78-.55-17.57-1-26.34-1.72-2.58-.21-3.44.91-4.17,3.06-1.54,4.55-3.39,9-5,13.51-1.43,4.05-4.23,5.69-8.4,5.22-4.9-.55-10.5.61-13.19-5.39q19.18-52,38.31-103.92c1.48-4,4-5.84,8.24-5.58,3.15.2,6.32.15,9.48.22,4,.8,6.15,3.07,7.1,7.19,7.23,31.34,14.63,62.64,22,93.94.1.41.53.74.81,1.11-.07,4.09,1.54,7.85,2.32,11.78-5.21,6.81-16.07,6.68-21.23-.25-1-4.49-2.23-8.94-2.89-13.47C829.43,249.77,827.48,247.68,823,248.41Zm-19.82-26.76c-1.72,2.77-1.86,4.43,2.31,4.41a123.23,123.23,0,0,1,13.39.86c3.53.37,5-.53,3.74-4.3-.92-2.82-1.46-5.77-2.16-8.67q-2.72-11.31-5.43-22.61l-1,.07-2.23,7.53C808.27,206.27,805.77,214,803.18,221.65Z"/><path class="cls-6" d="M326.43,146.45c3.87.52,6,2.72,7.26,6.45q16.9,50.5,34,100.92c1.57,4.66-.73,8-5.7,8.37-2,.15-4,.12-6,.36-4.13.49-7-1.29-8.91-4.79-1.44-4.67-3-9.29-4.27-14-.92-3.51-2.85-4.43-6.1-3.26-9,.19-18,.45-27,.54-2.35,0-3.54.67-4.07,3.19-1,4.87-2.56,9.63-3.81,14.46-1,3.7-3.34,5.72-7.09,5.81-5.25.12-11.17,2.13-14.37-4.45Q294.71,206.41,309,152.77c1-3.9,3.47-5.82,7.51-5.89C319.8,146.82,323.12,146.6,326.43,146.45Zm-6.49,45.86a159.3,159.3,0,0,0-6,22.54c-2.09,3.63-1.47,5.39,3.14,5,4.46-.33,9-.4,13.43-.33,3.43.05,3.83-1.14,2.7-4.17-2.32-6.2-4.27-12.54-6.41-18.81-1.38-4-2.84-8-4.74-13.39C321.06,187.24,319.82,189.6,319.94,192.31Z"/><path class="cls-6" d="M578.38,144.46c3.25.63,5.76,1.9,6.79,5.53q14.48,51.13,29.14,102.21l.81,1.77c.1.51-.18,1.34.88,1l-.13-.12c-1,5.23-3.16,7-8.52,7-5,0-10.45,1-13.22-5-1.19-4.6-2.6-9.15-3.49-13.81-.72-3.77-2.58-5-6.15-4-9.12-.27-18.25-.44-27.36-.86-2.39-.11-3.17,1-3.76,2.91-1.43,4.75-3,9.47-4.46,14.21-1.17,3.82-3.65,5.79-7.69,5.57-5-.27-10.9,1.68-13.72-4.87q16.81-53.28,33.63-106.55c1-3.27,3.41-4.76,6.76-4.82Zm-15.51,68.26c-2,3.07-1.74,4.81,2.5,4.75,5-.08,10,.1,15,.2,1.79,0,2.91-.28,2.24-2.54-3.26-11.13-6.44-22.27-9.92-34.34l-3.26,9.88Z"/><path class="cls-6" d="M980.72,231.94c-4.32-1.61-8.62-3.29-13-4.82a37.12,37.12,0,0,1-12.92-8.1l-1.07-1,.06.08c0-.7-.32-1.09-1.07-1L953,217l-.24.13c.13-.75.11-1.36-.94-1.06v0c-1.52-6.18-1.3-12.45-.76-18.7,1.74-20.16,13.44-30.49,33.64-29.64,3.76.16,7.5.81,11.26,1.24l0,0c.13,1,.82,1,1.58.91,3.82,2.36,7.65,4.7,10.81,8,3.82,3.92,6.44,8.38,7,14,.42,4.37-3.94,8.35-8.33,8.73-9.12.79-14.79-4.6-20.42-10.27-3.91-3.94-8.76-2.88-10.31,2.54a43.69,43.69,0,0,0-1.44,10.35c-.12,2.92.78,4.47,3.8,5.35a74,74,0,0,1,20.25,9.22c6.33,4.18,10.54,9.25,11.49,17.07a76.23,76.23,0,0,1-.71,24.83c-3.29,16-17.16,25.55-33.86,23.91-10.94-1.07-20.71-4.55-28.72-12.31-.09-.71-.42-1.19-1.2-1.23l0,.06c0-.72-.19-1.19-1-1l0,0a42.94,42.94,0,0,1-3.06-20.71,7.6,7.6,0,0,1,2.18-4.63c3.76-4.45,8.72-1.78,13-2.79l0,0c.06.81.58.82,1.19.71,5,1.26,7.79,4.88,7.69,9.77,0,2.15.17,4.31.27,6.46,1.89,4,5.95,4.38,9.47,5.35,5,1.38,8.37-.75,9.62-5.72,1.42-5.64,1.72-11.42,1.94-17.22C987.34,235.37,985.51,232.62,980.72,231.94Z"/><path class="cls-6" d="M911.06,298.87c14.56,8.26,21.22,20.63,20.43,37.46-.69,14.62-1.08,29.23-5.35,43.36-4.6,15.21-19.74,25.06-35.61,23.59-7.08-.65-14.18-1.19-21.29-1.44-3.88-.14-6.72-1.39-8.39-5q3.64-47.79,7.27-95.59c.41-5.37,2.85-7.89,7.89-7.16,11,1.6,22.25.91,33.12,3.64l-.08,0A1.72,1.72,0,0,0,911.06,298.87ZM901.79,317l.09,0a1,1,0,0,0-1.11-1c-11.55-3.79-12.09-3.43-13,8.46-.08,1.16-.27,2.3-.34,3.46-1,16.85-3.06,33.63-3.45,50.52-.24,1.56-1.12,3.22,1.21,4.14,8.93,3.52,19-1,21.1-10a153.36,153.36,0,0,0,3.51-45c-.28-4.39-2.41-8.09-7.06-9.61h0C903.06,317.11,902.53,317,901.79,317Z"/><path class="cls-6" d="M169.13,219.34q-8-1.59-16-3.17a29.56,29.56,0,0,1-15.43-8.28l-1-.89.06.08c0-.7-.28-1.12-1.05-1v0c-.83-4.72-1.91-9.4-2.46-14.15-2.33-20.18,7.21-33.37,26.35-36.77,6.18-1.1,12.21.39,18.3.74l0,0c0,1.25,1.09,1.06,1.84,1.29,7.18,3.76,13.52,8.32,16,16.61,1.32,4.44-2.42,9.51-7.08,10.14-7,1-13.24.38-18.19-5.77-1.92-2.38-4.94-4.39-8.83-2.67s-4.52,4.91-4.58,8.54a29.45,29.45,0,0,0,1,9.85c.22,3.32,3,3.87,5.3,4.35,6.82,1.41,13.7,2.51,20.56,3.73l-.07,0c.12.68.57.86,1.19.79,13.19,6.15,14,18.66,15.69,30.69.25,1.8.05,3.66.17,5.48,1.33,21.27-14.1,29.94-28.1,31.76-13,1.7-25.17-.84-35-10.48a1.13,1.13,0,0,0-1.12-1.1l0,.07c0-.72-.16-1.2-1-1v0c-.93-4.67-2.83-9.07-3.47-13.85-.94-7.06,2.18-11.08,9.22-11.45,2.28-.12,4.68.32,6.81-1,7.22,2,8.13,8.11,9.1,14.15,1.39,4.93,5.94,4.22,9.35,4.75,6.46,1,9.54-1.9,10-8.42.36-5.47-.52-10.87-1.07-16.29C175.31,222.11,173.32,219.59,169.13,219.34Z"/><path class="cls-6" d="M382.22,285.87c13.06,7.23,20.25,17.95,21.22,33.17.93,14.64,1.73,29.23-.5,43.79-3.68,24.07-32.73,36.38-52.92,22.43-3.13-2.16-6-4.67-9-7-1.34-4.39-4.28-8.08-5.12-12.76a182.53,182.53,0,0,1-1.24-53.66c1.84-15.86,16.24-27,29.14-28.67,5.79-.76,11.19.95,16.74,1.71l0,0A1.52,1.52,0,0,0,382.22,285.87ZM373.95,305c0-.76-.52-1-1.21-1-7.23-3.31-15.22.53-16.66,8.53-2.61,14.51-1.79,29.12-.31,43.69.39,3.9.46,8.06,4.21,10.71,3.05,3.76,6.91,6,11.74,4.49,5-1.52,9.13-4.87,9.94-10.19a142.53,142.53,0,0,0-.75-48,10.12,10.12,0,0,0-7-8.23Z"/><path class="cls-6" d="M421.77,147.12a43.75,43.75,0,0,1,12.5,9.58c4.25,4.76,3.86,10.54,3,16.05-.54,3.65-9.57,6.43-13.37,4a44,44,0,0,1-10.27-9.18c-3-3.67-5.15-4.88-9.15-2.52a17,17,0,0,0-7.94,10.45c-2.24,8.44-1.89,17.11-1.71,25.74,0,.33.62.65,1,1-1.12,3.5.82,7.21-.74,10.67.23,8.86-.49,18,6.72,25,2.68,3.79,6.31,5.4,10.8,4.07a13,13,0,0,0,9.14-9.74c2.07-8.83.14-11.47-6.65-10.57-4.87-.3-10.3,1-13.19-4.78a21.48,21.48,0,0,0,.08-4c-1.14-7,3.41-10.36,10-10,7.8.38,15.64-.19,23.46-.35,4.38,1,6.87,3.19,6.69,8.15-.22,6.13-.73,12.43.33,18.39,2.92,16.48-18,34.5-35,32.36-8.52-1.07-15.35-4.81-21.52-10.35l-1.11-1,.06.07c0-.68-.36-1.07-1.09-1l0,.05c.06-.74-.22-1.16-1-1l0,0c.14-.79,0-1.31-1-1v0c-1.57-5.17-5.08-9.52-5.91-15.06a195.47,195.47,0,0,1-.59-56.23c2.25-16,13.72-27.64,28.33-30.51,5.52-1.09,10.88.45,16.31.69l0,0C420,147.07,421,146.93,421.77,147.12Z"/><path class="cls-6" d="M991.12,304.9a61.68,61.68,0,0,1,10,7.42c6.61,6.4,10.49,14,10.71,23.34a195.36,195.36,0,0,1-5.23,49.37c-2.94,12.58-17.71,25.12-32.47,24.41-9.87-.47-18.2-2.68-25.26-9.5l-1-.9.06.06c-.23-.89-.64-1.56-1.72-1.42l.06,0c0-.76-.16-1.25-1.06-1l0,0c.25-1.15,0-1.91-1.39-1.69L944,395l-.23.11c-.42-4.12-3.48-7.25-4-11.48-2.22-19.43.06-38.44,5-57.2,3.64-13.94,13.55-21,27.13-23.9,6-1.29,11.48.67,17.2,1.28l-.06,0C989.34,304.84,990.19,304.94,991.12,304.9ZM982.9,324c0-1-.58-1.12-1.34-1.1-7-3-14.24.5-16.4,8.64-3.94,14.89-5.23,30.14-5,45.51.05,3.38.95,6.6,3.87,8.82,6.91,7.61,17.65,5.44,21.37-4.38a55.74,55.74,0,0,0,3-14.1c1.15-11.23,3.41-22.43,1.7-33.78-.66-4.38-2.72-8.06-7.31-9.63Z"/><path class="cls-6" d="M857.05,396.31c-5.76,6.16-15.77,5.49-20-1.33-.81-4-1.84-8-2.38-12s-2.68-5.62-6.64-4.87c-7.76-.47-15.54-.77-23.28-1.49-3-.28-4,.94-4.84,3.46-1.19,3.77-2.77,7.42-4,11.17-1.43,4.22-4.25,6-8.67,5.48s-9.13.25-11.35-5c10.61-29,21.62-57.9,31.6-87.14,3.39-9.93,7.48-16.29,19-13.78,3.61.79,6.18,2.37,7.13,6.45,6.83,29.34,13.83,58.65,20.78,88Zm-46.9-43.44c-2.32,3.66-1,4.9,3,4.91s8.26.41,12.39.7c1.84.13,3.31.31,2.62-2.47-2.51-10.12-4.87-20.29-7.29-30.43H820l-2.83,8.32Z"/><path class="cls-6" d="M154.09,292.34c4,.42,6.36,2.41,6.47,6.67.06,2.16.35,4.31.43,6.47.15,4-2,6.11-5.86,6.42-8.95.71-17.9,1.46-26.86,1.93-2.94.16-4.24.76-3.66,4s.58,6.61.83,9.92c.25,2.06-1,5.28,2.8,5,7.74-.56,15.55-.49,23.21-2,2.71.4,5.92,1.47,6.26,4,.55,4.14,2.35,8.53.36,12.65-1.1,2.29-3.33,3.35-6.17,3.45-7,.25-13.94.94-20.92,1.29-2.85.14-4.08.86-3.68,4.15.9,7.43,1.31,14.91,1.93,22.37.2,2.19-1.3,5.42,3.1,5l28.09-2.38c4.41.53,7,2.64,6.71,7.45a37.62,37.62,0,0,0,.43,5.47c.39,4.12-1.79,6.33-5.6,6.64-15.42,1.25-30.85,2.31-46.27,3.48-3.53.27-5.51-1.57-6.78-4.55-.42-7-.77-13.93-1.28-20.89-1.84-25-3.77-50.05-5.56-75.08-.42-5.88,1.45-7.6,7.33-8C124.28,294.7,139.18,293.5,154.09,292.34Z"/><path class="cls-6" d="M769.79,387.06c-8.25,4.23-16.82,7.24-26.24,7.32a53.5,53.5,0,0,1-33.77-11.09c-2.62-2-5.18-4.08-7.77-6.12.17-.83,0-1.38-1-1.33l0,0c.13-.79.06-1.38-1-1h0c-.51-4.77-3.47-8.76-4.15-13.55a126.44,126.44,0,0,1,.56-36.73c3.16-21.15,14.09-32.69,38.16-37.21,10.06-1.89,19.8.43,29.33,3.61l0-.08c-.14.7.19,1,.86.91,3.71.85,6.48,3.38,9.24,5.66,2.28,1.88,2.13,4.7.12,7-1,1.12-2.3,1.93-3.28,3-5.42,6.14-10.88,9.39-19.2,3.91-4.7-3.09-10.9-2.41-16.51-.76-7.43,2.18-12.38,6.35-13.65,14.61a138.9,138.9,0,0,0-1.37,30.83c.25,3.57,1.49,6.82,4.86,8.78a1.48,1.48,0,0,0,1.52,1h0c8,7,17,7.29,26.39,3.41,1.83-.75,3.52-1.87,5.58-1.94,3.75.25,5.35,3.21,7.36,5.72s4,4.7,6,7A8.11,8.11,0,0,1,769.79,387.06Z"/><path class="cls-6" d="M315.92,290.93c1.55.94,3.12,1.85,4.64,2.83,3.21,2.08,3.29,4.93,1.15,7.57a102.81,102.81,0,0,1-8.88,9.43c-2.57,2.47-5.48,2.21-8.68.73-9.59-4.42-18.64-3.18-27.24,2.9-4.13,2.92-5.36,7.13-5.7,11.64-.77,10.12-.81,20.27,1,30.31.57,3.21,1.22,6.63,4.72,8.29a1.62,1.62,0,0,0,2.12,1.17l0,0c6.07,6.15,18,7,27.07,1.83a15.7,15.7,0,0,1,6.37-2.45c6.39,2.17,9.6,7.9,13.34,12.74,1.6,2.06-.06,5-2.91,6.93a53.5,53.5,0,0,1-59.57-.3c-2.87-2-5.5-4.27-8.24-6.42-.09-.7-.38-1.21-1.17-1.23l0,0c-1.88-4.57-4.5-8.82-5.63-13.71a116,116,0,0,1-2-37.18c.85-9,2.79-17.86,9.6-24.56,11.85-11.66,26.12-16.45,42.69-15,5.35.47,10.22,2.72,15.48,3.28l0,0C314.18,290.9,315.1,290.84,315.92,290.93Z"/><path class="cls-6" d="M218.78,293.16c6.48,3.52,12.46,7.5,14.67,15.17.94,3.25-1.22,8.14-4.26,9.38-5,2-13.29.17-17.33-3.79a20.85,20.85,0,0,0-3.84-3.07c-4.51-2.68-9.4-.42-9.83,4.74-.32,3.74-.86,7.61.8,11.26.1,3.42,2.89,3.72,5.21,4.23,6.27,1.38,12.59,2.55,18.89,3.8,12.12,5.49,13.34,16.79,14.82,27.91a43.28,43.28,0,0,1,.13,5.48c.07,17.93-10.84,29-28.86,29.73-11.13.44-21.08-2-29.23-10l-1.07-1,.05.07c0-.68-.18-1.19-1-1.07l0,0c-1.07-5.12-3.1-10-3.2-15.38-.08-4.07,2.48-6.37,5.4-7.41s6.53-.51,9.84-.66c4.14,1.29,7.4,3.3,7.09,8.39a5.53,5.53,0,0,0,1,3.71c1.9,5.54,6.93,4.72,11,4.88,3.55.14,6.07-2.12,6.57-6.09.65-5.15-.28-10.21-.57-15.31-.26-4.62-2.26-7.45-7-7.92-5.65-1.14-11.35-2-16.92-3.49-4.71-1.22-8.5-4.24-12-7.61-.11-.66-.27-1.28-1.15-1.18l0,0a91,91,0,0,1-2.06-19.18c.36-14.82,8.18-23.91,22.83-27.06,6.22-1.33,12.17.11,18.24.25l0,0C217,293.13,218,293,218.78,293.16Z"/><path class="cls-6" d="M563.15,286.72c9.37,5.56,17,12.52,17.76,24.26.86,13.2-11.07,27.2-25.34,29.82a109.55,109.55,0,0,1-15.85,1.77c-3.21.11-3.75,1.22-3.72,4.12.12,11.82,0,23.65-.08,35.47,0,5.11-2.08,7.09-7.27,7.1-2.16,0-4.34-.22-6.49,0-3.61.28-6.08-1.11-7.48-4.43q.27-47.42.55-94.85c0-5.94,2.17-7.94,8.18-7.91A197.57,197.57,0,0,1,562,286l-.05,0C562,286.67,562.51,286.81,563.15,286.72ZM553,304.89c.1-.78-.4-.86-1-.84-4.11-1.34-8.45-1.12-12.65-1.88-2.53-.45-3.17.66-3.1,2.94.12,4.27.08,8.54.11,12.81.16,2-1.72,5.08,2.35,5.11s8.36.19,12.27-1.26c4.32-1.61,8.38-4.26,8.43-9.32,0-3.7-2.32-6.74-6.46-7.58Z"/><path class="cls-6" d="M219.15,171.7c-3.12.06-6.26,0-9.36.23-3.95.35-6.61-1.15-8.12-4.77-.13-2.8-.2-5.61-.39-8.41-.3-4.55,2.23-7.59,6.75-7.83,7.93-.41,15.88-.67,23.81-1.1,11.07-.6,22.13-1.31,33.19-2,5.85,2.2,9.72,12.91,6.32,18-1.27,1.89-3,3.38-5.71,3.36-4.14,0-8.3.69-12.44.57-3.41-.1-4.52.77-4.32,4.4,1.35,24.55,2.47,49.12,3.65,73.68.19,4,.14,8,.58,11.94.31,2.81-1.18,4.41-3,5.83-3.95,3.06-16.74,1.41-20.06-2.47-.1-.11-.09-.32-.13-.47-.07-3.32-.06-6.64-.22-10-1.23-25.21-2.52-50.42-3.72-75.63C225.66,170.59,225.78,170.58,219.15,171.7Z"/><path class="cls-6" d="M645.08,371.57c4.55.47,6.91,2.73,6.37,7.55-.22,2-.13,4-.21,6-.15,3.82-2.28,5.82-6,5.76q-26-.4-51.93-1c-3.06-.07-4.57-2.2-5.57-4.79q1.08-47.69,2.16-95.38c.13-5.76,2-7.59,7.88-7.57,2.32,0,4.65,0,7-.05,4.58.87,6.49,3.34,6.36,8.28-.63,25.24-.94,50.48-1.37,75.72-.58,2.52-1.39,4.91,2.85,4.94C623.46,371,634.27,371.35,645.08,371.57Z"/><path class="cls-6" d="M24.2,163.44c4.35.65,6.44,2.9,6.85,7.57,3,34.15,6.23,68.28,9.41,102.42.43,4.57-1.48,7.4-5.91,8a89.22,89.22,0,0,1-10.93,1c-3.11,0-5-2.19-6.52-4.66,0-1,.06-2,0-3Q12.43,223.6,7.75,172.43c-.42-4.55,1.54-7.13,6.06-7.76C17.26,164.18,20.74,163.84,24.2,163.44Z"/><path class="cls-6" d="M679,282.75c3.87.56,6.51,2.24,6.37,6.68q-1.47,47.46-2.92,94.91c-.2,6.2-1.92,7.76-8.37,7.47-4.89-.22-10.69,1.65-13.3-4.89q1.58-48.41,3.15-96.83c.18-5.56,2-7.31,7.59-7.3C674,282.79,676.53,282.76,679,282.75Z"/><path class="cls-9" d="M822,153.82c-3.16-.06-6.33,0-9.48-.22-4.25-.27-6.75,1.53-8.24,5.58q-19.06,52-38.31,103.92c-5-1-6.85-3.79-5.2-8.25Q779.32,204.42,798,154c1.33-3.61,3.68-5.35,7.46-5.22,3,.1,6,.26,9,.37C817.79,149.29,820.46,150.59,822,153.82Z"/><path class="cls-9" d="M578.38,144.46l-10.48.16c-3.36.06-5.73,1.55-6.76,4.82Q544.31,202.71,527.51,256c-1.85.46-3.17-.88-4.74-1.39.32-3.92-1-7.83-.06-11.75,1.72-.92,1.66-2.8,2.14-4.29q14.48-45.33,28.85-90.71c2.41-7.58,3.15-8.11,10.83-8,2.33,0,4.66.07,7,.06C574.86,139.84,577.2,141.28,578.38,144.46Z"/><path class="cls-9" d="M326.43,146.45c-3.32.15-6.63.37-9.95.43-4,.07-6.47,2-7.51,5.89Q294.72,206.41,280.43,260c-5.05-1.18-6.74-3.62-5.52-8.21q13.72-51.74,27.47-103.48c1.08-4.09,3.52-6.2,7.74-6.28,3.16-.06,6.32-.18,9.48-.19S325.35,143.13,326.43,146.45Z"/><path class="cls-9" d="M854.19,267.83c-.78-3.92-2.38-7.69-2.32-11.78,2-4.55,1.5-9.48,1.9-14.22,2.28-27.38,4.34-54.77,6.36-82.17.33-4.41,2.41-7.14,6.72-6.92,10.3.55,20.6,1.29,30.84,2.54,4.47.54,9,1.93,12.33,5.59-11.78-2-23.73-2.27-35.59-3.44-4.42-.44-7.19,1.85-7.54,6.29q-4.17,52.94-8.32,105.87Z"/><path class="cls-9" d="M154.09,292.34c-14.91,1.16-29.81,2.36-44.72,3.45-5.88.43-7.75,2.16-7.33,8,1.79,25,3.73,50.05,5.56,75.08.51,7,.86,13.93,1.28,20.89-4.49-.3-6.28-3-6.58-7.19q-2.07-29.38-4.25-58.76c-.85-11.78-1.68-23.57-2.57-35.35-.33-4.31,1.7-7.12,6-7.45,15.1-1.14,30.21-2.14,45.32-3.25C150.37,287.54,152.77,289,154.09,292.34Z"/><path class="cls-9" d="M502.91,148.06a207,207,0,0,0-42.6-3.83c-6.29,0-8.36,2.08-8.34,8.31q.15,49.22.32,98.44c0,1.66-.13,3.32-.2,5-4.12-.39-6.1-2.55-6.12-6.8q-.26-50.93-.63-101.87c0-5.27,2.23-7.55,7.47-7.58,13.32-.08,26.64-.13,39.69,3.11C496.32,143.78,500.27,144.67,502.91,148.06Z"/><path class="cls-9" d="M769.79,387.06a8.11,8.11,0,0,0,2-7q16.34-44.58,32.65-89.18c1.33-3.66,3.77-5.25,7.55-5,3,.21,6,.39,8.94.66,2.68.25,4.71,1.43,5.5,4.21-11.52-2.5-15.6,3.85-19,13.78-10,29.24-21,58.12-31.6,87.14C772.53,391.85,771,389.72,769.79,387.06Z"/><path class="cls-9" d="M562,286A197.57,197.57,0,0,0,523.41,282c-6,0-8.14,2-8.18,7.91q-.31,47.43-.55,94.85c-4.5-.59-6.62-3-6.57-7.68q.49-46.43.76-92.86c0-4.32,2-6.86,6-6.86,12.81,0,25.63.37,38.13,3.63C556.37,281.87,559.77,282.93,562,286Z"/><path class="cls-9" d="M857.05,396.31l-2.69-11.13c2.1-7.6,1.75-15.48,2.42-23.23,1.91-22,3.42-44.05,5.09-66.09.38-5,2.67-6.82,7.76-6.37,8.91.78,17.86,1.29,26.73,2.35,4.75.57,9.3,2.23,12.74,5.93-10.87-2.73-22.11-2-33.12-3.64-5-.73-7.48,1.79-7.89,7.16q-3.62,47.79-7.27,95.59Z"/><path class="cls-9" d="M69.39,303.94c-13.8-4.66-27.64-.82-41.43,0-3.92.23-5.33,3.31-5,7.19q1.79,19.35,3.45,38.7,2.43,28.29,4.77,56.58c-4-.4-6-2.33-6.37-6.64-2.68-31.31-5.55-62.6-8.39-93.9-.38-4.15,1.79-6.47,5.48-6.85,9.42-1,18.86-1.83,28.32-2.12A27.29,27.29,0,0,1,69.39,303.94Z"/><path class="cls-9" d="M314.1,289.76c-5.27-.56-10.13-2.81-15.48-3.28-16.57-1.45-30.84,3.33-42.69,15-6.81,6.7-8.76,15.57-9.6,24.56a116,116,0,0,0,2,37.18c1.13,4.89,3.75,9.14,5.63,13.71-7.36-3.77-10-10.82-11.84-18.05a103.16,103.16,0,0,1-1-45.47c3.1-15.61,14-24.09,28-29s28.13-3.86,41.6,2.76C312,287.77,313.64,288,314.1,289.76Z"/><path class="cls-9" d="M764,291c-9.54-3.18-19.28-5.5-29.33-3.61-24.06,4.52-35,16.06-38.16,37.21a126.44,126.44,0,0,0-.56,36.73c.68,4.79,3.63,8.77,4.15,13.55-7.62-4.55-9.6-12.32-10.86-20.14-2.23-13.78-.91-27.49,2.06-41.07,3.52-16.09,14.47-24.92,29.4-29.41,13.81-4.16,27.28-2.58,40.09,4.08C761.94,288.91,763.73,289.06,764,291Z"/><path class="cls-9" d="M615.13,254l-.81-1.77c1.61-7,1.22-14.2,1.48-21.31,1-26.79,1.67-53.59,2.58-80.38.29-8.59,1.69-9.78,10.11-9.62a30.23,30.23,0,0,0,4,.06c4.28-.5,7.36,1.31,9.66,4.77-3,0-6,0-9,0-6.07-.07-8,1.81-8.18,7.83q-1.71,52.14-3.47,104.27c-2.51.23-3.67-2.11-5.62-2.93l.13.12Z"/><path class="cls-9" d="M420,145.9c-5.44-.24-10.79-1.78-16.31-.69-14.61,2.88-26.08,14.51-28.33,30.51a195.47,195.47,0,0,0,.59,56.23c.83,5.54,4.34,9.89,5.91,15.06-7.93-4.92-11.3-12.82-12.57-21.37-2.76-18.5-3.21-37.13-.25-55.69,3.6-22.59,26.9-36.05,46.69-27.09C417.29,143.59,419.27,143.91,420,145.9Z"/><path class="cls-9" d="M989.09,303.79c-5.71-.62-11.24-2.57-17.2-1.28-13.57,2.94-23.48,10-27.13,23.9-4.9,18.76-7.18,37.77-5,57.2.48,4.22,3.53,7.36,4,11.48-6.65-3.91-9.84-10.24-10.55-17.43a142.49,142.49,0,0,1,6.16-59.19c6.39-19.31,32.16-27.32,48.9-15.84A4.2,4.2,0,0,1,989.09,303.79Z"/><path class="cls-9" d="M24.2,163.44c-3.47.4-6.94.74-10.39,1.22-4.52.64-6.47,3.21-6.06,7.76q4.67,51.17,9.33,102.35c.09,1,0,2,0,3-4-.84-6-2.94-6.39-7.39-3-34-6.35-67.9-9.55-101.84-.55-5.8,1.54-8.23,7.27-8.78,2.65-.25,5.29-.54,7.94-.84C20.12,158.48,22.77,159.9,24.2,163.44Z"/><path class="cls-9" d="M61,161.89c-3.19,1.26-6.58.73-9.87,1.07-4.33.45-6.71,2.7-6.36,7.2q2.84,36.58,5.76,73.16c.82,10.45,1.59,20.89,2.39,31.34-4.55-.89-6.46-3.56-6.82-8.29-2.48-32.77-5.18-65.53-7.84-98.29-.6-7.4,1.16-9.74,8.65-10C51.84,157.94,57.7,155.4,61,161.89Z"/><path class="cls-9" d="M380.52,284.87c-5.56-.76-10.95-2.47-16.74-1.71-12.9,1.69-27.3,12.81-29.14,28.67a182.53,182.53,0,0,0,1.24,53.66c.84,4.68,3.77,8.37,5.12,12.76-5.66-4-9.64-9.15-11.09-16-4.19-19.78-4.77-39.75-.68-59.49C333.79,280.68,364,270.47,380.52,284.87Z"/><path class="cls-9" d="M679,282.75c-2.5,0-5,0-7.49,0-5.62,0-7.41,1.73-7.59,7.3q-1.56,48.42-3.15,96.83c-4.34-.4-6.5-2.63-6.36-7.14q1.47-46.56,2.87-93.13c.23-7.41,1.82-8.94,9.36-8.66C671.27,278.15,676.63,276.71,679,282.75Z"/><path class="cls-9" d="M604.8,282c-2.32,0-4.65.06-7,.05-5.87,0-7.75,1.81-7.88,7.57q-1.07,47.69-2.16,95.38c-4.53-.12-6.49-2.48-6.39-7q1-46.57,1.94-93.15c.12-5.81,2.1-7.76,8-7.3C596.09,278,601.94,275.61,604.8,282Z"/><path class="cls-9" d="M430.37,281.82c-2.49.12-5,.27-7.46.34-6.27.17-8,1.89-8,8.06q.44,44.94.9,89.87c0,1.66-.1,3.32-.15,5-4.49-.14-6.47-2.48-6.51-6.93q-.38-46.65-.85-93.31c0-5.19,1.85-7.21,7.19-7.11S426.73,275.75,430.37,281.82Z"/><path class="cls-9" d="M219.15,171.7c6.63-1.12,6.51-1.12,6.82,5.36,1.2,25.21,2.49,50.42,3.72,75.63.16,3.31.15,6.64.22,10-4.63-.88-6.46-3.71-6.66-8.38-1-24.38-2.19-48.76-3.35-73.14C219.76,178,219.41,174.84,219.15,171.7Z"/><path class="cls-9" d="M178,155.9c-6.1-.35-12.13-1.84-18.3-.74-19.13,3.41-28.68,16.59-26.35,36.77.55,4.75,1.62,9.44,2.46,14.15-4.66-1.5-6.58-5.38-7.6-9.59a65.43,65.43,0,0,1-1-22.83c1-9,6.5-15.07,14.28-19.18,10.46-5.52,21.25-6.11,32.21-1.58C175.31,153.56,177.31,153.85,178,155.9Z"/><path class="cls-9" d="M996,168.95c-3.75-.43-7.49-1.08-11.26-1.24-20.19-.86-31.89,9.47-33.64,29.64-.54,6.25-.76,12.52.76,18.7-5.52-2.12-7.27-6.87-7.66-12a61.77,61.77,0,0,1,3-23.55c2.47-7.71,8.08-12.54,15.42-15.13C974.21,161.25,985.58,161.11,996,168.95Z"/><path class="cls-9" d="M687.21,186.45l7.39-6.16-2.78,79.63c-4.47-.67-6.45-3-6.25-7.76.85-20.77,1.47-41.55,2.17-62.32C687.77,188.67,687.95,187.48,687.21,186.45Z"/><path class="cls-9" d="M217,291.92c-6.07-.14-12-1.58-18.24-.25-14.65,3.15-22.47,12.24-22.83,27.06A91,91,0,0,0,178,337.91c-5.37-1.73-6.94-6.3-7.69-11.07a61.77,61.77,0,0,1-.31-19.33c1.3-8.31,6.36-13.63,13.43-17.4C194.48,284.2,209.5,285,217,291.92Z"/><path class="cls-9" d="M109.15,158.16c-3,.28-5.92.57-8.88.83-5.64.5-7.77,2.73-7.36,8.28,1.16,15.54,2.47,31.07,3.71,46.6A5.78,5.78,0,0,1,96,217.4l-6.78-11.25c.58-9.63-1.2-19.12-1.72-28.68-.29-5.31-.86-10.61-1.35-15.91A5.48,5.48,0,0,1,87.53,157C91.84,152.18,105.28,152.83,109.15,158.16Z"/><path class="cls-9" d="M265,147.85c-11.06.66-22.12,1.37-33.19,2-7.93.43-15.87.69-23.81,1.1-4.52.23-7.05,3.28-6.75,7.83.19,2.8.26,5.61.39,8.41-4.24-.45-6.62-2.6-6.55-7.08,0-2-.12-4-.16-6-.1-5.5,2-7.76,7.65-8,18.46-.87,36.92-1.66,55.38-2.61C261.55,143.27,263.48,145.11,265,147.85Z"/><path class="cls-9" d="M473.75,317.9l5.08-5.76,1.83.75q0,35.95,0,71.89c-4.8-.61-6.61-3.34-6.6-8.14C474.08,357.06,473.87,337.48,473.75,317.9Z"/><path class="cls-9" d="M712,147.9c-9.85-1.94-17.1,2.6-23.76,9.17-3.65,3.6-7.89,6.6-11.84,9.9-5.61,4.68-5.61,4.69-10.57-1,8.51-7.13,16.92-14.39,25.59-21.33C695.89,141,708.25,143.22,712,147.9Z"/><path class="cls-9" d="M494.42,281.45c-8.9-1.24-15.35,2.84-21.07,9.16-3.2,3.53-7,6.49-10.63,9.66-5.29,4.67-5.31,4.66-10.14-1.06,7.55-6.94,15-14.05,22.72-20.75C479.91,274.48,491.62,276.59,494.42,281.45Z"/><path class="cls-9" d="M490.07,210.68c5.31,1.38,7.66,5.32,7.77,10.3.25,11.64,0,23.28,0,34.93-4.46-.76-6.43-3.38-6.41-7.92.06-9.83-.12-19.66-.11-29.48A21.28,21.28,0,0,0,490.07,210.68Z"/><path class="cls-9" d="M435.41,202.45c-7.82.16-15.67.73-23.46.35-6.55-.32-11.1,3.06-10,10a21.51,21.51,0,0,1-.08,4c-3.1.12-4.21-3.2-6.81-3.94,1.55-3.47-.38-7.18.74-10.67,2.37-3.15,5.46-4.25,9.43-4.15,7.25.19,14.51.07,21.76-.24C431,197.64,433.63,199.08,435.41,202.45Z"/><path class="cls-9" d="M957,240.85c-4.29,1-9.25-1.66-13,2.79a7.6,7.6,0,0,0-2.18,4.63A42.94,42.94,0,0,0,944.9,269c-5.16-2.21-7.31-6.76-8.8-11.68-1.21-4-1.17-8.17-1-12.32.29-5.84,4.75-9.84,10.52-8.62C949.6,237.21,955.11,234.73,957,240.85Z"/><path class="cls-9" d="M980.72,231.94c4.79.69,6.62,3.43,6.44,8.24-.22,5.81-.52,11.58-1.94,17.22-1.25,5-4.64,7.1-9.62,5.72-3.52-1-7.58-1.34-9.47-5.35,9.3,2.25,11.65.84,13.3-8.48A74.3,74.3,0,0,0,980.72,231.94Z"/><path class="cls-9" d="M169.13,219.34c4.19.26,6.17,2.77,6.58,6.67.56,5.41,1.43,10.81,1.07,16.29-.43,6.52-3.5,9.43-10,8.42-3.42-.53-8,.18-9.35-4.75a44.78,44.78,0,0,0,5.9,0c4-.5,6.6-2.41,6.74-7A145,145,0,0,0,169.13,219.34Z"/><path class="cls-9" d="M148.36,231.82c-2.13,1.28-4.52.84-6.81,1-7,.37-10.16,4.39-9.22,11.45.64,4.77,2.54,9.18,3.47,13.85-7.83-3.8-8.62-11.35-9.74-18.61-.41-2.64-1.05-5.32,1.4-7.85C132.74,226.16,142.9,226.08,148.36,231.82Z"/><path class="cls-9" d="M208,350.17c4.79.47,6.79,3.3,7,7.92.28,5.1,1.21,10.16.57,15.31-.5,4-3,6.23-6.57,6.09-4.08-.16-9.11.66-11-4.88,9.3.69,11.11-1,11.12-10.22A62.66,62.66,0,0,0,208,350.17Z"/><path class="cls-9" d="M189.94,362.52c-3.3.15-6.86-.4-9.84.66s-5.47,3.33-5.4,7.41c.1,5.38,2.13,10.26,3.2,15.38-3.77-1-5.31-4.11-6.87-7.16-1.85-3.61-2-7.68-2.85-11.55-1-4.55,2-7,5-8.77C177.81,355.77,186.29,358.11,189.94,362.52Z"/><path class="cls-9" d="M72.15,230v-7c1.1-.28,1.28.74,1.64,1.33q13.3,22.28,26.53,44.61a8.6,8.6,0,0,1,.59,1.82c-3.17-.55-5-2.43-6.58-5.29C87.8,253.86,80.89,242.49,74.15,231A1.91,1.91,0,0,0,72.15,230Z"/><path class="cls-9" d="M312.48,365.17a15.7,15.7,0,0,0-6.37,2.45c-9.06,5.2-21,4.32-27.07-1.83,8.19.53,16.05.49,23.45-4.45C306.29,358.8,310,361.46,312.48,365.17Z"/><path class="cls-9" d="M645.08,371.57c-10.81-.21-21.63-.53-32.44-.59-4.24,0-3.42-2.42-2.85-4.94,9.23.28,18.45.7,27.68.76C641.22,366.83,643.77,368,645.08,371.57Z"/><path class="cls-9" d="M160.4,381.3l-28.09,2.38c-4.4.38-2.9-2.85-3.1-5q12-.9,23.91-1.81C156.65,376.56,159.26,377.71,160.4,381.3Z"/><path class="cls-9" d="M758.47,367.31c-2.06.07-3.75,1.19-5.58,1.94-9.43,3.89-18.35,3.58-26.39-3.41,8,1.6,15.56,1.23,23.07-2.69C753.2,361.26,756.53,363.67,758.47,367.31Z"/><path class="cls-9" d="M151.44,330.77c-7.66,1.54-15.47,1.47-23.21,2-3.79.27-2.54-2.94-2.8-5,6.26-.41,12.53-.66,18.77-1.31C147.9,326.1,150.2,327.36,151.44,330.77Z"/><path class="cls-9" d="M823,248.41c4.48-.72,6.43,1.37,7.06,5.71.66,4.54,1.9,9,2.89,13.47-4-.81-6.21-3.15-7-7.24S824,252.38,823,248.41Z"/><path class="cls-9" d="M584.49,239c3.58-1,5.43.23,6.15,4,.89,4.65,2.3,9.21,3.49,13.81-3.57-.35-5.61-2.27-6.42-5.8C586.78,247,585.58,243,584.49,239Z"/><path class="cls-9" d="M828,378.08c4-.75,6.09.7,6.64,4.87s1.56,8,2.38,12c-3.47-.11-5.46-1.85-6.19-5.28C830,385.8,829,381.95,828,378.08Z"/><path class="cls-9" d="M336.74,240.5c3.24-1.18,5.17-.25,6.1,3.26,1.24,4.72,2.83,9.34,4.27,14a7.22,7.22,0,0,1-6.47-5.68C339.53,248.17,338.05,244.36,336.74,240.5Z"/><path class="cls-9" d="M184,201.93c-6.86-1.22-13.74-2.32-20.56-3.73-2.32-.48-5.09-1-5.3-4.35,6.34,1,12.75,1.75,18.9,3.73C179.72,198.45,182.25,199.57,184,201.93Z"/><path class="cls-9" d="M223.08,334.86c-6.3-1.25-12.62-2.42-18.89-3.8-2.32-.51-5.11-.81-5.21-4.23C207.37,328.44,216.42,328.06,223.08,334.86Z"/><path class="cls-9" d="M946.11,397.69c1.08-.14,1.49.53,1.72,1.42C946.92,399,946.21,398.73,946.11,397.69Z"/><path class="cls-9" d="M218.78,293.16c-.76-.21-1.78,0-1.82-1.26C218,291.7,218.66,292,218.78,293.16Z"/><path class="cls-9" d="M911.06,298.87a1.72,1.72,0,0,1-2-1.14A1.76,1.76,0,0,1,911.06,298.87Z"/><path class="cls-9" d="M912.2,162c-.95,0-1.95.07-2.22-1.19A1.87,1.87,0,0,1,912.2,162Z"/><path class="cls-9" d="M943.76,395.07c1.42-.22,1.64.54,1.39,1.69C944.08,396.7,943.32,396.37,943.76,395.07Z"/><path class="cls-9" d="M179.81,157.17c-.75-.23-1.8,0-1.84-1.29C179,155.66,179.73,156,179.81,157.17Z"/><path class="cls-9" d="M315.92,290.93c-.82-.09-1.74,0-1.86-1.2A1.32,1.32,0,0,1,315.92,290.93Z"/><path class="cls-9" d="M991.12,304.9c-.93,0-1.78-.06-2.09-1.15C990.07,303.51,990.65,304.09,991.12,304.9Z"/><path class="cls-9" d="M421.77,147.12c-.76-.19-1.74-.05-1.81-1.24C421,145.7,421.66,146,421.77,147.12Z"/><path class="cls-9" d="M279,365.81a1.62,1.62,0,0,1-2.12-1.17C277.78,364.77,278.83,364.54,279,365.81Z"/><path class="cls-9" d="M253.93,376.89c.79,0,1.09.53,1.17,1.23C254.45,378,253.88,377.72,253.93,376.89Z"/><path class="cls-9" d="M178.87,386.94l1.07,1C179.31,387.9,178.83,387.69,178.87,386.94Z"/><path class="cls-9" d="M947.77,399.05l1,.9C948.21,399.95,947.8,399.72,947.77,399.05Z"/><path class="cls-9" d="M701,375.83c1,0,1.18.5,1,1.33C701.42,376.91,700.88,376.63,701,375.83Z"/><path class="cls-9" d="M726.51,365.85a1.48,1.48,0,0,1-1.52-1A1.28,1.28,0,0,1,726.51,365.85Z"/><path class="cls-9" d="M700,374.81c1.05-.34,1.13.25,1,1C700.27,375.92,699.86,375.65,700,374.81Z"/><path class="cls-9" d="M177.95,337.89c.89-.1,1,.52,1.15,1.18C178.48,338.91,177.81,338.79,177.95,337.89Z"/><path class="cls-9" d="M945.1,396.73c.9-.24,1.11.25,1.06,1C945.44,397.79,945,397.5,945.1,396.73Z"/><path class="cls-9" d="M177.9,385.94c.84-.12,1,.39,1,1.07C178.24,387,177.67,386.84,177.9,385.94Z"/><path class="cls-9" d="M504.18,148.83c-.64.06-1.21,0-1.33-.8A1.09,1.09,0,0,1,504.18,148.83Z"/><path class="cls-9" d="M997.52,169.83c-.76.1-1.45.09-1.58-.91A1.26,1.26,0,0,1,997.52,169.83Z"/><path class="cls-9" d="M185.12,202.68c-.62.07-1.07-.11-1.19-.79A1,1,0,0,1,185.12,202.68Z"/><path class="cls-9" d="M135.79,206c.78-.08,1,.34,1.05,1C136.2,207,135.64,206.9,135.79,206Z"/><path class="cls-9" d="M136.78,207l1,.89C137.14,207.89,136.75,207.68,136.78,207Z"/><path class="cls-9" d="M951.83,216c1.05-.3,1.07.32.94,1.06C952,217.13,951.49,217,951.83,216Z"/><path class="cls-9" d="M952.77,217.07c.75-.07,1.05.33,1.07,1C953.17,218.07,952.66,217.9,952.77,217.07Z"/><path class="cls-9" d="M953.77,218l1.07,1C954.22,219,953.76,218.74,953.77,218Z"/><path class="cls-9" d="M958.18,241.54c-.6.11-1.13.1-1.19-.71C957.66,240.61,958,240.92,958.18,241.54Z"/><path class="cls-9" d="M381.85,247c1-.27,1.12.26,1,1C382,248.18,381.51,248,381.85,247Z"/><path class="cls-9" d="M382.81,248c.81-.12,1.09.3,1,1C383.09,249.12,382.62,248.9,382.81,248Z"/><path class="cls-9" d="M383.8,249c.72,0,1,.35,1.09,1C384.21,250,383.73,249.82,383.8,249Z"/><path class="cls-9" d="M384.82,250l1.11,1C385.31,250.94,384.84,250.7,384.82,250Z"/><path class="cls-9" d="M135.79,258.05c.86-.15,1.06.33,1,1C136.1,259.1,135.59,258.92,135.79,258.05Z"/><path class="cls-9" d="M136.77,259a1.13,1.13,0,0,1,1.12,1.1C137.26,260,136.73,259.82,136.77,259Z"/><path class="cls-9" d="M944.88,269c.84-.14,1.06.33,1,1C945.17,270,944.66,269.86,944.88,269Z"/><path class="cls-9" d="M945.86,269.94c.78,0,1.1.52,1.2,1.23C946.41,271,945.8,270.8,945.86,269.94Z"/><path class="cls-9" d="M382.22,285.87a1.52,1.52,0,0,1-1.73-1A1.62,1.62,0,0,1,382.22,285.87Z"/><path class="cls-9" d="M563.15,286.72c-.64.09-1.13-.05-1.23-.81A1,1,0,0,1,563.15,286.72Z"/><path class="cls-9" d="M764.78,291.79c-.67.05-1-.21-.86-.91Z"/><path class="cls-9" d="M51,384.09c10.28-.38,14.86-4.81,15-15.06.23-15.63-.36-31.21-5.19-46.29a11.5,11.5,0,0,1,7.69,8.48c3.3,15.16,5.19,30.5,3.62,46-.68,6.7-5.55,11-12.22,11.61a19.52,19.52,0,0,0-3.48.25C51.82,390.43,50.36,388.45,51,384.09Z"/><path class="cls-9" d="M475.19,183.78c3.63-.22,7.39-.25,10.67-1.89,5.17-2.58,8.82-6.39,7.93-12.85,6.83,2.71,8.4,8.76,3.64,13.88-5.77,6.21-13.5,5.7-20.85,5.71C473.75,188.65,475.5,185.5,475.19,183.78Z"/><path class="cls-9" d="M493.84,169.06c-.87.2-.93-.46-1.08-1C493.45,168,493.94,168.22,493.84,169.06Z"/><path class="cls-9" d="M883.33,249.36c11.1.88,16.44-3,18.67-13.82,2.81-13.67,3.73-27.55,3.87-41.48,0-3.83-1.08-7.45-2-11.12,5.21,2.05,7.71,6.3,8,11.48a170.71,170.71,0,0,1-4,48c-2.36,10.15-13.7,15.28-23.42,11.13C882.21,252.59,883.16,250.91,883.33,249.36Z"/><path class="cls-9" d="M903.94,183c-.9.21-1.07-.46-1.31-1.06C903.37,181.88,903.94,182.07,903.94,183Z"/><path class="cls-9" d="M811.76,198.95l2.23-7.53,1-.07q2.71,11.31,5.43,22.61c.7,2.9,1.23,5.85,2.16,8.67,1.23,3.77-.21,4.67-3.74,4.3a123.23,123.23,0,0,0-13.39-.86c-4.16,0-4-1.64-2.31-4.41,3.47.16,7,.07,10.4.55s3.38-.72,2.68-3.47C814.58,212.18,813.24,205.55,811.76,198.95Z"/><path class="cls-9" d="M319.94,192.31c-.12-2.71,1.12-5.07,2.09-9.11,1.9,5.35,3.36,9.35,4.74,13.39,2.14,6.27,4.09,12.61,6.41,18.81,1.14,3,.73,4.22-2.7,4.17-4.48-.07-9,0-13.43.33-4.61.34-5.23-1.41-3.14-5H328C325.21,206.84,323.35,199.31,319.94,192.31Z"/><path class="cls-9" d="M569.4,190.66l3.26-9.88c3.48,12.07,6.66,23.22,9.92,34.34.66,2.26-.46,2.58-2.24,2.54-5-.1-10-.28-15-.2-4.24.07-4.49-1.68-2.5-4.75,3.67,0,7.33.09,11,.08,1.08,0,2.8.2,2.24-1.61C574,204.31,573.4,196.92,569.4,190.66Z"/><path class="cls-10" d="M615.13,254l.88,1C614.94,255.31,615.23,254.48,615.13,254Z"/><path class="cls-9" d="M884,378.55c9.76.28,14.35-2.84,16.19-12.27,3.1-15.92,5-32,2.57-48.23,4.64,1.52,6.78,5.23,7.06,9.61a153.36,153.36,0,0,1-3.51,45c-2.13,9.06-12.16,13.56-21.1,10C882.93,381.77,883.81,380.12,884,378.55Z"/><path class="cls-9" d="M901.89,317.07c-.76.14-1-.34-1.11-1A1,1,0,0,1,901.89,317.07Z"/><path class="cls-9" d="M902.82,318c-.93.25-1-.35-1-1C902.53,317,903.06,317.11,902.82,318Z"/><path class="cls-9" d="M360,366.88c9.54.16,15.08-4.83,16-14.48a161.51,161.51,0,0,0-2.09-47.47,10.12,10.12,0,0,1,7,8.23,142.53,142.53,0,0,1,.75,48c-.82,5.31-4.92,8.66-9.94,10.19C366.89,372.84,363,370.64,360,366.88Z"/><path class="cls-9" d="M373.95,305c-.82.16-1-.41-1.21-1C373.43,304,373.9,304.21,373.95,305Z"/><path class="cls-9" d="M401.82,237.83c9.44-.72,13.73-6,13.28-16.23,6.79-.9,8.72,1.75,6.65,10.57a13,13,0,0,1-9.14,9.74C408.13,243.23,404.5,241.61,401.82,237.83Z"/><path class="cls-9" d="M964,385.87c8.58,0,13.91-3.83,15.8-12.1a164.08,164.08,0,0,0,4.13-43,52.89,52.89,0,0,0-1.12-6.77c4.59,1.57,6.65,5.25,7.31,9.63,1.71,11.35-.55,22.55-1.7,33.78a55.74,55.74,0,0,1-3,14.1C981.7,391.31,971,393.49,964,385.87Z"/><path class="cls-9" d="M982.9,324c-1,.25-1.09-.49-1.34-1.1C982.33,322.88,982.94,323,982.9,324Z"/><path class="cls-9" d="M817.13,333.88l2.83-8.32h.89c2.42,10.15,4.78,20.31,7.29,30.43.69,2.78-.78,2.6-2.62,2.47-4.13-.29-8.26-.7-12.39-.7s-5.3-1.25-3-4.91c3.15.28,6.29.54,9.44.86,2.11.22,2.66-.67,2.13-2.61C820.16,345.38,818.65,339.63,817.13,333.88Z"/><path class="cls-9" d="M536.39,317.92c3.68.07,7.35,0,10.63-2,4.1-2.54,6.79-5.86,6-11.06,4.14.84,6.5,3.88,6.46,7.58-.05,5.06-4.11,7.71-8.43,9.32-3.91,1.45-8.15,1.29-12.27,1.26S536.55,319.91,536.39,317.92Z"/><path class="cls-9" d="M553,304.89c-.71.17-.87-.31-1-.84C552.61,304,553.11,304.11,553,304.89Z"/></g></svg>